<svg width="995" height="71" viewBox="0 0 995 71" fill="none" xmlns="http://www.w3.org/2000/svg">
<path d="M410 56L698 56" stroke="#FFD600" stroke-width="10.7547"/>
<path d="M55.4128 35.936H69.0128V37.28H55.4128V35.936ZM55.4128 32.32H69.0128V33.632H55.4128V32.32ZM51.7328 29.856V39.744H72.8528V29.856H51.7328ZM47.9568 40.896V43.968H76.5648V40.896H47.9568ZM62.6128 45.152V48.096H73.0768V45.152H62.6128ZM52.8528 45.248V47.904H60.1488V45.248H52.8528ZM52.8528 49.248V51.904H60.1488V49.248H52.8528ZM66.5488 47.808L63.4768 48.672C65.6528 53.664 69.4608 57.248 74.9968 58.848C75.4768 57.952 76.4688 56.544 77.2688 55.872C72.1168 54.656 68.3408 51.712 66.5488 47.808ZM71.9568 45.152V45.696C70.5488 50.624 66.4208 54.304 61.4608 55.872C62.1648 56.576 63.1248 57.952 63.5408 58.848C69.2368 56.704 73.7488 52.608 75.6368 45.92L73.2688 45.024L72.6288 45.152H71.9568ZM47.6688 53.92L47.9248 57.216C51.2848 56.928 55.7648 56.512 60.0528 56.096V52.992C55.5728 53.376 50.8688 53.728 47.6688 53.92ZM58.1648 41.888V58.88H61.8448V41.888H58.1648ZM50.4528 41.984V55.04H53.9728V41.984H50.4528ZM98.9328 39.424V42.976H110.869V39.424H98.9328ZM81.5888 32V35.136H95.9888V32H81.5888ZM81.2688 44.736V47.968H95.9568V44.736H81.2688ZM81.1728 39.136V42.304H96.2448V39.136H81.1728ZM104.117 40.96V58.72H107.829V40.96H104.117ZM86.9328 29.088V33.408H90.6768V29.088H86.9328ZM86.9328 42.112V58.848H90.6768V42.112H86.9328ZM97.2048 31.36V42.528C97.2048 46.912 96.8528 52.384 93.1408 56.32C94.0048 56.8 95.4128 58.112 95.8928 58.944C100.245 54.432 100.853 47.36 100.853 42.592V33.184C101.429 33.088 101.653 32.928 101.685 32.608L97.2048 31.36ZM107.669 29.152C105.397 30.368 101.621 31.52 98.1968 32.288C98.6448 33.024 99.1888 34.368 99.3808 35.2C103.125 34.496 107.477 33.408 110.741 31.936L107.669 29.152ZM90.3888 48.096L88.3408 49.76C89.5248 50.816 91.9568 53.216 93.0128 54.496L95.2208 51.744C94.4528 51.104 91.3808 48.704 90.3888 48.096ZM83.1888 35.616C83.7008 36.832 84.1168 38.464 84.1808 39.52L87.3168 38.688C87.1568 37.632 86.7088 36.064 86.1328 34.912L83.1888 35.616ZM91.1568 34.848C90.8688 35.968 90.3248 37.6 89.8768 38.688L92.9168 39.328C93.3968 38.336 93.9408 36.96 94.5488 35.488L91.1568 34.848ZM86.9648 46.624C85.5568 49.44 82.9008 52.544 80.3728 54.176C81.1728 54.784 82.2928 56.064 82.9008 56.896C85.4608 54.816 88.1168 51.136 89.6848 47.616L86.9648 46.624ZM132.405 34.08L128.021 33.952C127.701 37.312 126.997 40.992 126.069 44C124.725 48.32 123.509 50.368 122.133 50.368C120.917 50.368 119.637 48.8 119.637 45.568C119.637 41.536 123.349 36 130.133 36C135.669 36 138.805 39.584 138.805 44.608C138.805 49.312 135.605 52.224 131.541 53.216C130.677 53.408 129.781 53.568 128.533 53.728L130.965 57.504C139.029 56.256 143.157 51.488 143.157 44.768C143.157 37.76 138.133 32.256 130.229 32.256C121.941 32.256 115.509 38.592 115.509 45.952C115.509 51.36 118.453 55.296 122.037 55.296C125.525 55.296 128.277 51.328 130.197 44.864C131.317 41.088 131.957 37.344 132.405 34.08ZM161.013 28.832V55.232C161.013 55.776 160.821 55.968 160.213 56C159.669 56 157.781 56.032 156.245 55.968C156.725 56.736 157.333 58.08 157.525 58.976C160.245 58.976 161.973 58.912 163.221 58.432C164.437 57.888 164.917 57.12 164.917 55.232V28.832H161.013ZM149.013 30.912V33.952H177.173V30.912H149.013ZM155.957 37.664H170.101V39.2H155.957V37.664ZM152.309 35.232V41.632H174.037V35.232H152.309ZM151.509 43.04V45.664H170.677V55.552H174.581V43.04H151.509ZM148.277 47.008V49.92H177.909V47.008H148.277ZM151.253 51.424V54.208H172.757V51.424H151.253ZM190.645 30.24V33.6H202.037V30.24H190.645ZM193.877 37.056L192.821 40.384H199.317V37.056H193.877ZM191.893 45.856C193.173 46.848 194.741 48.256 195.445 49.216L197.141 45.984C196.405 45.12 194.805 43.84 193.525 42.976L191.893 45.856ZM201.813 32.544V51.296H205.205V32.544H201.813ZM207.189 29.44V54.528C207.189 55.04 206.997 55.2 206.485 55.232C205.909 55.232 204.277 55.232 202.517 55.168C203.029 56.224 203.541 57.888 203.701 58.912C206.229 58.912 208.021 58.784 209.205 58.176C210.357 57.568 210.741 56.576 210.741 54.528V29.44H207.189ZM193.013 31.424C192.501 36.32 191.221 42.656 188.245 46.24C188.949 46.88 190.005 48.16 190.517 48.928C194.069 44.768 195.733 37.792 196.661 31.936L193.013 31.424ZM197.877 37.056V37.792C196.981 46.592 194.133 52.8 189.525 55.936C190.261 56.512 191.413 58.016 191.925 58.88C196.853 55.296 200.213 48.032 201.365 37.6L199.157 36.928L198.549 37.056H197.877ZM187.381 28.864C186.005 33.536 183.637 38.208 181.045 41.248C181.653 42.24 182.581 44.448 182.901 45.376C186.165 41.568 189.109 35.52 190.933 29.92L187.381 28.864ZM184.853 37.664V58.848H188.373V34.304L188.277 34.24L184.853 37.664ZM229.845 30.336L225.621 29.984C225.525 31.616 225.109 33.568 224.469 35.296C223.125 38.816 220.661 42.272 216.565 46.048L219.989 48.608C221.077 47.2 221.973 46.048 222.933 45.088C224.149 43.936 226.165 42.88 227.925 42.88C229.269 42.88 230.549 43.552 230.549 45.6C230.581 47.328 230.517 50.048 230.389 51.552H234.229C234.197 49.536 234.101 46.048 234.101 44.32C234.101 41.344 232.085 39.776 229.429 39.776C228.341 39.776 226.645 40 225.781 40.384C226.677 39.104 227.605 37.28 228.277 35.712C229.173 33.408 229.589 31.52 229.845 30.336ZM217.781 33.312V37.024C219.541 37.184 221.877 37.248 223.189 37.248C227.093 37.248 233.525 36.96 238.037 36.32L238.069 32.608C233.429 33.44 227.637 33.664 223.413 33.664C221.781 33.664 219.413 33.536 217.781 33.312ZM243.125 42.4L241.557 38.656C240.341 39.264 239.221 39.776 237.973 40.32C236.053 41.216 234.037 41.984 231.093 43.52C227.253 45.44 222.677 48.064 222.677 52.512C222.677 56.64 226.421 57.888 231.413 57.888C234.453 57.888 238.357 57.6 240.501 57.312L240.629 53.184C237.813 53.76 234.229 54.112 231.509 54.112C228.405 54.112 226.869 53.632 226.869 51.872C226.869 50.112 228.437 48.736 231.349 47.232C234.357 45.696 237.237 44.544 239.317 43.744C240.405 43.328 242.133 42.688 243.125 42.4ZM261.141 32.672V35.872H265.781V32.672H261.141ZM264.181 50.112V52.8H275.925V50.112H264.181ZM263.861 54.752V57.856H275.829V54.752H263.861ZM262.453 45.184V58.88H265.973V48.288H273.717V58.752H277.461V45.184H262.453ZM268.213 28.832V41.152C268.213 41.472 268.117 41.568 267.765 41.568C267.445 41.568 266.389 41.568 265.397 41.536C265.813 42.464 266.197 43.808 266.325 44.736C268.117 44.736 269.461 44.672 270.453 44.16C271.477 43.648 271.669 42.784 271.669 41.216V28.832H268.213ZM264.757 32.672V33.152C264.213 36.832 262.581 40.16 260.085 41.664C260.757 42.272 261.653 43.424 262.133 44.192C265.365 42.112 267.349 38.432 268.085 33.152L265.973 32.576L265.365 32.672H264.757ZM275.861 31.264C274.773 32.672 272.949 34.624 271.573 35.776L273.781 37.728C275.253 36.736 277.077 35.168 278.869 33.696L275.861 31.264ZM271.413 29.792L269.205 30.176C270.421 36.288 272.693 41.536 277.077 44C277.589 43.04 278.709 41.632 279.413 40.928C275.125 39.168 272.597 34.752 271.413 29.792ZM248.757 53.92L249.589 57.504C252.885 56.448 257.301 55.072 261.397 53.728L260.949 50.432C256.565 51.776 251.797 53.152 248.757 53.92ZM249.973 42.912V54.624H252.821V42.912H249.973ZM253.141 33.344H257.109V37.344H253.141V33.344ZM250.005 30.048V40.608H260.437V30.048H250.005ZM254.197 40V54.528H257.301V40H254.197ZM255.829 44.064V47.392H260.565V44.064H255.829ZM300.597 30.144H296.245C296.373 30.752 296.437 31.744 296.437 32.32C296.437 34.144 296.405 38.208 296.405 41.28C296.405 44.384 296.757 50.112 296.757 52.032C296.757 53.888 295.605 54.368 293.909 54.368C291.701 54.368 290.581 53.632 290.581 52.416C290.581 51.296 291.829 50.432 294.069 50.432C299.541 50.432 304.181 53.536 307.221 56.416L309.525 52.832C306.869 50.592 301.621 47.136 294.581 47.136C289.685 47.136 286.709 49.408 286.709 52.64C286.709 56.032 289.397 57.984 294.517 57.984C298.709 57.984 300.789 55.872 300.789 53.12C300.789 50.592 300.277 44.8 300.277 41.28C300.277 38.592 300.309 34.048 300.373 32.416C300.405 31.584 300.501 30.784 300.597 30.144ZM287.317 33.12L287.381 36.8C289.493 37.056 293.205 37.344 295.253 37.344C300.053 37.344 305.141 36.96 308.405 36.512L308.437 32.864C303.765 33.6 299.573 33.824 295.221 33.824C293.269 33.824 289.589 33.504 287.317 33.12ZM287.125 40.032L287.189 43.808C289.301 44.064 292.917 44.224 294.805 44.224C300.885 44.224 304.373 44.032 308.789 43.52L308.821 39.744C304.885 40.256 300.757 40.64 294.837 40.64C293.141 40.64 289.237 40.416 287.125 40.032ZM325.077 30.08L324.437 33.792C328.277 34.4 334.229 35.104 337.589 35.392L338.101 31.616C334.805 31.424 328.661 30.752 325.077 30.08ZM339.253 40.224L336.885 37.568C336.565 37.696 335.669 37.888 335.093 37.952C332.405 38.272 325.173 38.592 323.637 38.624C322.485 38.624 321.333 38.592 320.597 38.528L320.949 42.944C321.621 42.816 322.613 42.656 323.733 42.56C325.557 42.4 329.365 42.08 331.605 42.016C328.693 45.088 322.165 51.584 320.501 53.248C319.637 54.08 318.869 54.752 318.293 55.264L322.069 57.888C324.277 55.104 326.677 52.48 327.797 51.36C328.565 50.56 329.237 50.048 329.877 50.048C330.549 50.048 331.221 50.464 331.573 51.616C331.829 52.416 332.181 53.92 332.533 54.88C333.301 56.928 334.965 57.6 337.973 57.6C339.637 57.6 342.933 57.376 344.245 57.152L344.533 52.96C342.901 53.28 340.693 53.504 338.261 53.504C337.013 53.504 336.309 53.024 335.989 52.032C335.733 51.168 335.381 49.952 335.093 49.12C334.645 47.904 334.069 47.2 333.173 46.944C332.789 46.784 332.213 46.688 331.925 46.688C332.693 45.888 335.701 43.104 337.141 41.856C337.717 41.376 338.389 40.8 339.253 40.224ZM349.371 34.016L349.787 38.4C353.499 37.568 360.027 36.896 363.035 36.576C360.859 38.208 358.267 41.824 358.267 46.432C358.267 53.376 364.603 56.992 371.323 57.408L372.795 53.024C367.387 52.736 362.459 50.848 362.459 45.568C362.459 41.792 365.371 37.632 369.211 36.608C370.939 36.224 373.691 36.192 375.419 36.192L375.387 32.064C373.115 32.16 369.627 32.352 366.331 32.64C360.443 33.152 355.195 33.6 352.507 33.856C351.899 33.92 350.619 33.984 349.371 34.016ZM387.265 58.208L390.689 55.264C389.057 53.28 385.985 50.144 383.713 48.288L380.353 51.168C382.593 53.088 385.313 55.84 387.265 58.208ZM437.233 51.536L440.065 57.296C451.969 54.944 458.065 49.184 458.065 39.44C458.065 31.76 452.209 26.528 444.865 26.528C439.729 26.528 433.633 28.4 427.921 33.824L427.873 40.592C432.577 35.648 437.713 32.144 443.857 32.144C448.657 32.144 451.681 35.6 451.681 39.344C451.681 46.832 445.633 50.24 437.233 51.536ZM426.337 30.656L425.953 31.52L425.857 32.768C423.457 36.512 417.697 44.144 414.673 47.888L418.417 53.168C420.961 49.664 425.233 43.232 427.345 40.16L430.129 31.136C430.945 29.888 432.433 27.536 433.249 26.432L431.329 23.936C429.169 24.656 423.025 25.568 420.001 25.712C418.273 25.808 417.169 25.808 415.825 25.76L416.449 31.952C419.617 31.52 424.177 30.896 426.337 30.656ZM425.761 21.392C425.761 23.312 424.705 36.752 424.561 41.024C424.417 47.024 424.369 50.24 424.321 54.896C424.321 55.664 424.273 57.44 424.177 58.448H430.753C430.657 57.392 430.465 55.616 430.417 54.752C430.129 50.288 430.129 46.208 430.129 42.32C430.129 33.728 431.713 21.152 432.529 17.312L425.521 17.12C425.809 18.608 425.761 20.048 425.761 21.392ZM485.233 18.128L478.129 17.36C478.177 20.96 477.649 25.04 476.737 29.36C475.393 35.408 471.793 48.08 466.081 55.76L472.369 58.256C477.361 50.144 481.249 36.464 482.833 29.696C483.313 27.248 483.937 24.272 484.369 22.112C484.657 20.912 484.945 19.376 485.233 18.128ZM501.793 22.592L496.033 25.04C499.489 29.312 502.897 37.952 504.145 43.328L510.241 40.496C508.753 35.888 504.721 26.768 501.793 22.592ZM465.793 27.968L466.369 34.448C467.809 34.208 470.305 33.872 471.697 33.68C474.337 33.344 482.593 32.288 485.473 32.288C488.449 32.288 490.129 32.864 490.129 36.704C490.129 41.408 489.505 47.264 488.161 49.952C487.393 51.536 486.193 52.016 484.561 52.016C483.313 52.016 480.577 51.536 478.705 51.008L479.713 57.344C481.393 57.728 483.649 58.016 485.521 58.016C489.121 58.016 491.761 56.96 493.393 53.6C495.409 49.472 496.081 41.696 496.081 36.032C496.081 29.072 492.481 26.816 487.441 26.816C483.841 26.816 474.769 27.872 470.929 27.968C469.153 28.016 467.521 28.064 465.793 27.968ZM530.833 17.456L524.257 17.216C524.209 18.512 524.065 20.432 523.873 22.208C523.153 27.2 522.529 33.104 522.529 37.616C522.529 40.832 522.817 43.76 523.105 45.632L529.009 45.2C528.769 42.992 528.721 41.456 528.817 40.112C529.009 33.824 534.001 25.28 539.665 25.28C543.649 25.28 546.145 29.408 546.145 36.8C546.145 48.416 538.657 51.968 527.953 53.6L531.601 59.168C544.321 56.816 552.625 50.384 552.625 36.8C552.625 26.24 547.441 19.664 540.769 19.664C535.393 19.664 531.169 23.744 528.865 27.44C529.153 24.752 530.161 19.808 530.833 17.456ZM589.153 25.472L593.665 22.208C591.985 20.432 588.385 17.36 586.705 16.016L582.289 19.088C584.161 20.528 587.473 23.744 589.153 25.472ZM576.097 20.336L569.857 22.784C570.817 23.984 571.969 25.808 572.689 26.96C574.657 30.416 576.433 34.784 578.353 39.248C580.801 45.008 583.297 53.12 584.785 59.168L591.409 57.488C589.825 52.064 586.081 41.84 583.825 36.608C582.097 32.576 579.937 27.824 577.969 24.128C577.441 23.216 576.481 21.248 576.097 20.336ZM565.729 34.4L568.513 40.544C574.465 37.856 588.865 29.264 596.641 29.264C600.241 29.264 602.353 31.28 602.353 33.68C602.353 37.136 599.713 39.104 596.113 39.104C594.049 39.104 591.649 38.432 589.489 37.52L589.297 43.52C591.121 44.192 594.097 44.864 596.737 44.864C604.081 44.864 608.689 40.64 608.689 33.92C608.689 28.352 604.177 23.84 596.785 23.84C589.057 23.84 579.217 29.456 570.481 32.864C569.665 33.2 567.601 33.968 565.729 34.4ZM645.649 17.312H638.689C638.785 17.936 638.977 19.568 639.121 21.488C639.313 24.032 639.313 33.248 639.313 36.224L645.313 38.24C645.265 34.4 645.169 24.608 645.313 21.44C645.361 20.672 645.505 18.128 645.649 17.312ZM618.481 23.312L618.625 29.072C625.873 28.688 635.425 28.304 644.161 28.304C651.217 28.304 656.113 28.448 659.089 28.592L659.185 22.928C656.497 22.88 649.201 22.928 644.305 22.928C638.305 22.928 625.633 23.312 618.481 23.312ZM644.497 37.52L639.985 36.272C641.521 41.984 639.553 43.904 637.297 43.904C635.329 43.904 633.553 42.512 633.553 40.352C633.553 37.808 635.425 36.512 637.297 36.512C639.409 36.512 641.089 38 641.089 41.12C641.089 49.52 634.705 52.736 626.545 54.512L631.633 59.6C643.345 56.288 647.041 48.368 647.041 42.08C647.041 36.128 643.729 31.472 637.393 31.472C632.209 31.472 627.793 35.024 627.793 40.448C627.793 46.304 632.401 49.232 636.097 49.232C641.617 49.232 644.497 45.344 644.497 37.52ZM699.937 21.44L694.321 16.448C693.553 17.6 692.017 19.184 690.625 20.528C687.409 23.696 680.785 29.024 677.041 32.096C672.241 36.08 671.857 38.672 676.609 42.752C681.025 46.448 688.081 52.496 690.961 55.52C692.401 56.96 693.841 58.448 695.185 59.984L700.753 54.8C695.857 50.048 686.737 42.896 683.137 39.872C680.545 37.616 680.497 37.04 683.041 34.88C686.257 32.096 692.593 27.2 695.713 24.704C696.817 23.792 698.401 22.544 699.937 21.44ZM721.345 33.088V37.312C723.969 37.504 726.753 37.664 730.113 37.664C733.153 37.664 737.121 37.472 739.361 37.28V33.024C736.897 33.28 733.217 33.472 730.081 33.472C726.721 33.472 723.713 33.344 721.345 33.088ZM724.065 46.624L719.841 46.272C719.585 47.456 719.201 49.024 719.201 50.88C719.201 55.264 722.881 57.728 730.209 57.728C734.721 57.728 738.561 57.312 741.345 56.64L741.313 52.16C738.465 52.928 734.401 53.408 730.081 53.408C725.441 53.408 723.521 51.936 723.521 49.888C723.521 48.8 723.745 47.776 724.065 46.624ZM740.193 29.76L737.633 30.816C738.497 32.032 739.489 33.952 740.161 35.264L742.721 34.176C742.113 32.992 740.993 30.944 740.193 29.76ZM743.969 28.32L741.441 29.376C742.305 30.592 743.361 32.448 744.001 33.792L746.561 32.672C745.985 31.552 744.801 29.536 743.969 28.32ZM762.753 28.864V33.12H766.593V28.864H762.753ZM762.657 46.304V58.848H766.529V46.304H762.657ZM750.977 30.976V35.904H754.529V34.144H774.785V35.904H778.497V30.976H750.977ZM750.753 36.512V39.52H778.721V36.512H750.753ZM750.145 48.512V51.68H779.297V48.512H750.145ZM761.217 33.952C759.297 36.704 756.577 40.256 754.561 42.496L758.209 43.488C760.065 41.28 762.721 37.888 764.801 35.008L761.217 33.952ZM757.153 42.656C763.073 43.872 771.073 46.144 775.073 47.84L777.345 45.152C772.961 43.456 764.897 41.376 759.265 40.384L757.153 42.656ZM761.697 50.336C759.169 52.704 754.145 54.624 749.377 55.456C750.145 56.192 751.233 57.664 751.745 58.56C756.641 57.376 761.601 54.816 764.545 51.584L761.697 50.336ZM767.457 50.24L764.705 51.456C767.745 54.752 772.833 57.344 777.729 58.528C778.241 57.568 779.329 56.096 780.161 55.296C775.297 54.496 770.145 52.576 767.457 50.24ZM769.537 38.304C767.969 42.176 764.833 44.096 751.553 44.768C752.065 45.536 752.673 46.848 752.801 47.744C767.137 46.752 771.521 44.096 773.569 38.304H769.537ZM796.257 43.072C799.137 45.792 802.881 49.632 804.577 52.032L807.777 49.568C805.889 47.168 802.017 43.52 799.169 40.96L796.257 43.072ZM796.353 28.832V36.48C796.353 40.672 795.809 46.272 788.897 49.824C789.793 50.496 791.105 51.904 791.649 52.736C798.945 48.384 800.289 41.824 800.289 36.512V28.832H796.353ZM785.121 34.144V58.944H788.961V37.92H809.441V34.144H785.121ZM807.745 34.144V54.432C807.745 54.976 807.553 55.168 806.945 55.2C806.337 55.2 804.193 55.2 802.305 55.104C802.817 56.096 803.425 57.856 803.553 58.912C806.401 58.912 808.449 58.88 809.793 58.272C811.105 57.632 811.553 56.576 811.553 54.496V34.144H807.745ZM827.777 30.624L822.625 30.592C822.881 31.84 823.009 33.376 823.009 34.912C823.009 37.664 822.721 46.048 822.721 50.336C822.721 55.808 826.081 58.112 831.329 58.112C838.625 58.112 843.169 53.856 845.249 50.784L842.337 47.232C840.001 50.72 836.673 53.76 831.393 53.76C828.897 53.76 826.977 52.704 826.977 49.472C826.977 45.504 827.201 38.368 827.361 34.912C827.425 33.632 827.585 31.968 827.777 30.624ZM868.609 30.144H864.257C864.385 30.752 864.449 31.744 864.449 32.32C864.449 34.144 864.417 38.208 864.417 41.28C864.417 44.384 864.769 50.112 864.769 52.032C864.769 53.888 863.617 54.368 861.921 54.368C859.713 54.368 858.593 53.632 858.593 52.416C858.593 51.296 859.841 50.432 862.081 50.432C867.553 50.432 872.193 53.536 875.233 56.416L877.537 52.832C874.881 50.592 869.633 47.136 862.593 47.136C857.697 47.136 854.721 49.408 854.721 52.64C854.721 56.032 857.409 57.984 862.529 57.984C866.721 57.984 868.801 55.872 868.801 53.12C868.801 50.592 868.289 44.8 868.289 41.28C868.289 38.592 868.321 34.048 868.385 32.416C868.417 31.584 868.513 30.784 868.609 30.144ZM855.329 33.12L855.393 36.8C857.505 37.056 861.217 37.344 863.265 37.344C868.065 37.344 873.153 36.96 876.417 36.512L876.449 32.864C871.777 33.6 867.585 33.824 863.233 33.824C861.281 33.824 857.601 33.504 855.329 33.12ZM855.137 40.032L855.201 43.808C857.313 44.064 860.929 44.224 862.817 44.224C868.897 44.224 872.385 44.032 876.801 43.52L876.833 39.744C872.897 40.256 868.769 40.64 862.849 40.64C861.153 40.64 857.249 40.416 855.137 40.032ZM904.001 30.208H899.361C899.425 30.624 899.553 31.712 899.649 32.992C899.777 34.688 899.777 40.832 899.777 42.816L903.777 44.16C903.745 41.6 903.681 35.072 903.777 32.96C903.809 32.448 903.905 30.752 904.001 30.208ZM885.889 34.208L885.985 38.048C890.817 37.792 897.185 37.536 903.009 37.536C907.713 37.536 910.977 37.632 912.961 37.728L913.025 33.952C911.233 33.92 906.369 33.952 903.105 33.952C899.105 33.952 890.657 34.208 885.889 34.208ZM903.233 43.68L900.225 42.848C901.249 46.656 899.937 47.936 898.433 47.936C897.121 47.936 895.937 47.008 895.937 45.568C895.937 43.872 897.185 43.008 898.433 43.008C899.841 43.008 900.961 44 900.961 46.08C900.961 51.68 896.705 53.824 891.265 55.008L894.657 58.4C902.465 56.192 904.929 50.912 904.929 46.72C904.929 42.752 902.721 39.648 898.497 39.648C895.041 39.648 892.097 42.016 892.097 45.632C892.097 49.536 895.169 51.488 897.633 51.488C901.313 51.488 903.233 48.896 903.233 43.68ZM931.041 47.776H934.337L935.169 36.832L935.329 32.064H930.049L930.209 36.832L931.041 47.776ZM932.705 56.32C934.305 56.32 935.521 55.136 935.521 53.472C935.521 51.808 934.305 50.656 932.705 50.656C931.073 50.656 929.857 51.808 929.857 53.472C929.857 55.136 931.041 56.32 932.705 56.32Z" fill="#323C69"/>
<path d="M992.882 16L965 70" stroke="#323C69" stroke-width="4"/>
<path d="M2 16L29.4837 69.2284" stroke="#323C69" stroke-width="4"/>
</svg>
