<svg width="454" height="478" viewBox="0 0 454 478" fill="none" xmlns="http://www.w3.org/2000/svg">
<path d="M290.712 35.0071H304.061V31.4455H299.9V12.8597H296.638C295.202 13.7277 293.705 14.2963 291.461 14.7153V17.4389H295.501V31.4455H290.712V35.0071ZM308.426 41.4119C312.077 40.2147 314.082 37.551 314.082 34.0194C314.082 31.3258 312.945 29.7097 310.94 29.7097C309.353 29.7097 308.066 30.7273 308.066 32.3135C308.066 33.9596 309.383 34.9173 310.82 34.9173C311.478 34.9173 312.077 34.7078 312.526 34.2589L310.969 31.685L311.119 34.7976C311.149 36.5634 309.862 38.1496 307.528 39.0175L308.426 41.4119ZM318.098 35.0071H331.447V31.4455H327.287V12.8597H324.024C322.588 13.7277 321.091 14.2963 318.847 14.7153V17.4389H322.887V31.4455H318.098V35.0071ZM338.864 35.0071H343.324C343.713 26.3576 344.371 21.8085 349.519 15.5234V12.8597H334.824V16.541H344.79C340.54 22.407 339.283 27.3453 338.864 35.0071ZM356.518 35.0071H360.977C361.366 26.3576 362.025 21.8085 367.172 15.5234V12.8597H352.477V16.541H362.444C358.194 22.407 356.937 27.3453 356.518 35.0071ZM371.118 41.4119C374.77 40.2147 376.775 37.551 376.775 34.0194C376.775 31.3258 375.638 29.7097 373.632 29.7097C372.046 29.7097 370.759 30.7273 370.759 32.3135C370.759 33.9596 372.076 34.9173 373.513 34.9173C374.171 34.9173 374.77 34.7078 375.218 34.2589L373.662 31.685L373.812 34.7976C373.842 36.5634 372.555 38.1496 370.22 39.0175L371.118 41.4119ZM383.904 35.0071H388.363C388.752 26.3576 389.411 21.8085 394.558 15.5234V12.8597H379.863V16.541H389.83C385.58 22.407 384.323 27.3453 383.904 35.0071ZM401.557 35.0071H406.016C406.406 26.3576 407.064 21.8085 412.212 15.5234V12.8597H397.517V16.541H407.483C403.233 22.407 401.976 27.3453 401.557 35.0071ZM422.503 35.4261C426.992 35.4261 429.985 31.5054 429.985 23.8436C429.985 16.2118 426.992 12.4707 422.503 12.4707C417.983 12.4707 414.99 16.2118 414.99 23.8436C414.99 31.5054 417.983 35.4261 422.503 35.4261ZM422.503 31.9843C420.587 31.9843 419.151 30.0688 419.151 23.8436C419.151 17.6484 420.587 15.8526 422.503 15.8526C424.418 15.8526 425.825 17.6484 425.825 23.8436C425.825 30.0688 424.418 31.9843 422.503 31.9843ZM444.21 16.6587V36.9604H446.866V16.6587H444.21ZM440.479 17.5805C439.974 20.2801 439.053 23.0675 437.867 24.8013C438.504 25.0867 439.645 25.6793 440.172 26.0743C441.335 24.1429 442.389 21.0702 443.003 18.1073L440.479 17.5805ZM441.313 20.6313L440.677 23.1992H451.475V20.6313H441.313ZM438.262 26.9961V29.586H452.528V26.9961H438.262ZM436.638 16.4612C435.541 19.5997 433.675 22.7163 431.722 24.7136C432.161 25.35 432.885 26.7986 433.127 27.4351C435.475 24.9111 437.714 20.9605 439.118 17.2294L436.638 16.4612ZM434.465 22.5188V36.9604H436.967V20.0387V20.0167L434.465 22.5188Z" fill="#E4502B"/>
<path d="M14.2732 15.1786V21.6632C14.2732 23.9777 14.8319 24.7359 17.0865 24.7359C17.5055 24.7359 19.0419 24.7359 19.4808 24.7359C21.4761 24.7359 22.0746 23.7781 22.3141 20.2865C21.6955 20.1268 20.6381 19.7078 20.1392 19.3088C20.0395 22.0423 19.9397 22.4812 19.2813 22.4812C18.9221 22.4812 17.7449 22.4812 17.4457 22.4812C16.7872 22.4812 16.6875 22.3815 16.6875 21.6632V15.1786H14.2732ZM8.886 15.2784C8.62662 18.7302 8.20762 21.304 3.45891 22.7207C3.97768 23.2195 4.65606 24.1972 4.91545 24.8157C10.3026 23.02 11.1207 19.648 11.4399 15.2784H8.886ZM5.41426 7.71634C6.29217 9.29259 7.19004 11.3677 7.46937 12.6845L9.80382 11.7468C9.46463 10.4099 8.48695 8.41468 7.56914 6.91824L5.41426 7.71634ZM18.3236 6.75862C17.8248 8.35482 16.8471 10.4498 16.029 11.7667L18.124 12.5648C18.962 11.3278 19.9996 9.41231 20.8775 7.63653L18.3236 6.75862ZM3.97768 13.3829V15.6375H22.0148V13.3829H3.97768ZM11.6794 6.06028V14.3007H14.1136V6.06028H11.6794ZM31.0134 13.6223H34.545V17.0741H31.0134V13.6223ZM28.7588 11.5273V19.1492H36.9393V11.5273H28.7588ZM24.3692 6.73867V24.7957H26.8433V9.17288H38.8946V24.7957H41.4885V6.73867H24.3692ZM25.7659 21.4836V23.7183H40.3711V21.4836H25.7659ZM60.3636 15.9967C59.6453 16.9344 58.3683 18.2114 57.4505 18.9696L58.8672 20.1268C59.8448 19.4684 61.1018 18.4109 62.279 17.4332L60.3636 15.9967ZM55.4752 6.02037C55.2557 6.89829 54.7968 8.05553 54.3978 8.89354L56.4329 9.35245C56.9517 8.63416 57.6101 7.53677 58.1888 6.43938L55.4752 6.02037ZM53.7992 12.6446H59.1465V13.6822H53.7992V12.6446ZM53.7992 9.87122H59.1465V10.9287H53.7992V9.87122ZM51.6443 8.03558V15.5377H61.4211V8.03558H51.6443ZM55.4952 14.7197V22.5012C55.4952 22.7007 55.4353 22.7606 55.1959 22.7606C54.9764 22.7606 54.2382 22.7606 53.5398 22.7406C53.7992 23.3392 54.0586 24.1972 54.1185 24.7957C55.3356 24.7957 56.1935 24.7558 56.852 24.4366C57.4904 24.0974 57.6301 23.5387 57.6301 22.5211V14.7197H55.4952ZM51.1256 16.8746V18.8299H53.9987V16.8746H51.1256ZM53.5398 16.8746V17.1938C53.041 19.6081 51.7241 21.4237 49.9683 22.4014C50.4073 22.7207 51.1455 23.5387 51.4448 23.9976C53.3802 22.8005 54.8966 20.5658 55.5949 17.3335L54.318 16.8147L53.9588 16.8746H53.5398ZM57.4306 14.7995L56.1337 16.0765C56.6923 18.6503 58.109 22.2817 61.1418 23.9777C61.441 23.3791 62.1394 22.4812 62.5783 22.0423C59.4059 20.6456 58.0092 17.4332 57.4306 14.7995ZM46.4766 6.08023C46.0177 7.45696 45.1598 9.39236 44.4614 10.5895L46.0576 11.2479C46.8158 10.1306 47.7336 8.35482 48.5517 6.79852L46.4766 6.08023ZM48.7313 8.43463C47.6738 10.5696 45.8581 13.4826 44.3616 15.2784L45.7384 16.0565C47.2747 14.3406 49.2101 11.5672 50.6667 9.3325L48.7313 8.43463ZM43.384 10.7292C44.3816 11.7468 45.5588 13.1634 45.9978 14.1411L47.2947 12.3054C46.8158 11.3677 45.5987 10.0707 44.5612 9.13297L43.384 10.7292ZM48.0529 13.2232C48.7911 14.6 49.4895 16.4356 49.7089 17.5929L51.5047 16.7748C51.2652 15.6375 50.507 13.8817 49.7089 12.5249L48.0529 13.2232ZM43.3241 14.8195L43.5835 16.8746C45.4391 16.7349 47.8733 16.5553 50.2077 16.3758L50.1878 14.4204C47.6937 14.58 45.1198 14.7197 43.3241 14.8195ZM48.5916 18.2313C49.0305 19.3287 49.4096 20.7853 49.4695 21.7031L51.2453 21.1444C51.1256 20.2066 50.7265 18.81 50.2676 17.7126L48.5916 18.2313ZM44.1821 17.7924C44.0225 19.4684 43.7232 21.2641 43.1645 22.4413C43.6234 22.6409 44.5013 23.02 44.9004 23.2793C45.479 22.0024 45.898 20.0271 46.0975 18.1116L44.1821 17.7924ZM46.3769 15.8769V24.7957H48.432V15.8769H46.3769Z" fill="#323C69"/>
<path d="M3 44H253L228.069 18" stroke="#323C69" stroke-width="1.49644"/>
<path d="M325.345 121.007H329.445V98.86H324.148L315.918 112.268V115.291H332.079V111.909H320.197L323.609 106.402C324.238 105.205 324.836 103.978 325.405 102.781H325.525C325.465 104.098 325.345 106.103 325.345 107.39V121.007ZM341.771 121.426C346.261 121.426 349.254 117.506 349.254 109.844C349.254 102.212 346.261 98.4709 341.771 98.4709C337.252 98.4709 334.259 102.212 334.259 109.844C334.259 117.506 337.252 121.426 341.771 121.426ZM341.771 117.985C339.856 117.985 338.419 116.069 338.419 109.844C338.419 103.649 339.856 101.853 341.771 101.853C343.687 101.853 345.094 103.649 345.094 109.844C345.094 116.069 343.687 117.985 341.771 117.985ZM353.02 121.007H366.368V117.446H362.208V98.86H358.946C357.509 99.7279 356.013 100.297 353.768 100.716V103.439H357.809V117.446H353.02V121.007ZM370.733 127.412C374.384 126.215 376.39 123.551 376.39 120.02C376.39 117.326 375.252 115.71 373.247 115.71C371.661 115.71 370.374 116.728 370.374 118.314C370.374 119.96 371.691 120.918 373.127 120.918C373.786 120.918 374.384 120.708 374.833 120.259L373.277 117.685L373.427 120.798C373.457 122.564 372.17 124.15 369.835 125.018L370.733 127.412ZM385.614 121.426C390.013 121.426 394.113 117.805 394.113 109.425C394.113 101.763 390.342 98.4709 386.122 98.4709C382.351 98.4709 379.179 101.284 379.179 105.863C379.179 110.562 381.813 112.807 385.524 112.807C387.08 112.807 389.085 111.819 390.283 110.173L390.043 107.18C388.966 109.006 387.589 109.694 386.332 109.694C384.446 109.694 383.189 108.437 383.189 105.863C383.189 103.11 384.536 101.763 386.212 101.763C388.367 101.763 390.073 103.768 390.073 109.425C390.073 115.77 387.948 117.865 385.344 117.865C384.027 117.865 382.681 117.176 381.843 116.249L379.508 118.912C380.855 120.289 382.83 121.426 385.614 121.426ZM405.063 121.426C408.834 121.426 412.036 118.583 412.036 114.034C412.036 109.275 409.372 107.09 405.661 107.09C404.165 107.09 402.1 108.048 400.933 109.694L401.112 112.687C402.219 110.861 403.626 110.203 404.853 110.203C406.739 110.203 407.996 111.4 407.996 114.034C407.996 116.728 406.649 118.104 405.003 118.104C402.818 118.104 401.142 115.979 401.142 110.233C401.142 104.068 403.267 102.003 405.961 102.003C407.218 102.003 408.594 102.721 409.343 103.589L411.707 100.985C410.36 99.5783 408.385 98.4709 405.691 98.4709C401.202 98.4709 397.102 102.003 397.102 110.233C397.102 118.044 400.873 121.426 405.063 121.426ZM415.713 121.007H429.061V117.446H424.901V98.86H421.639C420.202 99.7279 418.706 100.297 416.461 100.716V103.439H420.501V117.446H415.713V121.007ZM443.825 102.659V122.961H446.481V102.659H443.825ZM440.094 103.581C439.589 106.28 438.667 109.068 437.482 110.802C438.119 111.087 439.26 111.68 439.787 112.075C440.95 110.143 442.004 107.07 442.618 104.108L440.094 103.581ZM440.928 106.632L440.292 109.199H451.09V106.632H440.928ZM437.877 112.996V115.586H452.143V112.996H437.877ZM436.253 102.461C435.156 105.6 433.29 108.717 431.337 110.714C431.776 111.35 432.5 112.799 432.742 113.435C435.09 110.911 437.329 106.961 438.733 103.23L436.253 102.461ZM434.08 108.519V122.961H436.582V106.039V106.017L434.08 108.519Z" fill="#E4502B"/>
<path d="M5.44942 93.6964V96.2902C6.02804 96.2304 6.86605 96.2104 7.52449 96.2104C8.70169 96.2104 14.049 96.2104 15.1464 96.2104C15.8846 96.2104 16.8224 96.2503 17.3411 96.2902V93.6964C16.8024 93.7762 15.8248 93.8161 15.1863 93.8161C14.029 93.8161 8.7815 93.8161 7.52449 93.8161C6.8461 93.8161 5.98814 93.7762 5.44942 93.6964ZM19.0371 99.5026L17.2613 98.3852C16.982 98.5249 16.4433 98.6047 15.7848 98.6047C14.4281 98.6047 7.28506 98.6047 5.92828 98.6047C5.2898 98.6047 4.45179 98.5449 3.59383 98.4651V101.059C4.43184 100.999 5.42947 100.979 5.92828 100.979C7.70406 100.979 14.5478 100.979 15.5454 100.979C15.2062 102.076 14.5677 103.333 13.5103 104.411C11.9739 105.987 9.59955 107.284 6.58672 107.923L8.58197 110.177C11.1359 109.439 13.6898 108.102 15.705 105.847C17.1815 104.211 18.0395 102.256 18.658 100.321C18.7179 100.121 18.8974 99.762 19.0371 99.5026ZM22.1896 101.258L23.4267 103.772C26.5792 102.835 29.8115 101.338 32.0661 100.001C34.4205 98.5848 36.8547 96.7092 38.6704 94.8736L36.5156 92.8384C35.2186 94.4147 32.944 96.4099 30.9089 97.6669C28.6742 99.0437 25.7611 100.341 22.1896 101.258ZM30.4899 98.9639V107.284C30.4899 108.162 30.4101 109.419 30.3303 109.898H33.5027C33.363 109.399 33.3231 108.162 33.3231 107.284V98.2855L30.4899 98.9639ZM58.6429 95.7315L56.6676 94.4745C56.1289 94.5943 55.4904 94.6142 55.1113 94.6142C53.994 94.6142 47.3697 94.6142 45.8733 94.6142C45.2149 94.6142 44.0975 94.5344 43.4989 94.4546V97.2679C44.0177 97.2479 44.9555 97.1881 45.8733 97.1881C47.3697 97.1881 53.9541 97.1881 55.1712 97.1881C54.8919 98.904 54.1536 101.159 52.8168 102.835C51.2006 104.85 48.9659 106.586 44.9954 107.504L47.1702 109.898C50.7417 108.761 53.3954 106.765 55.1911 104.391C56.8672 102.156 57.7451 99.0636 58.204 97.1083C58.3037 96.6893 58.4434 96.1106 58.6429 95.7315ZM65.3071 93.6964V96.2902C65.8857 96.2304 66.7237 96.2104 67.3822 96.2104C68.5594 96.2104 73.9066 96.2104 75.004 96.2104C75.7423 96.2104 76.68 96.2503 77.1988 96.2902V93.6964C76.6601 93.7762 75.6824 93.8161 75.0439 93.8161C73.8867 93.8161 68.6392 93.8161 67.3822 93.8161C66.7038 93.8161 65.8458 93.7762 65.3071 93.6964ZM78.8948 99.5026L77.119 98.3852C76.8397 98.5249 76.3009 98.6047 75.6425 98.6047C74.2857 98.6047 67.1427 98.6047 65.786 98.6047C65.1475 98.6047 64.3095 98.5449 63.4515 98.4651V101.059C64.2895 100.999 65.2871 100.979 65.786 100.979C67.5617 100.979 74.4055 100.979 75.4031 100.979C75.0639 102.076 74.4254 103.333 73.3679 104.411C71.8316 105.987 69.4572 107.284 66.4444 107.923L68.4396 110.177C70.9936 109.439 73.5475 108.102 75.5627 105.847C77.0392 104.211 77.8972 102.256 78.5157 100.321C78.5755 100.121 78.7551 99.762 78.8948 99.5026ZM82.0473 101.258L83.2843 103.772C86.4368 102.835 89.6692 101.338 91.9238 100.001C94.2782 98.5848 96.7124 96.7092 98.5281 94.8736L96.3732 92.8384C95.0763 94.4147 92.8017 96.4099 90.7666 97.6669C88.5319 99.0437 85.6188 100.341 82.0473 101.258ZM90.3475 98.9639V107.284C90.3475 108.162 90.2677 109.419 90.1879 109.898H93.3604C93.2207 109.399 93.1808 108.162 93.1808 107.284V98.2855L90.3475 98.9639ZM105.571 93.8361L103.676 95.8513C105.132 96.8489 107.646 99.0237 108.684 100.141L110.719 98.066C109.542 96.8489 106.948 94.7738 105.571 93.8361ZM103.057 107.124L104.753 109.758C107.547 109.279 110.121 108.182 112.156 106.965C115.368 105.029 118.022 102.276 119.518 99.5624L117.982 96.7691C116.705 99.4627 114.111 102.495 110.699 104.531C108.764 105.668 106.19 106.686 103.057 107.124Z" fill="#323C69"/>
<path d="M1 130.247H251L226.069 104.247" stroke="#323C69" stroke-width="1.49644"/>
<path d="M341.548 207.666C345.619 207.666 349.3 204.822 349.3 199.914C349.3 195.066 346.187 192.881 342.476 192.881C341.459 192.881 340.681 193.09 339.813 193.479L340.232 188.78H348.282V185.099H336.431L335.802 195.844L337.837 197.161C339.124 196.323 339.843 195.993 341.159 195.993C343.374 195.993 344.871 197.43 344.871 200.004C344.871 202.638 343.284 204.104 340.95 204.104C338.915 204.104 337.328 203.086 336.101 201.859L334.036 204.643C335.712 206.289 338.047 207.666 341.548 207.666ZM359.112 207.666C363.362 207.666 366.923 205.331 366.923 201.261C366.923 198.328 365.008 196.502 362.494 195.784V195.634C364.858 194.736 366.175 192.971 366.175 190.606C366.175 186.805 363.272 184.71 358.992 184.71C356.418 184.71 354.293 185.758 352.378 187.404L354.623 190.127C355.94 188.9 357.226 188.152 358.813 188.152C360.698 188.152 361.776 189.199 361.776 190.935C361.776 192.911 360.459 194.287 356.388 194.287V197.46C361.207 197.46 362.494 198.807 362.494 200.991C362.494 202.967 360.968 204.104 358.693 204.104C356.688 204.104 355.102 203.086 353.785 201.8L351.69 204.583C353.246 206.379 355.61 207.666 359.112 207.666ZM371.079 213.651C374.73 212.454 376.735 209.791 376.735 206.259C376.735 203.565 375.598 201.949 373.593 201.949C372.007 201.949 370.72 202.967 370.72 204.553C370.72 206.199 372.037 207.157 373.473 207.157C374.132 207.157 374.73 206.947 375.179 206.498L373.623 203.924L373.772 207.037C373.802 208.803 372.515 210.389 370.181 211.257L371.079 213.651ZM386.498 207.666C390.748 207.666 394.309 205.331 394.309 201.261C394.309 198.328 392.394 196.502 389.88 195.784V195.634C392.244 194.736 393.561 192.971 393.561 190.606C393.561 186.805 390.658 184.71 386.378 184.71C383.804 184.71 381.68 185.758 379.764 187.404L382.009 190.127C383.326 188.9 384.613 188.152 386.199 188.152C388.084 188.152 389.162 189.199 389.162 190.935C389.162 192.911 387.845 194.287 383.775 194.287V197.46C388.593 197.46 389.88 198.807 389.88 200.991C389.88 202.967 388.354 204.104 386.079 204.104C384.074 204.104 382.488 203.086 381.171 201.8L379.076 204.583C380.632 206.379 382.996 207.666 386.498 207.666ZM401.518 207.247H405.977C406.366 198.597 407.025 194.048 412.172 187.763V185.099H397.477V188.78H407.444C403.194 194.647 401.937 199.585 401.518 207.247ZM423.69 207.247H427.79V185.099H422.493L414.263 198.507V201.53H430.424V198.148H418.542L421.954 192.641C422.583 191.444 423.181 190.217 423.75 189.02H423.87C423.81 190.337 423.69 192.342 423.69 193.629V207.247ZM444.171 188.898V209.2H446.827V188.898H444.171ZM440.44 189.82C439.935 192.52 439.013 195.307 437.828 197.041C438.464 197.326 439.606 197.919 440.132 198.314C441.296 196.382 442.349 193.31 442.964 190.347L440.44 189.82ZM441.274 192.871L440.637 195.439H451.436V192.871H441.274ZM438.223 199.236V201.825H452.489V199.236H438.223ZM436.599 188.701C435.501 191.839 433.636 194.956 431.683 196.953C432.122 197.59 432.846 199.038 433.087 199.675C435.436 197.151 437.674 193.2 439.079 189.469L436.599 188.701ZM434.426 194.758V209.2H436.928V192.278V192.256L434.426 194.758Z" fill="#E4502B"/>
<path d="M7.26273 181.991C7.58197 183.607 9.51737 193.663 9.81666 195.459C9.95633 196.057 9.99623 196.736 10.096 197.474L12.9692 196.975C12.7896 196.317 12.61 195.599 12.4703 195.02C12.0513 192.985 10.076 182.889 9.87652 181.572C9.79671 181.093 9.7169 180.415 9.67699 180.036L6.84373 180.494C7.00335 180.953 7.14302 181.432 7.26273 181.991ZM1.81568 184.545L2.3544 187.298C3.03279 187.119 3.55156 186.999 4.17008 186.879C5.66653 186.62 12.5302 185.523 14.6452 185.183C15.2438 185.104 16.0618 184.984 16.5008 184.964L16.002 182.33C15.5231 182.47 14.7649 182.649 14.1464 182.749C12.3506 183.108 5.36724 184.186 3.67127 184.385C3.03279 184.465 2.43421 184.505 1.81568 184.545ZM1.83564 190.391L2.39431 193.065C2.83326 192.945 3.5316 192.825 4.38956 192.666C6.36487 192.286 13.5478 191.109 16.0818 190.73C16.82 190.61 17.6381 190.471 18.1768 190.431L17.658 187.797C17.1193 187.937 16.381 188.116 15.6029 188.256C13.3084 188.695 6.02567 189.872 3.89075 190.171C3.27222 190.271 2.3544 190.371 1.83564 190.391ZM27.9336 183.567L25.24 184.206C25.4595 184.625 25.6789 185.123 25.8186 185.622C26.4571 187.697 28.2728 194.82 28.7716 196.556C28.9312 197.115 29.0509 197.773 29.1307 198.312L31.8243 197.634C31.6847 197.235 31.4053 196.357 31.3056 195.998C30.8067 194.342 28.9312 187.478 28.2528 185.084C28.1331 184.565 27.9934 184.046 27.9336 183.567ZM37.5108 186.66L35.8946 185.523C35.6353 185.642 35.2362 185.762 34.897 185.842C33.4804 186.161 25.4994 187.677 24.4219 187.837C23.7635 187.957 23.2048 188.017 22.5863 188.076L23.2048 190.451C24.8409 190.092 32.9616 188.396 33.9992 188.216C33.4604 189.194 32.0837 190.87 31.0462 191.788L33.2609 192.885C34.6576 191.409 36.6528 188.396 37.5108 186.66ZM49.9612 184.405L47.6068 185.183C48.0857 186.221 48.9636 188.635 49.223 189.593L51.5973 188.775C51.318 187.857 50.3403 185.243 49.9612 184.405ZM57.3237 185.842L54.5303 184.944C54.3109 187.458 53.3332 190.112 51.9764 191.788C50.3403 193.863 47.5469 195.379 45.3721 195.978L47.4671 198.113C49.8016 197.215 52.2757 195.559 54.1313 193.144C55.4881 191.409 56.346 189.333 56.8648 187.318C56.9845 186.919 57.1042 186.5 57.3237 185.842ZM45.3322 185.443L42.9379 186.321C43.4168 187.179 44.4343 189.852 44.7536 190.91L47.1878 190.012C46.8087 188.895 45.831 186.46 45.3322 185.443ZM66.0031 180.455L64.5665 182.649C65.8833 183.388 67.9584 184.724 69.0758 185.503L70.5522 183.308C69.5147 182.57 67.3199 181.173 66.0031 180.455ZM62.3118 194.621L63.8083 197.235C65.5641 196.915 68.4373 195.918 70.4724 194.781C73.7247 192.885 76.558 190.371 78.3936 187.598L76.8572 184.884C75.281 187.737 72.4876 190.471 69.0957 192.366C66.9209 193.563 64.5465 194.242 62.3118 194.621ZM62.9304 185.004L61.4938 187.199C62.8306 187.917 64.9057 189.254 66.023 190.052L67.4995 187.817C66.462 187.079 64.2672 185.722 62.9304 185.004ZM94.9343 186.74L93.0188 185.802C92.7594 185.942 91.9414 186.021 91.5423 186.021C90.5846 186.021 87.4321 186.021 86.4145 186.021C85.8958 186.021 84.9779 185.961 84.4392 185.882V188.515C85.0178 188.476 85.8159 188.436 86.4345 188.436C87.0131 188.436 90.8839 188.436 91.8416 188.436C91.7419 189.772 91.1433 193.623 90.8839 194.94H93.6373C93.8768 193.504 94.5552 188.974 94.7547 187.578C94.7746 187.358 94.8545 186.999 94.9343 186.74ZM82.6235 193.962V196.576C83.3618 196.536 83.8805 196.516 84.5789 196.516C85.5965 196.516 94.0564 196.516 95.0939 196.516C95.6127 196.516 96.5903 196.536 97.0093 196.556V193.982C96.4906 194.042 95.5528 194.082 95.054 194.082C94.0763 194.082 85.776 194.082 84.5789 194.082C83.9005 194.082 83.1423 194.022 82.6235 193.962ZM103.264 195.459L105.139 197.095C105.618 196.776 106.057 196.636 106.317 196.556C111.025 195.02 115.176 192.626 117.909 189.373L116.492 187.099C113.938 190.231 109.489 192.785 106.237 193.703C106.237 192.187 106.237 185.542 106.237 183.328C106.237 182.57 106.317 181.831 106.416 181.073H103.284C103.404 181.632 103.523 182.59 103.523 183.328C103.523 185.562 103.523 192.646 103.523 194.162C103.523 194.621 103.483 194.96 103.264 195.459ZM135.946 182.729L134.33 181.512C133.911 181.652 133.133 181.752 132.255 181.752C131.377 181.752 126.269 181.752 125.212 181.752C124.633 181.752 123.396 181.692 122.857 181.612V184.465C123.296 184.425 124.394 184.325 125.212 184.325C126.07 184.325 131.158 184.325 131.996 184.325C131.537 185.742 130.319 187.717 129.003 189.214C127.127 191.289 124.054 193.723 120.822 194.92L122.897 197.075C125.99 195.619 129.003 193.144 131.237 190.571C132.953 188.575 134.43 185.862 135.248 183.966C135.427 183.547 135.786 182.949 135.946 182.729ZM131.497 188.914L129.621 190.77C131.756 192.705 133.931 195.08 135.407 197.135L137.682 195.16C136.385 193.563 133.552 190.59 131.497 188.914Z" fill="#323C69"/>
<path d="M0 216.74H250L225.069 190.74" stroke="#323C69" stroke-width="1.49644"/>
<path d="M335.712 293.74H349.061V290.178H344.9V271.593H341.638C340.202 272.461 338.705 273.029 336.461 273.448V276.172H340.501V290.178H335.712V293.74ZM356.478 293.74H360.938C361.327 285.091 361.985 280.541 367.133 274.256V271.593H352.438V275.274H362.404C358.154 281.14 356.897 286.078 356.478 293.74ZM371.079 300.145C374.73 298.948 376.735 296.284 376.735 292.752C376.735 290.059 375.598 288.443 373.593 288.443C372.007 288.443 370.72 289.46 370.72 291.046C370.72 292.692 372.037 293.65 373.473 293.65C374.132 293.65 374.73 293.441 375.179 292.992L373.623 290.418L373.772 293.53C373.802 295.296 372.515 296.883 370.181 297.75L371.079 300.145ZM387.127 294.159C391.586 294.159 394.579 291.615 394.579 288.263C394.579 285.21 392.903 283.444 390.868 282.337V282.187C392.304 281.14 393.711 279.314 393.711 277.1C393.711 273.568 391.197 271.234 387.276 271.234C383.415 271.234 380.572 273.508 380.572 277.07C380.572 279.404 381.829 281.11 383.505 282.337V282.457C381.47 283.534 379.734 285.42 379.734 288.263C379.734 291.735 382.877 294.159 387.127 294.159ZM388.533 281.11C386.199 280.182 384.463 279.135 384.463 277.07C384.463 275.304 385.66 274.316 387.186 274.316C389.012 274.316 390.119 275.573 390.119 277.399C390.119 278.716 389.611 279.973 388.533 281.11ZM387.216 291.046C385.151 291.046 383.505 289.759 383.505 287.754C383.505 286.108 384.343 284.612 385.57 283.654C388.413 284.851 390.479 285.779 390.479 288.083C390.479 289.999 389.132 291.046 387.216 291.046ZM404.151 294.159C408.401 294.159 411.963 291.825 411.963 287.754C411.963 284.821 410.047 282.996 407.533 282.277V282.128C409.898 281.23 411.215 279.464 411.215 277.1C411.215 273.299 408.311 271.204 404.032 271.204C401.458 271.204 399.333 272.251 397.417 273.897L399.662 276.621C400.979 275.394 402.266 274.645 403.852 274.645C405.738 274.645 406.815 275.693 406.815 277.429C406.815 279.404 405.498 280.781 401.428 280.781V283.953C406.246 283.953 407.533 285.3 407.533 287.485C407.533 289.46 406.007 290.597 403.732 290.597C401.727 290.597 400.141 289.58 398.824 288.293L396.729 291.076C398.285 292.872 400.65 294.159 404.151 294.159ZM422.463 294.159C426.952 294.159 429.945 290.238 429.945 282.577C429.945 274.945 426.952 271.204 422.463 271.204C417.944 271.204 414.951 274.945 414.951 282.577C414.951 290.238 417.944 294.159 422.463 294.159ZM422.463 290.717C420.548 290.717 419.111 288.802 419.111 282.577C419.111 276.381 420.548 274.586 422.463 274.586C424.379 274.586 425.785 276.381 425.785 282.577C425.785 288.802 424.379 290.717 422.463 290.717ZM444.171 275.392V295.693H446.827V275.392H444.171ZM440.44 276.313C439.935 279.013 439.013 281.8 437.828 283.534C438.464 283.82 439.606 284.412 440.132 284.807C441.296 282.876 442.349 279.803 442.964 276.84L440.44 276.313ZM441.274 279.364L440.637 281.932H451.436V279.364H441.274ZM438.223 285.729V288.319H452.489V285.729H438.223ZM436.599 275.194C435.501 278.333 433.636 281.449 431.683 283.446C432.122 284.083 432.846 285.532 433.087 286.168C435.436 283.644 437.674 279.693 439.079 275.962L436.599 275.194ZM434.426 281.252V295.693H436.928V278.772V278.75L434.426 281.252Z" fill="#E4502B"/>
<path d="M17.7378 269.463L15.7625 268.205C15.2238 268.325 14.5853 268.345 14.2062 268.345C13.0889 268.345 6.46463 268.345 4.96819 268.345C4.30975 268.345 3.19241 268.265 2.59383 268.186V270.999C3.1126 270.979 4.05037 270.919 4.96819 270.919C6.46463 270.919 13.049 270.919 14.2661 270.919C13.9867 272.635 13.2485 274.89 11.9117 276.566C10.2955 278.581 8.06083 280.317 4.09027 281.235L6.2651 283.629C9.83661 282.492 12.4903 280.496 14.286 278.122C15.962 275.887 16.84 272.795 17.2989 270.839C17.3986 270.42 17.5383 269.842 17.7378 269.463ZM21.7682 273.493V276.645C22.5264 276.586 23.8633 276.526 24.9806 276.526C27.335 276.526 33.8994 276.526 35.7151 276.526C36.5531 276.526 37.5707 276.625 38.0495 276.645V273.493C37.5108 273.533 36.6329 273.633 35.6951 273.633C33.9193 273.633 27.335 273.633 24.9806 273.633C23.9431 273.633 22.5065 273.553 21.7682 273.493ZM53.4928 267.886L51.8168 268.605C52.555 269.622 52.994 270.42 53.5926 271.677L55.3085 270.919C54.8695 270.001 54.0515 268.724 53.4928 267.886ZM56.1066 266.809L54.4505 267.587C55.1888 268.565 55.6676 269.303 56.3061 270.58L57.9821 269.742C57.5432 268.844 56.7052 267.607 56.1066 266.809ZM45.5517 281.115C45.5517 281.913 45.4719 283.11 45.3522 283.888H48.4648C48.385 283.09 48.2852 281.693 48.2852 281.115C48.2852 279.638 48.2852 271.857 48.2852 269.642C48.2852 268.824 48.385 267.946 48.4648 267.248H45.3322C45.4719 267.946 45.5517 268.924 45.5517 269.642C45.5517 271.338 45.5517 279.598 45.5517 281.115ZM47.6866 272.396V275.269C49.8614 275.987 53.2334 277.264 55.4881 278.441L56.6254 275.688C54.6501 274.71 50.3603 273.134 47.6866 272.396ZM63.5888 267.687V270.261C64.2073 270.221 65.0453 270.181 65.7437 270.181C66.9807 270.181 71.091 270.181 72.2682 270.181C72.9465 270.181 73.7247 270.221 74.4031 270.261V267.687C73.7247 267.767 72.9465 267.826 72.2682 267.826C71.091 267.826 66.9807 267.826 65.7237 267.826C65.0653 267.826 64.2273 267.767 63.5888 267.687ZM61.2943 272.775V275.388C61.833 275.349 62.6111 275.329 63.1897 275.329C64.4468 275.329 75.0815 275.329 76.2587 275.329C76.8173 275.329 77.5955 275.349 78.0943 275.388V272.775C77.5556 272.874 76.6777 272.914 76.2587 272.914C75.0815 272.914 64.4468 272.914 63.1897 272.914C62.5712 272.914 61.8729 272.854 61.2943 272.775ZM71.49 274.171L68.7166 274.191C68.7166 276.326 68.4572 278.222 67.4596 279.718C66.6615 280.895 65.2449 282.033 63.8282 282.591L66.1826 284.287C67.9584 283.389 69.4948 281.833 70.1931 280.456C71.0311 278.78 71.49 276.785 71.49 274.171ZM75.6002 266.31L74.024 266.948C74.5627 267.727 75.1812 268.904 75.5803 269.722L77.1765 269.044C76.8173 268.305 76.0991 267.028 75.6002 266.31ZM77.9546 265.412L76.3784 266.051C76.9371 266.809 77.5755 267.966 77.9945 268.804L79.5708 268.126C79.2117 267.427 78.4734 266.15 77.9546 265.412ZM95.8122 267.248H92.7993C92.8792 267.806 92.939 268.445 92.939 269.263C92.939 270.121 92.939 272.036 92.939 273.034C92.939 276.147 92.6597 277.643 91.3029 279.139C90.0858 280.436 88.4896 281.195 86.4943 281.654L88.5894 283.868C90.0459 283.389 92.101 282.432 93.4179 280.975C94.9143 279.339 95.7523 277.503 95.7523 273.194C95.7523 272.216 95.7523 270.281 95.7523 269.263C95.7523 268.445 95.7723 267.806 95.8122 267.248ZM86.5741 267.427H83.681C83.7409 267.886 83.7608 268.585 83.7608 268.944C83.7608 269.822 83.7608 274.53 83.7608 275.668C83.7608 276.286 83.701 277.064 83.6611 277.424H86.5741C86.5342 276.965 86.4943 276.187 86.4943 275.688C86.4943 274.57 86.4943 269.822 86.4943 268.944C86.4943 268.325 86.5342 267.886 86.5741 267.427ZM115.306 266.829L113.73 267.467C114.268 268.245 114.887 269.423 115.286 270.241L116.902 269.562C116.523 268.824 115.805 267.547 115.306 266.829ZM117.68 265.931L116.084 266.569C116.643 267.328 117.281 268.485 117.7 269.323L119.276 268.644C118.937 267.946 118.199 266.669 117.68 265.931ZM103.594 276.526C102.895 278.301 101.718 280.436 100.481 282.073L103.274 283.25C104.312 281.753 105.489 279.479 106.207 277.543C106.906 275.688 107.624 272.954 107.903 271.558C107.983 271.099 108.223 270.121 108.382 269.562L105.489 268.944C105.23 271.498 104.472 274.311 103.594 276.526ZM113.43 276.127C114.228 278.282 114.967 280.796 115.505 283.15L118.458 282.192C117.92 280.217 116.862 277.044 116.144 275.229C115.386 273.313 114.029 270.241 113.191 268.704L110.537 269.562C111.395 271.079 112.672 274.032 113.43 276.127ZM135.717 267.248H132.704C132.784 267.806 132.844 268.445 132.844 269.263C132.844 270.121 132.844 272.036 132.844 273.034C132.844 276.147 132.565 277.643 131.208 279.139C129.991 280.436 128.395 281.195 126.399 281.654L128.494 283.868C129.951 283.389 132.006 282.432 133.323 280.975C134.819 279.339 135.657 277.503 135.657 273.194C135.657 272.216 135.657 270.281 135.657 269.263C135.657 268.445 135.677 267.806 135.717 267.248ZM126.479 267.427H123.586C123.646 267.886 123.666 268.585 123.666 268.944C123.666 269.822 123.666 274.53 123.666 275.668C123.666 276.286 123.606 277.064 123.566 277.424H126.479C126.439 276.965 126.399 276.187 126.399 275.688C126.399 274.57 126.399 269.822 126.399 268.944C126.399 268.325 126.439 267.886 126.479 267.427ZM141.484 273.493V276.645C142.242 276.586 143.579 276.526 144.696 276.526C147.05 276.526 153.615 276.526 155.43 276.526C156.268 276.526 157.286 276.625 157.765 276.645V273.493C157.226 273.533 156.348 273.633 155.41 273.633C153.635 273.633 147.05 273.633 144.696 273.633C143.658 273.633 142.222 273.553 141.484 273.493Z" fill="#323C69"/>
<path d="M0 303.49H250L225.069 277.49" stroke="#323C69" stroke-width="1.49644"/>
<path d="M335.712 380.49H349.061V376.928H344.9V358.342H341.638C340.202 359.21 338.705 359.779 336.461 360.198V362.921H340.501V376.928H335.712V380.49ZM360.998 380.49H365.098V358.342H359.8L351.57 371.75V374.773H367.732V371.391H355.85L359.262 365.884C359.89 364.687 360.489 363.46 361.057 362.263H361.177C361.117 363.58 360.998 365.585 360.998 366.872V380.49ZM371.079 386.894C374.73 385.697 376.735 383.033 376.735 379.502C376.735 376.808 375.598 375.192 373.593 375.192C372.007 375.192 370.72 376.21 370.72 377.796C370.72 379.442 372.037 380.4 373.473 380.4C374.132 380.4 374.73 380.19 375.179 379.741L373.623 377.167L373.772 380.28C373.802 382.046 372.515 383.632 370.181 384.5L371.079 386.894ZM386.498 380.909C390.748 380.909 394.309 378.574 394.309 374.504C394.309 371.571 392.394 369.745 389.88 369.027V368.877C392.244 367.979 393.561 366.213 393.561 363.849C393.561 360.048 390.658 357.953 386.378 357.953C383.804 357.953 381.68 359.001 379.764 360.647L382.009 363.37C383.326 362.143 384.613 361.395 386.199 361.395C388.084 361.395 389.162 362.442 389.162 364.178C389.162 366.154 387.845 367.53 383.775 367.53V370.703C388.593 370.703 389.88 372.05 389.88 374.234C389.88 376.21 388.354 377.347 386.079 377.347C384.074 377.347 382.488 376.329 381.171 375.042L379.076 377.826C380.632 379.622 382.996 380.909 386.498 380.909ZM404.241 380.909C408.311 380.909 411.993 378.065 411.993 373.157C411.993 368.308 408.88 366.124 405.169 366.124C404.151 366.124 403.373 366.333 402.505 366.722L402.924 362.023H410.975V358.342H399.123L398.495 369.087L400.53 370.403C401.817 369.565 402.535 369.236 403.852 369.236C406.067 369.236 407.563 370.673 407.563 373.247C407.563 375.88 405.977 377.347 403.643 377.347C401.607 377.347 400.021 376.329 398.794 375.102L396.729 377.886C398.405 379.532 400.74 380.909 404.241 380.909ZM421.895 380.909C425.965 380.909 429.646 378.065 429.646 373.157C429.646 368.308 426.533 366.124 422.822 366.124C421.805 366.124 421.027 366.333 420.159 366.722L420.578 362.023H428.629V358.342H416.777L416.148 369.087L418.183 370.403C419.47 369.565 420.189 369.236 421.505 369.236C423.72 369.236 425.217 370.673 425.217 373.247C425.217 375.88 423.63 377.347 421.296 377.347C419.261 377.347 417.675 376.329 416.447 375.102L414.382 377.886C416.058 379.532 418.393 380.909 421.895 380.909ZM444.171 362.141V382.443H446.827V362.141H444.171ZM440.44 363.063C439.935 365.763 439.013 368.55 437.828 370.284C438.464 370.569 439.606 371.162 440.132 371.557C441.296 369.625 442.349 366.553 442.964 363.59L440.44 363.063ZM441.274 366.114L440.637 368.682H451.436V366.114H441.274ZM438.223 372.479V375.068H452.489V372.479H438.223ZM436.599 361.944C435.501 365.082 433.636 368.199 431.683 370.196C432.122 370.832 432.846 372.281 433.087 372.918C435.436 370.394 437.674 366.443 439.079 362.712L436.599 361.944ZM434.426 368.001V382.443H436.928V365.521V365.499L434.426 368.001Z" fill="#E4502B"/>
<path d="M5.28743 360.322H0.758197V362.536H2.99288V367.664H5.28743V360.322ZM5.28743 366.727H3.21236C2.33445 367.465 1.35677 368.183 0.518766 368.722L1.65606 371.096C2.65369 370.238 3.4917 369.48 4.2898 368.702C5.48695 370.238 7.10311 370.817 9.49742 370.917C11.9316 371.036 16.1815 370.996 18.6756 370.877C18.7754 370.178 19.1545 369.081 19.4138 368.542C16.6404 368.762 11.9117 368.822 9.51737 368.702C7.46226 368.622 6.04562 368.043 5.28743 366.727ZM0.818055 354.396C1.95535 355.374 3.29217 356.75 3.83089 357.728L5.80619 356.212C5.18767 355.274 3.79099 353.937 2.65369 353.059L0.818055 354.396ZM11.2732 355.214V368.263H13.5877V355.214H11.2732ZM9.21808 362.237H15.7027V363.035H9.21808V362.237ZM9.21808 360.082H15.7027V360.86H9.21808V360.082ZM7.18292 358.626V364.492H17.8376V358.626H7.18292ZM6.2252 353.159V355.912H8.34017V354.855H16.6205V355.912H18.8352V353.159H6.2252ZM6.78387 356.231V357.888H18.1768V356.231H6.78387ZM6.06558 365.21V366.946H19.0547V365.21H6.06558ZM24.1426 353.877V356.152H36.3935V353.877H24.1426ZM24.1426 358.466V360.701H36.4334V358.466H24.1426ZM24.1027 363.175V365.43H36.5132V363.175H24.1027ZM22.7659 353.877V361.04C22.7659 363.853 22.5863 367.425 20.4115 369.839C20.9302 370.138 21.9079 370.937 22.287 371.395C24.7412 368.722 25.1402 364.232 25.1402 361.06V353.877H22.7659ZM35.5555 353.877V368.442C35.5555 368.782 35.4158 368.901 35.0367 368.921C34.6775 368.921 33.3607 368.941 32.2234 368.861C32.5426 369.48 32.9018 370.518 33.0015 371.156C34.8172 371.176 36.0144 371.136 36.8524 370.757C37.6505 370.378 37.9298 369.739 37.9298 368.462V353.877H35.5555ZM28.9113 354.775V371.036H31.3455V354.775H28.9113ZM46.669 359.264L47.0282 361.559L59.1593 359.923L58.8201 357.648L46.669 359.264ZM54.1911 353.797C55.2087 354.815 56.4258 356.231 56.9246 357.149L58.8401 355.912C58.2814 354.974 57.0244 353.638 55.9869 352.68L54.1911 353.797ZM45.5716 352.7C44.3346 355.713 42.2396 358.686 40.0847 360.541C40.5037 361.12 41.1821 362.397 41.4215 362.975C43.9156 360.681 46.3498 356.99 47.8462 353.458L45.5716 352.7ZM43.4966 358.426V371.236H45.9707V356.032L45.9507 355.992L43.4966 358.426ZM50.4002 352.84C50.7593 363.714 51.9365 370.797 56.6653 371.236C57.7826 371.296 58.86 370.378 59.3788 366.507C58.9399 366.288 57.8624 365.649 57.4035 365.15C57.2638 367.345 57.0045 368.383 56.5455 368.343C54.1313 368.003 52.974 361.379 52.8344 352.84H50.4002ZM68.7565 353.678V355.952H78.5133V353.678H68.7565ZM73.8245 359.883V368.442C73.8245 368.742 73.7047 368.822 73.3256 368.841C72.9665 368.841 71.6496 368.841 70.5123 368.782C70.8316 369.48 71.1508 370.518 71.2306 371.216C73.0264 371.216 74.2834 371.196 75.1413 370.837C76.0192 370.458 76.2786 369.779 76.2786 368.502V359.883H73.8245ZM67.8986 359.204V361.479H79.0321V359.204H67.8986ZM63.4292 361.559V371.296H65.8235V359.584L65.5242 359.464L63.4292 361.559ZM65.6838 356.89C64.3669 359.145 62.1921 361.459 60.157 362.896C60.6358 363.374 61.4539 364.452 61.7931 364.951C63.928 363.195 66.3822 360.402 67.9584 357.748L65.6838 356.89ZM64.9256 352.54C63.9479 353.937 62.0325 355.733 60.3764 356.81C60.7755 357.289 61.394 358.227 61.7133 358.765C63.6088 357.449 65.7636 355.374 67.2202 353.478L64.9256 352.54Z" fill="#323C69"/>
<path d="M0 390.495H250L225.069 364.495" stroke="#323C69" stroke-width="1.49644"/>
<path d="M335.712 467.506H349.061V463.944H344.9V445.359H341.638C340.202 446.226 338.705 446.795 336.461 447.214V449.938H340.501V463.944H335.712V467.506ZM360.998 467.506H365.098V445.359H359.8L351.57 458.767V461.789H367.732V458.407H355.85L359.262 452.901C359.89 451.703 360.489 450.476 361.057 449.279H361.177C361.117 450.596 360.998 452.601 360.998 453.888V467.506ZM371.079 473.911C374.73 472.713 376.735 470.05 376.735 466.518C376.735 463.825 375.598 462.208 373.593 462.208C372.007 462.208 370.72 463.226 370.72 464.812C370.72 466.458 372.037 467.416 373.473 467.416C374.132 467.416 374.73 467.207 375.179 466.758L373.623 464.184L373.772 467.296C373.802 469.062 372.515 470.648 370.181 471.516L371.079 473.911ZM386.498 467.925C390.748 467.925 394.309 465.59 394.309 461.52C394.309 458.587 392.394 456.761 389.88 456.043V455.893C392.244 454.996 393.561 453.23 393.561 450.865C393.561 447.064 390.658 444.969 386.378 444.969C383.804 444.969 381.68 446.017 379.764 447.663L382.009 450.387C383.326 449.159 384.613 448.411 386.199 448.411C388.084 448.411 389.162 449.459 389.162 451.195C389.162 453.17 387.845 454.547 383.775 454.547V457.719C388.593 457.719 389.88 459.066 389.88 461.251C389.88 463.226 388.354 464.363 386.079 464.363C384.074 464.363 382.488 463.346 381.171 462.059L379.076 464.842C380.632 466.638 382.996 467.925 386.498 467.925ZM397.238 467.506H412.083V463.795H407.294C406.246 463.795 404.78 463.944 403.673 464.064C407.713 460.113 411.065 455.804 411.065 451.763C411.065 447.633 408.252 444.969 404.092 444.969C401.069 444.969 399.063 446.137 397.028 448.321L399.453 450.716C400.59 449.459 401.877 448.411 403.523 448.411C405.648 448.411 406.815 449.788 406.815 452.003C406.815 455.415 403.283 459.575 397.238 464.992V467.506ZM421.266 467.925C425.666 467.925 429.766 464.303 429.766 455.923C429.766 448.262 425.995 444.969 421.775 444.969C418.004 444.969 414.831 447.783 414.831 452.362C414.831 457.061 417.465 459.305 421.176 459.305C422.733 459.305 424.738 458.318 425.935 456.672L425.695 453.679C424.618 455.504 423.241 456.193 421.984 456.193C420.099 456.193 418.842 454.936 418.842 452.362C418.842 449.608 420.189 448.262 421.865 448.262C424.019 448.262 425.725 450.267 425.725 455.923C425.725 462.268 423.6 464.363 420.997 464.363C419.68 464.363 418.333 463.675 417.495 462.747L415.161 465.411C416.507 466.788 418.483 467.925 421.266 467.925ZM444.171 449.157V469.459H446.827V449.157H444.171ZM440.44 450.079C439.935 452.779 439.013 455.566 437.828 457.3C438.464 457.585 439.606 458.178 440.132 458.573C441.296 456.642 442.349 453.569 442.964 450.606L440.44 450.079ZM441.274 453.13L440.637 455.698H451.436V453.13H441.274ZM438.223 459.495V462.085H452.489V459.495H438.223ZM436.599 448.96C435.501 452.098 433.636 455.215 431.683 457.212C432.122 457.849 432.846 459.297 433.087 459.934C435.436 457.41 437.674 453.459 439.079 449.728L436.599 448.96ZM434.426 455.018V469.459H436.928V452.537V452.516L434.426 455.018Z" fill="#E4502B"/>
<path d="M6.2252 455.774C9.61713 455.774 11.6323 453.719 11.6323 451.305C11.6323 449.19 10.4551 448.033 8.67936 447.294L6.74396 446.496C5.48695 445.997 4.42947 445.598 4.42947 444.541C4.42947 443.583 5.24752 443.005 6.54444 443.005C7.76155 443.005 8.73922 443.444 9.69694 444.222L11.1734 442.366C9.97628 441.149 8.26036 440.471 6.54444 440.471C3.57151 440.471 1.43658 442.326 1.43658 444.74C1.43658 446.875 2.95298 448.092 4.42947 448.691L6.40477 449.529C7.72164 450.088 8.6195 450.447 8.6195 451.544C8.6195 452.562 7.8214 453.22 6.28506 453.22C4.98814 453.22 3.57151 452.582 2.53397 451.604L0.838007 453.639C2.27459 455.016 4.22994 455.774 6.2252 455.774ZM16.7606 455.774C18.0376 455.774 19.1549 455.156 20.1326 454.318H20.2124L20.4319 455.495H22.8262V448.99C22.8262 445.738 21.3697 444.062 18.5364 444.062C16.7606 444.062 15.1844 444.72 13.8675 445.519L14.925 447.474C15.9426 446.855 16.9601 446.416 17.9977 446.416C19.3744 446.416 19.8333 447.235 19.8932 448.332C15.4038 448.831 13.4684 450.088 13.4684 452.462C13.4684 454.378 14.7654 455.774 16.7606 455.774ZM17.7183 453.48C16.8604 453.48 16.2618 453.101 16.2618 452.243C16.2618 451.225 17.1597 450.487 19.8932 450.148V452.402C19.1749 453.101 18.5563 453.48 17.7183 453.48ZM28.549 455.774C29.826 455.774 30.9433 455.156 31.921 454.318H32.0008L32.2203 455.495H34.6146V448.99C34.6146 445.738 33.158 444.062 30.3248 444.062C28.549 444.062 26.9727 444.72 25.6559 445.519L26.7134 447.474C27.7309 446.855 28.7485 446.416 29.7861 446.416C31.1628 446.416 31.6217 447.235 31.6815 448.332C27.1922 448.831 25.2568 450.088 25.2568 452.462C25.2568 454.378 26.5537 455.774 28.549 455.774ZM29.5067 453.48C28.6488 453.48 28.0502 453.101 28.0502 452.243C28.0502 451.225 28.948 450.487 31.6815 450.148V452.402C30.9633 453.101 30.3447 453.48 29.5067 453.48ZM42.2528 455.774C45.6447 455.774 47.66 453.719 47.66 451.305C47.66 449.19 46.4828 448.033 44.707 447.294L42.7716 446.496C41.5146 445.997 40.4571 445.598 40.4571 444.541C40.4571 443.583 41.2751 443.005 42.5721 443.005C43.7892 443.005 44.7668 443.444 45.7246 444.222L47.201 442.366C46.0039 441.149 44.288 440.471 42.5721 440.471C39.5991 440.471 37.4642 442.326 37.4642 444.74C37.4642 446.875 38.9806 448.092 40.4571 448.691L42.4324 449.529C43.7493 450.088 44.6471 450.447 44.6471 451.544C44.6471 452.562 43.849 453.22 42.3127 453.22C41.0158 453.22 39.5991 452.582 38.5616 451.604L36.8656 453.639C38.3022 455.016 40.2576 455.774 42.2528 455.774Z" fill="#323C69"/>
<path d="M0 476.76H250L225.069 450.76" stroke="#323C69" stroke-width="1.49644"/>
</svg>
