<svg width="685" height="561" viewBox="0 0 685 561" fill="none" xmlns="http://www.w3.org/2000/svg">
<path d="M448.084 188.009V194.111V268.093L446.652 269.501L403.443 312.569L390.003 312.726L378.007 324.747L366.943 324.374L366.94 308.62L349.641 308.848V322.771L327.786 344.53L321.106 351.214L320.667 362.245L306.397 376.642L295.463 366.041H284.995H266.999L202.363 366.046L191.16 376.642L183.775 376.789L170.272 377.088L169.613 406.052H183.445L192.032 413.454L195.802 415.597L201.861 412.442L204.808 410.713H218.014L232.872 417.034H250.884H264.079L274.196 408.292L280.625 405.556L305.012 407.356H308.06H312.194L320.563 417.034L310.531 424.821V436.239V452.787L327.389 469.938L338.43 470.142L350.202 458.663L362.843 426.425L363.709 413L366.152 408.651L380.426 408.832L380.522 420.616L398.598 421.781H423.429L437.526 408.824L446.104 407.635L461.79 413L465.157 412.078V404.286L490.521 407.356L490.855 394.471L503.336 381.559L506.154 376.804L530.288 374.64L530.141 364.356L520.87 358.192L515.506 352.998V341.567L518.045 326.716V311.864V277.603L518.509 265.604L524.947 259.166L525.413 237.932V190.675L520.705 186.859L448.084 188.009Z" fill="#323C69"/>
<path d="M123.563 369.077H0V368.183H123.193L183.805 307.57V245.791H184.699V307.941L123.563 369.077Z" fill="#D2D2D3"/>
<path d="M448.088 188.009V194.111V268.093L446.656 269.5L403.447 312.569L390.007 312.725L378.01 324.746L366.947 324.374L366.944 308.619L349.645 308.847V322.771L327.79 344.529L321.11 351.214L320.671 362.245L306.401 376.641L295.466 366.041H284.999H267.003L202.367 366.045L191.164 376.641L183.779 376.789L170.276 377.088L169.617 406.052H183.449L192.036 413.453L195.806 415.597L201.865 412.442L204.812 410.713H218.018L232.876 417.034H250.888H264.083L274.2 408.292L280.629 405.556L305.016 407.356H308.064H312.198L320.567 417.034L310.535 424.82V436.238V452.787L327.393 469.938L338.434 470.142L350.206 458.663L362.847 426.425L363.713 412.999L366.156 408.651L380.43 408.832L380.526 420.615L398.602 421.78H423.433L437.53 408.823L446.108 407.635L461.794 412.999L465.161 412.078V404.285L490.525 407.356L490.859 394.471L503.34 381.559L506.158 376.803L530.292 374.64L530.144 364.356L520.874 358.191L515.51 352.998V341.567L518.049 326.716V311.864V277.602L518.513 265.603L524.951 259.166L525.417 237.931V190.675L520.709 186.859L448.088 188.009Z" fill="#323C69"/>
<path d="M204.233 484.67L201.215 483.328L191.094 473.036L190.816 446.964L247 438.058L249.161 435.897H284.846L289.387 440.439L278.531 465.759L273.368 470.922L264.906 479.383L246.427 462.923L231.939 462.638L212.737 474.097L204.233 484.67Z" fill="#323C69"/>
<path d="M85.2773 406.487H95.9668L103.772 406.327L117.143 392.957H149.856L160.349 403.449L173.437 416.967V441.124V444.469L161.525 456.841L161.2 482.683L152.46 491.88L142.849 501.486L135.01 496.669L134.954 477.2L125.005 478.557L120.667 477.986L109.769 462.735L110.525 459.787L118.197 451.822L121.649 448.135L119.269 432.344L119.578 430.313L117.078 427.504L111.873 422.297L108.778 420.208L105.3 420.744L103.612 421.491L85.2773 406.487Z" fill="#323C69"/>
<path d="M118.74 323.122L135.353 306.508C135.784 306.078 135.784 305.378 135.353 304.948L132.664 302.258C132.233 301.827 131.534 301.827 131.103 302.258L125.89 307.471C125.459 307.901 124.76 307.901 124.329 307.471L122.57 305.711C122.139 305.281 121.44 305.281 121.009 305.711L118.766 307.954C118.336 308.385 118.336 309.084 118.766 309.515L120.767 311.515C121.197 311.946 121.197 312.645 120.767 313.076L112.7 321.143C112.492 321.35 112.377 321.631 112.377 321.924V330.434C112.377 331.045 112.875 331.54 113.487 331.538L117.321 331.516C117.928 331.513 118.419 331.019 118.419 330.412V323.901C118.419 323.608 118.536 323.327 118.742 323.12L118.74 323.122Z" fill="#323C69"/>
<path d="M458.259 373.783V383.122C458.259 383.595 458.641 383.977 459.114 383.977H489.907C490.302 383.977 490.68 384.135 490.961 384.414L495.119 388.572C495.453 388.907 495.995 388.907 496.33 388.572L498.885 386.017C499.045 385.856 499.136 385.639 499.136 385.412V373.783C499.136 373.31 498.753 372.927 498.28 372.927H459.116C458.643 372.927 458.26 373.31 458.26 373.783H458.259Z" fill="#323C69"/>
<path d="M499.135 366.64C499.135 366.221 498.968 365.818 498.672 365.521L491.593 358.443L484.64 351.49C484.264 351.113 483.754 350.901 483.221 350.901H460.702C460.448 350.901 460.203 351.002 460.023 351.183L447.662 363.544C447.482 363.724 447.38 363.969 447.38 364.223V370.697C447.38 371.227 447.809 371.658 448.341 371.658H498.174C498.704 371.658 499.135 371.229 499.135 370.697V366.64Z" fill="#323C69"/>
<path d="M497.923 349.631C498.602 349.631 499.154 349.081 499.154 348.4V316.757C499.154 316.062 498.59 315.498 497.895 315.498H470.846C470.15 315.498 469.587 316.062 469.587 316.757V333.827C469.587 334.347 469.793 334.845 470.161 335.211L484.127 349.177C484.416 349.466 484.809 349.63 485.217 349.63H497.926L497.923 349.631Z" fill="#323C69"/>
<path d="M447.574 320.147C447.218 320.147 446.875 320.289 446.624 320.541L431.821 335.344C431.808 335.357 431.789 335.363 431.774 335.376L426.566 340.583C426.04 341.108 426.04 341.96 426.566 342.485L445.794 361.712C446.32 362.238 447.171 362.238 447.697 361.712L459.196 350.211C459.567 349.84 460.071 349.631 460.597 349.631H481.612C482.043 349.631 482.259 349.111 481.954 348.806L468.5 335.354C468.381 335.234 468.315 335.074 468.315 334.904V321.492C468.315 320.749 467.713 320.147 466.97 320.147H447.576H447.574Z" fill="#323C69"/>
<path d="M511.598 387.889L502.81 396.677C502.541 396.946 502.391 397.308 502.391 397.687V418.212C502.391 418.859 502.915 419.383 503.562 419.383H506.759C507.299 419.383 507.818 419.169 508.2 418.786L530.078 396.908C530.425 396.562 530.62 396.092 530.62 395.601V367.263C530.62 366.762 530.214 366.357 529.713 366.357H501.31C500.809 366.357 500.403 366.762 500.403 367.263V383.19C500.403 383.672 500.986 383.914 501.328 383.573L504.271 380.629C504.714 380.187 505.43 380.187 505.873 380.629L511.596 386.353C512.021 386.778 512.021 387.465 511.596 387.889H511.598Z" fill="#323C69"/>
<path d="M529.951 365.086H500.508C500.203 365.086 499.911 364.965 499.697 364.75L497.955 363.008L486.748 351.802C486.416 351.469 486.652 350.901 487.122 350.901H498.905C499.745 350.901 500.427 350.221 500.427 349.38V321.572C500.427 320.785 501.065 320.147 501.852 320.147H516.584C517.396 320.147 518.053 320.804 518.053 321.616V351.281C518.053 351.907 518.303 352.509 518.745 352.953L530.149 364.356C530.411 364.613 530.314 365.086 529.953 365.086H529.951Z" fill="#323C69"/>
<path d="M459.299 385.247C458.724 385.247 458.257 385.714 458.257 386.29V406.576C458.257 407.152 458.724 407.619 459.299 407.619H466.743C466.752 407.619 466.758 407.623 466.766 407.623L489.816 407.636C490.391 407.636 490.858 407.171 490.858 406.594V394.472C490.858 394.196 490.968 393.93 491.163 393.735L494.086 390.812C494.494 390.404 494.494 389.744 494.086 389.338L490.3 385.552C490.105 385.357 489.84 385.247 489.563 385.247H459.298H459.299Z" fill="#323C69"/>
<path d="M595.525 79.0943V75.6805C595.525 74.6906 594.723 73.889 593.733 73.889H564.884C564.41 73.889 563.954 73.7006 563.619 73.3648L514.257 24.0016C513.616 23.3606 512.746 23 511.839 23H498.606C497.451 23 496.515 23.9359 496.515 25.0909V65.3415C496.515 65.8161 496.327 66.2716 495.991 66.6089L490.886 71.7134C490.551 72.0493 490.362 72.5048 490.362 72.9794L490.356 86.4328C490.356 86.9073 490.168 87.3628 489.832 87.6987L478.484 99.0466C478.149 99.3824 477.693 99.5708 477.217 99.5708H464.066C462.854 99.5708 461.876 100.559 461.887 101.77L462.109 125.672C462.114 126.152 461.925 126.615 461.585 126.955L454.968 133.572C454.269 134.272 454.269 135.406 454.968 136.105L461.86 142.997C462.559 143.697 463.693 143.697 464.393 142.997L471.171 136.219C471.514 135.876 471.98 135.688 472.464 135.695L486.218 135.903C487.219 135.917 488.036 135.111 488.036 134.111V133.47C488.036 132.995 487.848 132.54 487.512 132.203L482.257 126.948C481.921 126.612 481.466 126.424 480.99 126.424H478.492C477.502 126.424 476.7 125.622 476.7 124.632V118.85C476.7 117.857 477.509 117.053 478.502 117.058L489.656 117.124C490.127 117.127 490.578 117.315 490.911 117.648L499.102 125.839C499.802 126.539 500.936 126.539 501.636 125.839L509.525 117.951C510.224 117.251 511.359 117.251 512.058 117.951L536.429 142.318C536.886 142.775 537.506 143.032 538.153 143.032H542.97C543.617 143.032 544.237 142.775 544.694 142.318L570.342 116.664C570.678 116.328 571.134 116.14 571.61 116.14H593.733C594.723 116.14 595.525 115.338 595.525 114.348V112.588C595.525 112.113 595.336 111.658 595.001 111.32L591.355 107.674C591.019 107.339 590.831 106.883 590.831 106.407V85.272C590.831 84.7974 591.019 84.3419 591.355 84.0046L595.001 80.3587C595.336 80.0229 595.525 79.5673 595.525 79.0914V79.0943Z" fill="#323C69"/>
<path d="M518.048 317.474V284.167C518.048 283.532 517.534 283.018 516.899 283.018H487.3C486.595 283.018 486.024 283.589 486.024 284.294V290.732C486.024 291.28 485.58 291.725 485.031 291.725H458.205C457.831 291.725 457.286 291.94 456.988 292.229L447.752 301.465C447.454 301.82 447.378 302.191 447.378 302.509V317.724C447.378 318.36 447.893 318.876 448.53 318.876H467.374C467.892 318.876 468.311 318.455 468.311 317.938V315.497C468.311 314.622 469.231 314.227 469.583 314.227H499.152C500.031 314.227 500.422 314.672 500.422 315.497V317.614C500.422 318.31 500.987 318.876 501.684 318.876H516.644C517.419 318.876 518.047 318.248 518.047 317.472L518.048 317.474Z" fill="#323C69"/>
<path d="M457.866 269.498V288.879C457.866 289.751 458.572 290.456 459.443 290.456H483.177C484.048 290.456 484.754 289.749 484.754 288.879V282.386L484.751 248.986C484.751 248.115 484.044 247.409 483.174 247.409H449.666C448.794 247.409 448.089 248.116 448.089 248.986V265.709C448.089 266.58 448.796 267.286 449.666 267.286H455.654C456.876 267.286 457.866 268.276 457.866 269.498Z" fill="#323C69"/>
<path d="M484.755 203.996V193.664C484.755 192.841 484.088 192.174 483.264 192.174H449.58C448.756 192.174 448.089 192.841 448.089 193.664V204.129C448.089 204.525 447.931 204.904 447.652 205.183L443.094 209.742C442.813 210.022 442.657 210.4 442.657 210.796V215.414C442.657 215.81 442.815 216.189 443.094 216.468L447.652 221.027C447.933 221.307 448.089 221.685 448.089 222.081V244.644C448.089 245.467 448.756 246.135 449.58 246.135H483.26C484.083 246.135 484.751 245.467 484.751 244.644V241.718C484.751 241.718 484.753 241.705 484.755 241.697V203.995V203.996Z" fill="#323C69"/>
<path d="M462.179 159.425V170.418C462.179 171.014 461.942 171.586 461.52 172.008L448.693 184.835C448.305 185.223 448.086 185.751 448.086 186.301V189.598C448.086 190.319 448.671 190.905 449.393 190.905H484.088C485.157 190.905 486.022 191.771 486.022 192.839V201.393C486.022 201.788 486.5 201.985 486.78 201.707L497.42 191.067C497.541 190.946 497.705 190.878 497.874 190.878H523.072C523.681 190.878 523.988 190.141 523.556 189.71L511.974 178.129C511.494 177.648 511.224 176.996 511.224 176.315V157.384C511.224 156.73 510.964 156.1 510.501 155.637L502.492 147.629C502.031 147.167 501.405 146.907 500.752 146.907H487.402C486.484 146.907 485.739 147.652 485.739 148.571V156.026C485.739 156.944 486.484 157.689 487.402 157.689H494.85C495.712 157.689 496.41 158.387 496.41 159.248V171.725C496.41 172.509 495.774 173.144 494.99 173.144H478.182C477.397 173.144 476.762 172.509 476.762 171.725V159.425C476.762 158.467 475.986 157.689 475.026 157.689H463.911C462.953 157.689 462.174 158.466 462.174 159.425H462.179Z" fill="#323C69"/>
<path d="M497.632 192.655L486.534 203.751C486.208 204.076 486.025 204.517 486.025 204.979V239.348C486.025 240.307 486.802 241.084 487.761 241.084H523.681C524.641 241.084 525.417 240.307 525.417 239.348V193.883C525.417 192.924 524.641 192.147 523.681 192.147H498.86C498.4 192.147 497.957 192.33 497.633 192.655H497.632Z" fill="#323C69"/>
<path d="M486.026 246.771V280.161C486.026 281.037 486.737 281.748 487.613 281.748H516.462C517.338 281.748 518.049 281.037 518.049 280.161V266.725C518.049 266.305 518.217 265.9 518.513 265.602L524.951 259.165C525.249 258.867 525.415 258.464 525.415 258.042V243.94C525.415 243.064 524.704 242.353 523.828 242.353H487.612C486.735 242.353 486.024 243.064 486.024 243.94V246.771H486.026Z" fill="#323C69"/>
<path d="M381.233 389.16H386.561C387.385 389.16 388.052 388.493 388.052 387.67V344.329C388.052 343.506 387.385 342.839 386.561 342.839H357.305C356.481 342.839 355.814 343.506 355.814 344.329V361.391C355.814 362.565 354.862 363.517 353.688 363.517H348.657C347.833 363.517 347.166 364.184 347.166 365.007V380.376C347.166 380.772 347.324 381.152 347.603 381.431L354.82 388.648C354.82 388.648 354.821 388.648 354.823 388.649L366.788 400.615C367.371 401.197 368.316 401.197 368.898 400.615L379.734 389.781C380.132 389.382 380.672 389.159 381.238 389.159L381.233 389.16Z" fill="#323C69"/>
<path d="M424.585 342.3L445.717 363.432C445.968 363.683 446.108 364.022 446.108 364.377V370.32C446.108 371.057 445.509 371.655 444.772 371.655H426.868C425.779 371.655 424.897 372.537 424.897 373.627V387.823C424.897 388.561 424.299 389.159 423.561 389.159H390.659C389.922 389.159 389.323 388.561 389.323 387.823V344.173C389.323 343.436 389.922 342.837 390.659 342.837H394.193C395.282 342.837 396.164 341.956 396.164 340.866V324.668C396.164 323.931 396.762 323.332 397.5 323.332H418.357C418.712 323.332 419.052 323.472 419.302 323.723L429.52 333.941C430.041 334.462 430.041 335.309 429.52 335.83L424.561 340.789C424.128 341.196 424.176 341.891 424.585 342.299V342.3Z" fill="#323C69"/>
<path d="M438.452 394.074C438.452 393.053 439.28 392.225 440.301 392.225H455.774C456.444 392.225 456.987 391.682 456.987 391.012V374.141C456.987 373.47 456.444 372.927 455.774 372.927H427.38C426.71 372.927 426.167 373.47 426.167 374.141V396.016C426.167 396.686 426.71 397.229 427.38 397.229H437.238C437.908 397.229 438.451 396.686 438.451 396.016V394.074H438.452Z" fill="#323C69"/>
<path d="M437.53 408.824H445.182C445.752 408.824 446.213 409.285 446.213 409.855V434.265C446.21 434.983 446.794 435.567 447.513 435.567H454.556C455.238 435.567 455.891 435.297 456.373 434.815L464.857 426.33C465.05 426.138 465.16 425.875 465.16 425.602V409.925C465.16 409.355 464.698 408.894 464.129 408.894L457.995 408.891C457.401 408.891 456.984 408.504 456.984 407.91V394.529C456.984 393.96 456.523 393.498 455.954 393.498H440.751C440.182 393.498 439.72 393.96 439.72 394.529V396.835C439.72 397.755 438.974 398.501 438.054 398.501H426.562C425.642 398.501 424.896 397.755 424.896 396.835V391.465C424.896 390.895 424.434 390.434 423.865 390.434H405.841C405.272 390.434 404.811 390.895 404.811 391.465V420.753C404.811 421.322 405.272 421.784 405.841 421.784H423.43C423.887 421.784 424.323 421.603 424.646 421.28L436.797 409.129C436.99 408.936 437.253 408.827 437.526 408.827L437.53 408.824Z" fill="#323C69"/>
<path d="M388.686 390.431H381.359C381.049 390.431 380.753 390.553 380.536 390.772L369.561 401.747C369.106 402.202 369.106 402.939 369.561 403.395L374.767 408.6C374.986 408.819 375.282 408.942 375.592 408.942H379.362C380.006 408.942 380.527 409.463 380.527 410.107V420.617C380.527 421.261 381.048 421.782 381.692 421.782H402.376C403.02 421.782 403.541 421.261 403.541 420.617V391.597C403.541 390.954 403.02 390.432 402.376 390.432H388.687L388.686 390.431Z" fill="#323C69"/>
<path d="M312.27 378.102C312.746 378.578 313.519 378.578 313.995 378.102L329.672 362.433C329.792 362.314 329.952 362.248 330.122 362.248H353.326C353.999 362.248 354.545 361.702 354.545 361.029V352.081C354.545 351.759 354.416 351.448 354.188 351.22L338.51 335.534C338.034 335.058 337.261 335.058 336.785 335.534L321.111 351.215C320.883 351.445 320.755 351.754 320.755 352.077V361.807C320.755 362.13 320.626 362.441 320.399 362.668L309.486 373.589C309.01 374.065 309.01 374.835 309.486 375.311L312.275 378.102H312.27Z" fill="#323C69"/>
<path d="M393.778 341.567C394.394 341.567 394.893 341.068 394.893 340.451V313.841C394.893 313.225 394.394 312.725 393.778 312.725H390.008C389.711 312.725 389.428 312.844 389.219 313.053L379.727 322.546C379.518 322.755 379.234 322.873 378.939 322.873H368.062C367.446 322.875 366.947 322.375 366.947 321.759V312.981C366.947 312.365 366.447 311.865 365.831 311.865H356.932C356.316 311.865 355.816 312.365 355.816 312.981V340.453C355.816 341.069 356.316 341.568 356.932 341.568H393.781L393.778 341.567Z" fill="#323C69"/>
<path d="M402.232 280.682L403.681 282.13C404.095 282.545 404.769 282.545 405.185 282.13L414.115 273.2C414.529 272.786 414.529 272.111 414.115 271.696L411.45 269.032C411.035 268.617 411.035 267.944 411.45 267.528L412.985 265.993C413.399 265.579 413.399 264.906 412.985 264.489L411.383 262.888C410.968 262.473 410.295 262.473 409.879 262.888L400.886 271.88C400.472 272.295 400.472 272.968 400.886 273.384L403.706 276.207C404.12 276.621 404.12 277.295 403.706 277.711L402.235 279.181C401.821 279.596 401.821 280.269 402.235 280.685L402.232 280.682Z" fill="#323C69"/>
<path d="M418.483 322.061C419.092 322.061 419.676 322.304 420.105 322.733L430.186 332.814C430.834 333.462 431.884 333.462 432.532 332.814L445.612 319.734C445.923 319.423 446.098 319.001 446.098 318.56V301.918C446.098 301.597 446.254 301.166 446.481 300.925L456.106 291.31C456.417 290.999 456.592 290.577 456.592 290.136V270.212C456.592 269.295 455.849 268.552 454.932 268.552H448.285C447.846 268.552 447.422 268.727 447.111 269.038L403.913 312.236C403.602 312.547 403.18 312.723 402.739 312.723H397.818C396.901 312.723 396.158 313.466 396.158 314.383V320.4C396.158 321.317 396.901 322.06 397.818 322.06H418.482L418.483 322.061Z" fill="#323C69"/>
<path d="M349.644 301.503V322.078C349.644 322.453 349.495 322.812 349.23 323.078L339.542 332.771C338.99 333.323 338.99 334.218 339.542 334.772L353.473 348.71C353.867 349.104 354.543 348.825 354.543 348.267V312.647C354.543 311.515 355.46 310.597 356.593 310.597H365.53C366.311 310.597 366.945 309.963 366.945 309.182V308.166C366.945 307.79 367.094 307.431 367.36 307.166L379.784 294.742C380.198 294.327 380.432 293.765 380.432 293.178V290.001C380.432 289.04 379.654 288.262 378.693 288.262H362.937C362.06 288.262 361.217 288.611 360.595 289.231L350.586 299.24C349.986 299.84 349.649 300.655 349.649 301.503H349.644Z" fill="#323C69"/>
<path d="M169.615 378.373V406.052C169.615 406.927 170.325 407.637 171.199 407.637H183.034C183.448 407.637 183.847 407.802 184.14 408.095L192.708 416.662C192.946 416.9 193.269 417.032 193.605 417.032H196.748C197.084 417.032 197.407 416.9 197.645 416.662L202.076 412.23C202.262 412.045 202.365 411.794 202.365 411.531V385.393C202.365 384.847 201.923 384.405 201.377 384.405H191.439C190.543 384.405 189.816 383.678 189.816 382.781V377.778C189.816 377.231 189.373 376.789 188.827 376.789H171.202C170.328 376.789 169.618 377.499 169.618 378.373H169.615Z" fill="#323C69"/>
<path d="M239.288 381.971C239.288 382.615 239.809 383.136 240.453 383.136H273.342C273.986 383.136 274.507 382.615 274.507 381.971V367.206C274.507 366.563 273.986 366.041 273.342 366.041H247.917C247.608 366.041 247.313 366.164 247.094 366.383L239.63 373.847C239.411 374.066 239.288 374.361 239.288 374.67V381.971Z" fill="#323C69"/>
<path d="M238.02 382.221V374.303C238.02 373.892 238.184 373.498 238.474 373.207L244.807 366.875C245.115 366.567 244.897 366.04 244.461 366.04H202.519C201.795 366.04 201.1 366.327 200.587 366.84L191.694 375.733C191.304 376.123 191.085 376.652 191.085 377.202V382.219C191.085 382.724 191.494 383.133 191.999 383.133H237.106C237.611 383.133 238.02 382.724 238.02 382.219V382.221Z" fill="#323C69"/>
<path d="M244.382 417.034H265.019C265.299 417.034 265.568 416.923 265.765 416.724L274.197 408.292C274.396 408.093 274.507 407.826 274.507 407.546V385.46C274.507 384.878 274.034 384.405 273.451 384.405H244.382C243.799 384.405 243.326 384.878 243.326 385.46V415.978C243.326 416.561 243.799 417.034 244.382 417.034Z" fill="#323C69"/>
<path d="M238.652 384.405H204.896C204.2 384.405 203.635 384.97 203.635 385.666V410.035C203.635 410.732 204.2 411.297 204.896 411.297H210.559C210.893 411.297 211.214 411.43 211.451 411.666L216.326 416.542C216.64 416.856 217.066 417.032 217.512 417.032H240.794C241.491 417.032 242.056 416.467 242.056 415.771V385.666C242.056 384.97 241.491 384.405 240.794 384.405H238.654H238.652Z" fill="#323C69"/>
<path d="M352.707 388.334L346.399 382.025C346.076 381.702 345.895 381.264 345.895 380.808V364.601C345.895 364.003 345.409 363.516 344.811 363.516H330.834C330.547 363.516 330.271 363.63 330.066 363.835L317.526 376.376C317.102 376.799 317.102 377.487 317.526 377.91L340.327 400.713C340.75 401.136 341.438 401.136 341.861 400.713L352.705 389.868C353.129 389.445 353.129 388.757 352.705 388.334H352.707Z" fill="#323C69"/>
<path d="M307.065 394.961H318.697C319.124 394.961 319.533 395.131 319.833 395.431L328.403 404.001C328.585 404.183 328.832 404.285 329.089 404.285H340.63C341.173 404.285 341.444 403.628 341.06 403.244L316.541 378.726C316.163 378.348 315.548 378.347 315.168 378.726L313.578 380.312C313.555 380.335 313.524 380.346 313.498 380.365C313.387 380.445 313.261 380.496 313.13 380.496C313.057 380.496 312.984 380.48 312.914 380.454C312.829 380.423 312.749 380.378 312.68 380.309L299.807 367.437C299.796 367.427 299.791 367.412 299.78 367.4L298.704 366.324C298.522 366.142 298.275 366.04 298.018 366.04H292.197C291.661 366.04 291.226 366.475 291.226 367.011V379.124C291.226 379.381 291.328 379.629 291.51 379.81L306.376 394.675C306.558 394.858 306.805 394.96 307.062 394.96L307.065 394.961Z" fill="#323C69"/>
<path d="M338.933 469.938L347.298 461.573C347.572 461.298 347.572 460.854 347.298 460.581L338.955 452.229C338.823 452.098 338.645 452.024 338.458 452.024H329.13C328.392 452.024 327.794 451.425 327.794 450.688V431.96C327.794 431.573 327.48 431.259 327.093 431.259H311.239C310.852 431.259 310.538 431.573 310.538 431.96V452.787C310.538 452.973 310.613 453.152 310.744 453.284L327.398 469.938C327.529 470.069 327.707 470.143 327.894 470.143H338.439C338.625 470.143 338.804 470.069 338.936 469.938H338.933Z" fill="#323C69"/>
<path d="M347.035 442.093L347.041 409.752C347.041 409.41 346.905 409.085 346.665 408.842L344.341 406.519L343.826 406.006C343.538 405.718 343.149 405.557 342.743 405.557H329.957C329.463 405.557 329.064 405.957 329.064 406.449V449.863C329.064 450.355 329.465 450.755 329.957 450.755H338.38C338.616 450.755 338.844 450.661 339.011 450.493L346.774 442.724C346.941 442.556 347.035 442.33 347.035 442.093Z" fill="#323C69"/>
<path d="M371.908 408.94C372.427 408.94 372.687 408.314 372.32 407.946L367.392 403.018L354.961 390.585C354.635 390.26 354.11 390.26 353.784 390.585L342.582 401.787C342.257 402.113 342.257 402.639 342.582 402.964L345.102 405.484L347.966 408.345C348.085 408.464 348.313 409.075 348.313 409.244L348.307 442.264C348.307 442.822 348.024 443.292 347.725 443.574L340.497 450.802C340.172 451.126 340.172 451.653 340.497 451.978L348.104 459.59C348.43 459.915 348.956 459.915 349.281 459.59L359.792 449.079C359.949 448.922 360.16 448.835 360.381 448.835H374.488C375.105 448.835 375.604 448.335 375.604 447.719V438.147C375.604 437.926 375.516 437.715 375.36 437.558L366.31 428.509C366.154 428.352 366.066 428.141 366.066 427.92V410.107C366.066 409.463 366.588 408.942 367.232 408.942H371.908V408.94Z" fill="#323C69"/>
<path d="M276.703 366.041C276.193 366.041 275.778 366.454 275.778 366.965V406.433C275.778 406.943 276.192 407.357 276.703 407.357H305.015C305.525 407.357 305.94 406.944 305.94 406.433V396.418C305.94 396.173 305.842 395.938 305.67 395.766L290.406 380.502C290.114 380.21 289.949 379.812 289.949 379.399V366.966C289.949 366.457 289.535 366.042 289.024 366.042H276.703V366.041Z" fill="#323C69"/>
<path d="M298.519 413.732L288.098 424.153C287.73 424.521 287.726 425.115 288.088 425.487L292.435 429.961C292.804 430.341 293.414 430.345 293.788 429.971L300.243 423.516C300.614 423.145 300.614 422.542 300.243 422.171L298.957 420.885C298.586 420.514 298.586 419.911 298.957 419.54L301.641 416.857C302.012 416.486 302.012 415.883 301.641 415.512L299.861 413.732C299.49 413.361 298.887 413.361 298.516 413.732H298.519Z" fill="#323C69"/>
<path d="M311.391 429.989H326.939C327.411 429.989 327.794 429.606 327.794 429.135V405.537C327.794 405.31 327.703 405.093 327.544 404.934L319.091 396.481C318.931 396.321 318.715 396.231 318.487 396.231H308.066C307.594 396.231 307.212 396.614 307.212 397.086V406.503C307.212 406.975 307.594 407.357 308.066 407.357H310.464C310.69 407.357 310.907 407.448 311.067 407.607L318.628 415.169C318.961 415.502 318.961 416.044 318.628 416.376L310.786 424.219C310.626 424.379 310.537 424.595 310.537 424.822V429.138C310.537 429.609 310.919 429.992 311.391 429.992V429.989Z" fill="#323C69"/>
<path d="M91.4082 407.114L104.551 420.256C104.551 420.256 104.565 420.269 104.573 420.277L104.936 420.602C105.037 420.693 105.167 420.742 105.303 420.742H109.841C109.987 420.742 110.125 420.684 110.227 420.582L122.733 408.076C123.022 407.787 123.022 407.317 122.733 407.028L113.472 397.766C113.158 397.452 112.648 397.452 112.334 397.766L103.772 406.328C103.67 406.431 103.53 406.489 103.385 406.489H91.6667C91.3396 406.489 91.1761 406.885 91.4068 407.115L91.4082 407.114Z" fill="#323C69"/>
<path d="M117.143 392.957L114.585 395.515C114.153 395.947 114.153 396.649 114.585 397.082L124.606 407.101C124.725 407.22 124.791 407.381 124.791 407.549C124.791 407.717 124.724 407.879 124.606 407.999L111.875 420.729C111.443 421.162 111.443 421.864 111.875 422.296L118.045 428.468C118.478 428.9 119.18 428.9 119.612 428.468L125.933 422.147C126.26 421.82 126.704 421.636 127.165 421.636H135.444C135.737 421.636 136.019 421.519 136.228 421.312L156.437 401.101C156.869 400.669 156.869 399.967 156.437 399.534L149.858 392.955C149.651 392.748 149.369 392.631 149.075 392.631H117.927C117.634 392.631 117.352 392.748 117.144 392.955L117.143 392.957Z" fill="#323C69"/>
<path d="M138.839 421.646H144.163C144.881 421.646 145.464 422.229 145.464 422.947V433.67C145.464 434.244 145.928 434.708 146.502 434.708H172.398C172.972 434.708 173.437 434.244 173.437 433.67V416.968C173.437 416.692 173.327 416.428 173.133 416.234L158.853 401.954C158.447 401.548 157.79 401.548 157.384 401.954L138.504 420.84C138.206 421.138 138.417 421.646 138.838 421.646H138.839Z" fill="#323C69"/>
<path d="M148.315 482.721L135.372 469.78L127.475 461.882C127.248 461.656 126.942 461.529 126.621 461.529H110.977C110.31 461.529 109.77 462.069 109.77 462.737V497.528C109.77 498.195 110.31 498.735 110.977 498.735H122.591C123.258 498.735 123.798 498.195 123.798 497.528V479.766C123.798 479.098 124.338 478.558 125.006 478.558H133.803C134.47 478.558 135.01 479.098 135.01 479.766V500.634C135.01 501.301 135.551 501.841 136.218 501.841H141.997C142.317 501.841 142.625 501.714 142.851 501.488L154.114 490.229C154.586 489.757 154.586 488.992 154.114 488.521L148.315 482.721Z" fill="#323C69"/>
<path d="M103.348 420.849L89.2522 406.753C89.0814 406.582 88.8507 406.487 88.6098 406.487H85.2793C84.777 406.487 84.3711 406.895 84.3711 407.396V432.822C84.3711 433.063 84.4675 433.293 84.6368 433.464L92.0308 440.858C92.2016 441.029 92.4323 441.124 92.6733 441.124H106.658C107.16 441.124 107.566 440.717 107.566 440.216V433.067C107.566 432.565 107.159 432.159 106.658 432.159H104.522C104.02 432.159 103.614 431.752 103.614 431.251V421.491C103.614 421.251 103.517 421.02 103.348 420.849Z" fill="#323C69"/>
<path d="M111.339 460.257H126.946C127.394 460.257 127.825 460.435 128.142 460.752L135.074 467.685C135.486 468.096 136.155 468.096 136.568 467.685L143.885 460.368C144.083 460.17 144.194 459.901 144.194 459.622V423.971C144.194 423.388 143.721 422.915 143.139 422.915H127.416C127.136 422.915 126.867 423.026 126.67 423.225L119.581 430.313C119.383 430.512 119.272 430.781 119.272 431.06V450.311C119.272 450.591 119.161 450.86 118.962 451.057L110.881 459.142C110.267 459.755 110.476 460.256 111.342 460.256L111.339 460.257Z" fill="#323C69"/>
<path d="M172.323 435.979H146.575C145.961 435.979 145.463 436.477 145.463 437.091V459.862C145.463 460.325 145.279 460.77 144.95 461.097L137.505 468.542C137.07 468.977 137.07 469.681 137.505 470.116L149.234 481.845L155.077 487.688C155.512 488.123 156.216 488.123 156.651 487.688L160.873 483.469C161.081 483.26 161.198 482.977 161.198 482.682V457.626C161.198 457.331 161.315 457.048 161.524 456.839L173.108 445.255C173.317 445.046 173.434 444.763 173.434 444.468V437.09C173.434 436.475 172.936 435.977 172.321 435.977L172.323 435.979Z" fill="#323C69"/>
<path d="M284.843 435.897L274.654 425.708C274.359 425.414 273.958 425.247 273.54 425.247H260.46C260.043 425.247 259.643 425.414 259.346 425.708L249.158 435.897C248.829 436.226 249.061 436.786 249.526 436.786H284.473C284.938 436.786 285.17 436.226 284.841 435.897H284.843Z" fill="#323C69"/>
<path d="M256.862 447.578C256.862 447.738 256.927 447.893 257.04 448.007L276.047 467.013C276.387 467.353 276.937 467.353 277.276 467.013L289.426 454.864C289.712 454.577 289.871 454.191 289.871 453.788V441.612C289.871 441.172 289.696 440.75 289.385 440.439L287.488 438.543C287.177 438.232 286.755 438.056 286.316 438.056H257.657C257.217 438.056 256.862 438.413 256.862 438.851V447.578Z" fill="#323C69"/>
<path d="M201.99 469.189C201.99 468.922 202.097 468.665 202.285 468.476L223.01 447.752C223.198 447.563 223.455 447.457 223.722 447.457H254.716C255.202 447.457 255.595 447.063 255.595 446.578V439.076C255.595 438.514 255.139 438.057 254.576 438.057H247.001L228.503 438.058C227.981 438.058 227.482 437.851 227.113 437.483L214.475 424.846C213.764 424.134 212.614 424.134 211.903 424.846L191.546 445.202C191.079 445.67 190.816 446.303 190.816 446.965L190.812 471.876C190.812 472.549 191.079 473.192 191.555 473.668L201.215 483.329C201.501 483.615 201.99 483.412 201.99 483.007V469.187V469.189Z" fill="#323C69"/>
<path d="M203.258 469.7V483.698C203.258 484.235 203.693 484.67 204.231 484.67H215.438C215.976 484.67 216.411 484.235 216.411 483.698V478.164C216.411 477.906 216.513 477.659 216.696 477.476L231.248 462.924C231.431 462.741 231.678 462.639 231.936 462.639H245.737C245.996 462.639 246.242 462.741 246.425 462.924L262.885 479.383C263.442 479.941 264.346 479.941 264.904 479.383L275.073 469.214C275.453 468.834 275.453 468.218 275.073 467.838L272.317 465.082L256.247 449.012C256.064 448.829 255.818 448.727 255.559 448.727H224.23C223.971 448.727 223.725 448.829 223.542 449.012L203.542 469.012C203.359 469.195 203.257 469.441 203.257 469.7H203.258Z" fill="#323C69"/>
<path d="M422 234.338L451.907 280.169L481.814 326" stroke="#AAADBC" stroke-width="2.18244"/>
<circle cx="485.69" cy="329.967" r="5.79356" fill="#E4502B"/>
<rect x="307" y="202" width="128.617" height="35.9201" rx="5.79356" fill="#323C69"/>
<g clip-path="url(#clip0_1235_748)">
<path d="M328.5 230C333.747 230 338 225.747 338 220.5C338 215.253 333.747 211 328.5 211C323.253 211 319 215.253 319 220.5C319 225.747 323.253 230 328.5 230Z" fill="white"/>
<path d="M330.413 218.586C330.413 219.048 330.275 219.414 330 219.685C329.724 219.957 329.383 220.144 328.977 220.245V220.273C329.505 220.342 329.91 220.509 330.19 220.768C330.47 221.028 330.608 221.377 330.608 221.815C330.608 222.2 330.515 222.549 330.324 222.853C330.133 223.162 329.841 223.405 329.448 223.579C329.054 223.758 328.543 223.847 327.923 223.847C327.201 223.847 326.56 223.725 326 223.482V222.289C326.288 222.431 326.584 222.541 326.896 222.614C327.209 222.687 327.501 222.728 327.773 222.728C328.276 222.728 328.629 222.642 328.831 222.468C329.034 222.294 329.136 222.046 329.136 221.73C329.136 221.551 329.087 221.393 328.994 221.263C328.9 221.133 328.738 221.036 328.503 220.971C328.272 220.906 327.943 220.874 327.529 220.874H327.026V219.791H327.541C327.951 219.791 328.263 219.75 328.478 219.673C328.693 219.596 328.839 219.491 328.917 219.357C328.994 219.223 329.034 219.069 329.034 218.894C329.034 218.659 328.961 218.472 328.815 218.339C328.669 218.205 328.426 218.14 328.081 218.14C327.765 218.14 327.489 218.197 327.249 218.306C327.014 218.42 326.815 218.525 326.661 218.623L326.008 217.653C326.268 217.466 326.576 217.312 326.929 217.187C327.282 217.061 327.7 217 328.182 217C328.868 217 329.407 217.138 329.809 217.414C330.211 217.69 330.409 218.079 330.409 218.586H330.413Z" fill="#323C69"/>
</g>
<path d="M345.18 217.532V219.219H353.314V217.532H345.18ZM342.725 220.921V222.638H355.86V220.921H342.725ZM348.283 218.405V225.199C348.283 225.455 348.178 225.515 347.861 225.53C347.53 225.545 346.37 225.545 345.391 225.5C345.677 225.982 346.054 226.781 346.159 227.308C347.5 227.308 348.509 227.278 349.232 226.992C349.97 226.72 350.211 226.253 350.211 225.244V218.405H348.283ZM348.283 213.179V215.89H350.211V213.179H348.283ZM342.755 214.64V218.481H344.532V216.312H353.947V218.481H355.83V214.64H342.755ZM359.535 214.76V216.312H364.747V214.76H359.535ZM361.343 225.033V226.494H365.124V225.033H361.343ZM361.343 222.623V223.994H365.169V222.623H361.343ZM358.888 217.547V219.113H366.6V217.547H358.888ZM361.524 213.284V218.586H363.196V213.284H361.524ZM365.485 213.826C364.175 217.381 361.735 220.093 358.496 221.629C358.812 221.991 359.34 222.744 359.535 223.135C362.94 221.298 365.576 218.24 367.112 214.293L365.485 213.826ZM361.915 220.228H361.268L360.289 221.267V227.278H361.915V221.674H365.094V220.228H361.915ZM364.371 220.228V227.067H366.088V220.228H364.371ZM367.082 214.007V227.293H368.86V215.694H371.511V214.007H367.082ZM371.089 214.007V214.625C370.758 215.709 370.05 217.999 369.432 219.475C370.667 220.635 371.014 221.749 371.014 222.578C371.014 223.09 370.908 223.437 370.622 223.602C370.456 223.693 370.23 223.738 370.004 223.738C369.733 223.753 369.432 223.738 369.04 223.708C369.327 224.19 369.507 224.973 369.522 225.455C369.989 225.485 370.471 225.47 370.833 225.425C371.24 225.38 371.601 225.244 371.902 225.033C372.49 224.642 372.746 223.904 372.746 222.774C372.746 221.78 372.475 220.59 371.209 219.249C371.812 217.908 372.49 216.191 373.017 214.745L371.706 213.932L371.435 214.007H371.089ZM380.142 218.36H384.54V219.701H380.142V218.36ZM378.455 216.929V221.132H386.348V216.929H378.455ZM381.437 220.318C381.422 221.057 381.332 222.081 381.226 222.804L382.823 223.165C383.019 222.533 383.26 221.599 383.546 220.68L381.437 220.318ZM377.37 222.066V227.278H379.178V223.617H385.821V227.248H387.704V222.066H377.37ZM378.169 225.154V226.72H386.755V225.154H378.169ZM381.377 213.163V215.333H383.29V213.163H381.377ZM375.954 214.414V218.21H377.717V216.056H387.086V218.21H388.939V214.414H375.954ZM396.425 220.334L394.723 220.921C396.681 224.596 399.875 226.615 404.951 227.338C405.207 226.826 405.704 225.997 406.111 225.576C401.261 225.033 397.977 223.301 396.425 220.334ZM393.247 218.692V220.454H402.903V218.692H393.247ZM392.509 215.152V216.944H405.418V215.152H392.509ZM398.007 213.163V219.49H399.89V213.163H398.007ZM402.315 218.692V219.023C400.944 223.12 396.953 224.898 391.891 225.561C392.238 225.967 392.705 226.826 392.87 227.308C398.097 226.434 402.481 224.235 404.288 219.354L403.023 218.631L402.707 218.692H402.315ZM414.2 225.109V226.886H422.786V225.109H414.2ZM414.818 217.833V219.565H422.424V217.833H414.818ZM417.695 213.314V225.967H419.547V213.314H417.695ZM408.792 215.95V217.592H413.733V215.95H408.792ZM410.946 221.102V227.323H412.739V218.963L410.946 221.102ZM410.946 213.179V216.718H412.739V213.179H410.946ZM412.558 219.475L411.564 220.349C412.242 221.011 413.507 222.397 414.095 223.181L415.194 221.719C414.787 221.343 413.085 219.836 412.558 219.475ZM413.07 215.95V216.282C412.272 218.496 410.284 220.71 408.235 221.825C408.506 222.171 408.928 223.06 409.094 223.542C411.338 222.126 413.612 219.49 414.757 216.553L413.748 215.89L413.432 215.95H413.07Z" fill="white"/>
<path d="M305 272.091L346.407 335.545L387.814 399" stroke="#AAADBC" stroke-width="2"/>
<path d="M279.83 333L302.343 367.5L324.855 402" stroke="#AAADBC" stroke-width="2"/>
<circle cx="327.794" cy="405.794" r="5.79356" fill="#E4502B"/>
<rect x="170" y="315" width="111.236" height="35.9201" rx="5.79356" fill="#323C69"/>
<g clip-path="url(#clip1_1235_748)">
<path d="M190.934 342.933C196.18 342.933 200.434 338.679 200.434 333.433C200.434 328.186 196.18 323.933 190.934 323.933C185.687 323.933 181.434 328.186 181.434 333.433C181.434 338.679 185.687 342.933 190.934 342.933Z" fill="white"/>
<path d="M190.828 330.18C191.213 330.18 191.566 330.24 191.887 330.358C192.207 330.476 192.467 330.654 192.661 330.893C192.856 331.133 192.953 331.429 192.953 331.786C192.953 332.192 192.84 332.52 192.613 332.776C192.385 333.031 192.102 333.242 191.761 333.408C191.996 333.534 192.223 333.676 192.438 333.842C192.653 334.009 192.828 334.203 192.961 334.427C193.095 334.65 193.16 334.909 193.16 335.201C193.16 335.566 193.063 335.887 192.868 336.163C192.673 336.439 192.398 336.649 192.049 336.795C191.696 336.946 191.29 337.019 190.832 337.019C190.086 337.019 189.51 336.86 189.1 336.544C188.694 336.228 188.487 335.794 188.487 335.238C188.487 334.784 188.613 334.414 188.86 334.13C189.108 333.847 189.412 333.619 189.765 333.445C189.465 333.258 189.213 333.031 189.007 332.768C188.8 332.504 188.694 332.171 188.694 331.774C188.694 331.425 188.796 331.133 188.994 330.893C189.193 330.654 189.457 330.476 189.781 330.358C190.106 330.24 190.459 330.18 190.832 330.18H190.828ZM189.793 335.153C189.793 335.396 189.879 335.595 190.049 335.749C190.219 335.903 190.475 335.98 190.808 335.98C191.14 335.98 191.416 335.907 191.59 335.757C191.765 335.607 191.85 335.408 191.85 335.161C191.85 334.994 191.801 334.844 191.7 334.719C191.599 334.593 191.477 334.475 191.327 334.374C191.177 334.272 191.027 334.175 190.881 334.09L190.759 334.025C190.467 334.163 190.232 334.321 190.053 334.5C189.875 334.678 189.785 334.897 189.785 335.153H189.793ZM190.82 331.206C190.589 331.206 190.398 331.267 190.248 331.388C190.094 331.51 190.021 331.676 190.021 331.887C190.021 332.119 190.102 332.305 190.264 332.447C190.426 332.589 190.617 332.715 190.832 332.82C191.043 332.719 191.229 332.601 191.392 332.459C191.554 332.317 191.635 332.127 191.635 331.887C191.635 331.676 191.558 331.51 191.4 331.388C191.246 331.267 191.051 331.206 190.82 331.206Z" fill="#323C69"/>
</g>
<path d="M205.277 330.196V332.064H218.683V330.196H205.277ZM213.005 330.949L211.182 331.371C212.327 335.513 214.21 338.631 217.659 340.243C217.96 339.716 218.563 338.933 219.015 338.526C215.821 337.261 213.908 334.399 213.005 330.949ZM210.926 326.144C210.881 330.226 211.152 335.95 204.976 338.707C205.503 339.098 206.06 339.746 206.347 340.243C212.809 337.125 212.839 330.738 212.914 326.144H210.926ZM228.173 326.973V328.599H235.238V326.973H228.173ZM227.48 326.973V331.386C227.48 333.721 227.345 336.959 225.688 339.159C226.079 339.355 226.787 339.927 227.074 340.243C228.881 337.848 229.167 333.962 229.167 331.386V326.973H227.48ZM228.218 330.904V332.516H233.671V330.904H228.218ZM233.295 330.904V331.205C232.753 335.061 230.855 337.713 228.008 338.797C228.369 339.159 228.836 339.852 229.047 340.303C232.316 338.812 234.364 336.041 235.057 331.16L233.943 330.844L233.626 330.904H233.295ZM230.101 332.079L228.595 332.44C229.634 336.146 231.442 338.903 234.605 340.273C234.861 339.806 235.404 339.098 235.795 338.752C232.798 337.667 230.975 335.182 230.101 332.079ZM222.073 326.792V340.303H223.654V328.404H225.628V326.792H222.073ZM225.07 326.792V327.304C224.859 328.268 224.377 330.347 223.956 331.702C224.814 332.712 225.01 333.646 225.01 334.354C225.01 334.775 224.935 335.077 224.754 335.212C224.648 335.302 224.498 335.333 224.332 335.333C224.151 335.348 223.956 335.333 223.684 335.318C223.925 335.754 224.061 336.432 224.076 336.869C224.423 336.869 224.784 336.854 225.055 336.824C225.387 336.779 225.673 336.673 225.914 336.508C226.396 336.176 226.592 335.544 226.592 334.564C226.592 333.691 226.411 332.681 225.477 331.507C225.914 330.332 226.411 328.69 226.803 327.394L225.628 326.731L225.372 326.792H225.07ZM242.529 333.314L240.826 333.902C242.785 337.577 245.978 339.596 251.054 340.319C251.31 339.806 251.808 338.978 252.214 338.556C247.364 338.014 244.08 336.282 242.529 333.314ZM239.35 331.672V333.435H249.006V331.672H239.35ZM238.612 328.132V329.925H251.521V328.132H238.612ZM244.11 326.144V332.471H245.993V326.144H244.11ZM248.418 331.672V332.004C247.048 336.101 243.056 337.878 237.995 338.541C238.341 338.948 238.808 339.806 238.974 340.288C244.201 339.415 248.584 337.216 250.392 332.335L249.126 331.612L248.81 331.672H248.418ZM260.303 338.089V339.867H268.889V338.089H260.303ZM260.921 330.814V332.546H268.528V330.814H260.921ZM263.798 326.295V338.948H265.651V326.295H263.798ZM254.896 328.931V330.573H259.836V328.931H254.896ZM257.05 334.082V340.303H258.842V331.943L257.05 334.082ZM257.05 326.159V329.699H258.842V326.159H257.05ZM258.661 332.456L257.667 333.329C258.345 333.992 259.61 335.378 260.198 336.161L261.297 334.7C260.891 334.323 259.189 332.817 258.661 332.456ZM259.173 328.931V329.262C258.375 331.476 256.387 333.691 254.338 334.805C254.609 335.152 255.031 336.041 255.197 336.523C257.441 335.107 259.716 332.471 260.861 329.533L259.851 328.87L259.535 328.931H259.173Z" fill="white"/>
<path d="M143 483L167 519.779L191 556.558" stroke="#AAADBC" stroke-width="2.13213"/>
<path d="M440 15L467.407 57L494.814 99" stroke="#AAADBC" stroke-width="2"/>
<circle cx="497.278" cy="101.701" r="5.79356" fill="#E4502B"/>
<rect x="331" width="111.236" height="35.9201" rx="5.79356" fill="#323C69"/>
<path d="M351.934 27.9327C357.18 27.9327 361.434 23.6794 361.434 18.4327C361.434 13.186 357.18 8.93274 351.934 8.93274C346.687 8.93274 342.434 13.186 342.434 18.4327C342.434 23.6794 346.687 27.9327 351.934 27.9327Z" fill="white"/>
<path d="M352.735 21.5933H351.328V17.7397C351.328 17.5856 351.328 17.3747 351.336 17.111C351.344 16.8473 351.352 16.6161 351.364 16.4174C351.332 16.4539 351.267 16.5228 351.166 16.6161C351.064 16.7135 350.967 16.7987 350.882 16.8717L350.115 17.4882L349.434 16.6405L351.579 14.9327H352.735V21.5933Z" fill="#323C69"/>
<path d="M366.111 14.3073V16.0095H372.83V14.3073H366.111ZM368.687 11.144V25.2884H370.48V11.144H368.687ZM368.627 15.422C368.1 17.4254 366.94 19.7903 365.675 21.1611C365.976 21.6281 366.428 22.3963 366.624 22.9386C367.994 21.3419 369.184 18.4045 369.817 15.8588L368.627 15.422ZM370.389 16.4162L369.455 17.32C370.043 18.1033 371.188 19.8054 371.67 20.7695L372.784 19.233C372.438 18.7962 370.841 16.853 370.389 16.4162ZM373.282 11.3097V22.2306C373.282 24.2792 373.764 24.8817 375.556 24.8817C375.918 24.8817 377.379 24.8817 377.755 24.8817C379.427 24.8817 379.879 23.9177 380.06 21.2665C379.593 21.146 378.855 20.7996 378.448 20.4682C378.343 22.7126 378.237 23.27 377.605 23.27C377.288 23.27 376.083 23.27 375.797 23.27C375.18 23.27 375.089 23.1344 375.089 22.2457V11.3097H373.282ZM391.553 16.3258V20.1368H393.286V16.3258H391.553ZM390.393 14.699H394.415V15.4521H390.393V14.699ZM390.393 12.8161H394.415V13.5542H390.393V12.8161ZM388.812 11.611V16.6722H396.072V11.611H388.812ZM388.42 19.4891V21.0105H396.479V19.4891H388.42ZM388.721 17.335C389.083 17.9978 389.475 18.9016 389.595 19.459L391.011 18.9167C390.86 18.3593 390.454 17.5007 390.047 16.853L388.721 17.335ZM394.747 16.7928C394.521 17.4555 394.099 18.4045 393.753 18.992L395.093 19.459C395.44 18.9016 395.876 18.0882 396.268 17.2898L394.747 16.7928ZM390.213 20.4983C390.107 22.3662 389.791 23.3754 387.531 23.9478C387.878 24.2792 388.285 24.9119 388.45 25.3186C391.177 24.4901 391.689 22.9687 391.824 20.4983H390.213ZM384.73 11.129V25.2734H386.251V11.129H384.73ZM382.741 13.9006V22.1402H384.052V15.4823H387.531V13.9006H382.741ZM386.929 13.9006V20.3025C386.929 20.423 386.899 20.4531 386.823 20.4531C386.718 20.4531 386.492 20.4531 386.236 20.4531C386.447 20.8598 386.628 21.5377 386.658 21.9595C387.17 21.9595 387.516 21.9143 387.848 21.6431C388.149 21.372 388.209 20.89 388.209 20.3477V13.9006H386.929ZM392.804 20.5134V23.2549C392.804 24.2189 392.924 24.5503 393.21 24.8064C393.466 25.0625 393.903 25.1981 394.295 25.1981C394.536 25.1981 394.912 25.1981 395.168 25.1981C395.455 25.1981 395.831 25.1227 396.057 25.0173C396.313 24.8968 396.509 24.6859 396.615 24.3997C396.72 24.1286 396.795 23.4808 396.84 22.8632C396.419 22.7277 395.831 22.4264 395.53 22.1553C395.515 22.7277 395.5 23.1645 395.47 23.3603C395.44 23.5712 395.394 23.6465 395.334 23.6917C395.274 23.7219 395.184 23.7369 395.093 23.7369C395.003 23.7369 394.867 23.7369 394.792 23.7369C394.702 23.7369 394.641 23.7219 394.596 23.6616C394.551 23.6164 394.551 23.4808 394.551 23.285V20.5134H392.804ZM403.529 18.3141L401.826 18.9016C403.785 22.577 406.978 24.5955 412.054 25.3186C412.31 24.8064 412.808 23.9779 413.214 23.5562C408.364 23.0139 405.08 21.2816 403.529 18.3141ZM400.35 16.6722V18.4347H410.006V16.6722H400.35ZM399.612 13.1324V14.9249H412.521V13.1324H399.612ZM405.11 11.144V17.4706H406.993V11.144H405.11ZM409.418 16.6722V17.0036C408.048 21.1008 404.056 22.8783 398.995 23.5411C399.341 23.9478 399.808 24.8064 399.974 25.2884C405.201 24.4148 409.584 22.2155 411.392 17.335L410.126 16.612L409.81 16.6722H409.418ZM421.303 23.0892V24.8667H429.889V23.0892H421.303ZM421.921 15.8136V17.5459H429.528V15.8136H421.921ZM424.798 11.2947V23.9478H426.651V11.2947H424.798ZM415.896 13.9307V15.5726H420.836V13.9307H415.896ZM418.05 19.0824V25.3035H419.842V16.9434L418.05 19.0824ZM418.05 11.1591V14.699H419.842V11.1591H418.05ZM419.661 17.4555L418.667 18.3292C419.345 18.992 420.61 20.3778 421.198 21.1611L422.297 19.7C421.891 19.3234 420.189 17.8171 419.661 17.4555ZM420.173 13.9307V14.2621C419.375 16.4764 417.387 18.6907 415.338 19.8054C415.609 20.1519 416.031 21.0406 416.197 21.5226C418.441 20.1067 420.716 17.4706 421.861 14.5333L420.851 13.8705L420.535 13.9307H420.173Z" fill="white"/>
<path d="M510 268L537.407 310L564.814 352" stroke="#AAADBC" stroke-width="2"/>
<circle cx="507.706" cy="263.921" r="5.79356" fill="#E4502B"/>
<rect x="564" y="333" width="111.236" height="35.9201" rx="5.79356" fill="#323C69"/>
<g clip-path="url(#clip2_1235_748)">
<path d="M584.934 360.933C590.18 360.933 594.434 356.679 594.434 351.433C594.434 346.186 590.18 341.933 584.934 341.933C579.687 341.933 575.434 346.186 575.434 351.433C575.434 356.679 579.687 360.933 584.934 360.933Z" fill="white"/>
<path d="M587.115 354.925H582.458V353.944L584.129 352.256C584.466 351.907 584.738 351.615 584.94 351.384C585.143 351.153 585.293 350.938 585.387 350.751C585.48 350.565 585.525 350.358 585.525 350.139C585.525 349.871 585.452 349.672 585.305 349.543C585.159 349.413 584.961 349.348 584.713 349.348C584.466 349.348 584.21 349.409 583.967 349.526C583.724 349.644 583.468 349.814 583.2 350.029L582.434 349.125C582.62 348.962 582.823 348.808 583.042 348.662C583.261 348.516 583.509 348.399 583.792 348.309C584.076 348.22 584.417 348.176 584.815 348.176C585.249 348.176 585.626 348.257 585.938 348.415C586.251 348.573 586.494 348.788 586.664 349.06C586.835 349.332 586.92 349.636 586.92 349.981C586.92 350.346 586.847 350.682 586.701 350.987C586.555 351.291 586.344 351.595 586.068 351.891C585.792 352.191 585.456 352.52 585.066 352.881L584.206 353.684V353.749H587.107V354.933L587.115 354.925Z" fill="#323C69"/>
</g>
<path d="M607.11 344.641V356.195H608.887V344.641H607.11ZM603.706 348.076V357.821H605.408V348.076H603.706ZM610.665 348.076V357.791H612.427V348.076H610.665ZM604.655 355.02V356.692H611.614V355.02H604.655ZM602.26 344.174C601.446 346.328 600.045 348.467 598.614 349.823C598.916 350.26 599.398 351.254 599.548 351.676C601.265 349.974 602.922 347.277 603.947 344.716L602.26 344.174ZM600.814 348.347V358.243H602.531V346.645L602.516 346.629L600.814 348.347ZM618.302 355.924V357.671H626.617V355.924H618.302ZM617.489 351.6V358.273H619.341V353.333H625.623V358.273H627.566V351.6H617.489ZM620.441 344.024C619.793 345.711 618.603 347.88 617.594 349.25L619.221 349.898C620.245 348.588 621.526 346.569 622.505 344.701L620.441 344.024ZM624.056 346.72C625.563 348.015 627.28 349.853 627.988 351.118L629.569 349.913C628.786 348.618 626.978 346.87 625.487 345.665L624.056 346.72ZM615.892 348.407L615.997 350.245C618.965 350.124 623.484 349.943 627.656 349.717L627.747 347.97C623.604 348.151 618.935 348.332 615.892 348.407ZM636.529 351.314L634.826 351.902C636.785 355.577 639.978 357.596 645.054 358.319C645.31 357.806 645.808 356.978 646.214 356.556C641.364 356.014 638.08 354.282 636.529 351.314ZM633.35 349.672V351.435H643.006V349.672H633.35ZM632.612 346.132V347.925H645.521V346.132H632.612ZM638.11 344.144V350.471H639.993V344.144H638.11ZM642.418 349.672V350.004C641.048 354.101 637.056 355.878 631.995 356.541C632.341 356.948 632.808 357.806 632.974 358.288C638.201 357.415 642.584 355.216 644.392 350.335L643.126 349.612L642.81 349.672H642.418ZM654.303 356.089V357.867H662.889V356.089H654.303ZM654.921 348.814V350.546H662.528V348.814H654.921ZM657.798 344.295V356.948H659.651V344.295H657.798ZM648.896 346.931V348.573H653.836V346.931H648.896ZM651.05 352.082V358.303H652.842V349.943L651.05 352.082ZM651.05 344.159V347.699H652.842V344.159H651.05ZM652.661 350.456L651.667 351.329C652.345 351.992 653.61 353.378 654.198 354.161L655.297 352.7C654.891 352.323 653.189 350.817 652.661 350.456ZM653.173 346.931V347.262C652.375 349.476 650.387 351.691 648.338 352.805C648.609 353.152 649.031 354.041 649.197 354.523C651.441 353.107 653.716 350.471 654.861 347.533L653.851 346.87L653.535 346.931H653.173Z" fill="white"/>
<path d="M479 399L533.814 483" stroke="#AAADBC" stroke-width="2"/>
<path d="M492 376L546.814 460" stroke="#AAADBC" stroke-width="2"/>
<circle cx="489.161" cy="372.831" r="5.79356" fill="#E4502B"/>
<rect x="545" y="438" width="111.236" height="35.9201" rx="5.79356" fill="#323C69"/>
<g clip-path="url(#clip3_1235_748)">
<path d="M565.934 465.933C571.18 465.933 575.434 461.679 575.434 456.433C575.434 451.186 571.18 446.933 565.934 446.933C560.687 446.933 556.434 451.186 556.434 456.433C556.434 461.679 560.687 465.933 565.934 465.933Z" fill="white"/>
<path d="M567.921 458.546H567.118V459.925H565.747V458.546H562.903V457.565L565.824 453.265H567.122V457.455H567.925V458.546H567.921ZM565.747 457.455V456.327C565.747 456.185 565.747 456.011 565.755 455.804C565.763 455.597 565.767 455.407 565.779 455.232C565.791 455.058 565.796 454.94 565.804 454.883H565.767C565.71 455.009 565.649 455.131 565.585 455.248C565.52 455.366 565.447 455.488 565.366 455.613L564.145 457.459H565.751L565.747 457.455Z" fill="#323C69"/>
</g>
<path d="M588.472 449.204V459.703H590.249V449.204H588.472ZM583.621 455.109L584.329 456.706L592.945 453.301L592.237 451.735L583.621 455.109ZM585.218 450.741V460.381C585.218 462.52 585.835 463.108 588.005 463.108C588.487 463.108 590.867 463.108 591.379 463.108C593.292 463.108 593.834 462.339 594.075 460.065C593.578 459.975 592.84 459.658 592.418 459.372C592.283 461.089 592.117 461.451 591.243 461.451C590.716 461.451 588.622 461.451 588.14 461.451C587.161 461.451 587.01 461.315 587.01 460.396V450.741H585.218ZM591.77 452.006C591.77 455.215 591.755 456.691 591.695 457.022C591.62 457.323 591.514 457.369 591.319 457.369C591.138 457.369 590.716 457.354 590.385 457.338C590.595 457.745 590.746 458.528 590.791 459.041C591.334 459.056 592.057 459.026 592.539 458.815C593.036 458.604 593.307 458.197 593.382 457.429C593.473 456.766 593.488 454.958 593.503 452.322L593.578 452.036L592.298 451.554L591.981 451.78L591.665 452.006H591.77ZM580.744 450.635C581.678 451.042 582.868 451.735 583.425 452.247L584.48 450.756C583.877 450.259 582.657 449.656 581.753 449.295L580.744 450.635ZM579.885 454.808C580.804 455.199 581.979 455.847 582.537 456.329L583.531 454.838C582.928 454.371 581.723 453.784 580.819 453.452L579.885 454.808ZM580.413 461.888L581.994 463.047C582.823 461.571 583.681 459.854 584.404 458.272L583.019 457.143C582.205 458.875 581.136 460.758 580.413 461.888ZM602.571 455.29V457.474H604.408V455.29H602.571ZM602.495 457.248C601.26 458.393 598.805 459.267 596.365 459.643C596.711 459.975 597.163 460.592 597.389 460.984C599.95 460.517 602.465 459.402 603.972 457.896L602.495 457.248ZM604.951 457.308L603.294 457.64C604.363 460.682 606.156 462.52 609.53 463.288C609.756 462.791 610.238 462.068 610.63 461.692C607.572 461.149 605.779 459.658 604.951 457.308ZM608.581 458.242C607.858 458.754 606.623 459.447 605.734 459.824L606.924 460.803C607.813 460.472 609.018 459.899 609.982 459.312L608.581 458.242ZM598.233 461.677L598.474 463.228C600.281 463.002 602.812 462.701 605.162 462.415L605.132 460.924C602.646 461.21 599.98 461.511 598.233 461.677ZM596.756 456.706V458.272H610.313V456.706H596.756ZM601.095 451.69L601.29 453.211L610.343 452.322L610.163 450.846L601.095 451.69ZM606.352 450.198C607.18 450.424 608.295 450.831 608.852 451.132L609.65 449.988C609.048 449.716 607.918 449.355 607.12 449.174L606.352 450.198ZM603.565 449.249C603.851 453.286 605.855 456.389 608.506 456.389C609.771 456.389 610.358 455.983 610.599 454.025C610.148 453.889 609.545 453.588 609.168 453.256C609.093 454.296 608.973 454.687 608.596 454.687C607.105 454.702 605.553 452.247 605.342 449.249H603.565ZM600.176 449.144C599.317 450.68 597.781 452.081 596.169 452.94C596.545 453.256 597.178 453.949 597.449 454.296C599.091 453.241 600.823 451.539 601.878 449.716L600.176 449.144ZM598.79 451.946V456.179H600.522V450.876L600.025 450.711L598.79 451.946ZM599.98 459.703V462.234H601.712V458.694L601.17 458.513L599.98 459.703ZM617.529 456.314L615.826 456.902C617.785 460.577 620.978 462.596 626.054 463.319C626.31 462.806 626.808 461.978 627.214 461.556C622.364 461.014 619.08 459.282 617.529 456.314ZM614.35 454.672V456.435H624.006V454.672H614.35ZM613.612 451.132V452.925H626.521V451.132H613.612ZM619.11 449.144V455.471H620.993V449.144H619.11ZM623.418 454.672V455.004C622.048 459.101 618.056 460.878 612.995 461.541C613.341 461.948 613.808 462.806 613.974 463.288C619.201 462.415 623.584 460.216 625.392 455.335L624.126 454.612L623.81 454.672H623.418ZM635.303 461.089V462.867H643.889V461.089H635.303ZM635.921 453.814V455.546H643.528V453.814H635.921ZM638.798 449.295V461.948H640.651V449.295H638.798ZM629.896 451.931V453.573H634.836V451.931H629.896ZM632.05 457.082V463.303H633.842V454.943L632.05 457.082ZM632.05 449.159V452.699H633.842V449.159H632.05ZM633.661 455.456L632.667 456.329C633.345 456.992 634.61 458.378 635.198 459.161L636.297 457.7C635.891 457.323 634.189 455.817 633.661 455.456ZM634.173 451.931V452.262C633.375 454.476 631.387 456.691 629.338 457.805C629.609 458.152 630.031 459.041 630.197 459.523C632.441 458.107 634.716 455.471 635.861 452.533L634.851 451.87L634.535 451.931H634.173Z" fill="white"/>
<path d="M481.5 378.5L574 520.253" stroke="#AAADBC" stroke-width="2"/>
<circle cx="480.794" cy="377.794" r="5.79356" fill="#E4502B"/>
<rect x="573" y="502" width="111.236" height="35.9201" rx="5.79356" fill="#323C69"/>
<g clip-path="url(#clip4_1235_748)">
<path d="M593.934 529.933C599.18 529.933 603.434 525.679 603.434 520.433C603.434 515.186 599.18 510.933 593.934 510.933C588.687 510.933 584.434 515.186 584.434 520.433C584.434 525.679 588.687 529.933 593.934 529.933Z" fill="white"/>
<path d="M593.999 519.67C594.405 519.67 594.766 519.747 595.082 519.901C595.398 520.055 595.65 520.283 595.832 520.583C596.015 520.883 596.108 521.252 596.108 521.694C596.108 522.416 595.885 522.984 595.435 523.398C594.985 523.812 594.323 524.018 593.447 524.018C593.098 524.018 592.77 523.986 592.462 523.925C592.153 523.864 591.886 523.771 591.654 523.653V522.441C591.886 522.558 592.161 522.66 592.486 522.745C592.81 522.83 593.115 522.871 593.399 522.871C593.816 522.871 594.133 522.785 594.356 522.615C594.575 522.445 594.688 522.177 594.688 521.816C594.688 521.143 594.242 520.81 593.354 520.81C593.179 520.81 593.001 520.826 592.814 520.863C592.628 520.895 592.474 520.932 592.348 520.96L591.788 520.66L592.04 517.265H595.65V518.457H593.269L593.147 519.763C593.253 519.743 593.366 519.723 593.488 519.703C593.609 519.682 593.78 519.67 593.995 519.67H593.999Z" fill="#323C69"/>
</g>
<path d="M608.277 517.196V519.064H621.683V517.196H608.277ZM616.005 517.949L614.182 518.371C615.327 522.513 617.21 525.631 620.659 527.243C620.96 526.716 621.563 525.933 622.015 525.526C618.821 524.261 616.908 521.399 616.005 517.949ZM613.926 513.144C613.881 517.226 614.152 522.95 607.976 525.707C608.503 526.098 609.06 526.746 609.347 527.243C615.809 524.125 615.839 517.738 615.914 513.144H613.926ZM624.576 516.593V518.265H628.944V516.593H624.576ZM629.923 516.488V518.009H637.123V516.488H629.923ZM625.992 513.355V522.905H627.679V513.355H625.992ZM624.274 523.221L624.802 524.999C626.082 524.396 627.648 523.643 629.079 522.92L628.688 521.353C627.076 522.061 625.389 522.815 624.274 523.221ZM628.884 513.716V516.578H630.586V515.298H636.43V516.578H638.223V513.716H628.884ZM630.887 519.425C633.704 521.429 633.764 524.622 632.981 525.33C632.74 525.616 632.484 525.661 632.152 525.661C631.821 525.661 631.354 525.646 630.857 525.601C631.158 526.083 631.294 526.776 631.309 527.258C631.731 527.273 632.167 527.288 632.499 527.273C633.237 527.258 633.764 527.108 634.291 526.58C635.707 525.36 635.617 520.992 632.167 518.612L630.887 519.425ZM633.207 517.06C632.077 518.115 630.149 519.109 628.417 519.696C628.733 519.968 629.23 520.585 629.456 520.886C631.188 520.148 633.252 518.943 634.593 517.663L633.207 517.06ZM635.512 517.362L634.065 517.678C634.683 520.962 635.722 524.08 637.455 525.842C637.756 525.36 638.374 524.682 638.795 524.366C637.168 522.935 636.054 520.148 635.512 517.362ZM632.213 520.103C631.429 520.826 629.833 521.685 628.673 522.091C629.034 522.378 629.441 522.89 629.697 523.236C630.857 522.664 632.454 521.655 633.312 520.841L632.213 520.103ZM633.071 521.775C631.911 523.056 629.546 524.487 627.664 525.149C628.025 525.496 628.447 526.083 628.673 526.49C630.556 525.631 632.966 524.02 634.276 522.604L633.071 521.775ZM637.5 518.356C636.943 519.019 635.918 519.953 635.255 520.45L636.069 521.549C636.807 521.097 637.741 520.344 638.599 519.696L637.5 518.356ZM641.446 516.066V517.904H654.777V516.066H641.446ZM644.549 522.905V524.743H651.539V522.905H644.549ZM647.125 513.144V527.288H649.053V513.144H647.125ZM646.583 516.729C645.514 519.501 643.329 522.212 640.859 523.568C641.266 523.929 641.868 524.622 642.169 525.074C644.806 523.417 646.945 520.54 648.24 517.256L646.583 516.729ZM649.596 516.774L647.954 517.316C649.264 520.525 651.373 523.402 654.024 525.029C654.326 524.517 654.973 523.764 655.425 523.387C652.895 522.076 650.695 519.455 649.596 516.774ZM663.303 525.089V526.867H671.889V525.089H663.303ZM663.921 517.814V519.546H671.528V517.814H663.921ZM666.798 513.295V525.948H668.651V513.295H666.798ZM657.896 515.931V517.573H662.836V515.931H657.896ZM660.05 521.082V527.303H661.842V518.943L660.05 521.082ZM660.05 513.159V516.699H661.842V513.159H660.05ZM661.661 519.455L660.667 520.329C661.345 520.992 662.61 522.378 663.198 523.161L664.297 521.7C663.891 521.323 662.189 519.817 661.661 519.455ZM662.173 515.931V516.262C661.375 518.476 659.387 520.691 657.338 521.805C657.609 522.152 658.031 523.04 658.197 523.522C660.441 522.107 662.716 519.47 663.861 516.533L662.851 515.87L662.535 515.931H662.173Z" fill="white"/>
<rect x="434" y="481" width="111.236" height="35.9201" rx="5.79356" fill="#323C69"/>
<g clip-path="url(#clip5_1235_748)">
<path d="M454.934 508.933C460.18 508.933 464.434 504.679 464.434 499.433C464.434 494.186 460.18 489.933 454.934 489.933C449.687 489.933 445.434 494.186 445.434 499.433C445.434 504.679 449.687 508.933 454.934 508.933Z" fill="white"/>
<path d="M452.438 500.098C452.438 499.716 452.467 499.339 452.524 498.966C452.58 498.589 452.678 498.236 452.816 497.903C452.958 497.571 453.152 497.274 453.404 497.019C453.655 496.763 453.976 496.561 454.365 496.41C454.755 496.264 455.225 496.191 455.777 496.191C455.907 496.191 456.061 496.195 456.235 496.204C456.41 496.212 456.556 496.232 456.673 496.256V497.384C456.556 497.36 456.426 497.339 456.288 497.319C456.146 497.299 456.008 497.291 455.874 497.291C455.323 497.291 454.893 497.376 454.592 497.55C454.292 497.725 454.077 497.968 453.951 498.284C453.826 498.601 453.757 498.962 453.737 499.372H453.793C453.919 499.153 454.098 498.97 454.329 498.82C454.564 498.67 454.864 498.597 455.237 498.597C455.821 498.597 456.284 498.779 456.629 499.148C456.973 499.518 457.144 500.037 457.144 500.706C457.144 501.428 456.941 501.992 456.531 502.406C456.126 502.815 455.57 503.022 454.876 503.022C454.422 503.022 454.012 502.917 453.643 502.71C453.278 502.503 452.982 502.183 452.767 501.749C452.548 501.315 452.443 500.767 452.443 500.102L452.438 500.098ZM454.844 501.891C455.116 501.891 455.343 501.797 455.517 501.607C455.692 501.416 455.777 501.124 455.777 500.726C455.777 500.402 455.704 500.146 455.554 499.96C455.404 499.773 455.177 499.68 454.872 499.68C454.661 499.68 454.479 499.724 454.325 499.818C454.171 499.911 454.053 500.029 453.964 500.167C453.878 500.305 453.834 500.451 453.834 500.601C453.834 500.808 453.87 501.006 453.947 501.209C454.02 501.408 454.134 501.57 454.288 501.7C454.442 501.826 454.625 501.891 454.844 501.891Z" fill="#323C69"/>
</g>
<path d="M472.501 495.352V497.085H477.261V495.352H472.501ZM478.421 496.392V497.988H481.734V496.392H478.421ZM478.421 500.067V501.664H481.734V500.067H478.421ZM478.3 503.773V505.4H481.84V503.773H478.3ZM474.278 492.129V506.273H475.935V492.129H474.278ZM474.323 496.075C473.871 498.531 472.983 501.167 471.853 502.568C472.23 502.869 472.802 503.487 473.073 503.893C474.203 502.191 474.956 499.178 475.378 496.316L474.323 496.075ZM475.528 497.928L474.805 498.817C475.318 499.465 476.357 500.896 476.779 501.679L477.682 500.007C477.381 499.676 475.92 498.26 475.528 497.928ZM469.518 493.59C470.347 493.982 471.386 494.644 471.853 495.126L472.938 493.695C472.41 493.213 471.356 492.626 470.527 492.279L469.518 493.59ZM468.84 497.627C469.684 497.988 470.723 498.606 471.22 499.073L472.26 497.612C471.748 497.16 470.678 496.603 469.834 496.286L468.84 497.627ZM469.066 505.309L470.768 506.138C471.265 504.616 471.793 502.824 472.199 501.137L470.663 500.278C470.196 502.101 469.548 504.074 469.066 505.309ZM477.577 492.762V506.243H479.204V494.388H480.861V506.138H482.563V492.762H477.577ZM485.847 493.394V495.081H499.223V493.394H485.847ZM489.146 499.871V501.272H495.894V499.871H489.146ZM488.829 502.266V503.712H496.225V502.266H488.829ZM491.616 500.549V505.851H493.333V500.549H491.616ZM486.404 496.211V506.258H488.227V497.868H497.31V496.211H486.404ZM496.798 496.211V504.436C496.798 504.661 496.722 504.737 496.451 504.752C496.21 504.767 495.261 504.767 494.523 504.722C494.764 505.128 495.035 505.791 495.126 506.258C496.346 506.258 497.235 506.243 497.837 505.987C498.455 505.731 498.666 505.324 498.666 504.451V496.211H496.798ZM489.718 498.275C490.034 498.802 490.381 499.51 490.516 499.992L492.023 499.48C491.857 499.028 491.511 498.335 491.164 497.853L489.718 498.275ZM493.966 497.883C493.77 498.455 493.378 499.284 493.062 499.841L494.342 500.218C494.689 499.736 495.096 499.028 495.502 498.305L493.966 497.883ZM491.556 492.234V497.371H493.544V492.234H491.556ZM506.529 499.314L504.826 499.901C506.785 503.577 509.978 505.595 515.054 506.318C515.31 505.806 515.808 504.978 516.214 504.556C511.364 504.014 508.08 502.281 506.529 499.314ZM503.35 497.672V499.435H513.006V497.672H503.35ZM502.612 494.132V495.925H515.521V494.132H502.612ZM508.11 492.144V498.47H509.993V492.144H508.11ZM512.418 497.672V498.004C511.048 502.101 507.056 503.878 501.995 504.541C502.341 504.948 502.808 505.806 502.974 506.288C508.201 505.415 512.584 503.215 514.392 498.335L513.126 497.612L512.81 497.672H512.418ZM524.303 504.089V505.867H532.889V504.089H524.303ZM524.921 496.814V498.546H532.528V496.814H524.921ZM527.798 492.295V504.948H529.651V492.295H527.798ZM518.896 494.931V496.573H523.836V494.931H518.896ZM521.05 500.082V506.303H522.842V497.943L521.05 500.082ZM521.05 492.159V495.699H522.842V492.159H521.05ZM522.661 498.455L521.667 499.329C522.345 499.992 523.61 501.378 524.198 502.161L525.297 500.7C524.891 500.323 523.189 498.817 522.661 498.455ZM523.173 494.931V495.262C522.375 497.476 520.387 499.691 518.338 500.805C518.609 501.152 519.031 502.04 519.197 502.522C521.441 501.107 523.716 498.47 524.861 495.533L523.851 494.87L523.535 494.931H523.173Z" fill="white"/>
<circle cx="477.794" cy="395.794" r="5.79356" fill="#E4502B"/>
<circle cx="390.794" cy="403.794" r="5.79356" fill="#E4502B"/>
<rect x="178" y="255" width="128.617" height="35.9201" rx="5.79356" fill="#323C69"/>
<g clip-path="url(#clip6_1235_748)">
<path d="M198.5 283C203.747 283 208 278.747 208 273.5C208 268.254 203.747 264 198.5 264C193.253 264 189 268.254 189 273.5C189 278.747 193.253 283 198.5 283Z" fill="white"/>
<path d="M196.967 276.993L199.465 271.517H196.18V270.332H200.958V271.221L198.439 276.997H196.967V276.993Z" fill="#323C69"/>
</g>
<path d="M218.501 278.079V279.72H225.249V278.079H218.501ZM217.748 267.64V269.236H223.08V267.64H217.748ZM218.139 266.073C217.266 267.745 215.594 269.583 213.108 270.893C213.515 271.21 214.117 271.873 214.373 272.324C217.085 270.698 218.892 268.679 220.173 266.48L218.139 266.073ZM222.508 267.64V267.941C221.122 271.737 217.236 274.659 213.078 275.864C213.455 276.241 213.907 276.979 214.132 277.476C218.621 275.97 222.643 272.897 224.406 268.212L223.155 267.549L222.854 267.64H222.508ZM215.774 270.954C216.814 271.737 218.154 272.897 218.727 273.68L220.188 272.37C219.525 271.586 218.154 270.517 217.115 269.779L215.774 270.954ZM224.406 273.484V280.323H226.289V273.484H224.406ZM219.269 273.484H218.832L217.461 274.825V280.293H219.269V275.126H225.309V273.484H219.269ZM229.994 268.739V270.502H243.747V268.739H229.994ZM232.585 277.883V279.6H241.051V277.883H232.585ZM235.869 266.164V274.192H237.857V266.164H235.869ZM231.531 273.198V280.293H233.398V274.93H240.237V280.233H242.21V273.198H231.531ZM247.965 266.856V271.225C247.965 273.635 247.844 277.054 246.338 279.374C246.805 279.555 247.603 280.007 247.949 280.308C249.546 277.823 249.787 273.876 249.787 271.225V266.856H247.965ZM248.974 266.856V268.318H257.65V269.252H248.974V270.713H259.473V266.856H248.974ZM249.456 271.375V272.791H259.865V271.375H249.456ZM250.179 276.06V277.491H259.126V276.06H250.179ZM249.155 278.53V279.946H260.211V278.53H249.155ZM253.734 274.93V279.495H255.496V274.93H253.734ZM249.878 273.936L249.953 275.337C252.122 275.262 255.285 275.141 258.268 274.991L258.313 273.68C255.24 273.801 251.986 273.891 249.878 273.936ZM252.619 271.692C252.288 272.52 251.655 273.65 251.128 274.373L252.529 274.93C253.086 274.268 253.794 273.243 254.457 272.294L252.619 271.692ZM255.602 273.183C256.641 273.936 257.906 275.036 258.494 275.774L259.985 274.84C259.352 274.087 258.012 273.032 256.987 272.34L255.602 273.183ZM267.426 273.334L265.724 273.921C267.682 277.597 270.876 279.615 275.952 280.338C276.208 279.826 276.705 278.997 277.112 278.576C272.262 278.033 268.978 276.301 267.426 273.334ZM264.248 271.692V273.454H273.903V271.692H264.248ZM263.51 268.152V269.944H276.419V268.152H263.51ZM269.008 266.164V272.49H270.891V266.164H269.008ZM273.316 271.692V272.023C271.945 276.12 267.953 277.898 262.892 278.561C263.239 278.967 263.706 279.826 263.871 280.308C269.098 279.434 273.482 277.235 275.289 272.355L274.024 271.632L273.708 271.692H273.316ZM285.201 278.109V279.886H293.787V278.109H285.201ZM285.819 270.833V272.565H293.425V270.833H285.819ZM288.696 266.314V278.967H290.548V266.314H288.696ZM279.793 268.95V270.592H284.734V268.95H279.793ZM281.947 274.102V280.323H283.74V271.963L281.947 274.102ZM281.947 266.179V269.718H283.74V266.179H281.947ZM283.559 272.475L282.565 273.349C283.243 274.012 284.508 275.397 285.095 276.181L286.195 274.719C285.788 274.343 284.086 272.837 283.559 272.475ZM284.071 268.95V269.282C283.273 271.496 281.284 273.71 279.236 274.825C279.507 275.171 279.929 276.06 280.094 276.542C282.339 275.126 284.613 272.49 285.758 269.553L284.749 268.89L284.433 268.95H284.071Z" fill="white"/>
<path d="M283 448L307 484.779L331 521.558" stroke="#AAADBC" stroke-width="2.13213"/>
<circle cx="280.598" cy="443.521" r="5.79356" fill="#E4502B"/>
<rect x="278" y="521" width="111.236" height="35.9201" rx="5.79356" fill="#323C69"/>
<g clip-path="url(#clip7_1235_748)">
<path d="M298.934 548.933C304.18 548.933 308.434 544.679 308.434 539.433C308.434 534.186 304.18 529.933 298.934 529.933C293.687 529.933 289.434 534.186 289.434 539.433C289.434 544.679 293.687 548.933 298.934 548.933Z" fill="white"/>
<path d="M301.193 539.108C301.193 539.489 301.164 539.867 301.108 540.24C301.051 540.617 300.953 540.97 300.815 541.303C300.673 541.635 300.479 541.931 300.227 542.191C299.976 542.451 299.655 542.653 299.266 542.799C298.877 542.945 298.406 543.018 297.854 543.018C297.724 543.018 297.57 543.014 297.396 543.006C297.222 542.998 297.075 542.978 296.958 542.954V541.826C297.084 541.85 297.213 541.87 297.351 541.891C297.489 541.911 297.623 541.919 297.761 541.919C298.313 541.919 298.743 541.834 299.043 541.66C299.343 541.485 299.558 541.242 299.684 540.925C299.809 540.613 299.878 540.248 299.899 539.838H299.842C299.712 540.057 299.538 540.24 299.323 540.39C299.108 540.54 298.791 540.613 298.365 540.613C297.798 540.613 297.347 540.43 297.002 540.061C296.662 539.696 296.487 539.173 296.487 538.504C296.487 537.782 296.69 537.218 297.1 536.804C297.505 536.394 298.057 536.188 298.755 536.188C299.209 536.188 299.619 536.293 299.988 536.5C300.357 536.707 300.649 537.027 300.864 537.461C301.079 537.895 301.193 538.443 301.193 539.108ZM298.787 537.315C298.515 537.315 298.288 537.408 298.114 537.599C297.939 537.79 297.854 538.082 297.854 538.479C297.854 538.804 297.927 539.059 298.077 539.246C298.227 539.433 298.455 539.526 298.759 539.526C298.966 539.526 299.144 539.481 299.298 539.388C299.453 539.295 299.574 539.177 299.663 539.039C299.749 538.901 299.793 538.755 299.793 538.605C299.793 538.398 299.757 538.199 299.68 537.997C299.603 537.794 299.493 537.636 299.343 537.506C299.193 537.38 299.006 537.315 298.783 537.315H298.787Z" fill="#323C69"/>
</g>
<path d="M317.404 533.605V535.232H326.744V533.605H317.404ZM321.095 532.144V537.055H322.887V532.144H321.095ZM319.483 542.025V544.164C319.483 545.595 319.83 546.047 321.381 546.047C321.667 546.047 322.692 546.047 323.008 546.047C324.168 546.047 324.605 545.595 324.77 543.818C324.334 543.712 323.641 543.471 323.324 543.215C323.279 544.42 323.204 544.571 322.827 544.571C322.586 544.571 321.803 544.571 321.622 544.571C321.2 544.571 321.125 544.541 321.125 544.149V542.025H319.483ZM317.796 541.965C317.615 543.08 317.224 544.21 316.546 544.887L317.902 545.821C318.7 544.978 319.061 543.667 319.287 542.402L317.796 541.965ZM320.131 541.438C321.065 541.875 322.195 542.613 322.707 543.14L323.776 542.01C323.219 541.468 322.059 540.805 321.14 540.399L320.131 541.438ZM323.882 542.402C324.695 543.426 325.433 544.827 325.644 545.761L327.196 545.098C326.94 544.134 326.141 542.809 325.298 541.815L323.882 542.402ZM323.852 537.702H324.891V539.163H323.852V537.702ZM321.532 537.702H322.556V539.163H321.532V537.702ZM319.242 537.702H320.236V539.163H319.242V537.702ZM317.781 536.256V540.609H326.442V536.256H317.781ZM316.034 535.383C315.25 536.874 313.94 538.335 312.66 539.269C312.961 539.66 313.443 540.564 313.609 540.956C315.085 539.736 316.651 537.808 317.63 535.97L316.034 535.383ZM315.763 532.144C315.145 533.138 313.88 534.403 312.795 535.157C313.081 535.488 313.518 536.121 313.744 536.482C315.009 535.548 316.425 534.087 317.359 532.777L315.763 532.144ZM314.799 538.651V546.288H316.486V537.175L316.335 537.115L314.799 538.651ZM331.579 541.046V542.357H341.807V541.046H331.579ZM332.543 538.983V540.323H343.419V538.983H332.543ZM332.543 535.217V536.331H339.819V535.217H332.543ZM341.129 541.046V541.272C340.978 543.502 340.798 544.39 340.572 544.646C340.436 544.767 340.301 544.797 340.09 544.797C339.879 544.797 339.412 544.797 338.885 544.722C339.126 545.159 339.306 545.806 339.322 546.273C340.014 546.303 340.662 546.303 341.009 546.243C341.415 546.183 341.732 546.077 342.033 545.731C342.44 545.294 342.65 544.195 342.846 541.694C342.892 541.483 342.907 541.046 342.907 541.046H341.129ZM335.269 532.099C335.194 532.626 334.983 533.349 334.803 533.891L336.384 534.177C336.685 533.695 337.107 532.987 337.439 532.249L335.269 532.099ZM332.603 533.274V534.524H339.352V537.07H332.603V538.305H341.159V533.274H332.603ZM331.579 533.274V541.468H333.372V533.274H331.579ZM337.062 542.703V544.089H331.142V545.46H338.719V542.703H337.062ZM333.673 542.251V544.752H335.33V542.251H333.673ZM330.253 542.718V546.108H331.88V542.718H330.253ZM350.529 539.314L348.826 539.901C350.785 543.577 353.978 545.595 359.054 546.318C359.31 545.806 359.808 544.978 360.214 544.556C355.364 544.014 352.08 542.281 350.529 539.314ZM347.35 537.672V539.435H357.006V537.672H347.35ZM346.612 534.132V535.925H359.521V534.132H346.612ZM352.11 532.144V538.47H353.993V532.144H352.11ZM356.418 537.672V538.004C355.048 542.101 351.056 543.878 345.995 544.541C346.341 544.948 346.808 545.806 346.974 546.288C352.201 545.415 356.584 543.215 358.392 538.335L357.126 537.612L356.81 537.672H356.418ZM368.303 544.089V545.867H376.889V544.089H368.303ZM368.921 536.814V538.546H376.528V536.814H368.921ZM371.798 532.295V544.948H373.651V532.295H371.798ZM362.896 534.931V536.573H367.836V534.931H362.896ZM365.05 540.082V546.303H366.842V537.943L365.05 540.082ZM365.05 532.159V535.699H366.842V532.159H365.05ZM366.661 538.455L365.667 539.329C366.345 539.992 367.61 541.378 368.198 542.161L369.297 540.7C368.891 540.323 367.189 538.817 366.661 538.455ZM367.173 534.931V535.262C366.375 537.476 364.387 539.691 362.338 540.805C362.609 541.152 363.031 542.04 363.197 542.522C365.441 541.107 367.716 538.47 368.861 535.533L367.851 534.87L367.535 534.931H367.173Z" fill="white"/>
<path d="M113 365.779L125 384.169L137 402.559" stroke="#AAADBC" stroke-width="2"/>
<circle cx="137.794" cy="403.794" r="5.79356" fill="#E4502B"/>
<rect x="3" y="348" width="111.236" height="35.9201" rx="5.79356" fill="#323C69"/>
<g clip-path="url(#clip8_1235_748)">
<path d="M23.9336 375.933C29.1803 375.933 33.4336 371.679 33.4336 366.433C33.4336 361.186 29.1803 356.933 23.9336 356.933C18.6869 356.933 14.4336 361.186 14.4336 366.433C14.4336 371.679 18.6869 375.933 23.9336 375.933Z" fill="white"/>
<path d="M22.0958 369.925H20.6883V366.072C20.6883 365.918 20.6883 365.707 20.6964 365.443C20.7045 365.179 20.7126 364.948 20.7248 364.749C20.6923 364.786 20.6274 364.855 20.526 364.948C20.4246 365.046 20.3273 365.131 20.2421 365.204L19.4754 365.82L18.7939 364.972L20.9398 363.265H22.0958V369.925Z" fill="#323C69"/>
<path d="M28.5698 366.595C28.5698 367.309 28.4927 367.921 28.3426 368.433C28.1885 368.944 27.9411 369.333 27.6003 369.609C27.2596 369.885 26.8053 370.019 26.2374 370.019C25.4342 370.019 24.846 369.718 24.4729 369.114C24.0997 368.51 23.9131 367.67 23.9131 366.595C23.9131 365.881 23.9861 365.265 24.1362 364.753C24.2863 364.238 24.5297 363.849 24.8744 363.573C25.2152 363.301 25.6695 363.163 26.2374 363.163C27.0324 363.163 27.6206 363.464 28.0019 364.068C28.3832 364.672 28.5698 365.512 28.5698 366.595ZM25.3125 366.595C25.3125 367.354 25.3774 367.925 25.5072 368.307C25.637 368.688 25.8804 368.879 26.2333 368.879C26.5862 368.879 26.8256 368.688 26.9594 368.311C27.0973 367.93 27.1663 367.358 27.1663 366.595C27.1663 365.832 27.0973 365.265 26.9594 364.879C26.8215 364.494 26.5781 364.299 26.2333 364.299C25.8885 364.299 25.637 364.494 25.5072 364.879C25.3774 365.265 25.3125 365.836 25.3125 366.595Z" fill="#323C69"/>
</g>
<path d="M46.7578 367.263V372.279H48.3695V367.263H46.7578ZM45.9594 363.286H49.3336V364.356H45.9594V363.286ZM44.3627 361.916V365.727H51.0056V361.916H44.3627ZM43.5945 366.389V373.273H45.2665V367.836H49.921V373.258H51.6533V366.389H43.5945ZM44.5585 368.845V370.185H50.8248V368.845H44.5585ZM44.5736 371.225V372.671H50.8399V371.225H44.5736ZM43.5191 359.777V361.298H51.7136V359.777H43.5191ZM38.1717 361.931V363.558H42.6756V361.931H38.1717ZM39.9793 359.159V362.699H41.7417V359.159H39.9793ZM41.9074 365.456L40.8981 366.314C41.4103 366.856 42.4346 367.986 42.9016 368.634L43.956 367.188C43.6397 366.887 42.3292 365.727 41.9074 365.456ZM42.0128 361.931V362.262C41.2747 364.461 39.4822 366.676 37.5993 367.805C37.8704 368.137 38.3073 369.041 38.4579 369.523C40.5366 368.092 42.6304 365.425 43.6698 362.503L42.6756 361.87L42.3743 361.931H42.0128ZM39.9793 367.082V373.288H41.7417V364.958L39.9793 367.082ZM55.148 359.867V373.288H56.9104V361.569H66.9726V359.867H55.148ZM66.2195 359.867V371.315C66.2195 371.571 66.1291 371.647 65.8881 371.647C65.6471 371.662 64.8638 371.677 64.1709 371.631C64.4119 372.068 64.668 372.837 64.7433 373.303C65.9333 373.303 66.7166 373.273 67.2588 372.987C67.8162 372.701 67.9969 372.234 67.9969 371.345V359.867H66.2195ZM57.4075 363.979V365.456H65.7525V363.979H57.4075ZM58.7481 368.98V370.457H64.2311V368.98H58.7481ZM60.6461 365.23V369.718H62.288V365.23H60.6461ZM57.9648 366.239V371.36H59.4711V366.239H57.9648ZM63.493 366.239V371.104H65.0445V366.239H63.493ZM58.2209 362.036C58.6427 362.699 59.0343 363.603 59.1548 364.205L60.6611 363.648C60.5105 363.045 60.1189 362.172 59.667 361.554L58.2209 362.036ZM63.2068 361.464C63.0261 362.142 62.6344 363.091 62.3181 363.723L63.7039 364.13C64.0654 363.573 64.5475 362.714 64.9994 361.886L63.2068 361.464ZM75.5286 366.314L73.8264 366.902C75.7846 370.577 78.9781 372.596 84.0544 373.319C84.3105 372.806 84.8075 371.978 85.2142 371.556C80.3639 371.014 77.0801 369.282 75.5286 366.314ZM72.3502 364.672V366.435H82.0058V364.672H72.3502ZM71.6121 361.132V362.925H84.5213V361.132H71.6121ZM77.1102 359.144V365.471H78.9931V359.144H77.1102ZM81.4183 364.672V365.004C80.0476 369.101 76.0558 370.878 70.9945 371.541C71.341 371.948 71.8079 372.806 71.9736 373.288C77.2006 372.415 81.584 370.216 83.3916 365.335L82.1263 364.612L81.81 364.672H81.4183ZM93.3032 371.089V372.867H101.889V371.089H93.3032ZM93.9208 363.814V365.546H101.528V363.814H93.9208ZM96.7979 359.295V371.948H98.6507V359.295H96.7979ZM87.8955 361.931V363.573H92.8363V361.931H87.8955ZM90.0496 367.082V373.303H91.8421V364.943L90.0496 367.082ZM90.0496 359.159V362.699H91.8421V359.159H90.0496ZM91.6613 365.456L90.6671 366.329C91.345 366.992 92.6103 368.378 93.1978 369.161L94.2974 367.7C93.8907 367.323 92.1885 365.817 91.6613 365.456ZM92.1735 361.931V362.262C91.3751 364.476 89.3868 366.691 87.3382 367.805C87.6093 368.152 88.0311 369.041 88.1968 369.523C90.4412 368.107 92.7157 365.471 93.8606 362.533L92.8513 361.87L92.535 361.931H92.1735Z" fill="white"/>
<path d="M90 280L102 298.39L114 316.779" stroke="#AAADBC" stroke-width="2"/>
<circle cx="117.218" cy="320.698" r="5.79356" fill="#E4502B"/>
<rect x="3" y="246" width="111.236" height="35.9201" rx="5.79356" fill="#323C69"/>
<path d="M23.9336 273.933C29.1803 273.933 33.4336 269.679 33.4336 264.433C33.4336 259.186 29.1803 254.933 23.9336 254.933C18.6869 254.933 14.4336 259.186 14.4336 264.433C14.4336 269.679 18.6869 273.933 23.9336 273.933Z" fill="white"/>
<path d="M22.0958 267.925H20.6883V264.072C20.6883 263.918 20.6883 263.707 20.6964 263.443C20.7045 263.179 20.7126 262.948 20.7248 262.749C20.6923 262.786 20.6274 262.855 20.526 262.948C20.4246 263.046 20.3273 263.131 20.2421 263.204L19.4754 263.82L18.7939 262.972L20.9398 261.265H22.0958V267.925Z" fill="#323C69"/>
<path d="M28.6068 267.925H23.9501V266.944L25.6213 265.256C25.958 264.907 26.2298 264.615 26.4326 264.384C26.6354 264.153 26.7855 263.938 26.8788 263.751C26.9721 263.565 27.0167 263.358 27.0167 263.139C27.0167 262.871 26.9437 262.672 26.7977 262.543C26.6517 262.413 26.4529 262.348 26.2055 262.348C25.958 262.348 25.7025 262.409 25.4591 262.526C25.2157 262.644 24.9602 262.814 24.6924 263.029L23.9258 262.125C24.1124 261.962 24.3152 261.808 24.5342 261.662C24.7533 261.516 25.0007 261.399 25.2847 261.309C25.5686 261.22 25.9093 261.176 26.3069 261.176C26.7409 261.176 27.1181 261.257 27.4305 261.415C27.7428 261.573 27.9862 261.788 28.1566 262.06C28.3269 262.332 28.4121 262.636 28.4121 262.981C28.4121 263.346 28.3391 263.682 28.1931 263.987C28.047 264.291 27.8361 264.595 27.5603 264.891C27.2845 265.191 26.9478 265.52 26.5584 265.881L25.6984 266.684V266.749H28.5987V267.933L28.6068 267.925Z" fill="#323C69"/>
<path d="M42.6907 260.051V267.267H44.3928V261.784H49.9813V267.146H51.7588V260.051H42.6907ZM46.2456 257.219V271.258H48.0532V257.219H46.2456ZM43.5794 264.676V266.408H50.7646V264.676H43.5794ZM38.7592 258.53C39.7383 258.952 40.9885 259.675 41.5609 260.217L42.6304 258.741C41.9978 258.214 40.7174 257.566 39.7533 257.204L38.7592 258.53ZM37.8554 262.627C38.8646 263.034 40.1299 263.712 40.7174 264.224L41.7266 262.733C41.0789 262.22 39.7835 261.603 38.8044 261.256L37.8554 262.627ZM38.3826 269.918L39.9341 271.108C40.8078 269.647 41.7417 267.929 42.5099 266.333L41.1542 265.158C40.2805 266.905 39.1659 268.773 38.3826 269.918ZM61.2637 265.579V266.815H67.1685V265.579H61.2637ZM62.1223 260.925H66.3249V261.708H62.1223V260.925ZM62.1223 259.012H66.3249V259.78H62.1223V259.012ZM60.6009 257.792V262.928H67.9216V257.792H60.6009ZM63.4027 258.364V269.104C63.4027 270.821 63.7943 271.288 65.2705 271.288C65.5868 271.288 66.7316 271.288 67.063 271.288C68.253 271.288 68.7049 270.791 68.8556 269.315C68.4037 269.21 67.8011 268.969 67.4396 268.713C67.3794 269.662 67.289 269.918 66.9275 269.918C66.6864 269.918 65.7676 269.918 65.5718 269.918C65.1048 269.918 65.0445 269.812 65.0445 269.119V258.364H63.4027ZM60.4051 263.546V269.752H61.9867V263.546H60.4051ZM61.354 263.546V264.811H66.581V267.598H61.354V268.863H68.2229V263.546H61.354ZM56.6995 257.159C56.353 258.198 55.7053 259.66 55.1781 260.563L56.3832 261.06C56.9556 260.217 57.6485 258.876 58.2661 257.701L56.6995 257.159ZM58.4016 258.937C57.6033 260.548 56.2325 262.748 55.1028 264.103L56.1422 264.691C57.302 263.395 58.7632 261.301 59.8628 259.614L58.4016 258.937ZM54.3647 260.669C55.1179 261.437 56.0066 262.507 56.338 263.245L57.3171 261.859C56.9556 261.151 56.0367 260.172 55.2534 259.464L54.3647 260.669ZM57.8895 262.552C58.4468 263.591 58.9741 264.977 59.1397 265.851L60.4954 265.233C60.3147 264.374 59.7423 263.049 59.1397 262.025L57.8895 262.552ZM54.3195 263.757L54.4551 265.308C55.8861 265.203 57.7238 265.082 59.5163 264.917L59.5013 263.456C57.6184 263.576 55.6752 263.681 54.3195 263.757ZM58.2962 266.333C58.6276 267.191 58.9138 268.306 58.9891 269.044L60.3297 268.607C60.2243 267.884 59.923 266.785 59.5615 265.941L58.2962 266.333ZM54.9672 266.001C54.8467 267.267 54.6208 268.622 54.199 269.511C54.5455 269.662 55.2082 269.948 55.5095 270.144C55.9463 269.18 56.2627 267.688 56.4133 266.242L54.9672 266.001ZM56.6242 264.555V271.288H58.1757V264.555H56.6242ZM75.5286 264.314L73.8264 264.902C75.7846 268.577 78.9781 270.596 84.0544 271.319C84.3105 270.806 84.8075 269.978 85.2142 269.556C80.3639 269.014 77.0801 267.282 75.5286 264.314ZM72.3502 262.672V264.435H82.0058V262.672H72.3502ZM71.6121 259.132V260.925H84.5213V259.132H71.6121ZM77.1102 257.144V263.471H78.9931V257.144H77.1102ZM81.4183 262.672V263.004C80.0476 267.101 76.0558 268.878 70.9945 269.541C71.341 269.948 71.8079 270.806 71.9736 271.288C77.2006 270.415 81.584 268.216 83.3916 263.335L82.1263 262.612L81.81 262.672H81.4183ZM93.3032 269.089V270.867H101.889V269.089H93.3032ZM93.9208 261.814V263.546H101.528V261.814H93.9208ZM96.7979 257.295V269.948H98.6507V257.295H96.7979ZM87.8955 259.931V261.573H92.8363V259.931H87.8955ZM90.0496 265.082V271.303H91.8421V262.943L90.0496 265.082ZM90.0496 257.159V260.699H91.8421V257.159H90.0496ZM91.6613 263.456L90.6671 264.329C91.345 264.992 92.6103 266.378 93.1978 267.161L94.2974 265.7C93.8907 265.323 92.1885 263.817 91.6613 263.456ZM92.1735 259.931V260.262C91.3751 262.476 89.3868 264.691 87.3382 265.805C87.6093 266.152 88.0311 267.041 88.1968 267.523C90.4412 266.107 92.7157 263.471 93.8606 260.533L92.8513 259.87L92.535 259.931H92.1735Z" fill="white"/>
<circle cx="142.712" cy="480.6" r="5.79356" fill="#E4502B"/>
<rect x="110" y="525" width="128.617" height="35.9201" rx="5.79356" fill="#323C69"/>
<g clip-path="url(#clip9_1235_748)">
<path d="M130.5 553C135.747 553 140 548.747 140 543.5C140 538.253 135.747 534 130.5 534C125.253 534 121 538.253 121 543.5C121 548.747 125.253 553 130.5 553Z" fill="white"/>
<path d="M128.662 546.993H127.255V543.139C127.255 542.985 127.255 542.774 127.263 542.51C127.271 542.247 127.279 542.015 127.291 541.817C127.259 541.853 127.194 541.922 127.092 542.015C126.991 542.113 126.894 542.198 126.808 542.271L126.042 542.888L125.36 542.04L127.506 540.332H128.662V546.993Z" fill="#323C69"/>
<path d="M134 546.993H132.593V543.139C132.593 542.985 132.593 542.774 132.601 542.51C132.609 542.247 132.617 542.015 132.629 541.817C132.597 541.853 132.532 541.922 132.43 542.015C132.329 542.113 132.232 542.198 132.146 542.271L131.38 542.888L130.698 542.04L132.844 540.332H134V546.993Z" fill="#323C69"/>
</g>
<path d="M148.166 541.631V537.248H146.434V541.631C146.434 543.876 146.343 547.009 145.078 549.163C145.47 549.344 146.238 549.856 146.539 550.157C147.925 547.807 148.166 544.087 148.166 541.631ZM159.042 537.248H147.292V538.83H159.042V537.248ZM153.709 536.163H151.826V538.302H153.709V536.163ZM158.695 539.944H147.624V541.375H156.978V542.641H147.624V544.087H158.695V539.944ZM155.502 548.214V544.388H153.77V548.229C153.77 549.751 154.146 550.233 155.758 550.233C156.074 550.233 157.189 550.233 157.505 550.233C158.74 550.233 159.192 549.72 159.358 547.898C158.906 547.792 158.198 547.536 157.867 547.28C157.807 548.515 157.716 548.756 157.34 548.756C157.083 548.756 156.225 548.756 156.029 548.756C155.577 548.756 155.502 548.681 155.502 548.214ZM158.996 545.849L157.701 544.674C156.978 545.156 155.713 545.683 154.568 546.015C154.779 546.346 155.005 546.904 155.08 547.235C156.36 546.919 157.867 546.437 158.996 545.849ZM147.669 548.666L147.85 550.233C149.386 550.022 151.405 549.751 153.303 549.449L153.242 548.003C151.209 548.274 149.085 548.53 147.669 548.666ZM150.682 544.373H148.979V549.344H150.682V544.373ZM153.182 545.473H149.763V546.919H153.182V545.473ZM155.17 538.724H153.468V543.364H155.17V538.724ZM151.57 538.724H149.898V543.364H151.57V538.724ZM168.637 541.375H172.674V543.017H168.637V541.375ZM168.637 538.333H172.674V539.944H168.637V538.333ZM166.89 536.781V544.569H174.512V536.781H166.89ZM163.35 536.6V544.81H165.112V536.6H163.35ZM169.782 544.945V548.033C169.782 549.69 170.188 550.263 171.951 550.263C172.282 550.263 173.427 550.263 173.774 550.263C175.22 550.263 175.717 549.645 175.897 547.265C175.4 547.145 174.602 546.858 174.225 546.542C174.165 548.289 174.09 548.545 173.608 548.545C173.322 548.545 172.433 548.545 172.207 548.545C171.71 548.545 171.62 548.485 171.62 548.018V544.945H169.782ZM165.79 544.975C165.579 546.904 165.127 548.124 161.723 548.802C162.1 549.178 162.566 549.931 162.747 550.413C166.709 549.449 167.447 547.642 167.748 544.975H165.79ZM180.477 545.066V546.376H190.705V545.066H180.477ZM181.441 543.002V544.343H192.316V543.002H181.441ZM181.441 539.236V540.351H188.716V539.236H181.441ZM190.027 545.066V545.292C189.876 547.521 189.695 548.41 189.469 548.666C189.334 548.786 189.198 548.817 188.987 548.817C188.777 548.817 188.31 548.817 187.782 548.741C188.023 549.178 188.204 549.826 188.219 550.293C188.912 550.323 189.56 550.323 189.906 550.263C190.313 550.202 190.629 550.097 190.931 549.751C191.337 549.314 191.548 548.214 191.744 545.714C191.789 545.503 191.804 545.066 191.804 545.066H190.027ZM184.167 536.118C184.092 536.645 183.881 537.369 183.7 537.911L185.282 538.197C185.583 537.715 186.005 537.007 186.336 536.269L184.167 536.118ZM181.501 537.293V538.543H188.249V541.089H181.501V542.324H190.057V537.293H181.501ZM180.477 537.293V545.488H182.269V537.293H180.477ZM185.96 546.723V548.109H180.04V549.479H187.617V546.723H185.96ZM182.57 546.271V548.771H184.227V546.271H182.57ZM179.151 546.738V550.127H180.778V546.738H179.151ZM199.426 543.334L197.724 543.921C199.682 547.596 202.876 549.615 207.952 550.338C208.208 549.826 208.705 548.997 209.112 548.576C204.262 548.033 200.978 546.301 199.426 543.334ZM196.248 541.692V543.454H205.903V541.692H196.248ZM195.51 538.152V539.944H208.419V538.152H195.51ZM201.008 536.163V542.49H202.891V536.163H201.008ZM205.316 541.692V542.023C203.945 546.12 199.953 547.898 194.892 548.561C195.239 548.967 195.706 549.826 195.871 550.308C201.098 549.434 205.482 547.235 207.289 542.354L206.024 541.631L205.708 541.692H205.316ZM217.201 548.109V549.886H225.787V548.109H217.201ZM217.819 540.833V542.565H225.425V540.833H217.819ZM220.696 536.314V548.967H222.548V536.314H220.696ZM211.793 538.95V540.592H216.734V538.95H211.793ZM213.947 544.102V550.323H215.74V541.963L213.947 544.102ZM213.947 536.179V539.718H215.74V536.179H213.947ZM215.559 542.475L214.565 543.349C215.243 544.011 216.508 545.397 217.095 546.181L218.195 544.719C217.788 544.343 216.086 542.836 215.559 542.475ZM216.071 538.95V539.282C215.273 541.496 213.284 543.71 211.236 544.825C211.507 545.171 211.929 546.06 212.094 546.542C214.339 545.126 216.613 542.49 217.758 539.553L216.749 538.89L216.433 538.95H216.071Z" fill="white"/>
<defs>
<clipPath id="clip0_1235_748">
<rect width="19" height="19" fill="white" transform="translate(319 211)"/>
</clipPath>
<clipPath id="clip1_1235_748">
<rect width="19" height="19" fill="white" transform="translate(181.434 323.933)"/>
</clipPath>
<clipPath id="clip2_1235_748">
<rect width="19" height="19" fill="white" transform="translate(575.434 341.933)"/>
</clipPath>
<clipPath id="clip3_1235_748">
<rect width="19" height="19" fill="white" transform="translate(556.434 446.933)"/>
</clipPath>
<clipPath id="clip4_1235_748">
<rect width="19" height="19" fill="white" transform="translate(584.434 510.933)"/>
</clipPath>
<clipPath id="clip5_1235_748">
<rect width="19" height="19" fill="white" transform="translate(445.434 489.933)"/>
</clipPath>
<clipPath id="clip6_1235_748">
<rect width="19" height="19" fill="white" transform="translate(189 264)"/>
</clipPath>
<clipPath id="clip7_1235_748">
<rect width="19" height="19" fill="white" transform="translate(289.434 529.933)"/>
</clipPath>
<clipPath id="clip8_1235_748">
<rect width="19" height="19" fill="white" transform="translate(14.4336 356.933)"/>
</clipPath>
<clipPath id="clip9_1235_748">
<rect width="19" height="19" fill="white" transform="translate(121 534)"/>
</clipPath>
</defs>
</svg>
