<svg width="483" height="567" viewBox="0 0 483 567" fill="none" xmlns="http://www.w3.org/2000/svg">
<rect x="68.3828" y="8.36426" width="31.5613" height="7.36431" transform="rotate(90 68.3828 8.36426)" fill="#323C69"/>
<path d="M0.633331 28.5205H7.64416V27.0771H4.93409C4.40386 27.0771 3.71161 27.136 3.15193 27.1949C5.44959 24.9856 7.12865 22.8205 7.12865 20.7438C7.12865 18.7702 5.84726 17.4888 3.8589 17.4888C2.44495 17.4888 1.48759 18.0926 0.544959 19.1089L1.51705 20.0368C2.09146 19.374 2.79844 18.8438 3.6527 18.8438C4.86045 18.8438 5.47905 19.6539 5.47905 20.8174C5.47905 22.5996 3.84417 24.7058 0.633331 27.5337V28.5205ZM13.334 28.7267C15.4549 28.7267 16.8394 26.8267 16.8394 23.0562C16.8394 19.3151 15.4549 17.4888 13.334 17.4888C11.1984 17.4888 9.8286 19.3151 9.8286 23.0562C9.8286 26.8267 11.1984 28.7267 13.334 28.7267ZM13.334 27.3717C12.2294 27.3717 11.4487 26.1934 11.4487 23.0562C11.4487 19.9632 12.2294 18.8143 13.334 18.8143C14.4387 18.8143 15.2045 19.9632 15.2045 23.0562C15.2045 26.1934 14.4387 27.3717 13.334 27.3717ZM19.5246 28.5205H25.7254V27.1213H23.6045V17.6802H22.3231C21.6897 18.0632 20.9828 18.3283 19.9518 18.505V19.5802H21.9107V27.1213H19.5246V28.5205ZM28.0424 28.5205H35.0532V27.0771H32.3431C31.8129 27.0771 31.1207 27.136 30.561 27.1949C32.8586 24.9856 34.5377 22.8205 34.5377 20.7438C34.5377 18.7702 33.2563 17.4888 31.2679 17.4888C29.854 17.4888 28.8966 18.0926 27.954 19.1089L28.9261 20.0368C29.5005 19.374 30.2075 18.8438 31.0617 18.8438C32.2695 18.8438 32.8881 19.6539 32.8881 20.8174C32.8881 22.5996 31.2532 24.7058 28.0424 27.5337V28.5205ZM38.74 28.7267C39.3733 28.7267 39.8741 28.2259 39.8741 27.5337C39.8741 26.8267 39.3733 26.3407 38.74 26.3407C38.0919 26.3407 37.6059 26.8267 37.6059 27.5337C37.6059 28.2259 38.0919 28.7267 38.74 28.7267ZM46.647 28.5205H48.2377V17.6802H46.2641L41.9633 24.4701V25.619H49.6222V24.2934H43.6719L45.7928 21.0384C46.1021 20.4787 46.3967 19.9043 46.6618 19.3593H46.7354C46.6912 19.9484 46.647 20.8764 46.647 21.4508V28.5205Z" fill="black"/>
<path d="M91.9803 37H106.057V33.2442H101.67V13.6446H98.2294C96.7145 14.5599 95.1364 15.1596 92.7693 15.6014V18.4735H97.0301V33.2442H91.9803V37ZM109.366 37H125.02V33.0864H119.97C118.866 33.0864 117.319 33.2442 116.151 33.3704C120.412 29.2043 123.947 24.6595 123.947 20.3987C123.947 16.0433 120.98 13.2343 116.593 13.2343C113.406 13.2343 111.291 14.4652 109.145 16.7692L111.701 19.2941C112.901 17.9685 114.258 16.8639 115.994 16.8639C118.234 16.8639 119.465 18.3157 119.465 20.6512C119.465 24.2492 115.741 28.6362 109.366 34.3488V37Z" fill="#E4502B"/>
<rect x="100.996" y="66.2268" width="31.5613" height="39.4517" transform="rotate(90 100.996 66.2268)" fill="#323C69"/>
<path d="M123.363 94.8623H139.017V90.9487H133.967C132.863 90.9487 131.316 91.1065 130.148 91.2328C134.409 87.0667 137.944 82.5218 137.944 78.261C137.944 73.9056 134.977 71.0966 130.59 71.0966C127.403 71.0966 125.288 72.3275 123.142 74.6315L125.698 77.1564C126.898 75.8308 128.255 74.7262 129.991 74.7262C132.231 74.7262 133.462 76.178 133.462 78.5135C133.462 82.1115 129.738 86.4985 123.363 92.2112V94.8623ZM149.364 95.3042C153.657 95.3042 157.539 92.3058 157.539 87.1298C157.539 82.0168 154.256 79.7129 150.343 79.7129C149.27 79.7129 148.449 79.9338 147.534 80.3441L147.976 75.389H156.466V71.5069H143.967L143.305 82.8374L145.451 84.2261C146.808 83.3424 147.565 82.9952 148.954 82.9952C151.29 82.9952 152.868 84.5102 152.868 87.2245C152.868 90.0019 151.195 91.5484 148.733 91.5484C146.587 91.5484 144.914 90.4753 143.62 89.1813L141.442 92.1165C143.21 93.8523 145.672 95.3042 149.364 95.3042ZM167.318 95.3042C171.957 95.3042 176.281 91.4852 176.281 82.6481C176.281 74.5684 172.304 71.0966 167.854 71.0966C163.878 71.0966 160.532 74.0634 160.532 78.8923C160.532 83.8474 163.309 86.2145 167.223 86.2145C168.864 86.2145 170.979 85.173 172.241 83.4371L171.989 80.281C170.853 82.2062 169.401 82.9321 168.075 82.9321C166.087 82.9321 164.761 81.6065 164.761 78.8923C164.761 75.9886 166.182 74.5684 167.949 74.5684C170.221 74.5684 172.02 76.683 172.02 82.6481C172.02 89.3391 169.78 91.5484 167.034 91.5484C165.645 91.5484 164.225 90.8225 163.341 89.8441L160.879 92.653C162.3 94.1048 164.383 95.3042 167.318 95.3042Z" fill="#E4502B"/>
<path d="M0.633331 88.4871H7.64416V87.0437H4.93409C4.40386 87.0437 3.71161 87.1026 3.15193 87.1615C5.44959 84.9522 7.12865 82.7871 7.12865 80.7103C7.12865 78.7367 5.84726 77.4553 3.8589 77.4553C2.44495 77.4553 1.48759 78.0592 0.544959 79.0755L1.51705 80.0034C2.09146 79.3406 2.79844 78.8104 3.6527 78.8104C4.86045 78.8104 5.47905 79.6204 5.47905 80.784C5.47905 82.5662 3.84417 84.6723 0.633331 87.5002V88.4871ZM13.334 88.6933C15.4549 88.6933 16.8394 86.7933 16.8394 83.0227C16.8394 79.2817 15.4549 77.4553 13.334 77.4553C11.1984 77.4553 9.8286 79.2817 9.8286 83.0227C9.8286 86.7933 11.1984 88.6933 13.334 88.6933ZM13.334 87.3382C12.2294 87.3382 11.4487 86.1599 11.4487 83.0227C11.4487 79.9297 12.2294 78.7809 13.334 78.7809C14.4387 78.7809 15.2045 79.9297 15.2045 83.0227C15.2045 86.1599 14.4387 87.3382 13.334 87.3382ZM19.5246 88.4871H25.7254V87.0878H23.6045V77.6468H22.3231C21.6897 78.0297 20.9828 78.2949 19.9518 78.4716V79.5468H21.9107V87.0878H19.5246V88.4871ZM31.3416 88.6933C33.3447 88.6933 34.9796 87.5444 34.9796 85.5855C34.9796 84.1127 33.9927 83.1848 32.7408 82.8607V82.7871C33.8896 82.36 34.6113 81.491 34.6113 80.239C34.6113 78.4569 33.2416 77.4553 31.2974 77.4553C30.0455 77.4553 29.0439 77.9856 28.1749 78.7514L29.0734 79.8266C29.692 79.208 30.399 78.8104 31.2238 78.8104C32.2695 78.8104 32.8881 79.4142 32.8881 80.3716C32.8881 81.4615 32.1811 82.2569 30.0602 82.2569V83.5235C32.4904 83.5235 33.2563 84.2894 33.2563 85.4971C33.2563 86.6165 32.4168 87.294 31.209 87.294C30.0749 87.294 29.2796 86.7491 28.6463 86.101L27.8067 87.1909C28.5432 88.0157 29.6478 88.6933 31.3416 88.6933ZM38.74 88.6933C39.3733 88.6933 39.8741 88.1925 39.8741 87.5002C39.8741 86.7933 39.3733 86.3072 38.74 86.3072C38.0919 86.3072 37.6059 86.7933 37.6059 87.5002C37.6059 88.1925 38.0919 88.6933 38.74 88.6933ZM46.647 88.4871H48.2377V77.6468H46.2641L41.9633 84.4367V85.5855H49.6222V84.2599H43.6719L45.7928 81.0049C46.1021 80.4452 46.3967 79.8708 46.6618 79.3259H46.7354C46.6912 79.915 46.647 80.8429 46.647 81.4173V88.4871Z" fill="black"/>
<rect x="139.922" y="124.089" width="31.5613" height="78.9033" transform="rotate(90 139.922 124.089)" fill="#323C69"/>
<path d="M171.568 152.725H175.891V129.369H170.305L161.626 143.509V146.697H178.669V143.13H166.139L169.737 137.323C170.4 136.06 171.031 134.766 171.631 133.504H171.757C171.694 134.893 171.568 137.007 171.568 138.364V152.725ZM180.905 152.725H196.559V148.811H191.509C190.405 148.811 188.858 148.969 187.69 149.095C191.951 144.929 195.486 140.384 195.486 136.124C195.486 131.768 192.519 128.959 188.132 128.959C184.945 128.959 182.83 130.19 180.684 132.494L183.24 135.019C184.44 133.693 185.797 132.589 187.533 132.589C189.773 132.589 191.004 134.041 191.004 136.376C191.004 139.974 187.28 144.361 180.905 150.074V152.725ZM206.244 153.167C210.883 153.167 215.207 149.348 215.207 140.511C215.207 132.431 211.23 128.959 206.78 128.959C202.803 128.959 199.458 131.926 199.458 136.755C199.458 141.71 202.235 144.077 206.149 144.077C207.79 144.077 209.905 143.036 211.167 141.3L210.915 138.144C209.778 140.069 208.327 140.795 207.001 140.795C205.013 140.795 203.687 139.469 203.687 136.755C203.687 133.851 205.107 132.431 206.875 132.431C209.147 132.431 210.946 134.546 210.946 140.511C210.946 147.202 208.705 149.411 205.959 149.411C204.571 149.411 203.151 148.685 202.267 147.707L199.805 150.516C201.225 151.967 203.308 153.167 206.244 153.167Z" fill="#E4502B"/>
<path d="M0.633331 148.454H7.64416V147.01H4.93409C4.40386 147.01 3.71161 147.069 3.15193 147.128C5.44959 144.919 7.12865 142.754 7.12865 140.677C7.12865 138.703 5.84726 137.422 3.8589 137.422C2.44495 137.422 1.48759 138.026 0.544959 139.042L1.51705 139.97C2.09146 139.307 2.79844 138.777 3.6527 138.777C4.86045 138.777 5.47905 139.587 5.47905 140.751C5.47905 142.533 3.84417 144.639 0.633331 147.467V148.454ZM13.334 148.66C15.4549 148.66 16.8394 146.76 16.8394 142.989C16.8394 139.248 15.4549 137.422 13.334 137.422C11.1984 137.422 9.8286 139.248 9.8286 142.989C9.8286 146.76 11.1984 148.66 13.334 148.66ZM13.334 147.305C12.2294 147.305 11.4487 146.126 11.4487 142.989C11.4487 139.896 12.2294 138.747 13.334 138.747C14.4387 138.747 15.2045 139.896 15.2045 142.989C15.2045 146.126 14.4387 147.305 13.334 147.305ZM19.5246 148.454H25.7254V147.054H23.6045V137.613H22.3231C21.6897 137.996 20.9828 138.261 19.9518 138.438V139.513H21.9107V147.054H19.5246V148.454ZM32.3873 148.454H33.978V137.613H32.0044L27.7036 144.403V145.552H35.3625V144.226H29.4121L31.5331 140.971C31.8424 140.412 32.1369 139.837 32.4021 139.292H32.4757C32.4315 139.882 32.3873 140.809 32.3873 141.384V148.454ZM38.74 148.66C39.3733 148.66 39.8741 148.159 39.8741 147.467C39.8741 146.76 39.3733 146.274 38.74 146.274C38.0919 146.274 37.6059 146.76 37.6059 147.467C37.6059 148.159 38.0919 148.66 38.74 148.66ZM46.647 148.454H48.2377V137.613H46.2641L41.9633 144.403V145.552H49.6222V144.226H43.6719L45.7928 140.971C46.1021 140.412 46.3967 139.837 46.6618 139.292H46.7354C46.6912 139.882 46.647 140.809 46.647 141.384V148.454Z" fill="black"/>
<rect x="166.223" y="181.952" width="31.5613" height="105.204" transform="rotate(90 166.223 181.952)" fill="#323C69"/>
<path d="M195.975 211.029C200.267 211.029 204.149 208.031 204.149 202.855C204.149 197.742 200.867 195.438 196.953 195.438C195.88 195.438 195.059 195.659 194.144 196.069L194.586 191.114H203.076V187.232H190.578L189.915 198.563L192.061 199.951C193.418 199.068 194.176 198.72 195.564 198.72C197.9 198.72 199.478 200.235 199.478 202.95C199.478 205.727 197.805 207.273 195.343 207.273C193.197 207.273 191.524 206.2 190.23 204.906L188.053 207.842C189.82 209.577 192.282 211.029 195.975 211.029ZM207.206 210.587H222.86V206.674H217.81C216.705 206.674 215.159 206.832 213.991 206.958C218.252 202.792 221.787 198.247 221.787 193.986C221.787 189.631 218.82 186.822 214.433 186.822C211.245 186.822 209.131 188.053 206.985 190.357L209.541 192.881C210.74 191.556 212.098 190.451 213.833 190.451C216.074 190.451 217.305 191.903 217.305 194.239C217.305 197.837 213.581 202.224 207.206 207.936V210.587ZM232.544 211.029C237.184 211.029 241.508 207.21 241.508 198.373C241.508 190.293 237.531 186.822 233.081 186.822C229.104 186.822 225.759 189.788 225.759 194.617C225.759 199.572 228.536 201.94 232.45 201.94C234.091 201.94 236.205 200.898 237.468 199.162L237.215 196.006C236.079 197.931 234.627 198.657 233.302 198.657C231.313 198.657 229.988 197.332 229.988 194.617C229.988 191.714 231.408 190.293 233.176 190.293C235.448 190.293 237.247 192.408 237.247 198.373C237.247 205.064 235.006 207.273 232.26 207.273C230.872 207.273 229.451 206.548 228.568 205.569L226.106 208.378C227.526 209.83 229.609 211.029 232.544 211.029Z" fill="#E4502B"/>
<path d="M0.633331 204.212H7.64416V202.769H4.93409C4.40386 202.769 3.71161 202.827 3.15193 202.886C5.44959 200.677 7.12865 198.512 7.12865 196.435C7.12865 194.462 5.84726 193.18 3.8589 193.18C2.44495 193.18 1.48759 193.784 0.544959 194.8L1.51705 195.728C2.09146 195.065 2.79844 194.535 3.6527 194.535C4.86045 194.535 5.47905 195.345 5.47905 196.509C5.47905 198.291 3.84417 200.397 0.633331 203.225V204.212ZM13.334 204.418C15.4549 204.418 16.8394 202.518 16.8394 198.748C16.8394 195.007 15.4549 193.18 13.334 193.18C11.1984 193.18 9.8286 195.007 9.8286 198.748C9.8286 202.518 11.1984 204.418 13.334 204.418ZM13.334 203.063C12.2294 203.063 11.4487 201.885 11.4487 198.748C11.4487 195.655 12.2294 194.506 13.334 194.506C14.4387 194.506 15.2045 195.655 15.2045 198.748C15.2045 201.885 14.4387 203.063 13.334 203.063ZM19.5246 204.212H25.7254V202.813H23.6045V193.372H22.3231C21.6897 193.755 20.9828 194.02 19.9518 194.196V195.272H21.9107V202.813H19.5246V204.212ZM31.3563 204.418C33.2416 204.418 35.009 203.048 35.009 200.662C35.009 198.276 33.5214 197.216 31.7098 197.216C31.1207 197.216 30.6788 197.348 30.2222 197.584L30.4726 194.815H34.4935V193.372H28.985L28.661 198.527L29.5005 199.057C30.1338 198.644 30.5462 198.453 31.2238 198.453C32.461 198.453 33.2858 199.278 33.2858 200.707C33.2858 202.15 32.3726 203.019 31.1501 203.019C30.016 203.019 29.2207 202.474 28.6168 201.855L27.792 202.96C28.5726 203.726 29.6478 204.418 31.3563 204.418ZM38.74 204.418C39.3733 204.418 39.8741 203.917 39.8741 203.225C39.8741 202.518 39.3733 202.032 38.74 202.032C38.0919 202.032 37.6059 202.518 37.6059 203.225C37.6059 203.917 38.0919 204.418 38.74 204.418ZM46.647 204.212H48.2377V193.372H46.2641L41.9633 200.162V201.31H49.6222V199.985H43.6719L45.7928 196.73C46.1021 196.17 46.3967 195.596 46.6618 195.051H46.7354C46.6912 195.64 46.647 196.568 46.647 197.142V204.212Z" fill="black"/>
<rect x="218.825" y="239.814" width="31.5613" height="157.807" transform="rotate(90 218.825 239.814)" fill="#323C69"/>
<path d="M245.705 268.45H250.408C250.818 259.329 251.512 254.531 256.941 247.904V245.095H241.444V248.977H251.954C247.472 255.163 246.147 260.37 245.705 268.45ZM264.321 268.45H269.024C269.434 259.329 270.129 254.531 275.557 247.904V245.095H260.061V248.977H270.57C266.089 255.163 264.763 260.37 264.321 268.45ZM285.147 268.892C289.786 268.892 294.11 265.073 294.11 256.236C294.11 248.156 290.134 244.684 285.683 244.684C281.707 244.684 278.361 247.651 278.361 252.48C278.361 257.435 281.139 259.802 285.052 259.802C286.693 259.802 288.808 258.761 290.07 257.025L289.818 253.869C288.682 255.794 287.23 256.52 285.904 256.52C283.916 256.52 282.59 255.194 282.59 252.48C282.59 249.576 284.011 248.156 285.778 248.156C288.051 248.156 289.85 250.271 289.85 256.236C289.85 262.927 287.609 265.136 284.863 265.136C283.474 265.136 282.054 264.41 281.17 263.432L278.708 266.241C280.129 267.692 282.212 268.892 285.147 268.892Z" fill="#E4502B"/>
<path d="M0.633331 262.074H7.64416V260.631H4.93409C4.40386 260.631 3.71161 260.69 3.15193 260.749C5.44959 258.54 7.12865 256.374 7.12865 254.298C7.12865 252.324 5.84726 251.043 3.8589 251.043C2.44495 251.043 1.48759 251.647 0.544959 252.663L1.51705 253.591C2.09146 252.928 2.79844 252.398 3.6527 252.398C4.86045 252.398 5.47905 253.208 5.47905 254.371C5.47905 256.154 3.84417 258.26 0.633331 261.088V262.074ZM13.334 262.281C15.4549 262.281 16.8394 260.381 16.8394 256.61C16.8394 252.869 15.4549 251.043 13.334 251.043C11.1984 251.043 9.8286 252.869 9.8286 256.61C9.8286 260.381 11.1984 262.281 13.334 262.281ZM13.334 260.926C12.2294 260.926 11.4487 259.747 11.4487 256.61C11.4487 253.517 12.2294 252.368 13.334 252.368C14.4387 252.368 15.2045 253.517 15.2045 256.61C15.2045 259.747 14.4387 260.926 13.334 260.926ZM19.5246 262.074H25.7254V260.675H23.6045V251.234H22.3231C21.6897 251.617 20.9828 251.882 19.9518 252.059V253.134H21.9107V260.675H19.5246V262.074ZM31.9307 262.281C33.6834 262.281 35.171 260.867 35.171 258.716C35.171 256.419 33.9338 255.314 32.1075 255.314C31.2974 255.314 30.2959 255.815 29.6625 256.669L29.7362 257.906C30.3842 256.919 31.1648 256.536 31.8129 256.536C32.9617 256.536 33.5951 257.317 33.5951 258.716C33.5951 260.116 32.8586 260.97 31.916 260.97C30.5904 260.97 29.7656 259.659 29.7656 256.861C29.7656 253.547 30.9292 252.427 32.3726 252.427C33.0059 252.427 33.6687 252.766 34.0664 253.237L34.9943 252.206C34.3757 251.543 33.492 251.043 32.2842 251.043C30.1338 251.043 28.1897 252.707 28.1897 256.861C28.1897 260.543 29.8687 262.281 31.9307 262.281ZM38.74 262.281C39.3733 262.281 39.8741 261.78 39.8741 261.088C39.8741 260.381 39.3733 259.895 38.74 259.895C38.0919 259.895 37.6059 260.381 37.6059 261.088C37.6059 261.78 38.0919 262.281 38.74 262.281ZM46.647 262.074H48.2377V251.234H46.2641L41.9633 258.024V259.173H49.6222V257.847H43.6719L45.7928 254.592C46.1021 254.033 46.3967 253.458 46.6618 252.913H46.7354C46.6912 253.502 46.647 254.43 46.647 255.005V262.074Z" fill="black"/>
<rect x="255.646" y="297.677" width="31.5613" height="194.628" transform="rotate(90 255.646 297.677)" fill="#323C69"/>
<path d="M284.736 326.754C289.375 326.754 293.699 322.935 293.699 314.098C293.699 306.018 289.722 302.547 285.272 302.547C281.295 302.547 277.95 305.513 277.95 310.342C277.95 315.297 280.727 317.664 284.641 317.664C286.282 317.664 288.397 316.623 289.659 314.887L289.407 311.731C288.271 313.656 286.819 314.382 285.493 314.382C283.505 314.382 282.179 313.056 282.179 310.342C282.179 307.439 283.599 306.018 285.367 306.018C287.639 306.018 289.438 308.133 289.438 314.098C289.438 320.789 287.197 322.998 284.452 322.998C283.063 322.998 281.643 322.272 280.759 321.294L278.297 324.103C279.717 325.555 281.8 326.754 284.736 326.754ZM304.614 326.754C309.349 326.754 312.505 322.62 312.505 314.54C312.505 306.492 309.349 302.547 304.614 302.547C299.849 302.547 296.692 306.492 296.692 314.54C296.692 322.62 299.849 326.754 304.614 326.754ZM304.614 323.125C302.594 323.125 301.079 321.105 301.079 314.54C301.079 308.007 302.594 306.113 304.614 306.113C306.634 306.113 308.118 308.007 308.118 314.54C308.118 321.105 306.634 323.125 304.614 323.125ZM322.536 326.754C327.018 326.754 330.774 324.292 330.774 320C330.774 316.907 328.754 314.982 326.103 314.224V314.066C328.596 313.12 329.985 311.257 329.985 308.764C329.985 304.756 326.923 302.547 322.41 302.547C319.696 302.547 317.455 303.651 315.435 305.387L317.802 308.259C319.191 306.965 320.548 306.176 322.221 306.176C324.209 306.176 325.345 307.281 325.345 309.111C325.345 311.194 323.957 312.646 319.664 312.646V315.992C324.746 315.992 326.103 317.412 326.103 319.716C326.103 321.799 324.493 322.998 322.094 322.998C319.98 322.998 318.307 321.925 316.918 320.568L314.709 323.503C316.35 325.397 318.844 326.754 322.536 326.754Z" fill="#E4502B"/>
<path d="M0.633331 319.937H7.64416V318.493H4.93409C4.40386 318.493 3.71161 318.552 3.15193 318.611C5.44959 316.402 7.12865 314.237 7.12865 312.16C7.12865 310.186 5.84726 308.905 3.8589 308.905C2.44495 308.905 1.48759 309.509 0.544959 310.525L1.51705 311.453C2.09146 310.79 2.79844 310.26 3.6527 310.26C4.86045 310.26 5.47905 311.07 5.47905 312.234C5.47905 314.016 3.84417 316.122 0.633331 318.95V319.937ZM13.334 320.143C15.4549 320.143 16.8394 318.243 16.8394 314.472C16.8394 310.731 15.4549 308.905 13.334 308.905C11.1984 308.905 9.8286 310.731 9.8286 314.472C9.8286 318.243 11.1984 320.143 13.334 320.143ZM13.334 318.788C12.2294 318.788 11.4487 317.61 11.4487 314.472C11.4487 311.379 12.2294 310.231 13.334 310.231C14.4387 310.231 15.2045 311.379 15.2045 314.472C15.2045 317.61 14.4387 318.788 13.334 318.788ZM19.5246 319.937H25.7254V318.538H23.6045V309.096H22.3231C21.6897 309.479 20.9828 309.745 19.9518 309.921V310.996H21.9107V318.538H19.5246V319.937ZM30.2369 319.937H31.9749C32.1664 315.71 32.5641 313.309 35.0974 310.128V309.096H28.1308V310.54H33.2269C31.1207 313.456 30.4284 315.989 30.2369 319.937ZM38.74 320.143C39.3733 320.143 39.8741 319.642 39.8741 318.95C39.8741 318.243 39.3733 317.757 38.74 317.757C38.0919 317.757 37.6059 318.243 37.6059 318.95C37.6059 319.642 38.0919 320.143 38.74 320.143ZM46.647 319.937H48.2377V309.096H46.2641L41.9633 315.886V317.035H49.6222V315.71H43.6719L45.7928 312.455C46.1021 311.895 46.3967 311.321 46.6618 310.776H46.7354C46.6912 311.365 46.647 312.293 46.647 312.867V319.937Z" fill="black"/>
<rect x="271.428" y="355.539" width="31.5613" height="210.409" transform="rotate(90 271.428 355.539)" fill="#323C69"/>
<path d="M295.025 384.175H309.102V380.419H304.715V360.819H301.274C299.759 361.734 298.181 362.334 295.814 362.776V365.648H300.075V380.419H295.025V384.175ZM313.705 390.929C317.555 389.666 319.67 386.857 319.67 383.133C319.67 380.293 318.47 378.588 316.356 378.588C314.683 378.588 313.326 379.661 313.326 381.334C313.326 383.07 314.715 384.08 316.23 384.08C316.924 384.08 317.555 383.859 318.029 383.386L316.387 380.671L316.545 383.954C316.577 385.816 315.22 387.489 312.758 388.404L313.705 390.929ZM330.659 384.616C335.393 384.616 338.55 380.482 338.55 372.402C338.55 364.354 335.393 360.409 330.659 360.409C325.893 360.409 322.737 364.354 322.737 372.402C322.737 380.482 325.893 384.616 330.659 384.616ZM330.659 380.987C328.639 380.987 327.124 378.967 327.124 372.402C327.124 365.869 328.639 363.975 330.659 363.975C332.679 363.975 334.163 365.869 334.163 372.402C334.163 378.967 332.679 380.987 330.659 380.987ZM345.804 384.175H350.506C350.917 375.053 351.611 370.256 357.04 363.628V360.819H341.543V364.701H352.053C347.571 370.887 346.246 376.095 345.804 384.175ZM367.292 384.616C371.584 384.616 375.466 381.618 375.466 376.442C375.466 371.329 372.184 369.025 368.27 369.025C367.197 369.025 366.377 369.246 365.461 369.656L365.903 364.701H374.393V360.819H361.895L361.232 372.15L363.378 373.538C364.736 372.655 365.493 372.307 366.882 372.307C369.217 372.307 370.795 373.822 370.795 376.537C370.795 379.314 369.123 380.861 366.661 380.861C364.515 380.861 362.842 379.788 361.548 378.494L359.37 381.429C361.138 383.165 363.599 384.616 367.292 384.616Z" fill="#E4502B"/>
<path d="M0.633331 377.799H7.64416V376.356H4.93409C4.40386 376.356 3.71161 376.415 3.15193 376.474C5.44959 374.264 7.12865 372.099 7.12865 370.023C7.12865 368.049 5.84726 366.768 3.8589 366.768C2.44495 366.768 1.48759 367.371 0.544959 368.388L1.51705 369.316C2.09146 368.653 2.79844 368.123 3.6527 368.123C4.86045 368.123 5.47905 368.933 5.47905 370.096C5.47905 371.878 3.84417 373.985 0.633331 376.812V377.799ZM13.334 378.006C15.4549 378.006 16.8394 376.106 16.8394 372.335C16.8394 368.594 15.4549 366.768 13.334 366.768C11.1984 366.768 9.8286 368.594 9.8286 372.335C9.8286 376.106 11.1984 378.006 13.334 378.006ZM13.334 376.65C12.2294 376.65 11.4487 375.472 11.4487 372.335C11.4487 369.242 12.2294 368.093 13.334 368.093C14.4387 368.093 15.2045 369.242 15.2045 372.335C15.2045 375.472 14.4387 376.65 13.334 376.65ZM19.5246 377.799H25.7254V376.4H23.6045V366.959H22.3231C21.6897 367.342 20.9828 367.607 19.9518 367.784V368.859H21.9107V376.4H19.5246V377.799ZM31.6214 378.006C33.7129 378.006 35.1268 376.768 35.1268 375.163C35.1268 373.675 34.2726 372.836 33.3005 372.291V372.217C33.9633 371.702 34.7144 370.774 34.7144 369.654C34.7144 367.961 33.5509 366.797 31.6656 366.797C29.8835 366.797 28.5579 367.902 28.5579 369.595C28.5579 370.73 29.2059 371.554 30.016 372.129V372.188C29.0145 372.718 28.0866 373.69 28.0866 375.119C28.0866 376.798 29.5742 378.006 31.6214 378.006ZM32.3284 371.79C31.1207 371.304 30.0897 370.759 30.0897 369.595C30.0897 368.623 30.7524 368.02 31.6362 368.02C32.6819 368.02 33.3005 368.771 33.3005 369.757C33.3005 370.494 32.9765 371.186 32.3284 371.79ZM31.6509 376.768C30.4726 376.768 29.5742 376.017 29.5742 374.942C29.5742 373.999 30.1044 373.204 30.8555 372.674C32.3284 373.292 33.5214 373.793 33.5214 375.104C33.5214 376.12 32.7555 376.768 31.6509 376.768ZM38.74 378.006C39.3733 378.006 39.8741 377.505 39.8741 376.812C39.8741 376.106 39.3733 375.619 38.74 375.619C38.0919 375.619 37.6059 376.106 37.6059 376.812C37.6059 377.505 38.0919 378.006 38.74 378.006ZM46.647 377.799H48.2377V366.959H46.2641L41.9633 373.749V374.898H49.6222V373.572H43.6719L45.7928 370.317C46.1021 369.757 46.3967 369.183 46.6618 368.638H46.7354C46.6912 369.227 46.647 370.155 46.647 370.73V377.799Z" fill="black"/>
<rect x="298.78" y="413.401" width="31.5613" height="237.762" transform="rotate(90 298.78 413.401)" fill="#323C69"/>
<path d="M322.378 442.037H336.454V438.281H332.067V418.682H328.627C327.112 419.597 325.534 420.197 323.167 420.639V423.511H327.428V438.281H322.378V442.037ZM341.057 448.791C344.908 447.529 347.022 444.72 347.022 440.996C347.022 438.155 345.823 436.451 343.708 436.451C342.036 436.451 340.678 437.524 340.678 439.197C340.678 440.932 342.067 441.942 343.582 441.942C344.276 441.942 344.908 441.721 345.381 441.248L343.74 438.534L343.898 441.816C343.929 443.678 342.572 445.351 340.11 446.266L341.057 448.791ZM351.258 442.037H365.334V438.281H360.947V418.682H357.507C355.992 419.597 354.414 420.197 352.047 420.639V423.511H356.307V438.281H351.258V442.037ZM376.028 442.479C380.321 442.479 384.203 439.481 384.203 434.305C384.203 429.192 380.92 426.888 377.007 426.888C375.934 426.888 375.113 427.109 374.198 427.519L374.64 422.564H383.13V418.682H370.631L369.969 430.012L372.115 431.401C373.472 430.517 374.229 430.17 375.618 430.17C377.954 430.17 379.532 431.685 379.532 434.399C379.532 437.177 377.859 438.723 375.397 438.723C373.251 438.723 371.578 437.65 370.284 436.356L368.106 439.291C369.874 441.027 372.336 442.479 376.028 442.479ZM395.875 442.479C399.852 442.479 403.229 439.481 403.229 434.683C403.229 429.665 400.42 427.361 396.507 427.361C394.929 427.361 392.751 428.371 391.52 430.107L391.709 433.263C392.877 431.338 394.361 430.643 395.655 430.643C397.643 430.643 398.968 431.906 398.968 434.683C398.968 437.524 397.548 438.976 395.812 438.976C393.508 438.976 391.741 436.735 391.741 430.675C391.741 424.173 393.982 421.996 396.822 421.996C398.148 421.996 399.6 422.753 400.389 423.668L402.882 420.923C401.462 419.439 399.379 418.271 396.538 418.271C391.804 418.271 387.48 421.996 387.48 430.675C387.48 438.913 391.457 442.479 395.875 442.479Z" fill="#E4502B"/>
<path d="M0.633331 435.662H7.64416V434.218H4.93409C4.40386 434.218 3.71161 434.277 3.15193 434.336C5.44959 432.127 7.12865 429.962 7.12865 427.885C7.12865 425.911 5.84726 424.63 3.8589 424.63C2.44495 424.63 1.48759 425.234 0.544959 426.25L1.51705 427.178C2.09146 426.515 2.79844 425.985 3.6527 425.985C4.86045 425.985 5.47905 426.795 5.47905 427.959C5.47905 429.741 3.84417 431.847 0.633331 434.675V435.662ZM13.334 435.868C15.4549 435.868 16.8394 433.968 16.8394 430.197C16.8394 426.456 15.4549 424.63 13.334 424.63C11.1984 424.63 9.8286 426.456 9.8286 430.197C9.8286 433.968 11.1984 435.868 13.334 435.868ZM13.334 434.513C12.2294 434.513 11.4487 433.334 11.4487 430.197C11.4487 427.104 12.2294 425.955 13.334 425.955C14.4387 425.955 15.2045 427.104 15.2045 430.197C15.2045 433.334 14.4387 434.513 13.334 434.513ZM19.5246 435.662H25.7254V434.262H23.6045V424.821H22.3231C21.6897 425.204 20.9828 425.469 19.9518 425.646V426.721H21.9107V434.262H19.5246V435.662ZM30.9881 435.868C33.0796 435.868 35.0237 434.145 35.0237 429.873C35.0237 426.294 33.3447 424.63 31.2679 424.63C29.5005 424.63 28.0277 426.029 28.0277 428.194C28.0277 430.462 29.2501 431.597 31.0617 431.597C31.9307 431.597 32.9028 431.066 33.5362 430.227L33.4478 428.99C32.8145 429.976 32.0486 430.359 31.3711 430.359C30.2369 430.359 29.6036 429.564 29.6036 428.194C29.6036 426.766 30.34 425.926 31.2827 425.926C32.6083 425.926 33.4478 427.163 33.4478 429.873C33.4478 433.32 32.2842 434.469 30.9145 434.469C30.2369 434.469 29.5742 434.145 29.1323 433.659L28.2191 434.704C28.8377 435.352 29.7362 435.868 30.9881 435.868ZM38.74 435.868C39.3733 435.868 39.8741 435.367 39.8741 434.675C39.8741 433.968 39.3733 433.482 38.74 433.482C38.0919 433.482 37.6059 433.968 37.6059 434.675C37.6059 435.367 38.0919 435.868 38.74 435.868ZM46.647 435.662H48.2377V424.821H46.2641L41.9633 431.611V432.76H49.6222V431.435H43.6719L45.7928 428.179C46.1021 427.62 46.3967 427.045 46.6618 426.5H46.7354C46.6912 427.09 46.647 428.017 46.647 428.592V435.662Z" fill="black"/>
<rect x="355.591" y="471.264" width="31.5613" height="294.572" transform="rotate(90 355.591 471.264)" fill="#323C69"/>
<path d="M379.188 499.9H393.265V496.144H388.878V476.544H385.437C383.923 477.46 382.344 478.059 379.977 478.501V481.373H384.238V496.144H379.188V499.9ZM397.868 506.654C401.718 505.391 403.833 502.582 403.833 498.858C403.833 496.018 402.633 494.313 400.519 494.313C398.846 494.313 397.489 495.386 397.489 497.059C397.489 498.795 398.878 499.805 400.393 499.805C401.087 499.805 401.718 499.584 402.192 499.111L400.55 496.396L400.708 499.679C400.74 501.541 399.383 503.214 396.921 504.129L397.868 506.654ZM414.128 500.342C418.61 500.342 422.365 497.88 422.365 493.587C422.365 490.494 420.346 488.569 417.694 487.812V487.654C420.188 486.707 421.576 484.845 421.576 482.352C421.576 478.343 418.515 476.134 414.002 476.134C411.287 476.134 409.047 477.239 407.027 478.974L409.394 481.847C410.782 480.553 412.14 479.764 413.812 479.764C415.801 479.764 416.937 480.868 416.937 482.699C416.937 484.782 415.548 486.234 411.256 486.234V489.579C416.337 489.579 417.694 490.999 417.694 493.303C417.694 495.386 416.085 496.586 413.686 496.586C411.571 496.586 409.899 495.513 408.51 494.155L406.301 497.091C407.942 498.984 410.435 500.342 414.128 500.342ZM426.684 499.9H440.761V496.144H436.374V476.544H432.934C431.419 477.46 429.841 478.059 427.473 478.501V481.373H431.734V496.144H426.684V499.9ZM452.055 500.342C456.789 500.342 459.945 496.207 459.945 488.127C459.945 480.079 456.789 476.134 452.055 476.134C447.289 476.134 444.133 480.079 444.133 488.127C444.133 496.207 447.289 500.342 452.055 500.342ZM452.055 496.712C450.035 496.712 448.52 494.692 448.52 488.127C448.52 481.594 450.035 479.7 452.055 479.7C454.075 479.7 455.558 481.594 455.558 488.127C455.558 494.692 454.075 496.712 452.055 496.712Z" fill="#E4502B"/>
<path d="M0.633331 493.524H7.64416V492.081H4.93409C4.40386 492.081 3.71161 492.14 3.15193 492.199C5.44959 489.989 7.12865 487.824 7.12865 485.747C7.12865 483.774 5.84726 482.492 3.8589 482.492C2.44495 482.492 1.48759 483.096 0.544959 484.113L1.51705 485.04C2.09146 484.378 2.79844 483.847 3.6527 483.847C4.86045 483.847 5.47905 484.658 5.47905 485.821C5.47905 487.603 3.84417 489.709 0.633331 492.537V493.524ZM13.334 493.73C15.4549 493.73 16.8394 491.83 16.8394 488.06C16.8394 484.319 15.4549 482.492 13.334 482.492C11.1984 482.492 9.8286 484.319 9.8286 488.06C9.8286 491.83 11.1984 493.73 13.334 493.73ZM13.334 492.375C12.2294 492.375 11.4487 491.197 11.4487 488.06C11.4487 484.967 12.2294 483.818 13.334 483.818C14.4387 483.818 15.2045 484.967 15.2045 488.06C15.2045 491.197 14.4387 492.375 13.334 492.375ZM18.906 493.524H25.9169V492.081H23.2068C22.6766 492.081 21.9843 492.14 21.4246 492.199C23.7223 489.989 25.4014 487.824 25.4014 485.747C25.4014 483.774 24.12 482.492 22.1316 482.492C20.7177 482.492 19.7603 483.096 18.8177 484.113L19.7897 485.04C20.3642 484.378 21.0711 483.847 21.9254 483.847C23.1331 483.847 23.7517 484.658 23.7517 485.821C23.7517 487.603 22.1169 489.709 18.906 492.537V493.524ZM31.6067 493.73C33.7276 493.73 35.1121 491.83 35.1121 488.06C35.1121 484.319 33.7276 482.492 31.6067 482.492C29.4711 482.492 28.1013 484.319 28.1013 488.06C28.1013 491.83 29.4711 493.73 31.6067 493.73ZM31.6067 492.375C30.5021 492.375 29.7214 491.197 29.7214 488.06C29.7214 484.967 30.5021 483.818 31.6067 483.818C32.7114 483.818 33.4772 484.967 33.4772 488.06C33.4772 491.197 32.7114 492.375 31.6067 492.375ZM38.74 493.73C39.3733 493.73 39.8741 493.23 39.8741 492.537C39.8741 491.83 39.3733 491.344 38.74 491.344C38.0919 491.344 37.6059 491.83 37.6059 492.537C37.6059 493.23 38.0919 493.73 38.74 493.73ZM46.647 493.524H48.2377V482.684H46.2641L41.9633 489.474V490.623H49.6222V489.297H43.6719L45.7928 486.042C46.1021 485.482 46.3967 484.908 46.6618 484.363H46.7354C46.6912 484.952 46.647 485.88 46.647 486.454V493.524Z" fill="black"/>
<rect x="376.632" y="529.126" width="31.5613" height="315.613" transform="rotate(90 376.632 529.126)" fill="#323C69"/>
<path d="M400.229 557.762H414.306V554.006H409.919V534.407H406.478C404.964 535.322 403.385 535.922 401.018 536.363V539.235H405.279V554.006H400.229V557.762ZM418.909 564.516C422.759 563.254 424.874 560.445 424.874 556.72C424.874 553.88 423.674 552.176 421.56 552.176C419.887 552.176 418.53 553.249 418.53 554.921C418.53 556.657 419.919 557.667 421.434 557.667C422.128 557.667 422.759 557.446 423.233 556.973L421.591 554.259L421.749 557.541C421.781 559.403 420.424 561.076 417.962 561.991L418.909 564.516ZM437.157 557.762H441.481V534.407H435.895L427.215 548.546V551.734H444.259V548.167H431.729L435.327 542.36C435.99 541.098 436.621 539.804 437.22 538.541H437.347C437.284 539.93 437.157 542.044 437.157 543.402V557.762ZM455.111 558.204C459.088 558.204 462.465 555.205 462.465 550.408C462.465 545.39 459.656 543.086 455.742 543.086C454.164 543.086 451.986 544.096 450.755 545.832L450.945 548.988C452.112 547.063 453.596 546.368 454.89 546.368C456.878 546.368 458.204 547.631 458.204 550.408C458.204 553.249 456.784 554.701 455.048 554.701C452.744 554.701 450.976 552.46 450.976 546.4C450.976 539.898 453.217 537.721 456.058 537.721C457.383 537.721 458.835 538.478 459.624 539.393L462.117 536.647C460.697 535.164 458.614 533.996 455.774 533.996C451.039 533.996 446.715 537.721 446.715 546.4C446.715 554.637 450.692 558.204 455.111 558.204ZM466.342 557.762H480.418V554.006H476.031V534.407H472.591C471.076 535.322 469.498 535.922 467.131 536.363V539.235H471.392V554.006H466.342V557.762Z" fill="#E4502B"/>
<path d="M0.633331 551.387H7.64416V549.943H4.93409C4.40386 549.943 3.71161 550.002 3.15193 550.061C5.44959 547.852 7.12865 545.687 7.12865 543.61C7.12865 541.636 5.84726 540.355 3.8589 540.355C2.44495 540.355 1.48759 540.959 0.544959 541.975L1.51705 542.903C2.09146 542.24 2.79844 541.71 3.6527 541.71C4.86045 541.71 5.47905 542.52 5.47905 543.684C5.47905 545.466 3.84417 547.572 0.633331 550.4V551.387ZM13.334 551.593C15.4549 551.593 16.8394 549.693 16.8394 545.922C16.8394 542.181 15.4549 540.355 13.334 540.355C11.1984 540.355 9.8286 542.181 9.8286 545.922C9.8286 549.693 11.1984 551.593 13.334 551.593ZM13.334 550.238C12.2294 550.238 11.4487 549.06 11.4487 545.922C11.4487 542.829 12.2294 541.681 13.334 541.681C14.4387 541.681 15.2045 542.829 15.2045 545.922C15.2045 549.06 14.4387 550.238 13.334 550.238ZM18.906 551.387H25.9169V549.943H23.2068C22.6766 549.943 21.9843 550.002 21.4246 550.061C23.7223 547.852 25.4014 545.687 25.4014 543.61C25.4014 541.636 24.12 540.355 22.1316 540.355C20.7177 540.355 19.7603 540.959 18.8177 541.975L19.7897 542.903C20.3642 542.24 21.0711 541.71 21.9254 541.71C23.1331 541.71 23.7517 542.52 23.7517 543.684C23.7517 545.466 22.1169 547.572 18.906 550.4V551.387ZM28.661 551.387H34.8617V549.987H32.7408V540.546H31.4594C30.8261 540.929 30.1191 541.195 29.0881 541.371V542.446H31.047V549.987H28.661V551.387ZM38.74 551.593C39.3733 551.593 39.8741 551.092 39.8741 550.4C39.8741 549.693 39.3733 549.207 38.74 549.207C38.0919 549.207 37.6059 549.693 37.6059 550.4C37.6059 551.092 38.0919 551.593 38.74 551.593ZM46.647 551.387H48.2377V540.546H46.2641L41.9633 547.336V548.485H49.6222V547.16H43.6719L45.7928 543.905C46.1021 543.345 46.3967 542.77 46.6618 542.226H46.7354C46.6912 542.815 46.647 543.743 46.647 544.317V551.387Z" fill="black"/>
</svg>
