<svg width="384" height="43" viewBox="0 0 384 43" fill="none" xmlns="http://www.w3.org/2000/svg">
<line x1="88" y1="35.5" x2="364" y2="35.5" stroke="#FFD600" stroke-width="5"/>
<path d="M38.177 18.704V24.542H40.634V18.704H38.177ZM38.177 31.304V36.89H40.676V31.304H38.177ZM37.463 24.626C36.602 25.529 35.153 26.747 33.977 27.503L35.678 28.469C36.854 27.776 38.408 26.726 39.731 25.676L37.463 24.626ZM42.272 25.697C40.193 27.356 36.749 29.435 34.04 30.695L35.594 31.808C38.303 30.632 41.789 28.721 44.435 26.915L42.272 25.697ZM31.73 27.629C33.326 28.49 35.363 29.813 36.329 30.716L38.219 29.267C37.148 28.322 35.069 27.083 33.494 26.306L31.73 27.629ZM42.314 29.414C44.036 30.443 46.115 32.039 47.102 33.131L49.055 31.85C47.984 30.737 45.821 29.225 44.141 28.259L42.314 29.414ZM41.957 33.761C43.616 34.601 45.779 35.903 46.808 36.764L48.782 35.336C47.606 34.475 45.38 33.236 43.805 32.48L41.957 33.761ZM30.302 30.548L30.386 32.543C34.439 32.501 40.697 32.354 46.514 32.186L46.64 30.359C40.739 30.464 34.334 30.548 30.302 30.548ZM34.607 32.648C33.515 33.614 31.625 34.538 29.882 35.126C30.428 35.525 31.31 36.344 31.73 36.806C33.473 36.029 35.552 34.79 36.875 33.509L34.607 32.648ZM34.019 22.589H44.939V23.681H34.019V22.589ZM34.019 19.712H44.939V20.783H34.019V19.712ZM31.667 17.801V25.592H47.417V17.801H31.667ZM61.256 24.227V26.726H72.638V24.227H61.256ZM65.687 17.255V36.89H68.249V17.255H65.687ZM53.738 23.618V25.508H60.521V23.618H53.738ZM53.864 17.822V19.733H60.563V17.822H53.864ZM53.738 26.474V28.385H60.521V26.474H53.738ZM52.709 20.657V22.652H61.361V20.657H52.709ZM54.893 29.393V31.388H58.253V33.782H54.893V35.777H60.458V29.393H54.893ZM53.675 29.393V36.617H55.859V29.393H53.675ZM77.608 35H82.62V14.14H77.608V35ZM94.2291 35H99.2411V18.312H104.897V14.14H88.6011V18.312H94.2291V35ZM118.327 24.78L114.463 26.096C118.215 32.816 123.815 36.4 133.279 37.716C133.839 36.54 134.987 34.664 135.883 33.712C126.979 32.816 121.127 29.904 118.327 24.78ZM111.747 21.112V25.088H129.527V21.112H111.747ZM110.319 14.42V18.452H134.539V14.42H110.319ZM120.259 11.06V22.904H124.515V11.06H120.259ZM128.211 21.112V21.84C125.859 29.428 118.691 32.592 109.115 33.712C109.899 34.636 110.963 36.568 111.327 37.66C121.267 36.064 129.331 31.92 132.635 22.596L129.751 20.972L129.051 21.112H128.211ZM149.799 18.788V21.924H165.311V18.788H149.799ZM149.267 22.708V25.956H166.179V22.708H149.267ZM152.795 26.628V29.512H162.147V26.628H152.795ZM150.415 16.072C150.779 17.108 151.227 18.536 151.423 19.376L154.643 18.368C154.391 17.556 153.859 16.212 153.467 15.232L150.415 16.072ZM155.203 15.624C155.427 16.716 155.651 18.172 155.707 19.04L159.039 18.34C158.927 17.5 158.619 16.1 158.339 15.064L155.203 15.624ZM163.407 11.172C159.795 11.9 154.167 12.32 149.183 12.46C149.547 13.272 149.967 14.588 150.051 15.456C155.119 15.4 161.139 15.036 165.647 14.14L163.407 11.172ZM156.211 28.924L152.991 29.876C155.371 33.992 159.123 36.568 164.583 37.688C165.087 36.68 166.123 35.168 166.935 34.384C161.895 33.684 158.087 31.808 156.211 28.924ZM161.503 14.42C161.055 15.848 160.159 17.78 159.403 19.068L162.175 20.02C163.043 18.9 164.163 17.136 165.227 15.456L161.503 14.42ZM161.363 26.628V27.132C160.243 31.612 156.883 33.796 151.983 34.72C152.655 35.364 153.747 36.876 154.139 37.716C159.431 36.372 163.379 33.46 164.919 27.384L162.735 26.544L162.091 26.628H161.363ZM152.935 20.748C152.627 25.676 152.291 31.332 146.831 34.636C147.783 35.336 148.875 36.624 149.407 37.576C155.567 33.572 156.435 26.908 156.827 20.748H152.935ZM139.831 25.76L140.391 29.708C142.995 29.008 146.159 28.168 149.127 27.328L148.623 23.688C145.459 24.5 142.099 25.312 139.831 25.76ZM140.251 16.184V19.908H148.847V16.184H140.251ZM142.883 11.088V33.488C142.883 33.852 142.771 33.936 142.435 33.936C142.099 33.964 141.175 33.964 140.279 33.908C140.755 35 141.203 36.68 141.287 37.688C143.135 37.688 144.423 37.548 145.375 36.904C146.327 36.288 146.607 35.252 146.607 33.488V11.088H142.883ZM170.771 25.48V28.728H185.163V25.48H170.771ZM171.191 15.54V18.704H185.079V15.54H171.191ZM175.727 23.716C174.495 26.432 172.619 29.932 171.247 32.116L174.803 33.152C176.175 30.884 178.023 27.468 179.479 24.5L175.727 23.716ZM179.563 27.832C178.667 32.34 176.315 33.796 170.911 34.356C171.583 35.168 172.283 36.568 172.507 37.716C179.283 36.372 182.223 34.216 183.287 28.112L179.563 27.832ZM181.663 11.284C181.271 12.32 180.543 13.776 179.955 14.756L182.531 15.876C183.231 15.064 184.099 13.832 185.079 12.6L181.663 11.284ZM176.259 11.032V24.136H179.983V11.032H176.259ZM171.667 12.6C172.311 13.72 172.927 15.204 173.095 16.156L176.175 14.812C175.951 13.832 175.251 12.432 174.551 11.396L171.667 12.6ZM176.371 17.164C175.167 18.956 172.675 20.804 170.463 21.672C171.191 22.4 172.059 23.744 172.507 24.612C174.859 23.296 177.547 20.916 178.975 18.76L176.371 17.164ZM179.675 17.892L177.771 19.46C179.031 20.384 181.299 22.26 182.363 23.324L184.491 20.552C183.735 20.048 180.683 18.34 179.675 17.892ZM186.899 16.072V19.824H197.371V16.072H186.899ZM186.983 11.032C186.395 16.072 185.079 20.916 182.727 23.744C183.623 24.416 185.275 25.9 185.919 26.656C188.579 23.156 190.259 17.556 191.099 11.62L186.983 11.032ZM191.827 18.424C191.127 26.376 188.831 31.444 182.615 34.048C183.371 34.916 184.547 36.82 184.939 37.772C192.023 34.3 194.879 28.308 195.999 18.788L191.827 18.424ZM189.251 18.984L185.555 19.572C186.927 27.888 189.223 34.188 194.935 37.604C195.551 36.484 196.839 34.86 197.763 34.048C192.639 31.444 190.315 25.732 189.251 18.984ZM174.159 32.368C177.211 33.656 180.431 35.672 182.139 37.24L184.967 34.356C183.119 32.844 179.591 30.856 176.343 29.596L174.159 32.368ZM203.239 35H217.339V30.68H213.319V12.65H209.389C207.829 13.64 206.269 14.24 203.869 14.69V17.99H207.979V30.68H203.239V35ZM231.9 35.42C235.89 35.42 239.25 32.57 239.25 27.83C239.25 23 236.43 20.84 232.71 20.84C231.36 20.84 229.29 21.74 228.21 23.33L228.45 26.78C229.35 25.16 230.58 24.59 231.69 24.59C233.16 24.59 234.39 25.4 234.39 27.83C234.39 30.38 233.19 31.43 231.78 31.43C230.1 31.43 228.42 29.84 228.42 24.02C228.42 18.41 230.34 16.52 232.8 16.52C234.03 16.52 235.41 17.3 236.13 18.08L238.95 14.93C237.54 13.49 235.38 12.26 232.44 12.26C227.82 12.26 223.56 15.95 223.56 24.02C223.56 32.15 227.7 35.42 231.9 35.42ZM252.612 35.42C257.322 35.42 260.502 31.4 260.502 23.72C260.502 16.07 257.322 12.26 252.612 12.26C247.902 12.26 244.692 16.04 244.692 23.72C244.692 31.4 247.902 35.42 252.612 35.42ZM252.612 31.28C251.022 31.28 249.732 29.84 249.732 23.72C249.732 17.63 251.022 16.34 252.612 16.34C254.202 16.34 255.462 17.63 255.462 23.72C255.462 29.84 254.202 31.28 252.612 31.28ZM265.961 18.62V21.077H284.525V18.62H265.961ZM272.681 24.5V26.936H281.081V24.5H272.681ZM280.178 24.5V24.92C279.926 30.821 279.59 33.467 278.96 34.034C278.687 34.286 278.414 34.328 277.952 34.328C277.343 34.328 275.894 34.328 274.424 34.181C274.928 34.874 275.285 35.945 275.327 36.659C276.713 36.722 278.162 36.743 279.023 36.638C279.968 36.554 280.64 36.323 281.249 35.609C282.089 34.664 282.446 32.102 282.761 25.613C282.803 25.298 282.824 24.5 282.824 24.5H280.178ZM270.896 20.699C270.728 25.886 270.686 31.724 265.142 34.811C265.814 35.315 266.57 36.176 266.969 36.869C272.954 33.257 273.353 26.663 273.542 20.699H270.896ZM300.17 17.444V36.869H302.711V17.444H300.17ZM296.6 18.326C296.117 20.909 295.235 23.576 294.101 25.235C294.71 25.508 295.802 26.075 296.306 26.453C297.419 24.605 298.427 21.665 299.015 18.83L296.6 18.326ZM297.398 21.245L296.789 23.702H307.121V21.245H297.398ZM294.479 27.335V29.813H308.129V27.335H294.479ZM292.925 17.255C291.875 20.258 290.09 23.24 288.221 25.151C288.641 25.76 289.334 27.146 289.565 27.755C291.812 25.34 293.954 21.56 295.298 17.99L292.925 17.255ZM290.846 23.051V36.869H293.24V20.678V20.657L290.846 23.051ZM318.293 20.783C319.574 22.379 320.918 24.584 321.464 26.054L323.921 24.731C323.312 23.261 321.968 21.203 320.603 19.67L318.293 20.783ZM311.468 31.829L312.35 34.517C314.723 33.509 317.831 32.207 320.624 30.947L320.036 28.469C316.97 29.75 313.631 31.094 311.468 31.829ZM323.774 29.939C325.706 32.081 328.268 35 329.381 36.869L331.523 34.79C330.326 32.963 327.638 30.17 325.727 28.175L323.774 29.939ZM326.63 18.368C325.853 27.041 323.69 32.165 316.991 34.685C317.6 35.231 318.65 36.365 319.007 36.932C325.895 33.824 328.436 28.133 329.423 18.62L326.63 18.368ZM313.862 18.452L314.345 32.102L316.97 31.997L316.508 18.347L313.862 18.452ZM343.934 23.471V26.012H352.67V23.471H343.934ZM334.946 33.32V35.861H354.14V33.32H334.946ZM342.506 17.423V34.727H345.215V17.423H342.506Z" fill="#323C69"/>
<path d="M382.49 13L367.999 41.0646" stroke="#323C69" stroke-width="3"/>
<path d="M2 13L16.4908 41.0646" stroke="#323C69" stroke-width="3"/>
</svg>
