<svg width="323" height="41" viewBox="0 0 323 41" fill="none" xmlns="http://www.w3.org/2000/svg">
<path d="M7.72155 18.3598V20.3294H17.6781V18.3598H7.72155ZM9.58275 13.9146V15.8842H17.2263V13.9146H9.58275ZM11.6969 10.7885V27.7562H13.8111V10.7885H11.6969ZM11.1187 19.3717C10.2333 21.7208 8.48049 24.0699 6.52894 25.2806C6.99875 25.6601 7.64927 26.419 7.97453 26.943C10.0526 25.4252 11.7692 22.7508 12.7992 19.8777L11.1187 19.3717ZM14.4978 19.4621L12.9799 19.9319C13.775 22.5159 15.1121 25.2445 16.612 26.8165C16.9734 26.2564 17.6961 25.4974 18.184 25.118C16.6842 23.8531 15.2386 21.5943 14.4978 19.4621ZM8.96838 11.6739C8.67926 13.6978 8.13716 15.7216 7.23366 17.0046C7.72155 17.2395 8.57084 17.7816 8.95031 18.0888C9.88994 16.6432 10.5947 14.3483 10.938 12.0173L8.96838 11.6739ZM1.05375 14.1676V16.1553H7.57699V14.1676H1.05375ZM3.40284 10.7885V27.7562H5.51702V10.7885H3.40284ZM3.38477 15.6493C2.91495 17.9261 1.86689 20.7812 0.65621 22.2991C1.01761 22.8773 1.48743 23.8711 1.70427 24.5036C2.95109 22.6243 4.03529 19.1007 4.54124 16.1011L3.38477 15.6493ZM5.42667 16.5709L4.46896 17.3298C4.97492 18.2514 6.00491 20.3656 6.40245 21.4498L7.64927 19.9861C7.34208 19.444 5.84228 17.0949 5.42667 16.5709ZM35.9648 11.9811C36.7961 12.5774 37.808 13.4809 38.2778 14.0953L39.7957 12.7943C39.2897 12.198 38.2236 11.3487 37.4104 10.7885L35.9648 11.9811ZM24.0026 13.8604V15.9746H40.2655V13.8604H24.0026ZM24.6711 18.0526V20.1487H32.4954V18.0526H24.6711ZM27.4178 19.2452V25.3709H29.5862V19.2452H27.4178ZM23.9845 25.0638L24.5989 27.2502C26.9479 26.7623 30.1463 26.0937 33.1279 25.4432L32.9652 23.5097C29.7126 24.1241 26.1709 24.7385 23.9845 25.0638ZM32.8749 10.8608C32.893 19.2272 34.0314 27.7742 37.9525 27.7742C39.6692 27.7742 40.41 26.925 40.7353 23.4736C40.1209 23.2568 39.3258 22.7327 38.838 22.2268C38.7295 24.5036 38.5308 25.4974 38.1332 25.4974C36.4166 25.4974 35.0433 18.2875 35.2059 10.8608H32.8749ZM47.5115 25.0999L47.8006 27.2141C51.0532 27.0876 55.8237 26.8707 60.2508 26.6178L60.3231 24.6301C55.7695 24.8288 50.746 25.0095 47.5115 25.0999ZM47.4212 19.7151V21.7389H62.4554V19.7151H47.4212ZM50.6376 16.2456V18.2333H59.1124V16.2456H50.6376ZM51.8483 21.0342C51.3966 22.552 50.5292 24.5578 49.7883 25.8769L51.6857 26.5094C52.4988 25.2987 53.4746 23.4194 54.3239 21.7208L51.8483 21.0342ZM56.3296 22.8954C57.8837 24.341 59.6184 26.4009 60.3773 27.7742L62.3831 26.5636C61.5519 25.1902 59.8714 23.2929 58.2451 21.9015L56.3296 22.8954ZM54.866 12.9027C56.4019 14.9988 59.4557 17.2756 62.1662 18.5405C62.5638 17.89 63.0517 17.113 63.5757 16.5709C60.7026 15.5409 57.8295 13.4809 55.914 10.8247H53.6192C52.282 12.9569 49.3908 15.5409 46.3008 16.8962C46.7526 17.366 47.3308 18.1791 47.5838 18.7031C50.5834 17.2756 53.4023 14.9627 54.866 12.9027ZM76.0078 25.118V27.2502H86.3077V25.118H76.0078ZM76.7487 16.3902V18.4682H85.874V16.3902H76.7487ZM80.2 10.9692V26.148H82.4226V10.9692H80.2ZM69.5207 14.1315V16.1011H75.4476V14.1315H69.5207ZM72.1047 20.3114V27.7742H74.255V17.7454L72.1047 20.3114ZM72.1047 10.8066V15.053H74.255V10.8066H72.1047ZM74.0382 18.3598L72.8456 19.4079C73.6587 20.2029 75.1766 21.8654 75.8813 22.805L77.2004 21.0522C76.7125 20.6005 74.6706 18.7935 74.0382 18.3598ZM74.6525 14.1315V14.529C73.6948 17.1853 71.3096 19.8415 68.8521 21.1787C69.1774 21.5943 69.6833 22.6605 69.8821 23.2387C72.5745 21.5401 75.3031 18.3779 76.6764 14.8543L75.4657 14.0592L75.0862 14.1315H74.6525Z" fill="white"/>
<path d="M124.77 11.5325C124.77 12.4732 124.082 13.2728 123.15 13.4139L120.381 13.8466C120.24 13.856 120.127 13.9783 120.127 14.1194V17.5999C120.127 17.7504 120.258 17.8821 120.409 17.8727H120.729C121.2 17.8445 121.888 17.8257 122.472 17.8257C125.514 17.8257 127.943 18.3712 129.912 20.3372C131.833 22.3221 132.765 24.7772 132.765 27.8438C132.765 28.8974 132.633 29.9603 132.36 31.0233C132.002 32.4437 130.599 33.0646 129.29 32.4249L126.286 30.9575C125.014 30.3366 124.572 29.3489 124.826 28.4176L124.845 28.3706C125.156 27.2418 126.352 26.6116 127.463 26.9878L128.132 27.2136C128.32 27.2794 128.518 27.1195 128.49 26.922C128.405 26.16 128.056 24.5327 126.644 23.3098C125.401 22.2374 123.818 22.0587 121.888 22.0587C121.794 22.0587 121.643 22.0587 121.464 22.0681C120.71 22.0963 120.108 22.7172 120.108 23.4791V34.6261C120.108 35.7549 119.251 36.6956 118.13 36.8085C117.461 36.8743 116.896 36.9119 116.51 36.9119C113.892 36.9119 111.688 36.1594 109.974 34.6731C108.194 33.1304 107.29 31.0609 107.29 28.5305C107.29 26.2729 108.119 24.1846 109.739 22.3221C111.246 20.61 113.12 19.7728 115.484 18.898C115.484 18.898 115.663 18.8604 115.851 18.7193C116.039 18.5782 115.87 14.1288 115.87 14.1288C115.87 13.9783 115.757 13.8654 115.606 13.856L111.199 13.6491C110.2 13.602 109.419 12.7836 109.419 11.7865C109.419 10.7988 110.191 9.98043 111.18 9.92399L115.615 9.6606C115.757 9.6606 115.87 9.5289 115.87 9.3878V7.13019C115.87 5.96375 116.821 5.01367 117.989 5.01367C119.157 5.01367 120.108 5.96375 120.108 7.13019V9.39722C120.108 9.53832 120.211 9.65119 120.353 9.67001L122.801 9.63239C123.875 9.61357 124.751 10.479 124.751 11.542L124.77 11.5325ZM111.547 28.5305C111.547 30.0826 112.178 32.0486 115.211 32.566C115.568 32.6225 115.889 32.3497 115.889 31.9922V24.2975C115.889 23.8272 115.38 23.5261 114.966 23.7519C112.715 24.9748 111.547 26.7715 111.547 28.5399V28.5305ZM130.1 10.8176C130.58 10.0369 131.579 9.72645 132.417 10.1121L134.526 11.0622C135.534 11.5231 135.911 12.7554 135.327 13.6961L135.167 13.9501C134.63 14.8061 133.5 15.0695 132.643 14.5427L130.693 13.3386C129.836 12.8024 129.563 11.6736 130.1 10.8176Z" fill="white"/>
<path d="M259.048 13.8941C259.689 13.1604 260.753 12.9629 261.61 13.4238L261.742 13.4991C261.977 13.6213 262.269 13.5555 262.429 13.3486L268.231 6.01129C269.031 4.99537 270.434 4.70376 271.583 5.29639L282.395 10.9404C283.478 11.5048 283.939 12.8218 283.421 13.9318C279.118 23.141 274.041 30.4876 268.306 35.8307C267.515 36.5738 266.262 36.4986 265.575 35.6614C264.963 34.9182 265.029 33.8552 265.697 33.1686C268.023 30.8169 270.058 27.6844 272.337 24.5238L272.695 24.0346L269.097 20.7517C268.419 20.1308 268.315 19.0961 268.852 18.3529C269.417 17.5816 270.481 17.3746 271.291 17.892L275.106 20.3189L275.454 19.7451C276.273 18.3812 277.564 15.9072 278.204 14.6655C278.421 14.2422 278.251 13.7342 277.837 13.5179L271.621 10.3102C271.131 10.0562 270.538 10.1879 270.199 10.6206L263.927 18.5505C263.371 19.256 262.354 19.3783 261.648 18.8233L259.246 16.6974C258.417 15.9636 258.333 14.7125 259.058 13.8753L259.048 13.8941Z" fill="white"/>
<path d="M308.633 6.87659C309.735 6.87659 310.639 7.76082 310.658 8.86141L311.035 28.8978C311.035 29.2834 311.468 29.5092 311.788 29.3117C313.399 28.324 317.241 25.9347 319.445 24.2132C320.302 23.5453 321.611 23.6488 322.355 24.439L322.393 24.4766C323.269 25.4173 323.193 26.8471 322.195 27.6467C320.726 28.8319 319.059 29.9984 317.166 31.1836C314.143 33.0367 311.412 34.3349 309.067 35.031C307.428 35.4449 305.846 34.175 305.893 32.4817L306.59 8.83319C306.618 7.74201 307.522 6.86719 308.614 6.86719L308.633 6.87659ZM291.389 28.8601C291.549 27.8442 292.557 27.1105 293.555 27.3833C294.262 27.5902 294.987 27.1481 295.119 26.4238L297.106 13.339C297.294 12.1255 298.406 11.2884 299.621 11.4483C300.835 11.6082 301.692 12.7088 301.561 13.9128L299.724 30.6568C299.602 31.6163 298.716 32.2936 297.756 32.1619L292.83 31.5128C291.823 31.3812 291.126 30.4405 291.286 29.4434L291.38 28.8601H291.389Z" fill="white"/>
<path d="M151.808 12.2667L146.138 21.1373C145.536 22.078 145.79 23.3291 146.704 23.9687L146.741 23.9969C147.382 24.4391 148.22 24.4955 148.898 24.1286C149.209 23.9593 149.35 24.2509 149.35 24.4861V32.0491C149.35 33.0368 148.681 33.8928 147.721 34.128C147.325 34.2221 146.892 34.3161 146.44 34.4008C145.47 34.5795 144.735 35.3885 144.745 36.3762C144.745 36.4138 144.745 36.4515 144.745 36.4797C144.745 37.6179 145.649 38.5398 146.779 38.5398H151.582C152.759 38.5398 153.72 37.5803 153.72 36.4044V22.8587C153.72 21.7675 152.835 20.8927 151.751 20.8927C151.45 20.8927 151.262 20.5447 151.441 20.3001L155.424 14.5808C156.093 13.6213 155.858 12.3044 154.888 11.6365C153.861 10.931 152.448 11.2132 151.78 12.2667H151.808Z" fill="white"/>
<path d="M148.248 11.5985C149.275 11.5985 150.132 10.8272 150.245 9.82064C150.339 9.03047 150.414 8.31556 150.414 8.31556C150.433 8.17446 150.556 8.06157 150.706 8.06157L176.106 7.92988C176.247 7.92988 176.37 8.03336 176.389 8.17446L176.775 10.7707C176.803 10.9494 176.662 11.1 176.492 11.1L159.7 11.5327C158.843 11.5515 158.156 12.257 158.156 13.113C158.156 13.9502 158.806 14.6369 159.644 14.6933L165.812 15.079C166.01 15.079 166.142 15.2671 166.095 15.4553L165.257 18.2585C165.219 18.3808 165.106 18.4654 164.974 18.4654H160.717C159.766 18.4654 159.003 19.2462 159.022 20.1963L159.418 36.1031C159.437 36.9027 160.096 37.5423 160.896 37.5423H177.189C177.99 37.5423 178.649 36.9027 178.668 36.1031L179.063 20.1963C179.091 19.2462 178.319 18.4654 177.368 18.4654H170.192C169.994 18.4654 169.862 18.2773 169.909 18.0892L170.747 15.286C170.785 15.1637 170.898 15.079 171.03 15.079L178.734 14.6933C180.005 14.6933 180.561 13.9502 180.561 13.113C180.561 13.113 180.513 11.0341 180.561 10.3098L180.796 6.34015C180.871 5.05143 179.845 3.96023 178.545 3.96023H166.104C165.944 3.96023 165.812 3.82854 165.812 3.66862V2.18236C165.812 0.978294 164.833 0 163.618 0C162.413 0 161.424 0.978303 161.424 2.19177C161.424 2.7844 161.424 3.3488 161.424 3.67804C161.424 3.83795 161.292 3.96965 161.132 3.96965H148.276C146.977 3.96965 145.95 5.06083 146.026 6.34955C146.092 7.44073 146.167 8.71064 146.233 9.73597C146.299 10.7895 147.175 11.6173 148.239 11.6173L148.248 11.5985ZM170.634 27.7875C170.634 27.0256 170.05 26.3953 169.288 26.3483L163.448 26.0096C163.288 26.0096 163.157 25.8779 163.157 25.718V23.6862C163.157 22.9901 163.722 22.4257 164.419 22.4257H173.61C174.326 22.4257 174.9 23.0183 174.872 23.7332L174.59 32.3592C174.571 33.0365 174.015 33.5633 173.337 33.5633H164.579C163.919 33.5633 163.373 33.0553 163.335 32.4062L163.157 29.8664C163.157 29.7065 163.288 29.5748 163.448 29.5748L169.288 29.2362C170.041 29.1797 170.634 28.5495 170.634 27.7969V27.7875Z" fill="white"/>
<path d="M232.716 16.885C231.633 16.885 230.767 17.7598 230.767 18.8416V21.0334C230.767 22.0399 231.586 22.8489 232.584 22.8489L248.99 22.5008C249.922 22.482 250.676 21.7201 250.676 20.7888C250.676 19.8575 249.922 19.0862 248.99 19.0768L236.483 18.8416C235.692 18.8416 234.986 18.4277 234.59 17.7881C234.195 17.1484 233.517 16.8756 232.81 16.885H232.716Z" fill="white"/>
<path d="M194.179 23.1217L191.137 28.0885C190.534 29.0668 190.892 30.3461 191.9 30.8823L192.578 31.2398C193.595 31.7759 194.866 31.3432 195.328 30.2897L197.692 24.9655C198.116 24.0154 197.729 22.896 196.807 22.4068C195.874 21.9177 194.725 22.2281 194.179 23.1217Z" fill="white"/>
<path d="M213.41 24.7589L215.886 30.0173C216.367 31.0426 217.619 31.4565 218.618 30.9297L219.107 30.6663C220.106 30.1395 220.464 28.8791 219.889 27.9008L216.941 22.887C216.404 21.9651 215.237 21.6359 214.295 22.1344H214.276C213.334 22.6424 212.958 23.79 213.41 24.7495V24.7589Z" fill="white"/>
<path d="M221.575 8.13677C221.575 5.40881 219.079 3.26407 216.245 3.84729C214.502 4.20475 213.137 5.6628 212.854 7.42186C212.609 8.94575 213.156 10.3474 214.144 11.2974L207.439 11.5796C207.232 11.5796 207.072 11.4103 207.072 11.2128L207.203 7.99567C207.26 6.72576 206.271 5.65339 205 5.59695C203.644 5.54051 202.532 6.6505 202.589 8.00507L202.739 11.2128C202.739 11.4197 202.57 11.5796 202.372 11.5796L193.086 11.9371C192.116 11.9747 191.344 12.7743 191.344 13.7432C191.344 14.7215 192.116 15.5211 193.086 15.5493L202.372 15.9067C202.579 15.9067 202.739 16.0761 202.739 16.2736V30.6471C202.739 31.4749 202.174 32.1804 201.364 32.3779C200.997 32.4626 200.583 32.5567 200.168 32.6319C199.349 32.7824 198.671 33.582 198.671 34.4098C198.671 34.4286 198.671 34.438 198.671 34.4568C198.671 35.4822 199.49 36.3194 200.517 36.3194H205.292C206.271 36.3194 207.072 35.5198 207.072 34.5415V16.2736C207.072 16.0667 207.241 15.9067 207.439 15.9067L217.007 15.2012C218.043 15.126 218.834 14.27 218.834 13.2352V12.2099C220.445 11.5608 221.575 9.9899 221.575 8.14618V8.13677ZM217.186 6.28364C218.213 6.28364 219.042 7.11143 219.042 8.13677C219.042 9.1621 218.213 9.98989 217.186 9.98989C216.16 9.98989 215.331 9.1621 215.331 8.13677C215.331 7.11143 216.16 6.28364 217.186 6.28364Z" fill="white"/>
</svg>
