<svg width="33" height="32" viewBox="0 0 33 32" fill="none" xmlns="http://www.w3.org/2000/svg">
<path fill-rule="evenodd" clip-rule="evenodd" d="M23.3362 29.9811C21.2451 29.9111 15.3203 29.1125 9.11955 23.1302C2.90432 17.1339 2.09112 11.4179 2.00399 9.40043C1.88781 6.33224 4.32744 3.3341 7.15914 2.17127C7.82713 1.89107 8.62582 1.94711 9.26477 2.39543C11.5882 4.0346 13.1856 6.50036 14.5651 8.44775C15.1896 9.33038 15.0444 10.5212 14.1876 11.2357L11.3559 13.2672C11.08 13.4633 10.9783 13.8276 11.1526 14.1358C11.7915 15.2566 12.9387 16.9378 14.2457 18.1987C15.5526 19.4596 17.3678 20.6364 18.6167 21.3229C18.9361 21.5051 19.3427 21.393 19.546 21.0988L21.3903 18.3948C22.1018 17.4842 23.4233 17.2881 24.3817 17.9325C26.4293 19.2915 28.8108 20.8186 30.5534 22.9761C31.0471 23.5926 31.1197 24.3911 30.8293 25.0496C29.6095 27.7815 26.5454 30.1212 23.3362 29.9951V29.9811Z" stroke="white" stroke-width="2.36201"/>
</svg>
