<svg width="161" height="153" viewBox="0 0 161 153" fill="none" xmlns="http://www.w3.org/2000/svg">
<path d="M13.0461 132.408C13.0461 133.11 12.5329 133.707 11.8371 133.812L9.7705 134.135C9.66506 134.142 9.58071 134.233 9.58071 134.339V136.936C9.58071 137.049 9.67912 137.147 9.79159 137.14H10.0306C10.382 137.119 10.8952 137.105 11.331 137.105C13.6014 137.105 15.4149 137.512 16.884 138.98C18.3179 140.461 19.0138 142.293 19.0138 144.582C19.0138 145.369 18.9154 146.162 18.7116 146.955C18.4445 148.015 17.3971 148.479 16.4201 148.001L14.1778 146.906C13.2288 146.443 12.8985 145.706 13.0883 145.01L13.1023 144.975C13.3343 144.133 14.227 143.662 15.0564 143.943L15.5555 144.112C15.6961 144.161 15.8437 144.042 15.8226 143.894C15.7593 143.325 15.4992 142.111 14.4449 141.198C13.517 140.398 12.3361 140.264 10.8952 140.264C10.8249 140.264 10.7124 140.264 10.5788 140.271C10.0165 140.292 9.56665 140.756 9.56665 141.324V149.644C9.56665 150.487 8.927 151.189 8.09053 151.273C7.59147 151.322 7.16972 151.35 6.88152 151.35C4.92742 151.35 3.28261 150.789 2.0033 149.679C0.674797 148.528 0 146.983 0 145.095C0 143.41 0.618564 141.851 1.82758 140.461C2.95224 139.183 4.35104 138.558 6.11535 137.905C6.11535 137.905 6.2489 137.877 6.38948 137.772C6.53007 137.667 6.40354 134.346 6.40354 134.346C6.40354 134.233 6.31919 134.149 6.20673 134.142L2.91709 133.988C2.172 133.953 1.58858 133.342 1.58858 132.598C1.58858 131.86 2.16497 131.25 2.90303 131.207L6.21376 131.011C6.31919 131.011 6.40354 130.913 6.40354 130.807V129.122C6.40354 128.252 7.11349 127.542 7.9851 127.542C8.85671 127.542 9.56665 128.252 9.56665 129.122V130.814C9.56665 130.92 9.64397 131.004 9.74941 131.018L11.577 130.99C12.3783 130.976 13.032 131.622 13.032 132.415L13.0461 132.408ZM3.17717 145.095C3.17717 146.253 3.64812 147.721 5.9115 148.107C6.17861 148.149 6.4176 147.945 6.4176 147.678V141.935C6.4176 141.584 6.03803 141.36 5.72875 141.528C4.04878 142.441 3.17717 143.782 3.17717 145.102V145.095ZM17.0246 131.874C17.3831 131.292 18.1281 131.06 18.7537 131.348L20.3283 132.057C21.0804 132.401 21.3615 133.321 20.9257 134.023L20.8062 134.212C20.4056 134.851 19.5621 135.048 18.9224 134.655L17.4674 133.756C16.8277 133.356 16.6239 132.513 17.0246 131.874Z" fill="#323C69"/>
<path d="M113.267 134.171C113.745 133.623 114.54 133.475 115.179 133.819L115.278 133.876C115.453 133.967 115.671 133.918 115.791 133.763L120.121 128.287C120.718 127.529 121.766 127.311 122.623 127.753L130.693 131.966C131.501 132.387 131.845 133.37 131.459 134.199C128.246 141.072 124.458 146.555 120.177 150.543C119.587 151.098 118.652 151.042 118.139 150.417C117.682 149.862 117.731 149.069 118.23 148.556C119.966 146.801 121.484 144.463 123.185 142.104L123.453 141.739L120.767 139.289C120.261 138.825 120.184 138.053 120.585 137.498C121.006 136.923 121.801 136.768 122.405 137.154L125.252 138.966L125.512 138.538C126.124 137.519 127.087 135.673 127.565 134.746C127.726 134.43 127.6 134.051 127.291 133.89L122.651 131.496C122.286 131.306 121.843 131.404 121.59 131.727L116.908 137.646C116.494 138.172 115.735 138.264 115.207 137.849L113.415 136.263C112.796 135.715 112.733 134.781 113.274 134.156L113.267 134.171Z" fill="#323C69"/>
<path d="M150.277 128.933C151.099 128.933 151.774 129.593 151.788 130.414L152.069 145.369C152.069 145.657 152.393 145.825 152.632 145.678C153.834 144.94 156.702 143.157 158.346 141.872C158.986 141.374 159.963 141.451 160.518 142.041L160.546 142.069C161.2 142.771 161.144 143.838 160.399 144.435C159.302 145.32 158.058 146.19 156.645 147.075C154.389 148.458 152.35 149.427 150.6 149.946C149.377 150.255 148.196 149.307 148.231 148.044L148.752 130.393C148.773 129.579 149.447 128.926 150.263 128.926L150.277 128.933ZM137.407 145.341C137.526 144.582 138.278 144.035 139.023 144.238C139.55 144.393 140.092 144.063 140.19 143.522L141.673 133.756C141.814 132.85 142.643 132.226 143.55 132.345C144.457 132.464 145.096 133.286 144.998 134.184L143.627 146.682C143.536 147.398 142.875 147.903 142.158 147.805L138.482 147.321C137.73 147.222 137.21 146.52 137.329 145.776L137.4 145.341H137.407Z" fill="#323C69"/>
<path d="M33.2257 132.956L28.9942 139.576C28.5443 140.278 28.7341 141.212 29.4159 141.69L29.444 141.711C29.922 142.041 30.5476 142.083 31.0537 141.809C31.2857 141.683 31.3911 141.9 31.3911 142.076V147.721C31.3911 148.458 30.892 149.097 30.1751 149.272C29.8798 149.342 29.5565 149.413 29.2191 149.476C28.4951 149.609 27.9468 150.213 27.9539 150.95C27.9539 150.978 27.9539 151.006 27.9539 151.027C27.9539 151.877 28.6287 152.565 29.4722 152.565H33.057C33.9357 152.565 34.6526 151.849 34.6526 150.971V140.861C34.6526 140.047 33.9919 139.394 33.1835 139.394C32.9586 139.394 32.818 139.134 32.9516 138.951L35.9249 134.683C36.424 133.967 36.2482 132.984 35.5242 132.485C34.7581 131.959 33.7037 132.169 33.2046 132.956H33.2257Z" fill="#E4502B"/>
<path d="M30.5696 132.457C31.3357 132.457 31.9754 131.881 32.0597 131.13C32.13 130.54 32.1863 130.007 32.1863 130.007C32.2003 129.901 32.2917 129.817 32.4042 129.817L51.3617 129.719C51.4672 129.719 51.5586 129.796 51.5726 129.901L51.8608 131.839C51.8819 131.973 51.7765 132.085 51.6499 132.085L39.117 132.408C38.4773 132.422 37.9642 132.949 37.9642 133.587C37.9642 134.212 38.4492 134.725 39.0748 134.767L43.6789 135.055C43.8265 135.055 43.9249 135.195 43.8898 135.336L43.2642 137.428C43.2361 137.519 43.1517 137.582 43.0533 137.582H39.8761C39.1662 137.582 38.5968 138.165 38.6109 138.874L38.9061 150.747C38.9202 151.343 39.4122 151.821 40.0097 151.821H52.1701C52.7676 151.821 53.2596 151.343 53.2737 150.747L53.5689 138.874C53.59 138.165 53.0136 137.582 52.3036 137.582H46.9474C46.7998 137.582 46.7014 137.442 46.7366 137.301L47.3622 135.209C47.3903 135.118 47.4746 135.055 47.573 135.055L53.3229 134.767C54.2718 134.767 54.6865 134.212 54.6865 133.587C54.6865 133.587 54.6514 132.036 54.6865 131.495L54.8623 128.532C54.9185 127.571 54.1523 126.756 53.1823 126.756H43.8968C43.7773 126.756 43.6789 126.658 43.6789 126.538V125.429C43.6789 124.53 42.9479 123.8 42.0411 123.8C41.1414 123.8 40.4033 124.53 40.4033 125.436C40.4033 125.878 40.4033 126.3 40.4033 126.545C40.4033 126.665 40.3049 126.763 40.1854 126.763H30.5906C29.6206 126.763 28.8545 127.578 28.9107 128.539C28.9599 129.354 29.0161 130.302 29.0653 131.067C29.1145 131.853 29.7682 132.471 30.5625 132.471L30.5696 132.457ZM47.2778 144.54C47.2778 143.971 46.842 143.501 46.2726 143.466L41.9146 143.213C41.7951 143.213 41.6967 143.115 41.6967 142.995V141.479C41.6967 140.959 42.1184 140.538 42.6386 140.538H49.499C50.0332 140.538 50.462 140.98 50.4409 141.514L50.2301 147.952C50.216 148.458 49.8013 148.851 49.2952 148.851H42.7581C42.266 148.851 41.8584 148.472 41.8302 147.987L41.6967 146.092C41.6967 145.972 41.7951 145.874 41.9146 145.874L46.2726 145.621C46.835 145.579 47.2778 145.109 47.2778 144.547V144.54Z" fill="#E4502B"/>
<path d="M93.6134 136.403C92.8051 136.403 92.1584 137.056 92.1584 137.864V139.5C92.1584 140.251 92.7699 140.855 93.515 140.855L105.76 140.595C106.456 140.581 107.018 140.012 107.018 139.317C107.018 138.622 106.456 138.046 105.76 138.039L96.4251 137.864C95.8346 137.864 95.3074 137.555 95.0122 137.078C94.717 136.6 94.2109 136.396 93.6837 136.403H93.6134V136.403Z" fill="#323C69"/>
<path d="M64.8516 141.058L62.5812 144.765C62.1313 145.495 62.3984 146.45 63.1505 146.85L63.6566 147.117C64.4158 147.517 65.3647 147.194 65.7091 146.408L67.4734 142.434C67.7898 141.725 67.5016 140.89 66.8127 140.524C66.1168 140.159 65.2593 140.391 64.8516 141.058Z" fill="#323C69"/>
<path d="M79.2048 142.28L81.0535 146.205C81.412 146.97 82.3468 147.279 83.0919 146.886L83.4574 146.69C84.2025 146.296 84.4696 145.356 84.0408 144.625L81.8407 140.883C81.4401 140.195 80.5685 139.95 79.8655 140.322H79.8515C79.1486 140.701 78.8674 141.557 79.2048 142.273V142.28Z" fill="#323C69"/>
<path d="M85.2992 129.874C85.2992 127.838 83.4365 126.237 81.3207 126.672C80.0204 126.939 79.0011 128.028 78.7903 129.34C78.6075 130.478 79.0152 131.524 79.7533 132.233L74.7485 132.444C74.5939 132.444 74.4744 132.317 74.4744 132.17L74.5728 129.769C74.615 128.821 73.8769 128.02 72.928 127.978C71.9158 127.936 71.0863 128.765 71.1285 129.776L71.241 132.17C71.241 132.324 71.1144 132.444 70.9668 132.444L64.0361 132.71C63.3121 132.739 62.7357 133.335 62.7357 134.058C62.7357 134.789 63.3121 135.385 64.0361 135.406L70.9668 135.673C71.1215 135.673 71.241 135.8 71.241 135.947V146.675C71.241 147.293 70.8192 147.819 70.2147 147.967C69.9406 148.03 69.6313 148.1 69.322 148.156C68.7105 148.269 68.2044 148.866 68.2044 149.483C68.2044 149.497 68.2044 149.504 68.2044 149.518C68.2044 150.284 68.8159 150.909 69.5821 150.909H73.1459C73.8769 150.909 74.4744 150.312 74.4744 149.582V135.947C74.4744 135.793 74.6009 135.673 74.7485 135.673L81.8901 135.147C82.6633 135.091 83.2538 134.452 83.2538 133.679V132.914C84.4557 132.43 85.2992 131.257 85.2992 129.881V129.874ZM82.0237 128.491C82.7898 128.491 83.4084 129.109 83.4084 129.874C83.4084 130.639 82.7898 131.257 82.0237 131.257C81.2575 131.257 80.6389 130.639 80.6389 129.874C80.6389 129.109 81.2575 128.491 82.0237 128.491Z" fill="#323C69"/>
<path d="M66.4185 51.8295C61.2521 51.8295 56.4864 48.4244 55.0032 43.2149C53.2178 36.9312 56.88 30.3666 63.1711 28.5763C66.2217 27.7127 69.42 28.0848 72.1895 29.6224C74.9589 31.16 76.9552 33.6875 77.8268 36.7346C79.6122 43.0183 75.95 49.5828 69.659 51.3731C68.5765 51.6821 67.494 51.8295 66.4185 51.8295V51.8295ZM66.4185 34.0947C65.8773 34.0947 65.336 34.1719 64.8018 34.3194C61.6809 35.204 59.8603 38.4617 60.746 41.586C61.6317 44.7033 64.8932 46.5217 68.0212 45.6371C71.1421 44.7524 72.9627 41.4947 72.077 38.3704C71.6482 36.8609 70.6571 35.6042 69.2794 34.8389C68.3937 34.3475 67.4096 34.0947 66.4185 34.0947V34.0947Z" fill="#E4502B"/>
<path d="M110.647 71.1719C108.996 71.1719 107.66 69.8379 107.66 68.188C107.66 64.4248 103.084 61.2373 97.6716 61.2373H79.3396C73.9272 61.2373 69.3512 64.4178 69.3512 68.188C69.3512 69.8379 68.0157 71.1719 66.3638 71.1719C64.712 71.1719 63.3765 69.8379 63.3765 68.188C63.3765 61.0688 70.5392 55.2695 79.3396 55.2695H97.6716C106.472 55.2695 113.635 61.0618 113.635 68.188C113.635 69.8379 112.299 71.1719 110.647 71.1719V71.1719Z" fill="#E4502B"/>
<path d="M87.6392 60.8655C85.9874 60.8655 84.6518 59.5315 84.6518 57.8816V54.7222C84.6518 52.6089 85.7765 50.8958 86.6833 49.5197C87.0628 48.944 87.4494 48.3472 87.6111 47.94C89.6004 42.7445 88.9396 38.4126 85.7062 35.4288C80.9967 31.0828 72.2806 30.6265 64.5204 34.3124C63.0302 35.0215 61.2448 34.3897 60.5419 32.9012C59.832 31.4128 60.4646 29.6295 61.9548 28.9274C71.8729 24.2164 83.3023 25.087 89.762 31.0477C94.7949 35.6885 96.0461 42.6182 93.1993 50.0673C92.8127 51.0854 92.2152 51.9911 91.688 52.7914C91.3014 53.3812 90.6547 54.3641 90.6407 54.7222V57.8746C90.6407 59.5245 89.3051 60.8584 87.6533 60.8584L87.6392 60.8655Z" fill="#E4502B"/>
<path d="M59.4381 86.0353C58.1799 86.0353 57.0131 85.242 56.5984 83.9852C56.0852 82.4196 56.9357 80.7345 58.5032 80.215C58.5735 80.1939 66.2283 77.5892 69.6655 72.0146C72.9341 66.7208 72.4842 60.5214 72.4772 60.4582C72.3296 58.8153 73.5456 57.369 75.1834 57.2215C76.8352 57.0881 78.2762 58.2887 78.4238 59.9246C78.4519 60.2546 79.0986 68.0899 74.7476 75.1459C70.1435 82.6021 60.7596 85.7545 60.366 85.8809C60.0567 85.9862 59.7404 86.0283 59.4311 86.0283L59.4381 86.0353Z" fill="#E4502B"/>
<path d="M38.646 27.1579C37.9572 27.1579 37.2683 26.9192 36.706 26.4418C35.4548 25.3676 35.3072 23.486 36.3826 22.2362C40.9446 16.9214 46.8631 14.2324 53.9836 14.2324H80.8982C82.55 14.2324 83.8855 15.5664 83.8855 17.2163C83.8855 18.8662 82.55 20.2002 80.8982 20.2002H54.0609C52.0084 20.2002 46.0055 20.2002 40.9235 26.1258C40.333 26.8139 39.4966 27.1649 38.6531 27.1649L38.646 27.1579Z" fill="#E4502B"/>
<path d="M65.6944 104.023C60.788 104.023 55.2069 101.495 51.7556 99.6275C50.3076 98.8412 49.7664 97.0298 50.5536 95.5835C51.3409 94.1372 53.1544 93.5966 54.6024 94.3829C61.3433 98.0338 66.0739 98.6446 67.775 97.6336C68.5552 97.1702 68.9559 96.0328 68.9559 94.2706C68.9559 79.9199 69.0262 74.3312 69.0262 74.2821C69.0473 72.6462 70.3828 71.3403 72.0136 71.3403H72.0557C73.7076 71.3614 75.022 72.7164 75.0009 74.3663C75.0009 74.4225 74.9307 79.9831 74.9307 94.2776C74.9307 99.2835 72.7024 101.657 70.8327 102.773C69.3214 103.672 67.5571 104.037 65.7014 104.037L65.6944 104.023Z" fill="#E4502B"/>
<path d="M110.646 71.1719H74.7127C73.0609 71.1719 71.7253 69.8379 71.7253 68.188C71.7253 66.5381 73.0609 65.2041 74.7127 65.2041H110.646C112.298 65.2041 113.633 66.5381 113.633 68.188C113.633 69.8379 112.298 71.1719 110.646 71.1719Z" fill="#E4502B"/>
<path d="M95.322 104.247C86.6902 104.247 79.6611 97.2327 79.6611 88.604C79.6611 79.9753 86.6832 72.9614 95.322 72.9614C103.961 72.9614 110.983 79.9753 110.983 88.604C110.983 97.2327 103.961 104.247 95.322 104.247ZM95.322 78.9292C89.9798 78.9292 85.6358 83.2681 85.6358 88.604C85.6358 93.9399 89.9798 98.2788 95.322 98.2788C100.664 98.2788 105.008 93.9399 105.008 88.604C105.008 83.2681 100.664 78.9292 95.322 78.9292Z" fill="#E4502B"/>
<path d="M98.2038 91.5884H82.6483C80.9964 91.5884 79.6609 90.2544 79.6609 88.6045C79.6609 86.9546 80.9964 85.6206 82.6483 85.6206H98.2038C99.8556 85.6206 101.191 86.9546 101.191 88.6045C101.191 90.2544 99.8556 91.5884 98.2038 91.5884Z" fill="#E4502B"/>
<path d="M95.3225 78.242C93.6706 78.242 92.3351 76.908 92.3351 75.2581V68.2583C92.3351 66.6084 93.6706 65.2744 95.3225 65.2744C96.9743 65.2744 98.3098 66.6084 98.3098 68.2583V75.2581C98.3098 76.908 96.9743 78.242 95.3225 78.242Z" fill="#E4502B"/>
<path d="M67.4724 31.8478C67.2334 31.8478 66.9944 31.8197 66.7555 31.7635C62.1373 30.6262 62.4044 24.5461 62.6364 19.1821C62.6856 18.1149 62.7278 17.1039 62.7278 16.2544C62.7278 5.77919 68.6604 0.309916 80.3568 0.000996353C81.9876 -0.041129 83.3794 1.25774 83.4215 2.90765C83.4637 4.55756 82.1633 5.92663 80.5115 5.96876C73.4191 6.15832 68.7025 7.97674 68.7025 16.2474C68.7025 17.2303 68.6533 18.3045 68.6041 19.4348C68.5198 21.4007 68.3651 24.9392 68.7939 26.1889C70.024 26.7927 70.7129 28.1899 70.3684 29.58C70.031 30.9421 68.815 31.8478 67.4724 31.8478V31.8478Z" fill="#E4502B"/>
<path d="M79.9153 107.561C50.2243 107.561 26.0721 83.4373 26.0721 53.7811C26.0721 24.1248 50.2243 0.000976562 79.9153 0.000976562C109.606 0.000976562 133.759 24.1248 133.759 53.7811C133.759 83.4373 109.606 107.561 79.9153 107.561V107.561ZM79.9153 5.96874C53.5209 5.96874 32.0469 27.4176 32.0469 53.7811C32.0469 80.1445 53.5209 101.593 79.9153 101.593C106.31 101.593 127.784 80.1445 127.784 53.7811C127.784 27.4176 106.31 5.96874 79.9153 5.96874Z" fill="#E4502B"/>
<path d="M92.6791 21.0716C94.8143 21.0716 96.5452 19.3428 96.5452 17.2101C96.5452 15.0775 94.8143 13.3486 92.6791 13.3486C90.544 13.3486 88.8131 15.0775 88.8131 17.2101C88.8131 19.3428 90.544 21.0716 92.6791 21.0716Z" fill="#E4502B"/>
</svg>
