<svg width="41" height="33" viewBox="0 0 41 33" fill="none" xmlns="http://www.w3.org/2000/svg">
<path d="M40.25 9.324V25.7988C40.2501 27.4786 39.6109 29.0947 38.4636 30.3156C37.3162 31.5366 35.7476 32.2698 34.0797 32.3649L33.7094 32.375H6.54063C4.86997 32.3751 3.26261 31.7324 2.04826 30.5788C0.833913 29.4253 0.104647 27.8482 0.0100627 26.1711L0 25.7988V9.324L19.4247 19.5545C19.6407 19.6683 19.8811 19.7278 20.125 19.7278C20.3689 19.7278 20.6093 19.6683 20.8253 19.5545L40.25 9.324ZM6.54063 4.77634e-08H33.7094C35.3306 -0.000196303 36.8941 0.604999 38.0967 1.6982C39.2993 2.79141 40.0552 4.29471 40.2178 5.91653L20.125 16.4991L0.0322001 5.91653C0.188216 4.35912 0.891638 2.90873 2.01602 1.82608C3.14041 0.743429 4.61201 0.0995268 6.1663 0.0101175L6.54063 4.77634e-08H33.7094H6.54063Z" fill="#E4502B"/>
</svg>
