<?xml version="1.0" encoding="utf-8"?>
<!-- Generator: Adobe Illustrator 26.3.1, SVG Export Plug-In . SVG Version: 6.00 Build 0)  -->
<svg version="1.1" id="レイヤー_1" xmlns="http://www.w3.org/2000/svg" xmlns:xlink="http://www.w3.org/1999/xlink" x="0px"
	 y="0px" viewBox="0 0 110 78" style="enable-background:new 0 0 110 78;" xml:space="preserve">
<style type="text/css">
	.st0{fill:#323C69;}
	.st1{clip-path:url(#SVGID_00000047762682713248260720000016708735830057405854_);}
	.st2{fill:none;stroke:#E4502B;stroke-width:2;stroke-linecap:round;stroke-linejoin:round;}
	.st3{fill:none;stroke:#E4502B;stroke-linecap:round;stroke-linejoin:round;}
</style>
<g>
	<path class="st0" d="M18.9,59.6h72.2c1.6,0,2.8-1.3,2.8-2.8v-46c0-1.5-1.3-2.8-2.8-2.8H18.9c-1.6,0-2.8,1.3-2.8,2.8v46
		C16.1,58.4,17.3,59.6,18.9,59.6L18.9,59.6z M19.9,12.1h70.1v43.4H19.9V12.1z"/>
	<path class="st0" d="M62,63.1v1.9H48v-1.9H11.1v0.1c0,3.8,3.1,6.9,6.9,6.9h74.1c3.8,0,6.9-3.1,6.9-6.9v-0.1H62L62,63.1z"/>
	<g>
		<defs>
			<rect id="SVGID_1_" x="37.7" y="18.6" width="34.2" height="30.5"/>
		</defs>
		<clipPath id="SVGID_00000088133542694070108840000000521533089340970888_">
			<use xlink:href="#SVGID_1_"  style="overflow:visible;"/>
		</clipPath>
		<g style="clip-path:url(#SVGID_00000088133542694070108840000000521533089340970888_);">
			<path class="st2" d="M59.2,19.3h-8.8v6.3h8.8V19.3z"/>
			<path class="st2" d="M59.2,42h-8.8v6.3h8.8V42z"/>
			<path class="st2" d="M71.1,42h-8.8v6.3h8.8V42z"/>
			<path class="st2" d="M47.3,42h-8.8v6.3h8.8V42z"/>
			<path class="st3" d="M54.8,29.1v8.8"/>
			<path class="st3" d="M42.9,37.9v-4.4h23.9v4.4"/>
		</g>
	</g>
</g>
</svg>
