<?xml version="1.0" encoding="utf-8"?>
<!-- Generator: Adobe Illustrator 26.3.1, SVG Export Plug-In . SVG Version: 6.00 Build 0)  -->
<svg version="1.1" id="レイヤー_1" xmlns="http://www.w3.org/2000/svg" xmlns:xlink="http://www.w3.org/1999/xlink" x="0px"
	 y="0px" viewBox="0 0 110 78" style="enable-background:new 0 0 110 78;" xml:space="preserve">
<style type="text/css">
	.st0{fill:#E4502B;}
	.st1{fill:#323C69;}
</style>
<g>
	<path class="st0" d="M26.3,39.6h-2.7v2.7h2.7V39.6z"/>
	<path class="st0" d="M26.3,42.3h-2.7V45h2.7V42.3z"/>
	<path class="st0" d="M26.3,45h-2.7v2.7h2.7V45z"/>
	<path class="st0" d="M26.3,47.7h-2.7v2.7h2.7V47.7z"/>
	<path class="st0" d="M26.3,50.3h-2.7V53h2.7V50.3z"/>
	<path class="st0" d="M28.9,39.6h-2.7v2.7h2.7V39.6z"/>
	<path class="st0" d="M28.9,50.3h-2.7V53h2.7V50.3z"/>
	<path class="st0" d="M31.6,39.6h-2.7v2.7h2.7V39.6z"/>
	<path class="st0" d="M31.6,45h-2.7v2.7h2.7V45z"/>
	<path class="st0" d="M31.6,50.3h-2.7V53h2.7V50.3z"/>
	<path class="st0" d="M34.3,39.6h-2.7v2.7h2.7V39.6z"/>
	<path class="st0" d="M34.3,50.3h-2.7V53h2.7V50.3z"/>
	<path class="st0" d="M37,39.6h-2.7v2.7H37V39.6z"/>
	<path class="st0" d="M37,42.3h-2.7V45H37V42.3z"/>
	<path class="st0" d="M37,45h-2.7v2.7H37V45z"/>
	<path class="st0" d="M37,47.7h-2.7v2.7H37V47.7z"/>
	<path class="st0" d="M37,50.3h-2.7V53H37V50.3z"/>
	<path class="st0" d="M42.3,50.3h-2.7V53h2.7V50.3z"/>
	<path class="st0" d="M45,45h-2.7v2.7H45V45z"/>
	<path class="st0" d="M47.7,39.6H45v2.7h2.7V39.6z"/>
	<path class="st0" d="M47.7,50.3H45V53h2.7V50.3z"/>
	<path class="st0" d="M42.3,42.3h-2.7V45h2.7V42.3z"/>
	<path class="st0" d="M39.7,39.6H37v2.7h2.7V39.6z"/>
	<path class="st0" d="M47.7,42.3H45V45h2.7V42.3z"/>
	<path class="st0" d="M50.4,45h-2.7v2.7h2.7V45z"/>
	<path class="st0" d="M50.4,39.6h-2.7v2.7h2.7V39.6z"/>
	<path class="st0" d="M50.4,45h-2.7v2.7h2.7V45z"/>
	<path class="st0" d="M55.7,45H53v2.7h2.7V45z"/>
	<path class="st0" d="M53,50.3h-2.7V53H53V50.3z"/>
	<path class="st0" d="M53,42.3h-2.7V45H53V42.3z"/>
	<path class="st0" d="M55.7,39.6H53v2.7h2.7V39.6z"/>
	<path class="st0" d="M55.7,53H53v2.7h2.7V53z"/>
	<path class="st0" d="M26.3,61.1h-2.7v2.7h2.7V61.1z"/>
	<path class="st0" d="M26.3,58.4h-2.7v2.7h2.7V58.4z"/>
	<path class="st0" d="M31.6,58.4h-2.7v2.7h2.7V58.4z"/>
	<path class="st0" d="M37,58.4h-2.7v2.7H37V58.4z"/>
	<path class="st0" d="M39.7,55.7H37v2.7h2.7V55.7z"/>
	<path class="st0" d="M34.3,55.7h-2.7v2.7h2.7V55.7z"/>
	<path class="st0" d="M31.6,63.7h-2.7v2.7h2.7V63.7z"/>
	<path class="st0" d="M31.6,69.1h-2.7v2.7h2.7V69.1z"/>
	<path class="st0" d="M37,63.7h-2.7v2.7H37V63.7z"/>
	<path class="st0" d="M31.6,53h-2.7v2.7h2.7V53z"/>
	<path class="st0" d="M26.3,53h-2.7v2.7h2.7V53z"/>
	<path class="st0" d="M42.3,53h-2.7v2.7h2.7V53z"/>
	<path class="st0" d="M45,55.7h-2.7v2.7H45V55.7z"/>
	<path class="st0" d="M39.7,47.7H37v2.7h2.7V47.7z"/>
	<path class="st0" d="M45,58.4h-2.7v2.7H45V58.4z"/>
	<path class="st0" d="M50.4,53h-2.7v2.7h2.7V53z"/>
	<path class="st0" d="M53,55.7h-2.7v2.7H53V55.7z"/>
	<path class="st0" d="M42.3,58.4h-2.7v2.7h2.7V58.4z"/>
	<path class="st0" d="M26.3,69.1h-2.7v2.7h2.7V69.1z"/>
	<path class="st0" d="M28.9,66.4h-2.7v2.7h2.7V66.4z"/>
	<path class="st0" d="M34.3,66.4h-2.7v2.7h2.7V66.4z"/>
	<path class="st0" d="M37,66.4h-2.7v2.7H37V66.4z"/>
	<path class="st0" d="M37,69.1h-2.7v2.7H37V69.1z"/>
	<path class="st0" d="M42.3,66.4h-2.7v2.7h2.7V66.4z"/>
	<path class="st0" d="M39.7,69.1H37v2.7h2.7V69.1z"/>
	<path class="st0" d="M39.7,61.1H37v2.7h2.7V61.1z"/>
	<path class="st0" d="M45,66.4h-2.7v2.7H45V66.4z"/>
	<path class="st0" d="M47.7,69.1H45v2.7h2.7V69.1z"/>
	<path class="st0" d="M45,58.4h-2.7v2.7H45V58.4z"/>
	<path class="st0" d="M45,61.1h-2.7v2.7H45V61.1z"/>
	<path class="st0" d="M45,63.7h-2.7v2.7H45V63.7z"/>
	<path class="st0" d="M45,66.4h-2.7v2.7H45V66.4z"/>
	<path class="st0" d="M45,69.1h-2.7v2.7H45V69.1z"/>
	<path class="st0" d="M47.7,58.4H45v2.7h2.7V58.4z"/>
	<path class="st0" d="M47.7,69.1H45v2.7h2.7V69.1z"/>
	<path class="st0" d="M50.4,58.4h-2.7v2.7h2.7V58.4z"/>
	<path class="st0" d="M50.4,63.7h-2.7v2.7h2.7V63.7z"/>
	<path class="st0" d="M50.4,69.1h-2.7v2.7h2.7V69.1z"/>
	<path class="st0" d="M53,58.4h-2.7v2.7H53V58.4z"/>
	<path class="st0" d="M53,69.1h-2.7v2.7H53V69.1z"/>
	<path class="st0" d="M55.7,58.4H53v2.7h2.7V58.4z"/>
	<path class="st0" d="M55.7,61.1H53v2.7h2.7V61.1z"/>
	<path class="st0" d="M55.7,63.7H53v2.7h2.7V63.7z"/>
	<path class="st0" d="M55.7,66.4H53v2.7h2.7V66.4z"/>
	<path class="st0" d="M55.7,69.1H53v2.7h2.7V69.1z"/>
	<path class="st1" d="M68.3,26.8v-9.1c0-6.3-5.1-11.5-11.5-11.5H43c-2,0-3.6,1.6-3.6,3.6v24.3c0,2.6,2.7,4.4,5.1,3.3L68.3,26.8z"/>
	<path class="st1" d="M85.9,55.4L67.1,12.5l-10.3,4.5L75.6,60c1.3,2.8,4.6,4.1,7.4,2.9C85.9,61.6,87.2,58.3,85.9,55.4L85.9,55.4z"/>
</g>
</svg>
