<?xml version="1.0" encoding="utf-8"?>
<!-- Generator: Adobe Illustrator 26.3.1, SVG Export Plug-In . SVG Version: 6.00 Build 0)  -->
<svg version="1.1" id="レイヤー_1" xmlns="http://www.w3.org/2000/svg" xmlns:xlink="http://www.w3.org/1999/xlink" x="0px"
	 y="0px" viewBox="0 0 110 78" style="enable-background:new 0 0 110 78;" xml:space="preserve">
<style type="text/css">
	.st0{fill-rule:evenodd;clip-rule:evenodd;fill:#323C69;}
	.st1{fill:#E4502B;}
</style>
<g>
	<path class="st0" d="M95.4,70.5c1.9,0,3.4-1.5,3.4-3.3V10.8c0-1.8-1.5-3.3-3.4-3.3H14.6c-1.9,0-3.4,1.5-3.4,3.3v56.4
		c0,1.8,1.5,3.3,3.4,3.3H95.4z M16.9,13.2h76.2v51.6H16.9V13.2z"/>
	<path class="st1" d="M27.8,30.7c-1.7,5.3,0.6,11.2,5.8,13.7c2.3,1.1,4.8,1.4,7.1,1l-2.3-11L27.8,30.7z"/>
	<path class="st1" d="M43.4,23.6c-5.6-2.6-12.2-0.3-15,5.3c-0.2,0.3-0.3,0.7-0.5,1.1l10.5,3.7L43.4,23.6z"/>
	<path class="st1" d="M49,39c2.7-5.5,0.5-12.2-5-15.1l-5,10.1l2.3,11C44.6,44.3,47.5,42.2,49,39L49,39z"/>
	<path class="st1" d="M68.7,50.7h-2.4v4.2h2.4V50.7z"/>
	<path class="st1" d="M56.5,40h-2.4v6.6h2.4V40z"/>
	<path class="st1" d="M56.5,46.6h-2.4v8.2h2.4V46.6z"/>
	<path class="st1" d="M72.8,46.6h-2.4v8.2h2.4V46.6z"/>
	<path class="st1" d="M72.8,38.7h-2.4v8h2.4V38.7z"/>
	<path class="st1" d="M72.8,34.5h-2.4v4.2h2.4V34.5z"/>
	<path class="st1" d="M76.8,50.7h-2.4v4.2h2.4V50.7z"/>
	<path class="st1" d="M76.8,46.5h-2.4v4.2h2.4V46.5z"/>
	<path class="st1" d="M76.8,42.4h-2.4v4.2h2.4V42.4z"/>
	<path class="st1" d="M80.9,42.6h-2.4v12.3h2.4V42.6z"/>
	<path class="st1" d="M80.9,38.5h-2.4v4.2h2.4V38.5z"/>
	<path class="st1" d="M64.7,46.4h-2.4v8.4h2.4V46.4z"/>
	<path class="st1" d="M64.7,42.4h-2.4v4.2h2.4V42.4z"/>
	<path class="st1" d="M84.9,50.7h-2.4v4.2h2.4V50.7z"/>
	<path class="st1" d="M84.9,46.5h-2.4v4.2h2.4V46.5z"/>
	<path class="st1" d="M60.6,50.7h-2.4v4.2h2.4V50.7z"/>
	<path class="st1" d="M60.6,46.5h-2.4v4.2h2.4V46.5z"/>
</g>
</svg>
