<?xml version="1.0" encoding="utf-8"?>
<!-- Generator: Adobe Illustrator 26.3.1, SVG Export Plug-In . SVG Version: 6.00 Build 0)  -->
<svg version="1.1" id="レイヤー_1" xmlns="http://www.w3.org/2000/svg" xmlns:xlink="http://www.w3.org/1999/xlink" x="0px"
	 y="0px" viewBox="0 0 110 78" style="enable-background:new 0 0 110 78;" xml:space="preserve">
<style type="text/css">
	.st0{fill:#323C69;}
	.st1{fill:#FFFFFF;}
	.st2{fill:#FFFFFF;filter:url(#Adobe_OpacityMaskFilter);}
	.st3{mask:url(#mask0_1162_577_00000162323873579882900300000005232175943288596631_);}
	.st4{fill:#E4502B;}
</style>
<g>
	<path class="st0" d="M59.5,71.6H36.8l3.1-14.1h16.5L59.5,71.6z"/>
	<path class="st0" d="M8.1,6.4h80.1c1.7,0,3.1,1.4,3.1,3.1v48.7c0,1.7-1.4,3.1-3.1,3.1H8.1C6.4,61.4,5,60,5,58.2V9.6
		C5,7.8,6.4,6.4,8.1,6.4z"/>
	<path class="st0" d="M88.2,6.4H8.1C6.4,6.4,5,7.8,5,9.6v47.9h86.3V9.6C91.3,7.8,89.9,6.4,88.2,6.4z"/>
	<path class="st0" d="M61.9,70.4c0-0.6-0.5-1.2-1.2-1.2H35.6c-0.6,0-1.2,0.5-1.2,1.2c0,0.6,0.5,1.2,1.2,1.2h25.1
		C61.3,71.6,61.9,71,61.9,70.4z"/>
	<path class="st1" d="M87.3,53c0,0.2-0.2,0.4-0.4,0.4H9.5c-0.2,0-0.4-0.2-0.4-0.4V10.9c0-0.2,0.2-0.4,0.4-0.4h77.4
		c0.2,0,0.4,0.2,0.4,0.4V53z"/>
	<defs>
		<filter id="Adobe_OpacityMaskFilter" filterUnits="userSpaceOnUse" x="9.1" y="12" width="78.2" height="35">
			<feColorMatrix  type="matrix" values="1 0 0 0 0  0 1 0 0 0  0 0 1 0 0  0 0 0 1 0"/>
		</filter>
	</defs>
	
		<mask maskUnits="userSpaceOnUse" x="9.1" y="12" width="78.2" height="35" id="mask0_1162_577_00000162323873579882900300000005232175943288596631_">
		<path class="st2" d="M87.3,53c0,0.2-0.2,0.4-0.4,0.4H9.5c-0.2,0-0.4-0.2-0.4-0.4V10.9c0-0.2,0.2-0.4,0.4-0.4h77.4
			c0.2,0,0.4,0.2,0.4,0.4V53z"/>
	</mask>
	<g class="st3">
		<path class="st0" d="M87.3,16.3H9.1v3.2h78.2V16.3z"/>
		<path class="st1" d="M54.4,16.8h-0.2V19h0.2V16.8z"/>
		<path class="st1" d="M42.1,16.8h-0.2V19h0.2V16.8z"/>
		<path class="st1" d="M29.7,16.8h-0.2V19h0.2V16.8z"/>
		<path class="st1" d="M66.8,16.8h-0.2V19h0.2V16.8z"/>
		<path class="st1" d="M17.3,16.8h-0.2V19h0.2V16.8z"/>
		<path class="st1" d="M79.2,16.8h-0.2V19h0.2V16.8z"/>
		<path class="st0" d="M78.6,12.3h-8.4c-0.4,0-0.6,0.3-0.6,0.6v1.6c0,0.4,0.3,0.6,0.6,0.6h8.4c0.4,0,0.6-0.3,0.6-0.6v-1.6
			C79.2,12.6,78.9,12.3,78.6,12.3z"/>
		<path class="st4" d="M79.2,24.4H17.1V47h62.1V24.4z"/>
		<path class="st0" d="M20.2,12h-3.1v3.1h3.1V12z"/>
		<path class="st1" d="M77.8,13.4l0.6,0.3L77.8,14V13.4z"/>
	</g>
	<path class="st0" d="M85.6,23.2h16c1.8,0,3.3,1.5,3.3,3.3v41.8c0,1.8-1.5,3.3-3.3,3.3h-16c-1.8,0-3.3-1.5-3.3-3.3V26.5
		C82.3,24.7,83.8,23.2,85.6,23.2L85.6,23.2z"/>
	<path class="st0" d="M95.5,27.3c0,0.1-0.1,0.2-0.2,0.2h-3.2c-0.1,0-0.2-0.1-0.2-0.2s0.1-0.2,0.2-0.2h3.2
		C95.4,27.1,95.5,27.2,95.5,27.3z"/>
	<path class="st0" d="M90.8,27.3c0,0.1-0.1,0.2-0.2,0.2s-0.2-0.1-0.2-0.2c0-0.1,0.1-0.2,0.2-0.2S90.8,27.2,90.8,27.3z"/>
	<path class="st0" d="M96.6,68c0,0.1-0.1,0.2-0.2,0.2H91c-0.1,0-0.2-0.1-0.2-0.2s0.1-0.2,0.2-0.2h5.4C96.5,67.7,96.6,67.8,96.6,68z"
		/>
	<path class="st1" d="M103.5,64.3c0,0.2-0.1,0.3-0.3,0.3H84.1c-0.2,0-0.3-0.1-0.3-0.3V30c0-0.2,0.1-0.3,0.3-0.3h19.2
		c0.2,0,0.3,0.1,0.3,0.3V64.3L103.5,64.3z"/>
	<path class="st4" d="M102,35.4H85v15h17V35.4z"/>
	<path class="st0" d="M87.2,30.8h-2.1v2.1h2.1V30.8z"/>
	<path class="st0" d="M102.2,31.1h-1.6v0.1h1.6V31.1z"/>
	<path class="st0" d="M102.2,31.8h-1.6v0.1h1.6V31.8z"/>
	<path class="st0" d="M102.2,32.5h-1.6v0.1h1.6V32.5z"/>
</g>
</svg>
