<?xml version="1.0" encoding="utf-8"?>
<!-- Generator: Adobe Illustrator 26.3.1, SVG Export Plug-In . SVG Version: 6.00 Build 0)  -->
<svg version="1.1" id="レイヤー_1" xmlns="http://www.w3.org/2000/svg" xmlns:xlink="http://www.w3.org/1999/xlink" x="0px"
	 y="0px" viewBox="0 0 110 78" style="enable-background:new 0 0 110 78;" xml:space="preserve">
<style type="text/css">
	.st0{fill:#323C69;}
	.st1{fill:#FFFFFF;}
	.st2{fill:#E4502B;}
</style>
<g>
	<path class="st0" d="M32.6,74.8c1.2-1.2,1.2-3.1,0-4.3c-1.2-1.2-3.1-1.2-4.3,0c-1.2,1.2-1.2,3.1,0,4.3C29.5,76,31.4,76,32.6,74.8z"
		/>
	<path class="st0" d="M51.5,74.8c1.2-1.2,1.2-3.1,0-4.3c-1.2-1.2-3.1-1.2-4.3,0c-1.2,1.2-1.2,3.1,0,4.3C48.4,76,50.3,76,51.5,74.8z"
		/>
	<path class="st0" d="M54.8,22.9H25c-2.2,0-3.9,1.8-3.9,3.9v40.2c0,2.2,1.8,3.9,3.9,3.9h29.8c2.2,0,3.9-1.8,3.9-3.9V26.8
		C58.7,24.6,57,22.9,54.8,22.9z M31.9,61.2h-3.8V32.7h3.8V61.2L31.9,61.2z M41.8,61.2H38V32.7h3.8V61.2L41.8,61.2z M51.7,61.2h-3.8
		V32.7h3.8V61.2L51.7,61.2z"/>
	<path class="st0" d="M53.2,26.2h-2.6v-9.5c-0.1-0.1-0.5-0.2-0.9-0.2H30.1c-0.5,0-0.8,0.1-0.9,0.2v9.5h-2.6v-9.7
		c0-1.5,1.5-2.6,3.5-2.6h19.7c2,0,3.5,1.1,3.5,2.6V26.2z"/>
	<path class="st1" d="M84.4,76.7H57.1V33.2h27.2c1.3,0,2.4,1.1,2.4,2.4v38.7C86.8,75.6,85.7,76.7,84.4,76.7L84.4,76.7z"/>
	<path class="st2" d="M84.4,77H57.1c-0.2,0-0.3-0.1-0.3-0.3V33.2c0-0.2,0.1-0.3,0.3-0.3h27.2c1.5,0,2.8,1.2,2.8,2.7v38.7
		C87.1,75.8,85.9,77,84.4,77L84.4,77z M57.4,76.4h26.9c1.2,0,2.1-0.9,2.1-2.1V35.6c0-1.1-1-2.1-2.1-2.1H57.4V76.4L57.4,76.4z"/>
	<path class="st2" d="M83,76.7H55.7V33.2H83c1.3,0,2.4,1.1,2.4,2.4v38.7C85.4,75.6,84.3,76.7,83,76.7L83,76.7z"/>
	<path class="st2" d="M83,77H55.7c-0.2,0-0.3-0.1-0.3-0.3V33.2c0-0.2,0.1-0.3,0.3-0.3H83c1.5,0,2.8,1.2,2.8,2.7v38.7
		C85.7,75.8,84.5,77,83,77L83,77z M56.1,76.4H83c1.2,0,2.1-0.9,2.1-2.1V35.6c0-1.1-1-2.1-2.1-2.1H56.1V76.4z"/>
	<path class="st0" d="M85.6,5.2c2.9-1.4,3.6-3,3.2-3.8c-0.3-0.6-2.6-0.3-4,0c-0.7,0.1-1.4,0.4-2.1,0.7l-19,9l-4.3-1.1l-1.4,0.7
		l4,3.2l10.9-3l-1.7,3.5l-1.4,0.1l0.9,0.9l2.1-0.2l5.9-6.7C81.2,7.3,84.1,5.9,85.6,5.2L85.6,5.2z"/>
	<path class="st0" d="M72.1,6.6l5.1-2.4l-7.7,0l-0.8-0.9L68.3,4l0.2,1.4L72.1,6.6z"/>
	<path class="st1" d="M70.7,51.3c0.4,0,0.7-0.3,0.7-0.7c0-0.4-0.3-0.7-0.7-0.7c-0.4,0-0.7,0.3-0.7,0.7C70,51,70.3,51.3,70.7,51.3z"
		/>
	<path class="st1" d="M70.8,44h-0.1c-1.1,0.1-1,1.2-0.6,3.3c0.3,1.7,0.6,2.4,0.6,2.4c0,0,0.3-0.7,0.6-2.4
		C71.8,45.2,71.9,44.1,70.8,44L70.8,44z"/>
	<path class="st1" d="M73.9,44.8l-0.1-0.1c-1-0.4-1.4,0.6-2,2.7c-0.5,1.7-0.5,2.4-0.5,2.4c0,0,0.6-0.4,1.7-1.8
		C74.2,46.3,74.8,45.4,73.9,44.8L73.9,44.8z"/>
	<path class="st1" d="M76.2,47l-0.1-0.1c-0.7-0.8-1.5-0.1-3,1.4c-1.2,1.3-1.6,1.9-1.6,1.9c0,0,0.7-0.1,2.3-0.9
		C75.8,48.5,76.7,47.9,76.2,47z"/>
	<path class="st1" d="M77.4,50.6v-0.1c-0.1-1.1-1.2-1-3.3-0.6c-1.7,0.3-2.4,0.6-2.4,0.6c0,0,0.7,0.3,2.4,0.6
		C76.2,51.6,77.3,51.7,77.4,50.6L77.4,50.6z"/>
	<path class="st1" d="M64.1,50.6v-0.1c0.1-1.1,1.2-1,3.3-0.6c1.7,0.3,2.4,0.6,2.4,0.6c0,0-0.7,0.3-2.4,0.6
		C65.2,51.6,64.2,51.7,64.1,50.6L64.1,50.6z"/>
	<path class="st1" d="M67.6,44.8l0.1-0.1c1-0.4,1.4,0.6,2,2.7c0.5,1.7,0.5,2.4,0.5,2.4c0,0-0.6-0.4-1.7-1.8
		C67.2,46.3,66.7,45.4,67.6,44.8L67.6,44.8z"/>
	<path class="st1" d="M65.2,47l0.1-0.1c0.7-0.8,1.5-0.1,3,1.4c1.2,1.3,1.6,1.9,1.6,1.9c0,0-0.7-0.1-2.3-0.9
		C65.6,48.5,64.7,47.9,65.2,47L65.2,47z"/>
	<path class="st1" d="M70.6,57.2h0.1c1.1-0.1,1-1.2,0.6-3.3c-0.3-1.7-0.6-2.4-0.6-2.4c0,0-0.3,0.7-0.6,2.4
		C69.6,56,69.6,57.1,70.6,57.2L70.6,57.2z"/>
	<path class="st1" d="M67.6,56.3l0.1,0.1c1,0.4,1.4-0.6,2-2.7c0.5-1.7,0.5-2.4,0.5-2.4c0,0-0.6,0.4-1.7,1.8
		C67.2,54.8,66.7,55.7,67.6,56.3L67.6,56.3z"/>
	<path class="st1" d="M65.2,54.1l0.1,0.1c0.7,0.8,1.5,0.1,3-1.4c1.2-1.3,1.6-1.9,1.6-1.9c0,0-0.7,0.1-2.3,0.9
		C65.6,52.6,64.7,53.2,65.2,54.1L65.2,54.1z"/>
	<path class="st1" d="M73.9,56.3l-0.1,0.1c-1,0.4-1.4-0.6-2-2.7c-0.5-1.7-0.5-2.4-0.5-2.4c0,0,0.6,0.4,1.7,1.8
		C74.2,54.8,74.8,55.7,73.9,56.3L73.9,56.3z"/>
	<path class="st1" d="M76.2,54.1l-0.1,0.1c-0.7,0.8-1.5,0.1-3-1.4c-1.2-1.3-1.6-1.9-1.6-1.9c0,0,0.7,0.1,2.3,0.9
		C75.8,52.6,76.7,53.2,76.2,54.1z"/>
	<path class="st1" d="M77.3,61.8H63.9v2.9h13.4V61.8z"/>
</g>
</svg>
