<?xml version="1.0" encoding="utf-8"?>
<!-- Generator: Adobe Illustrator 26.3.1, SVG Export Plug-In . SVG Version: 6.00 Build 0)  -->
<svg version="1.1" id="レイヤー_1" xmlns="http://www.w3.org/2000/svg" xmlns:xlink="http://www.w3.org/1999/xlink" x="0px"
	 y="0px" viewBox="0 0 110 78" style="enable-background:new 0 0 110 78;" xml:space="preserve">
<style type="text/css">
	.st0{fill:#323C69;stroke:#323C69;stroke-width:2.2691;stroke-miterlimit:10;}
	.st1{fill:#FFFFFF;}
	.st2{fill:#E4502B;}
</style>
<g>
	<path class="st0" d="M89,4.4H49.7v44.3H89V4.4z"/>
	<path class="st1" d="M59.6,9.4h-5.4v5.8h5.4V9.4z"/>
	<path class="st1" d="M71.9,9.4h-5.4v5.8h5.4V9.4z"/>
	<path class="st1" d="M84.2,9.4h-5.4v5.8h5.4V9.4z"/>
	<path class="st1" d="M59.6,20.1h-5.4v5.8h5.4V20.1z"/>
	<path class="st1" d="M71.9,20.1h-5.4v5.8h5.4V20.1z"/>
	<path class="st1" d="M84.2,20.1h-5.4v5.8h5.4V20.1z"/>
	<path class="st1" d="M59.6,30.8h-5.4v5.8h5.4V30.8z"/>
	<path class="st1" d="M71.9,30.8h-5.4v5.8h5.4V30.8z"/>
	<path class="st1" d="M84.2,30.8h-5.4v5.8h5.4V30.8z"/>
	<path class="st2" d="M25.5,24.8c-9.3,9.3-3.2,21.9,9.1,34.2c12.3,12.3,26.2,19.7,35.5,10.4l0,0l1-1c1-1,1-2.6,0.1-3.6l-6.6-6.6
		c-1-1-2.6-0.9-3.6,0.1l-2.8,2.8c-2.3,2.3-5.4,2.9-6.9,1.4l-19-19c-1.5-1.5-0.9-4.6,1.4-6.9l2.9-2.8c1-1,1-2.6,0.1-3.6l-6.6-6.6
		c-1-1-2.6-0.9-3.6,0.1L25.5,24.8L25.5,24.8C25.5,24.8,25.5,24.8,25.5,24.8L25.5,24.8z"/>
</g>
</svg>
