<?xml version="1.0" encoding="utf-8"?>
<!-- Generator: Adobe Illustrator 26.3.1, SVG Export Plug-In . SVG Version: 6.00 Build 0)  -->
<svg version="1.1" id="レイヤー_1" xmlns="http://www.w3.org/2000/svg" xmlns:xlink="http://www.w3.org/1999/xlink" x="0px"
	 y="0px" viewBox="0 0 110 78" style="enable-background:new 0 0 110 78;" xml:space="preserve">
<style type="text/css">
	.st0{fill:#323C69;}
	.st1{fill:#FFFFFF;}
	.st2{fill:#E4502B;}
	.st3{fill:#FFFFFF;filter:url(#Adobe_OpacityMaskFilter);}
	.st4{mask:url(#path-20-inside-1_1162_687_00000079488426541954121860000016855558656811039674_);fill:#E4502B;}
</style>
<g>
	<path class="st0" d="M70,39.3c-1.8,4.1-7,6.3-8.9,6.3c-1.8,0-7.1-2.3-8.9-6.3c-3-6.8-8.8-28.4,8.9-28.4S73,32.5,70,39.3L70,39.3z"
		/>
	<path class="st0" d="M75.2,52.2c0-0.5,0.1-1,0.1-1.5c0-8.4-6.3-15.3-14.1-15.3s-14.1,6.8-14.1,15.3c0,0.5,0,1,0.1,1.5H75.2
		L75.2,52.2z"/>
	<path class="st1" d="M75.2,52.2c0-0.5,0.1-1,0.1-1.5c0-8.4-6.3-15.3-14.1-15.3s-14.1,6.8-14.1,15.3c0,0.5,0,1,0.1,1.5H75.2
		L75.2,52.2z"/>
	<path class="st0" d="M75.2,52.2c0-0.5,0.1-1,0.1-1.5c0-8.4-6.3-15.3-14.1-15.3s-14.1,6.8-14.1,15.3c0,0.5,0,1,0.1,1.5H75.2
		L75.2,52.2z"/>
	<path class="st1" d="M61.2,26L55,32.7l6.2,12.1l6.2-12.1L61.2,26z"/>
	<path class="st0" d="M64.7,35.7l0.5,1.7l1.7-2.4l-0.7-0.4L64.7,35.7z"/>
	<path class="st0" d="M55.7,35.9l0.6-1l1.5,1l-0.7,1.6L55.7,35.9z"/>
	<path class="st0" d="M75.6,52.6H46.8l0-0.4c0-0.5-0.1-1-0.1-1.5c0-4.2,1.5-8.1,4.2-11.1c1.3-1.4,2.9-2.6,4.6-3.4
		c1.8-0.8,3.7-1.2,5.7-1.2c2,0,3.9,0.4,5.7,1.2c1.7,0.8,3.3,1.9,4.6,3.4c2.7,3,4.2,6.9,4.2,11.1c0,0.5,0,1-0.1,1.5L75.6,52.6
		L75.6,52.6z M47.6,51.8h27.3c0-0.4,0-0.7,0-1.1c0-8.2-6.1-14.9-13.7-14.9c-7.5,0-13.7,6.7-13.7,14.9C47.5,51.1,47.5,51.4,47.6,51.8
		L47.6,51.8z"/>
	<path class="st1" d="M63.1,36.2h-3.9v1.7h3.9V36.2z"/>
	<path class="st1" d="M63.6,38.3h-4.7v-2.6h4.7V38.3z M59.7,37.5h3.1v-0.9h-3.1V37.5z"/>
	<path class="st0" d="M61.2,40.7l-2.5-1.5l0.2-0.3l2.3,1.4l2.3-1.4l0.2,0.3L61.2,40.7z"/>
	<path class="st1" d="M57.8,35.9l2.9,3.9L59.1,39l-3,1.2L57.8,35.9z"/>
	<path class="st0" d="M55.7,40.6l2-5.2l3.6,5l-2.3-1.2L55.7,40.6z M57.8,36.3l-1.4,3.6l2.7-1.1l0.9,0.4L57.8,36.3L57.8,36.3z"/>
	<path class="st1" d="M64.6,35.9l-2.9,3.9l1.6-0.8l3,1.2L64.6,35.9z"/>
	<path class="st0" d="M66.7,40.6l-3.4-1.4L61,40.4l3.6-5L66.7,40.6L66.7,40.6z M63.3,38.8l2.7,1.1l-1.4-3.6l-2.1,2.9L63.3,38.8
		L63.3,38.8z"/>
	<g>
		<path class="st1" d="M71.4,25.8c-0.4,6.1-5,10.6-10.2,10.6c-5.3,0-9.8-4.6-10.2-10.6c-0.4-6.6,4.1-12.3,10.2-12.3
			C67.3,13.5,71.8,19.3,71.4,25.8L71.4,25.8z"/>
		<path class="st0" d="M61.2,36.7c-5.5,0-10.1-4.8-10.5-10.9c-0.2-3.5,0.9-6.9,3.2-9.4c2-2.1,4.6-3.2,7.3-3.2c2.8,0,5.4,1.2,7.3,3.2
			c2.3,2.4,3.4,5.9,3.2,9.4h0C71.3,32,66.7,36.7,61.2,36.7z M61.2,13.8c-2.6,0-5.1,1.1-6.9,3.1c-2.2,2.3-3.3,5.6-3.1,9
			c0.4,5.8,4.8,10.4,10,10.4c5.2,0,9.6-4.5,10-10.4l0,0c0.2-3.4-0.9-6.6-3.1-9C66.2,14.9,63.8,13.8,61.2,13.8z"/>
	</g>
	<path class="st0" d="M61.2,36.9c-2.7,0-5.3-1.1-7.2-3.2c-2-2.1-3.2-4.8-3.4-7.8c-0.2-3.6,0.9-7,3.2-9.5c2-2.1,4.6-3.3,7.4-3.3
		c2.8,0,5.4,1.2,7.4,3.3c2.3,2.5,3.5,5.9,3.2,9.5c-0.2,3-1.4,5.8-3.4,7.8C66.4,35.7,63.8,36.9,61.2,36.9L61.2,36.9z M61.2,13.9
		c-2.6,0-5,1.1-6.8,3c-2.1,2.3-3.3,5.5-3,8.9C51.7,31.6,56,36,61.2,36c5.1,0,9.4-4.5,9.8-10.2l0.4,0l-0.4,0c0.2-3.3-0.9-6.6-3-8.9
		C66.1,15,63.7,13.9,61.2,13.9L61.2,13.9z"/>
	<path class="st0" d="M72.5,25.8c0,0-7.5-0.7-10.9-3.3c-3.1-2.3-4.8-5.6-4.8-5.6s-2.6,2.5-4,5c-1.4,2.5-1.6,3.4-1.7,5.2l-1.5-1.9
		c0,0-1.6-12.2,11.4-11.8C74.1,13.9,72.5,25.8,72.5,25.8z"/>
	<path class="st2" d="M61.3,64.4c-17.6,0-31.9-14.3-31.9-31.9c0-17.6,14.3-31.9,31.9-31.9c17.6,0,31.9,14.3,31.9,31.9
		C93.2,50.1,78.9,64.4,61.3,64.4z M61.3,3.3c-16.1,0-29.2,13.1-29.2,29.2c0,16.1,13.1,29.2,29.2,29.2s29.2-13.1,29.2-29.2
		C90.5,16.4,77.4,3.3,61.3,3.3z"/>
	<defs>
		<filter id="Adobe_OpacityMaskFilter" filterUnits="userSpaceOnUse" x="16.8" y="48.1" width="29.2" height="29.3">
			<feColorMatrix  type="matrix" values="1 0 0 0 0  0 1 0 0 0  0 0 1 0 0  0 0 0 1 0"/>
		</filter>
	</defs>
	
		<mask maskUnits="userSpaceOnUse" x="16.8" y="48.1" width="29.2" height="29.3" id="path-20-inside-1_1162_687_00000079488426541954121860000016855558656811039674_">
		<path class="st3" d="M38.3,51.3l4.5,4.4c0.7,0.7,0.7,1.8,0,2.5L27.1,74.2c-0.7,0.7-1.8,0.7-2.5,0l-4.5-4.4c-0.7-0.7-0.7-1.8,0-2.5
			l15.7-15.8C36.5,50.6,37.6,50.6,38.3,51.3z"/>
	</mask>
	<path class="st4" d="M25.8,77.4c-1.1,0-2.3-0.4-3.2-1.3l-4.5-4.4c-1.8-1.7-1.8-4.6,0-6.4l15.7-15.8c1.7-1.8,4.6-1.8,6.4,0l4.5,4.4
		c1.8,1.7,1.8,4.6,0,6.4L29,76.1C28.1,77,27,77.4,25.8,77.4z M22.6,68.5l3.2,3.2l14.5-14.6l-3.2-3.2L22.6,68.5z M36.4,53.2
		L36.4,53.2C36.4,53.2,36.4,53.2,36.4,53.2L36.4,53.2z"/>
</g>
</svg>
