<?xml version="1.0" encoding="utf-8"?>
<!-- Generator: Adobe Illustrator 26.3.1, SVG Export Plug-In . SVG Version: 6.00 Build 0)  -->
<svg version="1.1" id="レイヤー_1" xmlns="http://www.w3.org/2000/svg" xmlns:xlink="http://www.w3.org/1999/xlink" x="0px"
	 y="0px" viewBox="0 0 110 78" style="enable-background:new 0 0 110 78;" xml:space="preserve">
<style type="text/css">
	.st0{fill:#FFFFFF;}
	.st1{fill:#E4502B;}
	.st2{fill:#464A65;}
</style>
<g>
	<path class="st0" d="M12.1,63.2c3.2-2.8,14.8-4.2,23.4-2.9c8.1,1.3,15.8,7.3,28.8,7.3c11.9,0,30.3-10.5,32-11.6
		c3.3-2.3,1-7.6-3.8-6c-4.8,1.6-23.5,6.9-34.8,3.3c10.9,2,19.5,1.8,19.6-3.7c0.1-3.5-6.4-1.9-11.6-3.5c-5.2-1.6-8.8-5.8-18-7.4
		c-7.5-1.3-14.8,1-22.4,4.6L12.1,63.2z"/>
	<circle class="st1" cx="71.5" cy="25.1" r="16.6"/>
	<path class="st2" d="M64.2,69.4c-8.5,0-14.7-2.4-20.2-4.5c-3.1-1.2-6-2.3-8.9-2.8c-8.5-1.4-19.3,0.2-21.8,2.4
		c-0.8,0.7-2,0.6-2.7-0.2c-0.7-0.8-0.6-2,0.2-2.7c4-3.5,16.5-4.7,24.9-3.3c3.2,0.5,6.3,1.7,9.6,3c5.2,2,11.1,4.3,18.8,4.3
		c0,0,0.1,0,0.1,0c11.3,0,29.2-10.1,30.9-11.3c0.8-0.6,0.9-1.4,0.6-1.9c-0.4-0.8-1.4-1.1-2.7-0.7c-0.9,0.3-22.8,7.5-36,3.3
		c-1-0.3-1.5-1.3-1.3-2.3c0.2-1,1.2-1.6,2.2-1.4c11.6,2.2,15.4,0.8,16.6-0.2c0.5-0.4,0.8-1,0.8-1.7c0-0.1,0-0.1,0-0.1
		c-0.4-0.3-2.5-0.5-3.9-0.6c-2-0.1-4.2-0.3-6.3-1c-2.2-0.7-4-1.7-6-2.8c-3-1.7-6.4-3.6-11.8-4.6c-7.5-1.4-15,1.5-21.3,4.5
		c-0.9,0.4-2.1,0-2.5-0.9c-0.4-0.9,0-2.1,0.9-2.5c6.8-3.2,15-6.3,23.6-4.8c6,1.1,9.9,3.3,13,5c1.9,1,3.5,2,5.3,2.5
		c1.7,0.5,3.7,0.7,5.5,0.8c3.4,0.2,7.5,0.5,7.5,4.6c0,0.7-0.1,1.3-0.3,1.9c5.2-0.9,9.9-2.2,13-3.2c3.6-1.2,6.2,0.4,7.3,2.6
		c1.2,2.4,0.4,5.2-1.8,6.7C95.3,58.9,76.6,69.4,64.2,69.4C64.3,69.4,64.3,69.4,64.2,69.4z"/>
	<path class="st0" d="M77.3,20.3l-1.6-1.6l-4.4,4.4l-4.6-4.6l-1.6,1.6l4.3,4.3h-3.2v2.3h3.8v1.5h-3.8v2.3h3.8v5h2.3v-5h3.8v-2.3
		h-3.8v-1.5h3.8v-2.3h-3.1L77.3,20.3z"/>
</g>
</svg>
