<?xml version="1.0" encoding="utf-8"?>
<!-- Generator: Adobe Illustrator 26.3.1, SVG Export Plug-In . SVG Version: 6.00 Build 0)  -->
<svg version="1.1" id="レイヤー_1" xmlns="http://www.w3.org/2000/svg" xmlns:xlink="http://www.w3.org/1999/xlink" x="0px"
	 y="0px" viewBox="0 0 110 78" style="enable-background:new 0 0 110 78;" xml:space="preserve">
<style type="text/css">
	.st0{fill:#E4502B;}
	.st1{fill:#323C69;}
	.st2{fill:#FFFFFF;}
</style>
<g>
	<path class="st0" d="M78.3,29v2.7H66.5c-0.1,0.7-0.1,1.5-0.1,2.2h-0.8c-1.3,0-2.3,1.1-2.3,2.3v0.6c0,1.2,0.8,2.1,1.9,2.3h38.4
		c1.1-0.2,1.9-1.2,1.9-2.3v-0.6c0-1.3-1.1-2.3-2.3-2.3h0c0-0.7-0.1-1.5-0.1-2.2H90.5V29h12c-2.2-7.8-9.3-13.5-17.7-13.5
		c-8.5,0-15.6,5.7-17.7,13.5H78.3L78.3,29z M80.3,29h2.6v-2.6h2.9V29h2.6v2.9h-2.6v2.6h-2.9v-2.6h-2.6V29z"/>
	<path class="st1" d="M40.5,34.2H22.7l-6.6,9.9v21.7h24.5V34.2z"/>
	<path class="st2" d="M36.2,37.6H24.7l-4.9,6.6l0.4,5.6l16.1,0.6V37.6z"/>
	<path class="st1" d="M12,5L9,8.2L35.8,25l3.6-5.4L12,5z"/>
	<path class="st2" d="M75.3,63.6l-2.1-0.2L71.2,64l-2.6,2.8l1.3,4.9l5.6,1.3l2.4-2.1l1.1-3l-1.3-2.8L75.3,63.6z"/>
	<circle class="st2" cx="32.3" cy="67.7" r="4.6"/>
	<rect x="39.9" y="49.9" class="st1" width="45.6" height="16.2"/>
	<path class="st1" d="M39.8,19.6L36,25.2l11.5,7.1v17.9h8.1V27.8L39.8,19.6z"/>
	<path class="st1" d="M11.7,27.3H5.9l-0.6-5.8h7L11.7,27.3z"/>
	<circle class="st2" cx="73.8" cy="67.7" r="4.6"/>
	<path class="st1" d="M40.5,66.8h-3.7c-0.4,0-0.7-0.3-0.7-0.7c0-0.4,0.3-0.7,0.7-0.7h3V35H23l-6.3,9.6v20.8h11.1
		c0.4,0,0.7,0.3,0.7,0.7c0,0.4-0.3,0.7-0.7,0.7H16c-0.4,0-0.7-0.3-0.7-0.7V44.4c0-0.1,0-0.3,0.1-0.4L22,33.9
		c0.1-0.2,0.4-0.3,0.6-0.3h17.9c0.4,0,0.7,0.3,0.7,0.7v31.7C41.2,66.4,40.9,66.8,40.5,66.8L40.5,66.8z"/>
	<path class="st1" d="M85.8,66.8h-7.5c-0.4,0-0.7-0.3-0.7-0.7c0-0.4,0.3-0.7,0.7-0.7h6.8V50.9H41.2v14.5h28.1c0.4,0,0.7,0.3,0.7,0.7
		c0,0.4-0.3,0.7-0.7,0.7H40.5c-0.4,0-0.7-0.3-0.7-0.7V50.2c0-0.4,0.3-0.7,0.7-0.7h45.3c0.4,0,0.7,0.3,0.7,0.7v15.9
		C86.5,66.4,86.2,66.8,85.8,66.8L85.8,66.8z"/>
	<path class="st1" d="M32.2,73.6c-3.1,0-5.6-2.5-5.6-5.6c0-3.1,2.5-5.6,5.6-5.6c3.1,0,5.6,2.5,5.6,5.6S35.3,73.6,32.2,73.6z
		 M32.2,63.8c-2.3,0-4.2,1.9-4.2,4.2c0,2.3,1.9,4.2,4.2,4.2c2.3,0,4.2-1.9,4.2-4.2C36.4,65.7,34.6,63.8,32.2,63.8z"/>
	<path class="st1" d="M73.8,73.6c-3.1,0-5.6-2.5-5.6-5.6c0-3.1,2.5-5.6,5.6-5.6c3.1,0,5.6,2.5,5.6,5.6S76.9,73.6,73.8,73.6z
		 M73.8,63.8c-2.3,0-4.2,1.9-4.2,4.2c0,2.3,1.9,4.2,4.2,4.2c2.3,0,4.2-1.9,4.2-4.2C78,65.7,76.1,63.8,73.8,63.8z"/>
	<path class="st1" d="M11.7,28H5.9c-0.4,0-0.7-0.3-0.7-0.6l-0.6-5.8c0-0.2,0-0.4,0.2-0.5c0.1-0.2,0.3-0.2,0.5-0.2h7
		c0.2,0,0.4,0.1,0.5,0.2c0.1,0.1,0.2,0.3,0.2,0.5l-0.6,5.8C12.4,27.7,12.1,28,11.7,28L11.7,28z M6.6,26.6h4.5l0.4-4.4H6.1L6.6,26.6
		L6.6,26.6z"/>
	<path class="st1" d="M8.8,37.9c-2.4,0-4.3-1.9-4.3-4.3c0-2.1,1.6-3.9,3.6-4.3v-1.5c0-0.4,0.3-0.7,0.7-0.7c0.4,0,0.7,0.3,0.7,0.7V30
		c0,0.4-0.3,0.7-0.7,0.7c-1.6,0-2.9,1.3-2.9,2.9c0,1.6,1.3,2.9,2.9,2.9c1.6,0,2.9-1.3,2.9-2.9c0-0.4,0.3-0.7,0.7-0.7
		c0.4,0,0.7,0.3,0.7,0.7C13.2,36,11.2,37.9,8.8,37.9L8.8,37.9z"/>
	<path class="st1" d="M8.8,22.2c-0.4,0-0.7-0.3-0.7-0.7V8.3c0-0.4,0.3-0.7,0.7-0.7c0.4,0,0.7,0.3,0.7,0.7v13.1
		C9.5,21.9,9.2,22.2,8.8,22.2z"/>
	<path class="st1" d="M36.5,50.9H20.1c-0.4,0-0.7-0.3-0.7-0.7v-5.6c0-0.1,0-0.3,0.1-0.4l4.5-6.8c0.1-0.2,0.4-0.3,0.6-0.3h11.9
		c0.4,0,0.7,0.3,0.7,0.7v12.5C37.2,50.6,36.8,50.9,36.5,50.9L36.5,50.9z M20.8,49.5h15V38.4H24.9l-4.2,6.3V49.5z"/>
	<path class="st2" d="M79.9,56.2H46.3c-0.4,0-0.7-0.3-0.7-0.7c0-0.4,0.3-0.7,0.7-0.7h33.6c0.4,0,0.7,0.3,0.7,0.7
		C80.6,55.9,80.3,56.2,79.9,56.2z"/>
	<path class="st2" d="M79.9,61.1H46.3c-0.4,0-0.7-0.3-0.7-0.7c0-0.4,0.3-0.7,0.7-0.7h33.6c0.4,0,0.7,0.3,0.7,0.7
		C80.6,60.8,80.3,61.1,79.9,61.1z"/>
	<path class="st1" d="M20.1,62.6H16c-0.4,0-0.7-0.3-0.7-0.7v-6.4c0-0.4,0.3-0.7,0.7-0.7h4.1c0.4,0,0.7,0.3,0.7,0.7v6.4
		C20.8,62.3,20.4,62.6,20.1,62.6z M16.7,61.2h2.7v-5h-2.7V61.2z"/>
	<path class="st1" d="M36,25.9c-0.1,0-0.3,0-0.4-0.1L8.5,8.9C8.3,8.8,8.2,8.7,8.1,8.5c0-0.2,0-0.4,0.2-0.6l2.8-3.3
		c0.2-0.2,0.6-0.3,0.9-0.2L40.1,19c0.2,0.1,0.3,0.3,0.4,0.5c0,0.2,0,0.4-0.1,0.6l-3.8,5.5C36.4,25.7,36.2,25.9,36,25.9L36,25.9z
		 M9.9,8.2l25.9,16l2.9-4.3L11.8,6L9.9,8.2L9.9,8.2z"/>
	<path class="st1" d="M55.7,50.9h-8.1c-0.4,0-0.7-0.3-0.7-0.7V32.7l-11.2-6.9c-0.2-0.1-0.3-0.3-0.3-0.5c0-0.2,0-0.4,0.1-0.5l3.8-5.5
		c0.2-0.3,0.6-0.4,0.9-0.2L56,27.2c0.2,0.1,0.4,0.4,0.4,0.6v22.3C56.4,50.6,56,50.9,55.7,50.9L55.7,50.9z M48.2,49.5h6.7V28.3
		L40,20.6l-3,4.4l10.9,6.7c0.2,0.1,0.3,0.4,0.3,0.6V49.5L48.2,49.5z"/>
	<rect x="17.7" y="56" class="st2" width="4" height="6.1"/>
</g>
</svg>
