<?xml version="1.0" encoding="utf-8"?>
<!-- Generator: Adobe Illustrator 26.3.1, SVG Export Plug-In . SVG Version: 6.00 Build 0)  -->
<svg version="1.1" id="レイヤー_1" xmlns="http://www.w3.org/2000/svg" xmlns:xlink="http://www.w3.org/1999/xlink" x="0px"
	 y="0px" viewBox="0 0 110 78" style="enable-background:new 0 0 110 78;" xml:space="preserve">
<style type="text/css">
	.st0{fill:#323C69;}
	.st1{fill:#FFFFFF;}
	.st2{fill:#E4502B;}
</style>
<g>
	<path class="st0" d="M86.6,41.2c0.4-5.6-1.5-10.8-5.7-13.9c-2.8-2-6.2-2.8-9.7-2.5c-1.3-7.8-8.1-13.7-16.2-13.7
		c-8.1,0-14.8,5.9-16.2,13.7c-3.5-0.3-6.9,0.4-9.7,2.5c-4.2,3.1-6.1,8.3-5.7,13.9c-5.5,2.2-9.3,6.3-9.3,11.1v1.2
		c0,7,8.1,12.7,18,12.7h45.8c10,0,18-5.7,18-12.7v-1.2C95.9,47.5,92.1,43.4,86.6,41.2L86.6,41.2z"/>
	<rect x="75" y="48.5" class="st1" width="10.1" height="16.2"/>
	<rect x="74" y="39.4" class="st1" width="12.1" height="8.1"/>
	<path class="st2" d="M71.1,44.8c0,0.6,0.5,1.2,1.2,1.2H73c0.6,0,1.2-0.5,1.2-1.2v-0.1c0,0-0.1-2.3,1.3-3.8c0.9-1,2.4-1.5,4.3-1.5h0
		c1.9,0,3.4,0.5,4.3,1.5c1.4,1.5,1.3,3.8,1.3,3.8v0.1c0,0.6,0.5,1.2,1.2,1.2h0.7c0.6,0,1.2-0.5,1.2-1.2v0c0-0.5,0.1-3.7-2.1-6
		c-1.5-1.6-3.7-2.5-6.5-2.5h0c-2.8,0-5,0.8-6.5,2.5C71.1,41.1,71.1,44.3,71.1,44.8L71.1,44.8z"/>
	<path class="st2" d="M89.9,45.1H69.7c-1.5,0-2.8,1.2-2.8,2.8v16.2c0,1.5,1.2,2.8,2.8,2.8h20.2c1.5,0,2.8-1.2,2.8-2.8V47.9
		C92.6,46.3,91.4,45.1,89.9,45.1L89.9,45.1z M81.5,56.9v3.3c-0.1,1.6-1.7,1.6-1.7,1.6c-1.2-0.1-1.6-0.7-1.7-1.3v-3.7
		c-1.2-0.7-2-2-1.9-3.6c0.2-1.6,1.5-3,3.2-3.2c2.2-0.2,4,1.4,4,3.6C83.3,55.1,82.6,56.3,81.5,56.9L81.5,56.9z"/>
</g>
</svg>
