<?xml version="1.0" encoding="utf-8"?>
<!-- Generator: Adobe Illustrator 26.3.1, SVG Export Plug-In . SVG Version: 6.00 Build 0)  -->
<svg version="1.1" id="レイヤー_1" xmlns="http://www.w3.org/2000/svg" xmlns:xlink="http://www.w3.org/1999/xlink" x="0px"
	 y="0px" viewBox="0 0 110 78" style="enable-background:new 0 0 110 78;" xml:space="preserve">
<style type="text/css">
	.st0{fill:#FFFFFF;}
	.st1{fill:#323C69;}
	.st2{fill:#323C69;stroke:#FFFFFF;stroke-width:0.3724;}
	.st3{fill:#E4502B;}
</style>
<path class="st0" d="M50.9,67.7c0,0.9-0.4,1.3-1.3,1.3h-2c-0.9,0-1.3-0.4-1.3-1.3v-2c0-0.9,0.4-1.3,1.3-1.3h2c0.9,0,1.3,0.4,1.3,1.3
	V67.7z"/>
<path class="st0" d="M57.3,67.7c0,0.9-0.4,1.3-1.3,1.3h-2c-0.9,0-1.3-0.4-1.3-1.3v-2c0-0.9,0.4-1.3,1.3-1.3h2c0.9,0,1.3,0.4,1.3,1.3
	V67.7z"/>
<path class="st0" d="M63.7,67.7c0,0.9-0.4,1.3-1.3,1.3h-2c-0.9,0-1.3-0.4-1.3-1.3v-2c0-0.9,0.4-1.3,1.3-1.3h2c0.9,0,1.3,0.4,1.3,1.3
	V67.7z"/>
<g>
	<path class="st1" d="M64.9,37.1h-19c-0.5,0-0.9,0.4-0.9,0.9v37.4c0,0.5,0.4,0.9,0.9,0.9h19c0.5,0,0.9-0.4,0.9-0.9V38
		C65.7,37.5,65.4,37.1,64.9,37.1z M58.5,38.9c0.3,0,0.5,0.2,0.5,0.5c0,0.3-0.2,0.5-0.5,0.5c-0.3,0-0.5-0.2-0.5-0.5
		C58,39.1,58.2,38.9,58.5,38.9z M52,39.1h4.2c0.1,0,0.2,0.1,0.2,0.2c0,0.1-0.1,0.2-0.2,0.2H52c-0.1,0-0.2-0.1-0.2-0.2
		C51.8,39.2,51.9,39.1,52,39.1z M64.5,73.6c0,0.4-0.3,0.8-0.8,0.8H47c-0.4,0-0.8-0.3-0.8-0.8v-34c0-0.4,0.3-0.8,0.8-0.8h2.7v0.9
		c0,0.5,0.4,0.9,0.9,0.9h9.7c0.5,0,0.9-0.4,0.9-0.9v-0.9h2.7c0.4,0,0.8,0.3,0.8,0.8V73.6z"/>
	<path class="st2" d="M61.2,39.8V39h2.5c0.3,0,0.6,0.3,0.6,0.6v34c0,0.3-0.3,0.6-0.6,0.6H47c-0.3,0-0.6-0.3-0.6-0.6v-34
		c0-0.3,0.3-0.6,0.6-0.6h2.5v0.8c0,0.6,0.5,1,1,1h9.7C60.8,40.8,61.2,40.4,61.2,39.8z"/>
	<path class="st0" d="M52,39.6h4.2c0.1,0,0.2-0.1,0.2-0.2c0-0.1-0.1-0.2-0.2-0.2H52c-0.1,0-0.2,0.1-0.2,0.2
		C51.8,39.5,51.9,39.6,52,39.6z"/>
	<path class="st0" d="M58.5,39.8c0.3,0,0.5-0.2,0.5-0.5c0-0.3-0.2-0.5-0.5-0.5c-0.3,0-0.5,0.2-0.5,0.5C58,39.6,58.2,39.8,58.5,39.8z
		"/>
	<path class="st0" d="M51.7,47.9c0,0.8-0.4,1.2-1.2,1.2h-1.8c-0.8,0-1.2-0.4-1.2-1.2v-1.8c0-0.8,0.4-1.2,1.2-1.2h1.8
		c0.8,0,1.2,0.4,1.2,1.2V47.9z"/>
	<path class="st0" d="M57.5,47.9c0,0.8-0.4,1.2-1.2,1.2h-1.8c-0.8,0-1.2-0.4-1.2-1.2v-1.8c0-0.8,0.4-1.2,1.2-1.2h1.8
		c0.8,0,1.2,0.4,1.2,1.2V47.9z"/>
	<path class="st0" d="M63.4,47.9c0,0.8-0.4,1.2-1.2,1.2h-1.8c-0.8,0-1.2-0.4-1.2-1.2v-1.8c0-0.8,0.4-1.2,1.2-1.2h1.8
		c0.8,0,1.2,0.4,1.2,1.2V47.9z"/>
	<path class="st0" d="M51.7,53.7c0,0.8-0.4,1.2-1.2,1.2h-1.8c-0.8,0-1.2-0.4-1.2-1.2v-1.8c0-0.8,0.4-1.2,1.2-1.2h1.8
		c0.8,0,1.2,0.4,1.2,1.2V53.7z"/>
	<path class="st0" d="M57.5,53.7c0,0.8-0.4,1.2-1.2,1.2h-1.8c-0.8,0-1.2-0.4-1.2-1.2v-1.8c0-0.8,0.4-1.2,1.2-1.2h1.8
		c0.8,0,1.2,0.4,1.2,1.2V53.7z"/>
	<path class="st0" d="M63.4,53.7c0,0.8-0.4,1.2-1.2,1.2h-1.8c-0.8,0-1.2-0.4-1.2-1.2v-1.8c0-0.8,0.4-1.2,1.2-1.2h1.8
		c0.8,0,1.2,0.4,1.2,1.2V53.7z"/>
	<path class="st0" d="M51.7,59.5c0,0.8-0.4,1.2-1.2,1.2h-1.8c-0.8,0-1.2-0.4-1.2-1.2v-1.8c0-0.8,0.4-1.2,1.2-1.2h1.8
		c0.8,0,1.2,0.4,1.2,1.2V59.5L51.7,59.5z"/>
	<path class="st0" d="M57.5,59.5c0,0.8-0.4,1.2-1.2,1.2h-1.8c-0.8,0-1.2-0.4-1.2-1.2v-1.8c0-0.8,0.4-1.2,1.2-1.2h1.8
		c0.8,0,1.2,0.4,1.2,1.2V59.5L57.5,59.5z"/>
	<path class="st0" d="M63.4,59.5c0,0.8-0.4,1.2-1.2,1.2h-1.8c-0.8,0-1.2-0.4-1.2-1.2v-1.8c0-0.8,0.4-1.2,1.2-1.2h1.8
		c0.8,0,1.2,0.4,1.2,1.2V59.5L63.4,59.5z"/>
	<path class="st3" d="M30.2,55.6C30.2,55.6,30.2,55.6,30.2,55.6c-1.4-0.6-2.7-1.2-3.7-2.2c-0.1-0.1-0.2-0.1-0.3-0.1c0,0-0.1,0-0.1,0
		c-1,0.3-2,0.4-3.1,0.4c-6.5,0-11.9-5.3-11.9-11.9c0-6.5,5.3-11.9,11.9-11.9c6.5,0,11.9,5.3,11.9,11.9c0,3.9-1.9,7.5-5.1,9.8
		c-0.1,0.1-0.2,0.2-0.2,0.4c0.2,1.3,0.6,2.4,1.3,3.5c0.1,0.1,0.1,0.2,0.1,0.2C31,55.9,30.5,55.8,30.2,55.6z"/>
	<path class="st0" d="M24,43c0-0.2,0-0.3,0-0.5c0-0.1,0-0.2,0-0.2c0.9-0.5,1.6-1.5,1.6-2.8c0-1.7-1.2-3-2.6-3c-1.4,0-2.6,1.3-2.6,3
		c0,1.2,0.6,2.3,1.6,2.8c0,0.1,0,0.2,0,0.2c0,0.2,0,0.4,0,0.5c-4.2,0.2-4.2,1.6-4.2,2.9l10.4,0C28.1,44.7,28.1,43.2,24,43L24,43z"/>
	<path class="st3" d="M58.5,27.4C58.5,27.4,58.5,27.4,58.5,27.4c-1.4-0.6-2.7-1.2-3.7-2.2c-0.1-0.1-0.2-0.1-0.3-0.1c0,0-0.1,0-0.1,0
		c-1,0.3-2,0.4-3.1,0.4c-6.5,0-11.9-5.3-11.9-11.9c0-6.5,5.3-11.9,11.9-11.9c6.5,0,11.9,5.3,11.9,11.9c0,3.9-1.9,7.5-5.1,9.8
		c-0.1,0.1-0.2,0.2-0.2,0.4c0.2,1.3,0.6,2.4,1.3,3.5c0.1,0.1,0.1,0.2,0.1,0.2C59.3,27.6,58.7,27.5,58.5,27.4z"/>
	<path class="st0" d="M56.1,15.4c0,0,0,0.4,0,0.4c0,0.5-0.7,1.1-1.2,1.2c-0.5,0.1-1.4,0.3-1.8,0.4c-0.8,0.2-2.6-0.1-2.6-0.1
		l-0.8,0.2l-0.8-3.8l0.7-0.2l1.4-2.3c0,0,0.3-1.2,0.2-1.7c-0.1-0.7,0.2-0.9,0.5-1c0.7-0.2,0.9,0.7,0.9,0.7s0.1,0.4,0.1,0.6
		c0.2,1.2,0.1,2.5,0.1,2.5s2.2-0.5,2.5-0.5c0.3-0.1,1-0.1,1.1,0.4c0.1,0.6-0.1,0.6-0.1,0.6s0.1,0.3,0.1,0.5c0,0.2,0,0.6-0.2,0.7
		c0,0,0.1,0.4,0.1,0.5C56.5,15.1,56.1,15.4,56.1,15.4L56.1,15.4z"/>
	<path class="st0" d="M47.3,18.3l1.7-0.4c0.1,0,0.2-0.2,0.2-0.3l-0.8-4c0-0.1-0.2-0.2-0.3-0.2l-1.7,0.4c-0.3,0.1-0.4,0.3-0.4,0.6
		l0.7,3.5C46.8,18.2,47.1,18.3,47.3,18.3L47.3,18.3z"/>
	<path class="st0" d="M48.8,17.5c0.1-0.1,0-0.3-0.1-0.4c-0.1-0.1-0.3,0-0.4,0.1c-0.1,0.1,0,0.3,0.1,0.4
		C48.5,17.7,48.7,17.7,48.8,17.5z"/>
	<path class="st3" d="M79.8,52C79.8,52,79.8,52,79.8,52c1.4-0.6,2.7-1.2,3.7-2.2c0.1-0.1,0.2-0.1,0.3-0.1c0,0,0.1,0,0.1,0
		c1,0.3,2,0.4,3.1,0.4c6.5,0,11.9-5.3,11.9-11.9c0-6.5-5.3-11.9-11.9-11.9c-6.5,0-11.9,5.3-11.9,11.9c0,3.9,1.9,7.5,5.1,9.8
		c0.1,0.1,0.2,0.2,0.2,0.4c-0.2,1.3-0.6,2.4-1.3,3.5c-0.1,0.1-0.1,0.2-0.1,0.2C79,52.2,79.5,52.1,79.8,52z"/>
	<path class="st0" d="M86.2,43.3c0,0-5.2-2.5-5.1-5.2c0.2-4.9,5.4-3,5.4-1l0,0c0.1-2,5.5-3.4,5.2,1.5C91.6,41.3,86.2,43.3,86.2,43.3
		L86.2,43.3z"/>
</g>
</svg>
