<?xml version="1.0" encoding="utf-8"?>
<!-- Generator: Adobe Illustrator 26.3.1, SVG Export Plug-In . SVG Version: 6.00 Build 0)  -->
<svg version="1.1" id="レイヤー_1" xmlns="http://www.w3.org/2000/svg" xmlns:xlink="http://www.w3.org/1999/xlink" x="0px"
	 y="0px" viewBox="0 0 110 78" style="enable-background:new 0 0 110 78;" xml:space="preserve">
<style type="text/css">
	.st0{fill:#323C69;}
	.st1{fill:#FFFFFF;filter:url(#Adobe_OpacityMaskFilter);}
	.st2{mask:url(#path-2-inside-1_1162_831_00000044891431026562431180000013837709354434686881_);fill:#323C69;}
	.st3{fill:#FFFFFF;filter:url(#Adobe_OpacityMaskFilter_00000118386346642847237420000003289114497884390276_);}
	.st4{mask:url(#path-4-inside-2_1162_831_00000145739975810022311830000004276406108448998579_);}
	.st5{fill:#FFFFFF;}
	.st6{fill:#E4502B;}
</style>
<g>
	<path class="st0" d="M80.2,60.6H44.6c-4,0-7.3-3.3-7.3-7.3V10c0-4,3.3-7.3,7.3-7.3h35.7c4,0,7.3,3.3,7.3,7.3v43.3
		C87.5,57.3,84.3,60.6,80.2,60.6z M44.6,6.7c-1.8,0-3.3,1.5-3.3,3.3v43.3c0,1.8,1.5,3.3,3.3,3.3h35.7c1.8,0,3.3-1.5,3.3-3.3V10
		c0-1.8-1.5-3.3-3.3-3.3H44.6z"/>
	<defs>
		<filter id="Adobe_OpacityMaskFilter" filterUnits="userSpaceOnUse" x="43.5" y="52.7" width="39" height="18">
			<feColorMatrix  type="matrix" values="1 0 0 0 0  0 1 0 0 0  0 0 1 0 0  0 0 0 1 0"/>
		</filter>
	</defs>
	
		<mask maskUnits="userSpaceOnUse" x="43.5" y="52.7" width="39" height="18" id="path-2-inside-1_1162_831_00000044891431026562431180000013837709354434686881_">
		<path class="st1" d="M47.5,58.2c0-0.8,0.7-1.5,1.5-1.5H77c0.8,0,1.5,0.7,1.5,1.5v5.6c0,1.6-1.3,2.9-2.9,2.9H50.4
			c-1.6,0-2.9-1.3-2.9-2.9V58.2z"/>
	</mask>
	<path class="st2" d="M75.6,70.7H50.4c-3.8,0-6.9-3.1-6.9-6.9v-5.6c0-3,2.4-5.5,5.5-5.5H77c3,0,5.5,2.4,5.5,5.5v5.6
		C82.5,67.6,79.4,70.7,75.6,70.7z M51.5,62.7h23v-2h-23V62.7z"/>
	<path class="st0" d="M54.4,65.3h4.4c0.6,0,1.1,0.5,1.1,1.1v4.4c0,0.6-0.5,1.1-1.1,1.1h-4.4c-0.6,0-1.1-0.5-1.1-1.1v-4.4
		C53.3,65.8,53.8,65.3,54.4,65.3z"/>
	<defs>
		
			<filter id="Adobe_OpacityMaskFilter_00000096045547258102656620000017794733227014593174_" filterUnits="userSpaceOnUse" x="62.8" y="63.1" width="10.9" height="10.9">
			<feColorMatrix  type="matrix" values="1 0 0 0 0  0 1 0 0 0  0 0 1 0 0  0 0 0 1 0"/>
		</filter>
	</defs>
	
		<mask maskUnits="userSpaceOnUse" x="62.8" y="63.1" width="10.9" height="10.9" id="path-4-inside-2_1162_831_00000145739975810022311830000004276406108448998579_">
		<path style="fill:#FFFFFF;filter:url(#Adobe_OpacityMaskFilter_00000096045547258102656620000017794733227014593174_);" d="
			M66.1,65.3h4.4c0.6,0,1.1,0.5,1.1,1.1v4.4c0,0.6-0.5,1.1-1.1,1.1h-4.4c-0.6,0-1.1-0.5-1.1-1.1v-4.4C65,65.8,65.4,65.3,66.1,65.3z"
			/>
	</mask>
	<g class="st4">
		<path class="st0" d="M66.1,65.3h4.4c0.6,0,1.1,0.5,1.1,1.1v4.4c0,0.6-0.5,1.1-1.1,1.1h-4.4c-0.6,0-1.1-0.5-1.1-1.1v-4.4
			C65,65.8,65.4,65.3,66.1,65.3z"/>
		<path class="st0" d="M70.4,74h-4.4c-1.8,0-3.3-1.5-3.3-3.3v-4.4c0-1.8,1.5-3.3,3.3-3.3h4.4c1.8,0,3.3,1.5,3.3,3.3v4.4
			C73.7,72.6,72.2,74,70.4,74z M67.1,69.7h2.2v-2.2h-2.2V69.7z"/>
	</g>
	<circle class="st0" cx="62.5" cy="28.7" r="10"/>
	<path class="st5" d="M62.6,37.1c-4.7,0-8.5-3.8-8.5-8.5s3.8-8.5,8.5-8.5s8.5,3.8,8.5,8.5S67.3,37.1,62.6,37.1L62.6,37.1z
		 M62.6,21.5c-3.9,0-7,3.1-7,7s3.1,7,7,7s7-3.1,7-7S66.4,21.5,62.6,21.5L62.6,21.5z"/>
	<path class="st5" d="M62.6,34.1c-3.1,0-5.5-2.5-5.5-5.5s2.5-5.5,5.5-5.5c3.1,0,5.5,2.5,5.5,5.5S65.6,34.1,62.6,34.1L62.6,34.1z
		 M62.6,24.5c-2.2,0-4,1.8-4,4s1.8,4,4,4c2.2,0,4-1.8,4-4S64.8,24.5,62.6,24.5z"/>
	<path class="st5" d="M62.6,29.3c-0.2,0-0.4-0.1-0.5-0.2c-0.3-0.3-0.3-0.8,0-1.1l3.3-3.3c0.3-0.3,0.8-0.3,1.1,0
		c0.3,0.3,0.3,0.8,0,1.1l-3.3,3.3C63,29.2,62.8,29.3,62.6,29.3L62.6,29.3z"/>
	<path class="st6" d="M43.7,47c-2.7-1.4-6.4-5.7-6.4-10.5c0,0-6.1,5.2-6.1,14c0,0-2.9-3.7-5.1-3.7c1.5,4.7-3.6,8.3-3.6,16.4v0.4
		c0.1,6.5,6.7,11.8,14.8,11.8c8.1,0,14.7-5.3,14.8-11.8v-0.4c0-5.9-3-6.9-3-11.2s-3-8.5-4.1-8.5C45,46,43.7,47,43.7,47L43.7,47z"/>
	<path class="st5" d="M33.8,61c1.5-0.8,3.5-6.4,3.5-9.1c0,0,3.3,3,3.3,8c0,0,1-1.5,2.2-1.5c-0.8,2.7,2.6,5.1,2.6,8.7v0.2
		C45.4,71,41.8,74,37.3,74c-4.5,0-8.1-3-8.2-6.8v-0.2c0-4.9,2.8-8.1,3.9-8.1C33,60.5,33.8,61,33.8,61L33.8,61z"/>
</g>
</svg>
