<?xml version="1.0" encoding="utf-8"?>
<!-- Generator: Adobe Illustrator 26.3.1, SVG Export Plug-In . SVG Version: 6.00 Build 0)  -->
<svg version="1.1" id="レイヤー_1" xmlns="http://www.w3.org/2000/svg" xmlns:xlink="http://www.w3.org/1999/xlink" x="0px"
	 y="0px" viewBox="0 0 110 78" style="enable-background:new 0 0 110 78;" xml:space="preserve">
<style type="text/css">
	.st0{fill:#E4502B;}
	.st1{fill:#FFFFFF;}
	.st2{fill:#323C69;}
	.st3{fill:#FFFFFF;filter:url(#Adobe_OpacityMaskFilter);}
	.st4{mask:url(#mask0_1162_630_00000083052042244823636620000012515496213927123356_);}
	.st5{fill:#FFFFFF;stroke:#323C69;stroke-width:0.9417;stroke-miterlimit:10;}
</style>
<g>
	<path class="st0" d="M66.4,2.8H84c2.1,0,3.9,1.6,3.9,3.6v9c0,2-1.7,3.6-3.9,3.6H66.4c-2.1,0-3.9-1.6-3.9-3.6v-9
		C62.5,4.4,64.3,2.8,66.4,2.8z"/>
	<path class="st0" d="M68.2,22.4c0.4-1.4,0.3-2.9-0.3-4.2c0.3,0.6,2.9,0.3,3.5,0.3c-0.4,1.4-1.9,3.3-3.1,4.1"/>
	<rect x="67.1" y="6.4" class="st1" width="16.3" height="1.8"/>
	<rect x="67.1" y="10" class="st1" width="16.3" height="1.8"/>
	<rect x="67.1" y="13.7" class="st1" width="16.3" height="1.8"/>
	<path class="st2" d="M65.3,74.6c0.1-0.7,0.1-1.5,0.1-2.3c0-12.8-9.6-23.1-21.4-23.1c-11.8,0-21.4,10.3-21.4,23.1
		c0,0.8,0,1.5,0.1,2.3L65.3,74.6L65.3,74.6z"/>
	<defs>
		<filter id="Adobe_OpacityMaskFilter" filterUnits="userSpaceOnUse" x="35.8" y="40.7" width="16.6" height="30">
			<feColorMatrix  type="matrix" values="1 0 0 0 0  0 1 0 0 0  0 0 1 0 0  0 0 0 1 0"/>
		</filter>
	</defs>
	
		<mask maskUnits="userSpaceOnUse" x="35.8" y="40.7" width="16.6" height="30" id="mask0_1162_630_00000083052042244823636620000012515496213927123356_">
		<path class="st3" d="M65.3,74.6c0.1-0.7,0.1-1.5,0.1-2.3c0-12.8-9.6-23.1-21.4-23.1c-11.8,0-21.4,10.3-21.4,23.1
			c0,0.8,0,1.5,0.1,2.3L65.3,74.6L65.3,74.6z"/>
	</mask>
	<g class="st4">
		<path class="st1" d="M44.1,70.7l-8.3-23.3l8.3-6.7l8.3,6.7L44.1,70.7z"/>
	</g>
	<path class="st2" d="M65.9,75.2H22.3l-0.1-0.6c-0.1-0.8-0.1-1.6-0.1-2.3c0-6.3,2.3-12.3,6.4-16.8c2-2.2,4.4-3.9,7-5.1
		c2.7-1.2,5.6-1.9,8.6-1.9c3,0,5.9,0.6,8.6,1.9c2.6,1.2,5,2.9,7,5.1c4.1,4.5,6.4,10.4,6.4,16.8c0,0.8,0,1.6-0.1,2.3L65.9,75.2z
		 M23.4,74h41.3c0-0.5,0.1-1.1,0.1-1.6c0-12.4-9.3-22.5-20.7-22.5S23.4,59.9,23.4,72.3C23.4,72.9,23.4,73.4,23.4,74L23.4,74z"/>
	<path class="st2" d="M47.6,71.6h-7l1.9-17.5h3.3L47.6,71.6z"/>
	<path class="st2" d="M46.1,53.6h-4l-1.6-5.1h7.2L46.1,53.6z"/>
	<path class="st5" d="M60.4,33.9c-0.4,9.5-7.7,16.9-16.3,16.9c-8.6,0-15.9-7.4-16.3-16.9c-0.5-10.1,6.8-18.7,16.3-18.7
		S60.9,23.8,60.4,33.9L60.4,33.9z"/>
	<path class="st2" d="M44.1,51.4c-4.3,0-8.5-1.8-11.7-5.1c-3.2-3.3-5.1-7.7-5.3-12.4c-0.2-5.3,1.6-10.5,5.2-14.2
		c3.2-3.3,7.3-5.1,11.8-5.1s8.6,1.8,11.8,5.1c3.5,3.7,5.4,8.9,5.2,14.2l-0.6,0l0.6,0c-0.2,4.7-2.1,9.2-5.3,12.4
		C52.6,49.6,48.4,51.4,44.1,51.4L44.1,51.4z M44.1,15.8c-4.1,0-8,1.7-10.9,4.7c-3.3,3.5-5.1,8.3-4.8,13.3
		c0.4,9.2,7.3,16.3,15.7,16.3c8.4,0,15.3-7.2,15.7-16.3c0.2-5-1.5-9.8-4.8-13.3C52,17.5,48.2,15.8,44.1,15.8L44.1,15.8z"/>
	<path class="st2" d="M54.2,47h-4.9v-2.5h4.9c3.3,0,5.9-2.7,5.9-5.9h2.5C62.6,43.2,58.8,47,54.2,47z"/>
	<path class="st0" d="M54.2,46.5h-4.9V45h4.9c3.5,0,6.4-2.9,6.4-6.4h1.5C62.1,42.9,58.6,46.5,54.2,46.5L54.2,46.5z"/>
	<path class="st0" d="M25.4,39.3l0.2,0.5c0.2,0.5,0.7,0.9,1.2,0.9l2,0.2v-9.3l-2,0.2c-0.5,0.1-1,0.4-1.2,0.9l-0.2,0.5
		C24.7,35.3,24.7,37.4,25.4,39.3L25.4,39.3z"/>
	<path class="st0" d="M62.9,39.3l-0.2,0.5c-0.2,0.5-0.7,0.9-1.2,0.9l-2,0.2v-9.3l2,0.2c0.5,0.1,1,0.4,1.2,0.9l0.2,0.5
		C63.6,35.3,63.6,37.4,62.9,39.3L62.9,39.3z"/>
	<path class="st0" d="M51.9,44.4h-3.5c-0.7,0-1.2,0.5-1.2,1.2v0.1c0,0.7,0.5,1.2,1.2,1.2h3.5c0.7,0,1.2-0.5,1.2-1.2v-0.1
		C53.1,45,52.6,44.4,51.9,44.4z"/>
	<path class="st2" d="M60.4,33.8c0,0,0.5-0.6-2-2.5c-2.5-1.9-9-2.4-14.5-4.4c-5.5-2-7.9-6.1-7.9-6.1s-0.3,3.5-2.2,7
		c-1.9,3.5-6.8,4.5-7,7.3l-1.2-2.7c0,0-1.9-4.8,1.2-10.6c3.5-6.2,7.7-5.7,7.7-5.7s7.1-8.3,19-2.1c11.6,6.1,8.6,18.4,8.6,18.4
		s0,3.5-0.4,1.8L60.4,33.8L60.4,33.8z"/>
</g>
</svg>
