<?xml version="1.0" encoding="utf-8"?>
<!-- Generator: Adobe Illustrator 26.3.1, SVG Export Plug-In . SVG Version: 6.00 Build 0)  -->
<svg version="1.1" id="レイヤー_1" xmlns="http://www.w3.org/2000/svg" xmlns:xlink="http://www.w3.org/1999/xlink" x="0px"
	 y="0px" viewBox="0 0 110 78" style="enable-background:new 0 0 110 78;" xml:space="preserve">
<style type="text/css">
	.st0{fill:#323C69;}
	.st1{fill:#FFFFFF;filter:url(#Adobe_OpacityMaskFilter);}
	.st2{mask:url(#mask0_1162_662_00000116221563104273479860000004762597862848756139_);}
	.st3{fill:#FFFFFF;}
	.st4{fill:#FFFFFF;stroke:#323C69;stroke-width:0.9799;stroke-miterlimit:10;}
	.st5{fill:#E4502B;}
</style>
<g>
	<path class="st0" d="M66.2,74.6c0.1-0.9,0.1-1.7,0.1-2.6c0-14.7-11-26.6-24.5-26.6S17.2,57.3,17.2,72c0,0.9,0,1.7,0.1,2.6
		L66.2,74.6L66.2,74.6z"/>
	<defs>
		<filter id="Adobe_OpacityMaskFilter" filterUnits="userSpaceOnUse" x="32.2" y="35.6" width="19.1" height="34.5">
			<feColorMatrix  type="matrix" values="1 0 0 0 0  0 1 0 0 0  0 0 1 0 0  0 0 0 1 0"/>
		</filter>
	</defs>
	
		<mask maskUnits="userSpaceOnUse" x="32.2" y="35.6" width="19.1" height="34.5" id="mask0_1162_662_00000116221563104273479860000004762597862848756139_">
		<path class="st1" d="M66.2,74.6c0.1-0.9,0.1-1.7,0.1-2.6c0-14.7-11-26.6-24.5-26.6S17.2,57.3,17.2,72c0,0.9,0,1.7,0.1,2.6
			L66.2,74.6L66.2,74.6z"/>
	</mask>
	<g class="st2">
		<path class="st3" d="M41.8,70.2l-9.6-26.8l9.6-7.7l9.6,7.7L41.8,70.2z"/>
	</g>
	<path class="st0" d="M66.9,75.3H16.7l-0.1-0.7c-0.1-0.9-0.1-1.8-0.1-2.7c0-7.3,2.6-14.1,7.4-19.3c2.3-2.5,5-4.5,8-5.9
		c3.1-1.4,6.4-2.2,9.9-2.2c3.4,0,6.7,0.7,9.9,2.2c3,1.4,5.7,3.4,8,5.9c4.8,5.2,7.4,12,7.4,19.3c0,0.9,0,1.8-0.1,2.7L66.9,75.3z
		 M18,73.9h47.5c0-0.6,0.1-1.3,0.1-1.9c0-14.3-10.7-25.9-23.8-25.9c-13.1,0-23.8,11.6-23.8,25.9C17.9,72.6,18,73.2,18,73.9L18,73.9z
		"/>
	<path class="st0" d="M45.8,71.2h-8.1L39.9,51h3.8L45.8,71.2z"/>
	<path class="st0" d="M44.1,50.5h-4.6l-1.8-5.8h8.3L44.1,50.5z"/>
	<path class="st4" d="M60.5,27.8c-0.5,11-8.9,19.4-18.8,19.4c-9.9,0-18.3-8.5-18.8-19.4C22.4,16.2,30.8,6.3,41.7,6.3
		S61,16.2,60.5,27.8L60.5,27.8z"/>
	<path class="st0" d="M41.7,48c-5,0-9.8-2.1-13.4-5.8c-3.7-3.8-5.8-8.9-6.1-14.3c-0.3-6.1,1.9-12.1,5.9-16.4
		c3.6-3.8,8.4-5.9,13.5-5.9s9.9,2.1,13.5,5.9c4.1,4.3,6.2,10.2,5.9,16.4l-0.7,0l0.7,0c-0.3,5.5-2.4,10.5-6.1,14.3
		C51.5,45.9,46.7,48,41.7,48L41.7,48z M41.7,7C37,7,32.6,9,29.2,12.5c-3.8,4-5.8,9.5-5.5,15.3c0.5,10.5,8.4,18.8,18,18.8
		c9.6,0,17.6-8.2,18-18.8c0.3-5.8-1.8-11.3-5.5-15.3C50.9,9,46.4,7,41.7,7L41.7,7z"/>
	<path class="st0" d="M60.5,27.7c0,0,0.6-0.6-2.2-2.8c-2.8-2.2-10.4-2.7-16.7-5c-6.3-2.3-9.1-7-9.1-7s-0.3,4-2.5,8.1
		c-2.2,4-7.8,5.2-8,8.4l-1.3-3.1c0,0-2.2-5.5,1.3-12.2c4-7.1,8.8-6.6,8.8-6.6S39-2,52.6,5.1c13.4,7,9.9,21.2,9.9,21.2s0,4-0.4,2.1
		L60.5,27.7L60.5,27.7z"/>
	<path class="st3" d="M68.3,75.5c9.5,0,17.2-7.7,17.2-17.2S77.8,41,68.3,41C58.8,41,51,48.7,51,58.2S58.8,75.5,68.3,75.5z"/>
	<path class="st5" d="M56.5,69.2c0.1,0,0.3,0,0.4,0c-0.1-0.1-0.3-0.3-0.4-0.4c1-0.5,2.2-1,3.6-1.4c0.2,0.5,0.4,1.1,0.6,1.6
		c0.5-0.1,1-0.1,1.5-0.2c-0.3-0.5-0.5-1.1-0.7-1.7c1.8-0.4,3.9-0.6,6-0.6v1.3c0.5-0.1,1-0.2,1.4-0.4v-0.9c0.8,0,1.6,0.1,2.4,0.1
		c1-0.3,2-0.7,3-1.1C72.7,65.2,70.9,65,69,65v-6h7.4c0,2.1-0.3,4.2-0.8,6c0.6-0.2,1.1-0.5,1.6-0.7c0.3-1.7,0.5-3.5,0.6-5.3h6.2
		c0,0.5-0.1,1-0.2,1.6c0,0,0,0,0.1,0c0.5-0.4,1-0.7,1.5-1.1c0-0.4,0-0.7,0-1.1c0-9.5-7.7-17.2-17.2-17.2C58.8,41,51,48.7,51,58.2
		c0,4.1,1.5,7.9,3.9,10.9C55.5,69.2,56,69.2,56.5,69.2z M80.9,48.7c1.9,2.5,3,5.5,3.2,8.8h-6.2c-0.1-2.6-0.4-5-1.1-7.2
		C78.4,49.9,79.8,49.4,80.9,48.7L80.9,48.7z M79.9,47.6c-1,0.5-2.2,1-3.6,1.3c-0.3-0.9-0.7-1.8-1.2-2.7c-0.7-1.3-1.4-2.3-2.3-3.1
		C75.6,44,78.1,45.5,79.9,47.6z M69,42.6c1.8,0.3,3.5,1.8,4.9,4.4c0.4,0.7,0.7,1.5,1,2.3c-1.8,0.4-3.8,0.6-5.9,0.6V42.6z M69,51.3
		c2.3,0,4.4-0.3,6.4-0.7c0.6,2.1,1,4.4,1,6.9H69V51.3L69,51.3z M67.6,65c-2.3,0-4.5,0.3-6.4,0.7c-0.6-2.1-0.9-4.3-1-6.7h7.4L67.6,65
		L67.6,65z M67.6,57.5h-7.4c0.1-2.4,0.4-4.8,1-6.9c1.9,0.4,4.1,0.6,6.4,0.7V57.5L67.6,57.5z M67.6,42.6v7.3c-2.1,0-4.1-0.2-5.9-0.6
		c0.3-0.8,0.6-1.6,1-2.3C64,44.4,65.7,42.9,67.6,42.6L67.6,42.6z M63.7,43.1c-0.8,0.8-1.6,1.9-2.3,3.1c-0.4,0.8-0.8,1.7-1.2,2.7
		c-1.4-0.4-2.6-0.8-3.6-1.3C58.5,45.5,60.9,44,63.7,43.1L63.7,43.1z M55.7,48.7c1.1,0.6,2.5,1.2,4.1,1.6c-0.6,2.2-1,4.7-1.1,7.2
		h-6.2C52.6,54.2,53.8,51.2,55.7,48.7L55.7,48.7z M58.7,59c0.1,2.5,0.4,4.9,1,7.1c-1.6,0.4-3,1-4.1,1.6c-1.8-2.4-2.9-5.4-3.1-8.7
		H58.7L58.7,59z"/>
	<path class="st5" d="M50.7,54.4c-0.7,0.5-1.4,1.1-2,1.6c-0.2,0.2-0.4,0.4-0.7,0.6c0.4,0.2,0.7,0.5,0.9,0.8c0.2-0.2,0.4-0.3,0.5-0.5
		c0.3-0.3,0.6-0.5,0.9-0.8C50.5,55.5,50.6,54.9,50.7,54.4L50.7,54.4z"/>
	<path class="st5" d="M92.8,53.4c0.2-1.1,0.2-2.1-0.1-3c-1-3-4.4-4.9-9.8-5.4c-0.9-0.1-1.7-0.1-2.7-0.1c0.4,0.4,0.9,0.8,1.3,1.3
		c0.4,0,0.9,0,1.3,0.1c4.8,0.4,8,2.1,8.8,4.5c0.2,0.7,0.2,1.4,0.1,2.2c0,0,0,0-0.1,0c-1,0-1.9,0.8-1.9,1.9c0,1,0.8,1.9,1.9,1.9
		s1.9-0.8,1.9-1.9C93.5,54.2,93.2,53.7,92.8,53.4L92.8,53.4z"/>
	<path class="st5" d="M89.7,56.8c-0.7,0.9-1.6,1.8-2.6,2.7c-3.8,3.3-9.4,6.3-15.7,8.3c-6.3,2-12.6,2.9-17.6,2.4
		c-4.8-0.4-8-2.1-8.8-4.5c-0.5-1.4-0.1-3.1,1.1-4.9c0.2,0.1,0.4,0.1,0.6,0.1c1,0,1.9-0.8,1.9-1.9c0-1-0.8-1.9-1.9-1.9
		c-1,0-1.9,0.8-1.9,1.9c0,0.4,0.1,0.7,0.3,1c-1.4,2.2-1.9,4.2-1.3,6.1c1,3,4.4,4.9,9.8,5.4c0.9,0.1,1.9,0.1,2.9,0.1
		c0.3,0,0.5,0,0.8,0c3,2.5,6.8,4,11,4c8,0,14.7-5.5,16.7-12.8c1.1-0.7,2-1.5,2.9-2.2c1.1-1,2.1-2,2.9-3C90.3,57.3,90,57.1,89.7,56.8
		L89.7,56.8z M59.6,71.4c0.8-0.1,1.6-0.1,2.4-0.2c0.5,0.9,1.1,1.6,1.7,2.2C62.2,72.9,60.8,72.3,59.6,71.4L59.6,71.4z M63.5,70.9
		c1.3-0.2,2.7-0.5,4.1-0.8v3.8C66.1,73.7,64.7,72.6,63.5,70.9L63.5,70.9z M69,73.9v-4.2c0.9-0.2,1.8-0.5,2.7-0.8c1-0.3,2-0.7,3-1
		c-0.2,0.6-0.5,1.1-0.8,1.6C72.5,72.1,70.8,73.6,69,73.9L69,73.9z M72.9,73.4c0.8-0.8,1.6-1.9,2.3-3.1c0.5-0.9,0.9-1.8,1.2-2.8
		c1.4,0.4,2.7,0.8,3.7,1.4C78.2,70.9,75.7,72.5,72.9,73.4L72.9,73.4z M81,67.6c-0.8-0.5-1.7-0.9-2.8-1.2c1.7-0.8,3.3-1.6,4.8-2.5
		C82.5,65.2,81.8,66.5,81,67.6z"/>
</g>
</svg>
