<?xml version="1.0" encoding="utf-8"?>
<!-- Generator: Adobe Illustrator 26.3.1, SVG Export Plug-In . SVG Version: 6.00 Build 0)  -->
<svg version="1.1" id="レイヤー_1" xmlns="http://www.w3.org/2000/svg" xmlns:xlink="http://www.w3.org/1999/xlink" x="0px"
	 y="0px" viewBox="0 0 110 78" style="enable-background:new 0 0 110 78;" xml:space="preserve">
<style type="text/css">
	.st0{clip-path:url(#SVGID_00000134212717136409296820000007322559109566520233_);}
	.st1{fill:#323C69;stroke:#323C69;stroke-width:3.0767;stroke-miterlimit:10;}
	.st2{fill:#FFFFFF;}
	.st3{clip-path:url(#SVGID_00000114791541938407993280000014159191182151326339_);}
	.st4{fill:#E4502B;}
</style>
<g>
	<g>
		<defs>
			<rect id="SVGID_1_" x="19.1" y="2" width="58.3" height="64"/>
		</defs>
		<clipPath id="SVGID_00000004540049753828248530000009775527394882383264_">
			<use xlink:href="#SVGID_1_"  style="overflow:visible;"/>
		</clipPath>
		<g style="clip-path:url(#SVGID_00000004540049753828248530000009775527394882383264_);">
			<path class="st1" d="M58.2,3.9H21.5v60.7h36.7V3.9z"/>
			<path class="st2" d="M34.9,10.6h-7.3v7.9h7.3V10.6z"/>
			<path class="st2" d="M51.6,10.6h-7.3v7.9h7.3V10.6z"/>
			<path class="st2" d="M34.9,25.1h-7.3V33h7.3V25.1z"/>
			<path class="st2" d="M51.6,25.1h-7.3V33h7.3V25.1z"/>
			<path class="st2" d="M34.9,39.6h-7.3v7.9h7.3V39.6z"/>
			<path class="st2" d="M51.6,39.6h-7.3v7.9h7.3V39.6z"/>
		</g>
	</g>
	<g>
		<defs>
			<rect id="SVGID_00000044139223327292058910000001062882559155515061_" x="51.2" y="32.2" width="39.8" height="43.8"/>
		</defs>
		<clipPath id="SVGID_00000103943698998631016570000013627556238158742432_">
			<use xlink:href="#SVGID_00000044139223327292058910000001062882559155515061_"  style="overflow:visible;"/>
		</clipPath>
		<g style="clip-path:url(#SVGID_00000103943698998631016570000013627556238158742432_);">
			<path class="st4" d="M61.9,42.8c-6.3,2.9-9.4,9.4-9.4,17c0,10.3,8.3,14.8,18.6,14.8s18.6-4.6,18.6-14.8c0-7.6-3.1-14.1-9.3-17
				c-1.2-0.6-1.7-2-1-3.2l3.5-6.2H59.3l3.5,6.3C63.5,40.9,63,42.3,61.9,42.8L61.9,42.8z"/>
			<path class="st4" d="M61.3,41.6c-3.3,1.5-5.9,4-7.7,7.3c-1.7,3.1-2.5,6.9-2.5,10.9c0,5.2,2.1,9.5,6,12.3
				c3.5,2.5,8.3,3.8,13.9,3.8c5.6,0,10.4-1.3,13.9-3.8c3.9-2.8,6-7.1,6-12.3c0-4-0.9-7.8-2.5-10.8c-1.7-3.3-4.3-5.8-7.6-7.3
				c-0.3-0.1-0.5-0.3-0.5-0.6c-0.1-0.3-0.1-0.5,0.1-0.8l3.5-6.2c0.2-0.4,0.2-0.9,0-1.3c-0.2-0.4-0.7-0.6-1.1-0.6H59.3
				c-0.5,0-0.9,0.2-1.1,0.6c-0.2,0.4-0.2,0.9,0,1.3l3.5,6.3c0.2,0.3,0.1,0.6,0.1,0.7C61.8,41.3,61.6,41.5,61.3,41.6L61.3,41.6z
				 M64,39.2l-2.5-4.4h19l-2.4,4.3c-0.5,0.9-0.6,1.9-0.3,2.8c0.3,0.9,1,1.7,1.9,2.2c5.4,2.6,8.6,8.3,8.6,15.8
				c0,4.4-1.7,7.9-4.9,10.2c-3,2.2-7.3,3.3-12.4,3.3c-5.1,0-9.4-1.1-12.4-3.3c-3.3-2.3-4.9-5.8-4.9-10.2c0-7.5,3.2-13.3,8.7-15.8
				c0.9-0.4,1.5-1.2,1.8-2.1C64.6,41,64.5,40,64,39.2L64,39.2z"/>
			<path class="st2" d="M77.8,51.3L76,49.6l-4.9,4.9l-5-5l-1.8,1.8l4.7,4.7h-3.5v2.5h4.2v1.6h-4.2v2.5h4.2V68h2.5v-5.4h4.2v-2.5
				h-4.2v-1.6h4.2v-2.5h-3.4L77.8,51.3z"/>
		</g>
	</g>
</g>
</svg>
