<?xml version="1.0" encoding="utf-8"?>
<!-- Generator: Adobe Illustrator 26.3.1, SVG Export Plug-In . SVG Version: 6.00 Build 0)  -->
<svg version="1.1" id="レイヤー_1" xmlns="http://www.w3.org/2000/svg" xmlns:xlink="http://www.w3.org/1999/xlink" x="0px"
	 y="0px" viewBox="0 0 110 78" style="enable-background:new 0 0 110 78;" xml:space="preserve">
<style type="text/css">
	.st0{fill:#464A65;}
	.st1{fill:#FFFFFF;}
	.st2{fill:#E4502B;}
</style>
<g>
	<path class="st0" d="M77.1,67.2H13.3c-0.8,0-1.4-0.6-1.4-1.4V42.2c0-0.8,0.6-1.4,1.4-1.4h63.8c0.8,0,1.4,0.6,1.4,1.4v23.6
		C78.5,66.6,77.8,67.2,77.1,67.2z M14.6,64.5h61.1V43.6H14.6V64.5z"/>
	<path class="st0" d="M45.2,36.8c-7.5,0-13.6-6.1-13.6-13.6S37.7,9.7,45.2,9.7s13.6,6.1,13.6,13.6S52.7,36.8,45.2,36.8z M45.2,12.4
		c-6,0-10.8,4.9-10.8,10.8s4.9,10.8,10.8,10.8S56,29.2,56,23.3S51.1,12.4,45.2,12.4z"/>
	<g>
		<path class="st0" d="M66.4,33.8H23.9v32.1h42.5V33.8z"/>
		<path class="st0" d="M66.4,67.2H23.9c-0.8,0-1.4-0.6-1.4-1.4V33.8c0-0.8,0.6-1.4,1.4-1.4h42.5c0.8,0,1.4,0.6,1.4,1.4v32.1
			C67.8,66.6,67.2,67.2,66.4,67.2z M25.3,64.5h39.8V35.1H25.3V64.5z"/>
	</g>
	<g>
		<path class="st0" d="M60.1,25.6H30.3v8.1h29.8V25.6z"/>
		<path class="st0" d="M60.1,35.1H30.3c-0.8,0-1.4-0.6-1.4-1.4v-8.1c0-0.8,0.6-1.4,1.4-1.4h29.8c0.8,0,1.4,0.6,1.4,1.4v8.1
			C61.5,34.5,60.8,35.1,60.1,35.1z M31.6,32.4h27.1V27H31.6V32.4z"/>
	</g>
	<path class="st0" d="M45.2,12.4c-0.8,0-1.4-0.6-1.4-1.4V2.7c0-0.8,0.6-1.4,1.4-1.4c0.8,0,1.4,0.6,1.4,1.4v8.4
		C46.5,11.8,45.9,12.4,45.2,12.4z"/>
	<path class="st0" d="M64.9,27H25.4c-0.8,0-1.4-0.6-1.4-1.4s0.6-1.4,1.4-1.4h39.5c0.8,0,1.4,0.6,1.4,1.4S65.7,27,64.9,27z"/>
	<path class="st1" d="M32.7,58.5c-0.5,0-0.9-0.4-0.9-0.9V41.5c0-0.5,0.4-0.9,0.9-0.9s0.9,0.4,0.9,0.9v16.1
		C33.6,58.1,33.2,58.5,32.7,58.5z"/>
	<path class="st1" d="M41,58.8c-0.5,0-0.9-0.4-0.9-0.9V41.7c0-0.5,0.4-0.9,0.9-0.9s0.9,0.4,0.9,0.9v16.1
		C41.9,58.3,41.5,58.8,41,58.8z"/>
	<path class="st1" d="M49.3,58.8c-0.5,0-0.9-0.4-0.9-0.9V41.7c0-0.5,0.4-0.9,0.9-0.9c0.5,0,0.9,0.4,0.9,0.9v16.1
		C50.3,58.3,49.8,58.8,49.3,58.8z"/>
	<path class="st1" d="M57.7,58.8c-0.5,0-0.9-0.4-0.9-0.9V41.7c0-0.5,0.4-0.9,0.9-0.9c0.5,0,0.9,0.4,0.9,0.9v16.1
		C58.6,58.3,58.2,58.8,57.7,58.8z"/>
	<ellipse class="st0" cx="44.7" cy="21.2" rx="12" ry="10.2"/>
	<rect x="14.2" y="42.5" class="st0" width="9.2" height="22.2"/>
	<path class="st1" d="M69.3,43.6l-5.2,1.6v26.1l5.7,1.6h7.7l5.7-1.1l0.7-25.9l-4.3-2.3H69.3z"/>
	<path class="st2" d="M84.5,45.6c-0.1-1-1.2-1.8-3.5-2.4c-1.9-0.5-4.4-0.7-7.1-0.7c-2.7,0-5.2,0.3-7.1,0.7c-2.2,0.6-3.4,1.3-3.5,2.4
		h0v25h1.7c0,0,0,0,0,0h-1.7c0,1.1,1.1,2,3.5,2.5c1.9,0.5,4.4,0.7,7.1,0.7c2.7,0,5.2-0.3,7.1-0.7c2.4-0.6,3.5-1.4,3.5-2.5L84.5,45.6
		L84.5,45.6L84.5,45.6z M82.8,64.1c-0.1,0.2-0.8,0.6-2.6,1c-1.7,0.4-4,0.6-6.3,0.6c-2.3,0-4.6-0.2-6.3-0.6c-1.9-0.4-2.5-0.9-2.6-1
		v-3.8c0.5,0.2,1.1,0.4,1.8,0.6c1.9,0.5,4.4,0.7,7.1,0.7c2.7,0,5.2-0.3,7.1-0.7c0.7-0.2,1.3-0.4,1.8-0.6V64.1z M82.8,58.3
		c-0.1,0.2-0.8,0.6-2.6,1c-1.7,0.4-4,0.6-6.3,0.6c-2.3,0-4.6-0.2-6.3-0.6c-1.9-0.4-2.5-0.9-2.6-1V54c0.5,0.2,1.1,0.4,1.8,0.6
		c1.9,0.5,4.4,0.7,7.1,0.7c2.7,0,5.2-0.3,7.1-0.7c0.7-0.2,1.3-0.4,1.8-0.6V58.3z M82.8,52c-0.1,0.2-0.8,0.6-2.6,1
		c-1.7,0.4-4,0.6-6.3,0.6c-2.3,0-4.6-0.2-6.3-0.6c-1.9-0.4-2.5-0.9-2.6-1v-4.3c0.5,0.2,1.1,0.4,1.8,0.6c1.9,0.5,4.4,0.7,7.1,0.7
		c2.7,0,5.2-0.3,7.1-0.7c0.7-0.2,1.3-0.4,1.8-0.6V52z M67.5,44.7c1.7-0.4,4-0.6,6.3-0.6c2.3,0,4.6,0.2,6.3,0.6
		c1.7,0.4,2.4,0.8,2.6,1c-0.2,0.2-0.9,0.6-2.6,1c-1.7,0.4-4,0.6-6.3,0.6c-2.3,0-4.6-0.2-6.3-0.6c-1.7-0.4-2.4-0.8-2.6-1
		C65.2,45.5,65.9,45.1,67.5,44.7L67.5,44.7z M80.2,71.6c-1.7,0.4-4,0.6-6.3,0.6c-2.3,0-4.6-0.2-6.3-0.6c-1.9-0.4-2.5-0.9-2.6-1v-4.4
		c0.5,0.2,1.1,0.4,1.8,0.6c1.9,0.5,4.4,0.7,7.1,0.7c2.7,0,5.2-0.3,7.1-0.7c0.7-0.2,1.3-0.4,1.8-0.6v4.4C82.7,70.7,82,71.2,80.2,71.6
		z"/>
	<path class="st2" d="M88.2,76.7c5.5,0,9.9-4.4,9.9-9.9c0-5.5-4.4-9.9-9.9-9.9c-5.5,0-9.9,4.4-9.9,9.9
		C78.3,72.3,82.8,76.7,88.2,76.7z"/>
	<path class="st2" d="M98.1,66.8c0-5.5-4.4-9.9-9.9-9.9c-5.5,0-9.9,4.4-9.9,9.9s4.4,9.9,9.9,9.9C93.7,76.7,98.1,72.3,98.1,66.8z
		 M80,66.8c0-2.2,0.9-4.2,2.4-5.8c1.5-1.5,3.6-2.4,5.8-2.4s4.2,0.9,5.8,2.4c1.5,1.5,2.4,3.6,2.4,5.8S95.6,71,94,72.6
		c-1.5,1.5-3.6,2.4-5.8,2.4s-4.2-0.9-5.8-2.4C80.9,71,80,69,80,66.8L80,66.8z"/>
	<path class="st1" d="M91.6,62.8l-0.9-0.9l-2.5,2.5l-2.5-2.5l-0.9,0.9l2.4,2.4h-1.8v1.3h2.1v0.8h-2.1v1.3h2.1v2.8h1.3v-2.8H91v-1.3
		h-2.1v-0.8H91v-1.3h-1.7L91.6,62.8z"/>
</g>
</svg>
