<?xml version="1.0" encoding="utf-8"?>
<!-- Generator: Adobe Illustrator 26.3.1, SVG Export Plug-In . SVG Version: 6.00 Build 0)  -->
<svg version="1.1" id="レイヤー_1" xmlns="http://www.w3.org/2000/svg" xmlns:xlink="http://www.w3.org/1999/xlink" x="0px"
	 y="0px" viewBox="0 0 110 78" style="enable-background:new 0 0 110 78;" xml:space="preserve">
<style type="text/css">
	.st0{fill:#E4502B;}
	.st1{clip-path:url(#SVGID_00000007392461343347418760000005676439320943735712_);}
	.st2{fill:#323C69;stroke:#323C69;stroke-width:2.179;stroke-miterlimit:10;}
	.st3{fill:#FFFFFF;}
</style>
<g>
	<path class="st0" d="M45.8,24.5l3.1,3.1c3.4-3.4,8.9-3.4,12.3,0l3.1-3.1C59.1,19.4,50.9,19.4,45.8,24.5L45.8,24.5z"/>
	<path class="st0" d="M51.9,30.6l3.1,3.1l3.1-3.1C56.4,28.9,53.6,28.9,51.9,30.6z"/>
	<path class="st0" d="M33.4,12.1l2.2,2.2c0.5,0.5,1.3,0.5,1.9,0c10.3-9.3,26.1-9,36.1,0.9l3.1-3.1C64.7,0.2,45.3,0.2,33.4,12.1z"/>
	<path class="st0" d="M39.6,18.3l3.1,3.1c6.8-6.8,17.8-6.8,24.7,0l3.1-3.1C61.9,9.8,48.1,9.8,39.6,18.3L39.6,18.3z"/>
	<g>
		<defs>
			<rect id="SVGID_1_" x="35.7" y="32.7" width="38.4" height="42.1"/>
		</defs>
		<clipPath id="SVGID_00000080180668514368771730000016858161511336569769_">
			<use xlink:href="#SVGID_1_"  style="overflow:visible;"/>
		</clipPath>
		<g style="clip-path:url(#SVGID_00000080180668514368771730000016858161511336569769_);">
			<path class="st2" d="M72.3,33.9H37.3v39.5h35.1V33.9z"/>
			<path class="st3" d="M46.1,38.3h-4.8v5.2h4.8V38.3z"/>
			<path class="st3" d="M57.1,38.3h-4.8v5.2h4.8V38.3z"/>
			<path class="st3" d="M68,38.3h-4.8v5.2H68V38.3z"/>
			<path class="st3" d="M46.1,47.9h-4.8v5.2h4.8V47.9z"/>
			<path class="st3" d="M57.1,47.9h-4.8v5.2h4.8V47.9z"/>
			<path class="st3" d="M68,47.9h-4.8v5.2H68V47.9z"/>
			<path class="st3" d="M46.1,57.4h-4.8v5.2h4.8V57.4z"/>
			<path class="st3" d="M57.1,57.4h-4.8v5.2h4.8V57.4z"/>
			<path class="st3" d="M68,57.4h-4.8v5.2H68V57.4z"/>
		</g>
	</g>
</g>
</svg>
