<?xml version="1.0" encoding="utf-8"?>
<!-- Generator: Adobe Illustrator 26.3.1, SVG Export Plug-In . SVG Version: 6.00 Build 0)  -->
<svg version="1.1" id="レイヤー_1" xmlns="http://www.w3.org/2000/svg" xmlns:xlink="http://www.w3.org/1999/xlink" x="0px"
	 y="0px" viewBox="0 0 110 78" style="enable-background:new 0 0 110 78;" xml:space="preserve">
<style type="text/css">
	.st0{fill:#FFFFFF;filter:url(#Adobe_OpacityMaskFilter);}
	
		.st1{mask:url(#path-1-inside-1_1162_845_00000101823149171776046270000016187828618609995198_);fill:#323C69;stroke:#323C69;stroke-width:8;}
	.st2{fill:#FFFFFF;stroke:#FFFFFF;stroke-width:4;}
	.st3{fill:#FFFFFF;}
	.st4{fill:#FFFFFF;stroke:#323C69;stroke-width:2;}
	.st5{fill:#E4502B;}
	.st6{fill:none;stroke:#323C69;stroke-width:1.8;stroke-miterlimit:10;}
</style>
<g>
	<defs>
		<filter id="Adobe_OpacityMaskFilter" filterUnits="userSpaceOnUse" x="7" y="9" width="106" height="52">
			<feColorMatrix  type="matrix" values="1 0 0 0 0  0 1 0 0 0  0 0 1 0 0  0 0 0 1 0"/>
		</filter>
	</defs>
	
		<mask maskUnits="userSpaceOnUse" x="7" y="9" width="106" height="52" id="path-1-inside-1_1162_845_00000101823149171776046270000016187828618609995198_">
		<path class="st0" d="M11,16c0-1.6,1.3-3,3-3H106c1.6,0,3,1.3,3,3v30c0,6.1-4.9,11-11,11H22c-6.1,0-11-4.9-11-11V16z"/>
	</mask>
	<path class="st1" d="M11,16c0-1.6,1.3-3,3-3H106c1.6,0,3,1.3,3,3v30c0,6.1-4.9,11-11,11H22c-6.1,0-11-4.9-11-11V16z"/>
	<rect x="37" y="41" class="st2" width="46" height="11"/>
	<circle class="st3" cx="94" cy="49" r="2"/>
	<circle class="st3" cx="100" cy="49" r="2"/>
	<path class="st4" d="M6,28h16c2.8,0,5,2.2,5,5v33c0,2.8-2.2,5-5,5H6c-2.8,0-5-2.2-5-5V33C1,30.2,3.2,28,6,28z"/>
	<path class="st5" d="M21,58c0,2.2-1.8,4-4,4s-4-1.8-4-4c0-1.5,0.8-2.7,2-3.4c0.6-0.4,1.3-0.6,2-0.6s1.4,0.2,2,0.6
		C20.2,55.3,21,56.5,21,58L21,58z"/>
	<path class="st5" d="M15.4,45h3.3c0.2,0,0.4,0.2,0.4,0.3V55h-4v-9.7C15,45.2,15.2,45,15.4,45z"/>
	<path class="st6" d="M19.3,54.1V38.8c0-0.5-0.4-0.8-0.8-0.8h-2.9c-0.5,0-0.8,0.4-0.8,0.8v15.3c-1.3,0.8-2.2,2.2-2.2,3.9
		c0,2.5,2,4.5,4.5,4.5c2.5,0,4.5-2,4.5-4.5C21.5,56.4,20.6,54.9,19.3,54.1L19.3,54.1z"/>
	<path class="st5" d="M11,45.6H6v0.9h5V45.6z"/>
	<path class="st5" d="M11,42.5H8.2v0.9H11V42.5z"/>
	<path class="st5" d="M11,48.8H8.2v0.9H11V48.8z"/>
	<path class="st5" d="M11,51.9H8.2v0.9H11V51.9z"/>
</g>
</svg>
