<?xml version="1.0" encoding="utf-8"?>
<!-- Generator: Adobe Illustrator 26.3.1, SVG Export Plug-In . SVG Version: 6.00 Build 0)  -->
<svg version="1.1" id="レイヤー_1" xmlns="http://www.w3.org/2000/svg" xmlns:xlink="http://www.w3.org/1999/xlink" x="0px"
	 y="0px" viewBox="0 0 110 78" style="enable-background:new 0 0 110 78;" xml:space="preserve">
<style type="text/css">
	.st0{fill:#323C69;}
	.st1{fill:#FFFFFF;}
	.st2{fill:#E4502B;}
	.st3{fill:#FFFFFF;stroke:#E4502B;stroke-width:0.4496;stroke-miterlimit:10;}
</style>
<g>
	<path class="st0" d="M32,0.9h46c5.3,0,9.6,4.3,9.6,9.6v56.9c0,5.3-4.3,9.6-9.6,9.6H32c-5.3,0-9.6-4.3-9.6-9.6V10.5
		C22.4,5.2,26.7,0.9,32,0.9z"/>
	<rect x="32" y="17.4" class="st1" width="46" height="50.8"/>
	<path class="st2" d="M62.3,48.3c-1.4,3.2-5.6,5-7.1,5c-1.5,0-5.7-1.8-7.1-5c-2.4-5.4-7-22.6,7.1-22.6
		C69.3,25.6,64.6,42.8,62.3,48.3L62.3,48.3z"/>
	<path class="st2" d="M66.4,58.5c0-0.4,0.1-0.8,0.1-1.2c0-6.7-5-12.2-11.2-12.2C49,45.1,44,50.6,44,57.3c0,0.4,0,0.8,0.1,1.2H66.4
		L66.4,58.5z"/>
	<path class="st1" d="M66.4,58.5c0-0.4,0.1-0.8,0.1-1.2c0-6.7-5-12.2-11.2-12.2C49,45.1,44,50.6,44,57.3c0,0.4,0,0.8,0.1,1.2H66.4
		L66.4,58.5z"/>
	<path class="st2" d="M66.4,58.5c0-0.4,0.1-0.8,0.1-1.2c0-6.7-5-12.2-11.2-12.2C49,45.1,44,50.6,44,57.3c0,0.4,0,0.8,0.1,1.2H66.4
		L66.4,58.5z"/>
	<path class="st1" d="M55.2,37.6L50.3,43l4.9,9.7l4.9-9.7L55.2,37.6z"/>
	<path class="st2" d="M58,45.4l0.4,1.4l1.4-1.9l-0.6-0.3L58,45.4z"/>
	<path class="st2" d="M50.8,45.5l0.5-0.8l1.2,0.8l-0.6,1.3L50.8,45.5z"/>
	<path class="st2" d="M66.7,58.9h-23l0-0.3c0-0.4-0.1-0.8-0.1-1.2c0-3.3,1.2-6.5,3.4-8.8c1.1-1.2,2.3-2.1,3.7-2.7
		c1.4-0.7,2.9-1,4.5-1c1.6,0,3.1,0.3,4.5,1c1.4,0.6,2.6,1.5,3.7,2.7c2.2,2.4,3.4,5.5,3.4,8.8c0,0.4,0,0.8-0.1,1.2L66.7,58.9
		L66.7,58.9z M44.3,58.2h21.8c0-0.3,0-0.6,0-0.9c0-6.5-4.9-11.9-10.9-11.9s-10.9,5.3-10.9,11.9C44.3,57.6,44.3,57.9,44.3,58.2
		L44.3,58.2z"/>
	<path class="st1" d="M56.8,45.8h-3.1v1.4h3.1V45.8z"/>
	<path class="st1" d="M57.1,47.5h-3.8v-2h3.8V47.5z M54,46.8h2.5v-0.7H54V46.8z"/>
	<path class="st2" d="M55.2,49.3l-2-1.2l0.1-0.2l1.8,1.1l1.8-1.1l0.1,0.2L55.2,49.3z"/>
	<path class="st1" d="M52.5,45.5l2.3,3.1L53.6,48l-2.4,1L52.5,45.5z"/>
	<path class="st2" d="M50.9,49.3l1.6-4.1l2.9,4l-1.8-0.9L50.9,49.3z M52.5,45.9l-1.1,2.8l2.1-0.9l0.7,0.4L52.5,45.9L52.5,45.9z"/>
	<path class="st1" d="M57.9,45.5l-2.3,3.1l1.2-0.6l2.4,1L57.9,45.5z"/>
	<path class="st2" d="M59.6,49.3l-2.7-1.1l-1.8,0.9l2.9-4L59.6,49.3L59.6,49.3z M56.9,47.8l2.1,0.9l-1.1-2.8l-1.7,2.3L56.9,47.8
		L56.9,47.8z"/>
	<path class="st3" d="M63.4,37.5c-0.3,4.8-4,8.5-8.2,8.5c-4.2,0-7.9-3.6-8.2-8.5c-0.4-5.2,3.3-9.8,8.2-9.8
		C60.1,27.7,63.7,32.3,63.4,37.5L63.4,37.5z"/>
	<path class="st2" d="M55.2,46.3c-2.1,0-4.2-0.9-5.8-2.5c-1.6-1.6-2.6-3.9-2.7-6.3c-0.2-2.8,0.8-5.6,2.6-7.6
		c1.6-1.7,3.7-2.6,5.9-2.6c2.2,0,4.3,0.9,5.9,2.6c1.8,2,2.8,4.7,2.6,7.6c-0.2,2.4-1.1,4.6-2.7,6.3C59.4,45.4,57.3,46.3,55.2,46.3
		L55.2,46.3z M55.2,28c-2,0-4,0.9-5.4,2.4c-1.7,1.8-2.6,4.4-2.4,7.1c0.3,4.6,3.8,8.2,7.8,8.2c4.1,0,7.5-3.6,7.8-8.2l0.3,0l-0.3,0
		c0.2-2.7-0.7-5.2-2.4-7.1C59.2,28.9,57.2,28,55.2,28L55.2,28z"/>
	<path class="st2" d="M64.2,37.5c0,0-6-0.6-8.7-2.6c-2.5-1.8-3.8-4.5-3.8-4.5s-2.1,2-3.2,4c-1.1,2-1.3,2.7-1.4,4.2L46,37.1
		c0,0-1.3-9.7,9.1-9.4C65.5,28,64.2,37.5,64.2,37.5z"/>
	<rect x="45.7" y="5.7" class="st1" width="18.5" height="7.5"/>
</g>
</svg>
