<?xml version="1.0" encoding="utf-8"?>
<!-- Generator: Adobe Illustrator 26.3.1, SVG Export Plug-In . SVG Version: 6.00 Build 0)  -->
<svg version="1.1" id="レイヤー_1" xmlns="http://www.w3.org/2000/svg" xmlns:xlink="http://www.w3.org/1999/xlink" x="0px"
	 y="0px" viewBox="0 0 110 78" style="enable-background:new 0 0 110 78;" xml:space="preserve">
<style type="text/css">
	.st0{fill:#E4502B;}
	.st1{fill:#464A65;}
	.st2{fill:#FFFFFF;}
</style>
<g>
	<path class="st0" d="M100.2,28.6c-0.1-2-1.4-6.8-4.5-11.3c-2.6-3.9-7.3-8.7-14.7-9.6c-6.5-0.8-12.4,0.9-16.8,4.7
		c-3.3,3-5.6,7-6.7,11.8c-0.1,0-0.3,0-0.4,0H20.4c-5.2,0-9.5,4.3-9.5,9.5v18.9c0,5.2,4.3,9.5,9.5,9.5h26.5l7.9,7.9v-7.9h2.3
		c5.2,0,9.5-4.3,9.5-9.5v-1.8c0.5,0.5,1,1.1,1.5,1.6c1.8,1.9,3.6,3.7,4.9,5.5c0.8,1.2,1.6,2.3,2.3,3.4c2.8,4.3,5.2,8,10.9,8
		c8.6,0,10.8-7.3,12.2-11.7c0.3-0.9-0.2-1.9-1.1-2.2c-0.9-0.3-1.9,0.2-2.2,1.1c-1.9,6.2-3.8,9.3-8.9,9.3c-3.6,0-5.1-2.1-7.9-6.4
		c-0.7-1.1-1.5-2.3-2.4-3.6c-1.5-2-3.3-3.9-5.2-5.9c-1.4-1.4-2.7-2.8-4-4.3v-12c0-3.9-2.4-7.3-5.7-8.7c0.9-4.1,2.8-7.5,5.6-10
		c3.6-3.2,8.7-4.6,14.1-3.9c11.3,1.5,16,14.5,16.2,17.8c0.1,1,0.9,1.7,1.8,1.6C99.6,30.4,100.3,29.6,100.2,28.6L100.2,28.6z
		 M28,45.4c-1.4,0-2.5-1.1-2.5-2.5c0-1.4,1.1-2.5,2.5-2.5c1.4,0,2.5,1.1,2.5,2.5C30.6,44.2,29.4,45.4,28,45.4z M39,45.4
		c-1.4,0-2.5-1.1-2.5-2.5c0-1.4,1.1-2.5,2.5-2.5s2.5,1.1,2.5,2.5C41.6,44.2,40.4,45.4,39,45.4z M49.8,45.4c-1.4,0-2.5-1.1-2.5-2.5
		c0-1.4,1.1-2.5,2.5-2.5c1.4,0,2.5,1.1,2.5,2.5C52.4,44.2,51.3,45.4,49.8,45.4z"/>
	<path class="st0" d="M82.9,39.6c1.2-0.8,3.8-0.3,4.6-0.1c0,0,0,0,0,0c0.2,0.1,0.7,0.1,1.3-0.3c0.7-0.5,1.7-1.8,2.2-7.3
		c0.6-7.2-3.6-12.7-11.4-14.8c-4-1.1-7.3,0.5-9.3,2.1c-2.1,1.6-3.9,3.9-3.9,5c0,0.6,0.5,1.2,1.2,1.2c0.6,0,1.1-0.4,1.1-1
		c0.4-1.1,4.8-6.5,10.3-5c6.7,1.8,10.2,6.3,9.7,12.4c-0.3,3.6-0.8,5-1.1,5.5c-1.2-0.3-4.1-0.8-6.1,0.5c-0.7,0.5-1.6,1.5-1.7,3.3
		c-0.2,4.5,0.1,8.6,6.3,9.8c0.1,0,0.2,0,0.2,0c0.5,0,1-0.4,1.1-0.9c0.1-0.6-0.3-1.2-0.9-1.4c-4.1-0.8-4.6-2.9-4.4-7.5
		C82.2,40.2,82.6,39.8,82.9,39.6L82.9,39.6z"/>
	<path class="st1" d="M60.4,23.8H15.9c-3.4,0-6.2,2.8-6.2,6.2v26.3c0,3.4,2.8,6.2,6.2,6.2h30.8l8,8v-8h5.5c3.4,0,6.2-2.8,6.2-6.2V30
		C66.5,26.6,63.8,23.8,60.4,23.8L60.4,23.8z"/>
	<path class="st2" d="M25.6,47.2c1.9,0,3.4-1.5,3.4-3.4s-1.5-3.4-3.4-3.4c-1.9,0-3.4,1.5-3.4,3.4S23.7,47.2,25.6,47.2z"/>
	<path class="st2" d="M38.6,47.2c1.9,0,3.4-1.5,3.4-3.4c0-1.9-1.5-3.4-3.4-3.4s-3.4,1.5-3.4,3.4C35.2,45.6,36.7,47.2,38.6,47.2z"/>
	<path class="st2" d="M51.4,47.2c1.9,0,3.4-1.5,3.4-3.4c0-1.9-1.5-3.4-3.4-3.4s-3.4,1.5-3.4,3.4C47.9,45.6,49.5,47.2,51.4,47.2z"/>
</g>
</svg>
