<svg width="872" height="232" viewBox="0 0 872 232" fill="none" xmlns="http://www.w3.org/2000/svg">
<rect width="872" height="110" fill="#323C69"/>
<path d="M67.2795 30.1881V37.4964H93.831V30.1881H67.2795ZM65.0668 50.6381V84.9674H72.6434V50.6381H65.0668ZM66.8101 22.008C64.9998 30.121 61.3791 37.7646 56.2834 42.5251C58.1607 43.5979 61.4462 46.1458 62.8542 47.5538C68.1511 41.9887 72.4423 33.1382 74.789 23.5502L66.8101 22.008ZM81.2928 46.8163L74.3867 47.755C76.6664 64.3162 80.6893 77.659 90.4785 84.8333C91.6184 82.7548 94.0992 79.6034 95.9095 78.1284C87.1931 72.4962 83.1702 60.4273 81.2928 46.8163ZM90.0092 49.9676C87.2602 53.3201 82.3656 57.7453 78.946 60.2932L83.6395 64.8526C87.1931 62.4388 91.9536 58.5499 95.6413 54.9963L90.0092 49.9676ZM32.749 32.2666V39.7091H60.5745V32.2666H32.749ZM43.1417 46.2799V53.5883H54.0707V46.2799H43.1417ZM42.8735 22.0751V34.6804H50.5842V22.0751H42.8735ZM51.4558 46.2799V47.755C51.1876 68.4062 50.8524 75.3793 49.9137 76.9885C49.3773 77.7261 48.8409 77.9943 47.9692 77.9943C46.8964 77.9943 45.1532 77.9272 43.0746 77.659C44.1474 79.6705 44.885 82.6877 45.0191 84.8333C47.701 84.9003 50.316 84.9003 51.9922 84.5651C53.8025 84.2299 55.0765 83.6264 56.3504 81.749C58.0266 79.2682 58.3619 71.2223 58.6971 49.4312C58.6971 48.4925 58.6971 46.2799 58.6971 46.2799H51.4558ZM39.5881 37.0271V50.1688C39.5881 59.1534 38.6494 70.5518 31.2069 80.341C33.2184 81.6149 35.8333 83.6264 37.1743 85.2356C45.4884 74.3736 46.6282 61.2319 46.6282 50.2358V37.0271H39.5881ZM86.3885 38.1669C80.4882 42.8604 68.4193 47.755 58.8983 49.6994C60.6416 51.4427 62.586 54.3258 63.6588 56.4044C73.1128 53.5212 85.4498 47.8891 92.2218 42.391L86.3885 38.1669ZM141.905 75.1782V81.9502H164.166V75.1782H141.905ZM138.754 40.3796V85.0344H145.995V40.3796H138.754ZM141.905 40.3796V46.7492H156.924V52.1802H141.905V58.5499H164.3V40.3796H141.905ZM134.932 29.1823V41.7205H142.107V35.6191H161.149V41.7205H168.658V29.1823H134.932ZM147.471 22.008V32.4007H155.315V22.008H147.471ZM141.905 62.774V69.3449H159.741V84.6992H167.183V62.774H141.905ZM119.31 34.8145V43.1956H125.948V34.8145H119.31ZM110.526 40.3796V77.659H117.634V40.3796H110.526ZM115.153 49.3642V54.527H129.702V49.3642H115.153ZM106.436 75.6475L108.649 83.023C114.75 81.3467 122.595 79.2011 129.904 77.0556L129.166 70.7529C120.852 72.6303 112.135 74.5747 106.436 75.6475ZM122.126 67.0652C125.21 72.0939 128.294 78.7989 129.367 83.09L136.206 80.0057C134.999 75.6475 131.714 69.2108 128.428 64.3832L122.126 67.0652ZM114.482 40.3796V46.1458H125.881V57.9465H114.482V63.7127H132.921V40.3796H114.482ZM117.365 22.0751C115.153 27.372 111.13 33.6746 105.095 38.4351C106.704 39.5079 108.984 42.0558 109.99 43.732C117.03 37.8317 121.321 30.8585 124.003 25.7628V23.5502H121.724V22.0751H117.365ZM119.31 22.0751V27.5731H120.584C124.338 30.4562 128.697 35.9543 130.574 39.3068L135.67 33.3394C133.457 29.9199 128.697 25.2934 124.674 22.0751H119.31ZM212.374 45.006C207.614 45.006 203.792 48.8278 203.792 53.5212C203.792 58.2817 207.614 62.1036 212.374 62.1036C217.068 62.1036 220.89 58.2817 220.89 53.5212C220.89 48.8278 217.068 45.006 212.374 45.006ZM292.699 25.2934H282.776C283.044 26.5003 283.313 29.4505 283.313 31.1267C283.313 35.2168 283.313 42.391 283.313 44.7378C283.313 47.8891 283.313 69.0767 283.313 71.6246C283.246 73.3679 282.575 73.9713 280.832 73.9713C279.155 73.9713 276.272 73.7701 273.389 73.2338L274.194 81.5479C277.613 81.9502 281.502 82.0843 285.123 82.0843C289.883 82.0843 292.096 79.6705 292.096 75.7816C292.096 70.1495 292.096 50.1688 292.096 44.7378C292.096 40.8489 292.096 35.1497 292.096 31.1938C292.096 29.5176 292.565 26.2321 292.699 25.2934ZM259.845 36.0213V44.8719C261.723 44.6707 264.338 44.6037 266.349 44.6037C270.707 44.6037 302.958 44.6037 307.786 44.6037C309.596 44.6037 312.211 44.6707 314.289 44.8719V36.0884C312.546 36.3566 309.596 36.4907 307.719 36.4907C302.958 36.4907 270.439 36.4907 266.349 36.4907C264.203 36.4907 261.857 36.2895 259.845 36.0213ZM276.943 54.1917L269.366 50.5711C266.617 56.2703 261.253 63.6457 256.761 67.9369L264.002 72.8985C267.69 68.8755 273.859 60.0921 276.943 54.1917ZM305.774 50.3699L298.466 54.3258C301.684 58.4829 306.445 66.5959 309.328 72.3621L317.24 68.0039C314.558 63.1763 309.194 54.6611 305.774 50.3699ZM341.176 27.6402V36.2895C343.188 36.1554 346.071 36.0213 348.35 36.0213C352.575 36.0213 371.348 36.0213 375.304 36.0213C377.584 36.0213 380.199 36.1554 382.479 36.2895V27.6402C380.199 27.9084 377.517 28.1095 375.304 28.1095C371.348 28.1095 352.575 28.1095 348.35 28.1095C346.071 28.1095 343.322 27.9084 341.176 27.6402ZM333.331 44.7378V53.5212C335.209 53.3871 337.824 53.3201 339.768 53.3201C343.992 53.3201 379.73 53.3201 383.685 53.3201C385.563 53.3201 388.111 53.3871 389.854 53.4542V44.7378C388.044 45.073 385.094 45.1401 383.685 45.1401C379.73 45.1401 343.992 45.1401 339.768 45.1401C337.69 45.1401 335.343 45.006 333.331 44.7378ZM367.661 49.4312L358.341 49.4983C358.341 56.6726 357.402 62.9752 354.05 68.071C351.435 72.0269 346.674 75.8487 341.914 77.7261L349.826 83.4253C355.726 80.341 360.956 75.1782 363.235 70.4847C366.119 64.9196 367.661 58.2147 367.661 49.4312ZM435.783 77.5249L441.415 82.1513C442.085 81.682 442.89 80.9444 444.298 80.2069C451.875 76.3851 461.463 69.1437 467.028 61.9024L461.932 54.4599C457.373 60.9637 450.802 66.2606 445.304 68.6073C445.304 64.5173 445.304 38.9715 445.304 33.6076C445.304 30.5903 445.773 27.9084 445.773 27.7743H435.85C435.85 27.9084 436.319 30.5233 436.319 33.5405C436.319 38.9715 436.319 69.0767 436.319 72.6303C436.319 74.4406 436.118 76.251 435.783 77.5249ZM404.739 76.5862L412.919 82.0172C418.685 76.9215 422.842 70.2836 424.921 62.774C426.664 56.0021 426.865 41.8546 426.865 33.8758C426.865 31.1267 427.335 28.1095 427.335 27.8413H417.478C417.881 29.5176 418.149 31.2608 418.149 34.0099C418.149 42.0558 418.082 54.7952 416.137 60.4944C414.327 66.2606 410.706 72.4292 404.739 76.5862ZM516.175 33.0712L506.989 32.803C506.319 39.8432 504.844 47.5538 502.899 53.8565C500.083 62.9081 497.535 67.1993 494.652 67.1993C492.104 67.1993 489.422 63.9139 489.422 57.1419C489.422 48.6937 497.2 37.0941 511.415 37.0941C523.014 37.0941 529.585 44.6037 529.585 55.1304C529.585 64.9867 522.88 71.0882 514.365 73.1667C512.554 73.569 510.677 73.9042 508.062 74.2395L513.158 82.1513C530.054 79.5364 538.704 69.546 538.704 55.4657C538.704 40.7819 528.177 29.2494 511.616 29.2494C494.25 29.2494 480.773 42.5251 480.773 57.9465C480.773 69.2778 486.942 77.5249 494.451 77.5249C501.759 77.5249 507.526 69.2108 511.549 55.6668C513.895 47.755 515.236 39.9102 516.175 33.0712ZM580.207 24.5559H570.954C571.155 25.7628 571.357 29.1153 571.357 30.4562C571.357 33.5405 571.29 41.8546 571.29 49.4983C571.29 57.6112 571.625 66.9311 571.625 70.4177C571.625 72.7644 570.753 73.3008 569.546 73.3008C567.803 73.3008 564.652 71.4905 564.652 69.3449C564.652 66.4618 568.943 62.8411 574.977 60.5614C580.207 58.4829 586.108 57.276 591.807 57.276C597.64 57.276 601.663 59.8909 601.663 64.5173C601.663 69.3449 597.305 72.0939 591.874 73.0326C589.594 73.502 586.644 73.502 583.694 73.502L586.711 82.2184C589.46 81.9502 592.477 81.749 595.561 81.0785C606.222 78.4636 610.379 72.4962 610.379 64.5173C610.379 55.2645 602.199 49.9006 591.874 49.9006C586.778 49.9006 580.006 50.9734 574.039 53.1189C564.719 56.4044 556.338 63.2434 556.338 69.7472C556.338 76.8544 565.59 82.4866 572.094 82.4866C576.519 82.4866 579.47 80.2069 579.47 71.9598C579.47 68.071 579.067 56.4714 579.067 49.163C579.067 42.9274 579.268 35.6861 579.604 30.3892C579.671 28.713 579.939 25.8298 580.207 24.5559ZM599.316 31.8643L595.629 38.3681C599.786 40.3796 608.502 45.4083 611.72 48.0902L615.81 41.2512C612.19 38.7033 604.412 34.3451 599.316 31.8643ZM558.148 35.552L558.349 43.665C560.629 43.9332 563.244 44.0002 567.669 44.0002C573.569 44.0002 584.364 42.7933 591.941 41.05L591.74 32.7359C584.834 34.7474 574.374 36.0213 567.401 36.0213C564.987 36.0213 562.104 36.0213 558.148 35.552ZM649.335 27.7743C651.816 32.9371 654.297 39.7091 655.034 43.9332L662.343 41.05C661.471 36.8259 658.789 30.2551 656.107 25.2934L649.335 27.7743ZM662.544 24.9582C664.488 30.2551 666.299 37.2282 666.701 41.5194L674.21 39.1727C673.674 34.8815 671.663 28.1766 669.584 22.9467L662.544 24.9582ZM658.789 54.9293C665.025 59.4216 672.735 66.0595 676.222 70.6188L680.58 64.4503C676.959 60.025 668.981 53.8565 662.812 49.6324L658.789 54.9293ZM650.743 47.6209V84.431H658.454V47.6209H650.743ZM680.647 47.4868V84.2969H688.492V47.4868H680.647ZM654.431 73.4349V80.6762H684.335V73.4349H654.431ZM681.385 23.8854C679.507 30.9256 676.289 38.5692 672.735 43.2627C674.881 44.0673 678.703 45.6765 680.513 46.8833C683.933 41.7205 687.486 33.5405 689.699 25.7628L681.385 23.8854ZM671.394 45.9447C668.914 55.0634 664.354 63.6457 658.521 68.9426C660.13 69.9483 663.08 72.228 664.354 73.4349C670.322 67.3334 675.484 57.7453 678.435 47.4868L671.394 45.9447ZM636.126 22.0751V85.0344H643.904V22.0751H636.126ZM629.824 35.3509C629.69 41.3853 628.751 48.7607 626.605 52.9178L631.835 55.2645C634.182 50.3029 635.188 42.4581 635.121 36.0213L629.824 35.3509ZM642.563 35.485C644.575 39.5079 646.586 44.7378 647.122 48.0902L652.486 45.5424C651.883 42.2569 649.67 37.2282 647.525 33.3394L642.563 35.485ZM714.105 28.3107L714.44 36.893C716.183 36.6918 718.53 36.4236 719.938 36.3566C722.955 36.1554 728.789 35.9543 731.471 35.8872C729.459 40.0443 726.71 46.6152 724.363 51.9121C721.95 57.209 719.536 63.3775 717.323 66.6629C716.049 68.3391 715.178 68.9426 713.837 68.9426C712.227 68.9426 710.954 67.8028 710.954 65.5901C710.954 60.6955 716.586 55.3986 726.375 55.3986C740.187 55.3986 751.988 63.0422 760.235 70.3506L764.124 61.0308C757.083 56.2032 743.405 47.8891 727.783 47.8891C713.434 47.8891 703.176 56.1362 703.176 66.8641C703.176 73.7031 707.601 77.7261 713.434 77.7261C718.061 77.7261 721.212 75.9157 723.894 71.8257C726.643 67.6016 729.861 59.6227 732.543 53.4542C735.561 46.4811 739.181 37.8317 741.461 34.0099C741.997 33.1382 742.802 32.2666 743.674 31.2608L738.377 27.0367C737.17 27.5061 735.427 27.9084 733.75 28.0425C730.666 28.3107 723.559 28.5789 719.67 28.5789C718.262 28.5789 715.915 28.4448 714.105 28.3107ZM758.223 44.1343L749.44 43.1286C749.708 45.2071 749.641 47.8891 749.507 50.504C748.903 58.3488 746.892 70.887 730.331 77.9943L737.505 83.8276C753.53 75.5134 757.285 63.1763 758.223 44.1343ZM806.834 25.2264L797.984 24.4889C797.782 27.9084 796.911 31.9984 795.57 35.6191C792.754 42.9945 787.591 50.2358 779.009 58.1476L786.183 63.5116C788.463 60.5614 790.34 58.1476 792.351 56.1362C794.899 53.7224 799.123 51.5098 802.811 51.5098C805.627 51.5098 808.309 52.9178 808.309 57.209C808.376 60.8296 808.242 66.5288 807.974 69.6801H816.02C815.953 65.456 815.752 58.1476 815.752 54.527C815.752 48.2914 811.528 45.006 805.962 45.006C803.683 45.006 800.129 45.4753 798.319 46.2799C800.196 43.5979 802.141 39.7761 803.549 36.4907C805.426 31.6631 806.298 27.7072 806.834 25.2264ZM781.556 31.462V39.2397C785.244 39.575 790.139 39.7091 792.888 39.7091C801.068 39.7091 814.545 39.1056 823.999 37.7646L824.066 29.9869C814.344 31.7302 802.208 32.1995 793.357 32.1995C789.938 32.1995 784.976 31.9313 781.556 31.462ZM834.66 50.504L831.374 42.6592C828.826 43.9332 826.48 45.006 823.865 46.1458C819.842 48.0232 815.618 49.6324 809.449 52.8507C801.403 56.8737 791.815 62.3718 791.815 71.6916C791.815 80.341 799.66 82.9559 810.12 82.9559C816.489 82.9559 824.669 82.3525 829.162 81.749L829.43 73.0997C823.529 74.3065 816.02 75.0441 810.321 75.0441C803.817 75.0441 800.599 74.0383 800.599 70.3506C800.599 66.6629 803.884 63.7798 809.985 60.6285C816.288 57.4101 822.323 54.9963 826.681 53.3201C828.96 52.4484 832.581 51.1075 834.66 50.504Z" fill="white"/>
<rect width="801" height="110" transform="translate(0 122)" fill="#323C69"/>
<path d="M46.3814 152.237V201H33.1429V152.237H46.3814ZM58.6974 162.904V152.237H101.079V162.904H86.4124V201H73.3645V162.904H58.6974ZM114.921 155.071L115.792 164.257C123.503 162.581 137.248 161.106 143.484 160.435C138.991 163.855 133.56 171.498 133.56 181.086C133.56 195.636 146.836 203.213 160.849 204.084L164.001 194.899C152.669 194.362 142.344 190.339 142.344 179.343C142.344 171.364 148.445 162.648 156.491 160.502C160.112 159.698 165.878 159.631 169.499 159.631L169.432 150.981C164.671 151.182 157.363 151.652 150.39 152.188C138.12 153.261 127.057 154.2 121.491 154.736C120.218 154.87 117.536 155.004 114.921 155.071ZM159.911 166.201L154.949 168.28C157.028 171.23 158.436 173.912 160.179 177.533L165.208 175.32C163.934 172.638 161.52 168.548 159.911 166.201ZM167.353 163.117L162.526 165.33C164.671 168.28 166.213 170.828 168.024 174.448L173.052 172.035C171.644 169.42 169.097 165.464 167.353 163.117ZM194.24 161.307V167.207H212.813V161.307H194.24ZM194.24 172.303V178.002H212.813V172.303H194.24ZM194.24 183.5V189.468H212.813V183.5H194.24ZM223.272 175.924V182.696H248.55V175.924H223.272ZM197.525 150.311V156.345H208.119V150.311H197.525ZM218.244 147.495V154.065H243.119V147.495H218.244ZM218.244 188.73V195.703H249.824V188.73H218.244ZM230.782 169.889V206.833H238.426V169.889H230.782ZM201.481 164.391V185.713H206.845V164.391H201.481ZM240.973 147.495V148.433C240.705 158.155 240.303 161.776 239.565 162.648C239.096 163.251 238.56 163.385 237.688 163.385C236.816 163.385 235.073 163.318 232.928 163.117C233.933 164.86 234.604 167.542 234.738 169.554C237.42 169.688 240.035 169.621 241.51 169.42C243.253 169.152 244.527 168.615 245.6 167.207C247.075 165.464 247.678 160.837 248.014 150.042C248.081 149.171 248.148 147.495 248.148 147.495H240.973ZM221.931 170.358C220.993 175.722 219.182 181.22 216.568 184.774C218.177 185.512 221.127 186.987 222.468 187.925C225.083 183.969 227.295 177.801 228.502 171.632L221.931 170.358ZM195.916 144.008C194.106 151.987 190.552 159.832 185.993 164.793C187.602 165.866 190.485 168.28 191.692 169.554C196.52 163.855 200.677 154.803 203.091 145.55L195.916 144.008ZM191.29 161.307V179.075C191.29 186.651 190.888 196.642 186.328 203.615C187.87 204.285 190.753 206.096 191.96 207.169C196.855 199.592 197.727 187.657 197.727 179.075V161.307H191.29ZM210.667 161.307V199.19C210.667 199.994 210.332 200.262 209.527 200.262C208.723 200.33 206.041 200.33 203.426 200.195C204.365 202.006 205.437 205.09 205.706 206.967C209.796 206.967 212.545 206.833 214.623 205.693C216.635 204.487 217.238 202.475 217.238 199.324V161.307H210.667ZM226.29 149.707C225.619 156.949 224.211 162.648 216.165 165.933C217.774 167.14 219.585 169.755 220.389 171.431C230.38 167.006 232.659 159.496 233.464 149.707H226.29ZM206.242 150.311V151.518C205.437 154.669 203.761 159.631 202.286 162.715C203.694 163.452 205.907 164.793 207.181 165.732C209.259 162.38 211.874 157.083 213.349 152.859L208.79 149.975L207.784 150.311H206.242ZM283.617 154.401V161.91H311.174V177.332H319.019V154.401H283.617ZM280.264 174.113V181.69H324.115V174.113H280.264ZM294.814 144.075V167.475C294.814 180.215 293.138 192.954 276.778 201.536C278.856 202.81 282.008 205.559 283.483 207.236C300.983 197.513 302.86 182.159 302.86 167.542V144.075H294.814ZM306.481 178.337L299.038 180.148C302.659 192.619 308.827 202.14 319.153 207.169C320.36 204.956 322.908 201.738 324.785 200.128C315.465 196.307 309.364 188.127 306.481 178.337ZM264.843 150.311C269.067 152.188 274.364 155.272 276.845 157.619L281.471 151.048C278.789 148.769 273.358 146.02 269.201 144.41L264.843 150.311ZM260.954 168.548C265.245 170.358 270.609 173.309 273.157 175.588L277.784 168.883C275.035 166.671 269.469 163.989 265.312 162.514L260.954 168.548ZM262.899 201.067L269.872 206.163C273.627 199.525 277.582 191.747 280.868 184.64L274.699 179.611C271.012 187.456 266.251 195.971 262.899 201.067ZM358.444 147.83L347.649 147.763C348.185 150.378 348.454 153.596 348.454 156.814C348.454 162.581 347.85 180.148 347.85 189.132C347.85 200.598 354.89 205.425 365.886 205.425C381.174 205.425 390.695 196.508 395.053 190.071L388.951 182.628C384.057 189.937 377.084 196.307 366.021 196.307C360.791 196.307 356.768 194.094 356.768 187.322C356.768 179.008 357.237 164.056 357.572 156.814C357.706 154.132 358.042 150.646 358.444 147.83ZM448.022 146.824H438.903C439.171 148.098 439.306 150.177 439.306 151.383C439.306 155.205 439.238 163.721 439.238 170.157C439.238 176.661 439.976 188.663 439.976 192.686C439.976 196.575 437.562 197.58 434.009 197.58C429.382 197.58 427.035 196.038 427.035 193.49C427.035 191.144 429.65 189.333 434.344 189.333C445.809 189.333 455.531 195.837 461.901 201.872L466.729 194.362C461.164 189.669 450.168 182.427 435.417 182.427C425.158 182.427 418.923 187.188 418.923 193.96C418.923 201.067 424.555 205.157 435.283 205.157C444.066 205.157 448.424 200.732 448.424 194.966C448.424 189.669 447.351 177.533 447.351 170.157C447.351 164.525 447.419 155.004 447.553 151.585C447.62 149.841 447.821 148.165 448.022 146.824ZM420.196 153.06L420.331 160.77C424.756 161.307 432.534 161.91 436.825 161.91C446.882 161.91 457.543 161.106 464.382 160.167L464.449 152.523C454.66 154.065 445.876 154.535 436.758 154.535C432.668 154.535 424.957 153.864 420.196 153.06ZM419.794 167.542L419.928 175.454C424.354 175.991 431.93 176.326 435.886 176.326C448.625 176.326 455.934 175.924 465.187 174.851L465.254 166.939C457.007 168.012 448.357 168.816 435.953 168.816C432.399 168.816 424.219 168.347 419.794 167.542ZM531.681 148.433H522.63C522.831 149.707 523.099 152.859 523.099 154.602C523.099 158.558 523.099 162.447 523.099 165.933C522.965 170.56 522.831 175.387 522.495 177.935C522.294 179.276 521.691 179.477 520.417 179.477C519.076 179.477 516.26 179.142 514.181 178.673L514.047 186.048C516.327 186.45 521.758 187.054 524.105 187.054C527.524 187.054 529.267 186.182 530.005 182.628C530.676 179.209 530.877 171.968 531.011 166C531.145 162.581 531.145 158.759 531.279 154.2C531.346 152.456 531.48 149.506 531.681 148.433ZM505.264 150.445H495.81C496.145 152.791 496.346 155.071 496.346 157.887C496.346 161.91 496.279 182.293 496.413 188.059C496.681 199.659 498.827 203.347 516.126 203.347C522.563 203.347 530.743 202.743 535.235 202.274L535.57 193.088C530.608 194.027 522.093 194.831 515.522 194.831C505.465 194.831 504.929 193.356 504.727 186.718C504.593 181.22 504.862 163.519 504.862 157.418C504.862 154.535 504.996 152.657 505.264 150.445ZM482.869 165.598L483.741 174.113C485.551 173.845 489.708 173.242 491.787 172.973C499.565 172.102 525.647 169.286 536.107 168.95C537.85 168.95 541.403 168.816 542.61 168.883V160.703C540.599 160.837 537.984 161.039 536.174 161.173C523.233 161.977 498.022 164.458 491.25 165.062C487.831 165.464 484.747 165.598 482.869 165.598ZM593.501 151.249L583.98 147.428C582.773 150.244 581.499 152.456 580.694 154.2C577.074 160.636 563.329 187.992 558.434 201.402L567.888 204.621C568.894 201.067 571.173 193.558 572.984 189.669C575.33 184.238 579.152 179.544 583.712 179.544C586.125 179.544 587.399 180.952 587.6 183.299C587.802 186.048 587.802 191.479 588.003 195.1C588.338 199.927 591.758 204.42 599.2 204.42C609.526 204.42 615.694 196.776 619.248 185.243L611.939 179.343C610.062 187.657 606.441 195.234 600.608 195.234C598.395 195.234 596.585 194.161 596.317 191.546C595.982 188.73 596.116 183.366 595.982 180.416C595.713 174.784 592.696 171.632 587.667 171.632C585.12 171.632 582.505 172.236 580.024 173.711C583.309 167.744 588.003 159.161 591.355 154.401C592.093 153.261 592.763 152.121 593.501 151.249ZM660.148 148.098L650.225 147.025C650.292 152.054 649.554 157.753 648.28 163.788C646.403 172.236 641.374 189.937 633.395 200.665L642.179 204.151C649.152 192.82 654.583 173.711 656.795 164.257C657.466 160.837 658.338 156.68 658.941 153.663C659.343 151.987 659.746 149.841 660.148 148.098ZM683.28 154.334L675.234 157.753C680.062 163.721 684.822 175.789 686.565 183.299L695.081 179.343C693.002 172.906 687.37 160.167 683.28 154.334ZM632.993 161.843L633.797 170.895C635.809 170.56 639.296 170.09 641.24 169.822C644.928 169.353 656.46 167.878 660.483 167.878C664.64 167.878 666.987 168.682 666.987 174.046C666.987 180.617 666.115 188.797 664.238 192.552C663.165 194.764 661.489 195.435 659.209 195.435C657.466 195.435 653.644 194.764 651.029 194.027L652.437 202.877C654.784 203.414 657.935 203.816 660.55 203.816C665.579 203.816 669.267 202.341 671.546 197.648C674.362 191.881 675.301 181.019 675.301 173.107C675.301 163.385 670.272 160.234 663.232 160.234C658.203 160.234 645.531 161.709 640.167 161.843C637.686 161.91 635.407 161.977 632.993 161.843ZM732.025 183.768H740.741C739.668 174.515 754.352 173.309 754.352 163.519C754.352 154.602 747.245 150.042 737.523 150.042C730.349 150.042 724.448 153.328 720.157 158.29L725.655 163.318C728.941 159.899 732.293 158.021 736.383 158.021C741.68 158.021 744.898 160.301 744.898 164.391C744.898 170.895 730.617 173.242 732.025 183.768ZM736.45 201.67C739.803 201.67 742.35 199.19 742.35 195.703C742.35 192.217 739.803 189.803 736.45 189.803C733.031 189.803 730.483 192.217 730.483 195.703C730.483 199.19 732.963 201.67 736.45 201.67Z" fill="white"/>
</svg>
