<svg width="879" height="129" viewBox="0 0 879 129" fill="none" xmlns="http://www.w3.org/2000/svg">
<path d="M3 12L62.6281 127.483" stroke="#323C69" stroke-width="6"/>
<path d="M875.938 12L816.31 127.483" stroke="#323C69" stroke-width="6"/>
<path d="M90.8417 103.101H513.61" stroke="#FFD600" stroke-width="11.5827"/>
<path d="M223.257 33.6111V37.2906H255.949V33.6111H223.257ZM231.43 31.0637V34.6017C231.43 37.1845 230.581 40.1564 223.894 41.9254C224.779 42.7391 226.052 44.3312 226.548 45.3219C234.508 42.9868 235.64 38.635 235.64 34.7079V31.0637H231.43ZM243.389 31.0283V45.2511H247.599V31.0283H243.389ZM224.531 17.7962V30.4623H227.609V20.662H238.754V17.7962H224.531ZM237.409 17.7962V26.9596C237.409 27.2781 237.303 27.3488 236.985 27.3842C236.702 27.4196 235.817 27.3842 234.862 27.3842C235.251 28.1979 235.64 29.4362 235.711 30.2854C237.339 30.2854 238.542 30.2854 239.461 29.79C240.381 29.2947 240.558 28.4456 240.558 27.0304V17.7962H237.409ZM224.92 13.5506C225.734 14.8597 226.548 16.5933 226.76 17.7255L229.767 16.5933C229.484 15.4611 228.6 13.7629 227.751 12.5246L224.92 13.5506ZM234.119 22.2187C234.508 23.457 234.968 25.0845 235.145 26.1459L236.985 25.5444C236.843 24.5892 236.348 22.9971 235.923 21.7588L234.119 22.2187ZM237.551 12.4892C237.056 13.7629 236.171 15.5673 235.499 16.7348L238.259 17.5839C238.966 16.4872 239.78 14.9658 240.558 13.4091L237.551 12.4892ZM228.954 21.7588C228.635 23.5278 228.14 25.4029 227.432 26.8535C227.998 27.0658 228.954 27.5257 229.378 27.8088C230.015 26.3936 230.652 24.2 231.076 22.2541L228.954 21.7588ZM244.592 12.1354C243.566 15.4611 241.903 18.8576 240.028 21.1219C240.664 21.9357 241.761 23.7047 242.15 24.4477C244.415 21.6526 246.608 17.2301 247.988 13.1261L244.592 12.1354ZM244.698 15.3904L243.07 18.6807H255.842V15.3904H244.698ZM230.758 12.1354V19.3883H231.147V30.0377H233.907V19.3883H234.261V12.1354H230.758ZM250.748 16.841C249.686 22.5018 246.396 25.8629 240.806 27.6319C241.443 28.3748 242.398 30.0023 242.681 30.8161C249.191 28.4102 252.906 24.2708 254.463 17.1948L250.748 16.841ZM245.511 18.3269L242.363 19.0699C244.485 24.8015 248.236 28.9055 254.109 30.7807C254.569 29.8254 255.63 28.4456 256.373 27.7026C250.995 26.3228 247.28 22.8909 245.511 18.3269ZM276.363 40.1918V44.3666H296.529V40.1918H276.363ZM277.813 23.1032V27.1719H295.68V23.1032H277.813ZM284.571 12.4892V42.2084H288.923V12.4892H284.571ZM263.661 18.6807V22.5371H275.266V18.6807H263.661ZM268.721 30.7807V45.3926H272.931V25.7567L268.721 30.7807ZM268.721 12.1708V20.4851H272.931V12.1708H268.721ZM272.506 26.9596L270.171 29.0117C271.763 30.5684 274.735 33.8234 276.115 35.6631L278.698 32.2313C277.743 31.3468 273.745 27.8088 272.506 26.9596ZM273.709 18.6807V19.4591C271.834 24.6599 267.164 29.8608 262.352 32.4789C262.989 33.2927 263.98 35.3801 264.369 36.5122C269.641 33.1865 274.983 26.995 277.672 20.0959L275.301 18.5392L274.558 18.6807H273.709ZM322.781 17.9377L317.934 17.7962C317.581 21.5111 316.802 25.5798 315.776 28.9055C314.29 33.6818 312.946 35.9462 311.424 35.9462C310.08 35.9462 308.665 34.2125 308.665 30.6392C308.665 26.1813 312.769 20.0605 320.269 20.0605C326.39 20.0605 329.857 24.0231 329.857 29.5778C329.857 34.7786 326.319 37.9982 321.826 39.095C320.871 39.3073 319.88 39.4842 318.5 39.6611L321.189 43.8359C330.105 42.4561 334.669 37.1845 334.669 29.7547C334.669 22.0064 329.114 15.9211 320.376 15.9211C311.212 15.9211 304.101 22.9263 304.101 31.0637C304.101 37.0429 307.356 41.3947 311.318 41.3947C315.175 41.3947 318.217 37.0076 320.34 29.8608C321.578 25.686 322.286 21.5465 322.781 17.9377ZM344.116 27.0304V30.0023H375.038V27.0304H344.116ZM343.726 41.6423V44.8266H375.356V41.6423H343.726ZM352.111 33.9295H366.653V35.8754H352.111V33.9295ZM347.972 31.2052V38.5997H371.04V31.2052H347.972ZM350.944 38.9535C351.651 40.0856 352.43 41.607 352.677 42.6684L356.499 41.3947C356.18 40.3687 355.366 38.9181 354.588 37.8921L350.944 38.9535ZM364.317 37.6444C363.858 38.7766 362.938 40.4394 362.265 41.4654L365.627 42.6684C366.334 41.7131 367.148 40.3687 368.032 38.9181L364.317 37.6444ZM350.378 21.4757H368.139V23.0325H350.378V21.4757ZM350.378 17.3363H368.139V18.8576H350.378V17.3363ZM346.486 14.5413V25.8275H372.243V14.5413H346.486ZM353.81 12.1V24.8015H357.383V12.1H353.81ZM360.992 12.1V24.8015H364.636V12.1H360.992ZM397.256 33.3634V42.4561H401.431V33.3634H397.256ZM389.862 19.3176V22.148H409.109V19.3176H389.862ZM393.152 26.2874H405.747V28.1272H393.152V26.2874ZM389.26 23.5278V30.8868H409.887V23.5278H389.26ZM386.855 32.1959V45.3219H390.852V35.2739H408.118V45.2511H412.293V32.1959H386.855ZM389.013 36.9722V39.6257H409.958V36.9722H389.013ZM389.013 41.4654V44.5081H409.922V41.4654H389.013ZM397.221 12.1354V16.9117H401.608V12.1354H397.221ZM384.378 14.1521V21.9357H388.411V17.7255H410.524V21.9357H414.734V14.1521H384.378ZM424.711 18.9991L425.03 23.1386C426.551 23.2094 428.037 23.2447 429.452 23.2447C433.981 23.2801 439.075 22.3602 442.118 21.5111L442.012 17.407C438.58 18.5038 433.804 19.2468 429.417 19.2468C428.143 19.2468 426.232 19.176 424.711 18.9991ZM438.474 13.6921L433.592 13.2322C433.485 15.9565 432.707 19.2468 431.858 21.7942C430.478 25.6152 427.294 31.8067 424.11 35.6985L428.391 37.8921C431.398 33.7172 434.582 27.1365 436.21 22.0418C437.165 19.0345 438.014 15.5673 438.474 13.6921ZM446.788 24.7307H442.33C442.507 28.4456 442.896 34.9555 442.896 37.0783C442.896 39.0596 442.118 40.404 439.712 40.404C437.766 40.404 436.634 39.4842 436.634 38.1751C436.634 36.9368 437.979 36.0523 440.031 36.0523C445.373 36.0523 449.406 39.6964 451.954 42.0669L454.289 38.2459C451.352 35.5924 446.47 32.4789 440.278 32.4789C435.361 32.4789 432.459 35.1678 432.459 38.5997C432.459 42.4915 435.927 44.4728 440.314 44.4728C445.373 44.4728 447.142 41.89 447.142 38.5997C447.142 36.6184 446.824 31.3468 446.753 29.2593C446.718 27.7026 446.682 26.2167 446.788 24.7307ZM452.874 26.6058L455.386 22.8556C453.546 21.5465 449.194 19.176 446.647 18.0793L444.347 21.5465C446.788 22.6433 450.822 24.943 452.874 26.6058ZM477.25 12.1708V17.8316H481.602V12.1708H477.25ZM464.301 15.2489V22.8556H468.512V18.9638H490.235V22.8556H494.622V15.2489H464.301ZM467.45 21.7588V25.1906H491.756V21.7588H467.45ZM464.018 32.9742V36.6538H495.117V32.9742H464.018ZM468.016 27.3134V30.7453H491.049V27.3134H468.016ZM481.567 33.7172L477.746 34.4956C480.47 40.7932 484.999 44.1543 493.101 45.4634C493.631 44.3312 494.728 42.633 495.613 41.7485C488.254 40.9701 483.654 38.3874 481.567 33.7172ZM477.144 19.7421V29.5424C477.144 34.2833 475.588 39.1304 463.346 41.9254C464.266 42.8099 465.504 44.4374 465.964 45.3573C478.843 41.89 481.425 35.8046 481.425 29.5778V19.7421H477.144ZM523.527 12.1354V23.457H527.738V12.1354H523.527ZM516.381 13.7629V16.3456H535.132V13.7629H516.381ZM517.23 17.5486V19.9898H534.318V17.5486H517.23ZM515.496 21.1927V23.8462H535.84V21.1927H515.496ZM521.511 31.559H530.108V33.0804H521.511V31.559ZM521.511 35.4862H530.108V37.0076H521.511V35.4862ZM521.511 27.6672H530.108V29.1178H521.511V27.6672ZM517.69 25.0491V39.6257H534.106V25.0491H517.69ZM526.818 41.2532C528.905 42.5622 531.346 44.3312 532.691 45.3926L536.37 43.4113C534.778 42.2792 531.948 40.5809 529.648 39.2011L526.818 41.2532ZM521.652 39.0242C519.954 40.404 516.593 42.0669 513.763 42.8806C514.576 43.5883 515.744 44.7558 516.381 45.5342C519.247 44.6143 522.785 42.8806 524.943 41.2178L521.652 39.0242ZM508.102 12.1708C507.288 14.612 505.767 18.0439 504.528 20.1667L507.359 21.3342C508.703 19.3529 510.331 16.2041 511.781 13.4445L508.102 12.1708ZM512.1 16.3456C510.225 20.1313 507.005 25.2968 504.352 28.481L506.793 29.8608C509.517 26.8181 512.949 21.9003 515.532 17.9377L512.1 16.3456ZM502.618 20.4143C504.387 22.2187 506.474 24.7307 507.253 26.4643L509.552 23.2094C508.703 21.5465 506.545 19.2468 504.705 17.5839L502.618 20.4143ZM511.109 24.7307C512.383 27.1719 513.586 30.3915 513.975 32.4082L517.159 30.993C516.77 28.9763 515.425 25.8982 514.081 23.5278L511.109 24.7307ZM502.512 27.6672L502.795 31.3114C506.156 31.0637 510.508 30.7807 514.718 30.3915L514.682 26.9596C510.26 27.2427 505.696 27.4903 502.512 27.6672ZM511.958 33.5757C512.737 35.5924 513.409 38.2459 513.55 39.9441L516.699 38.9181C516.487 37.2198 515.744 34.6371 514.895 32.6558L511.958 33.5757ZM504.033 32.9389C503.75 35.9108 503.219 39.095 502.229 41.1824C503.042 41.5362 504.599 42.2084 505.307 42.6684C506.333 40.404 507.076 36.9014 507.43 33.5049L504.033 32.9389ZM507.925 29.5424V45.3573H511.569V29.5424H507.925ZM558.943 13.7983L554.273 13.4091C554.167 15.2135 553.707 17.3717 552.999 19.2822C551.513 23.174 548.789 26.995 544.26 31.1699L548.046 34.0003C549.249 32.4435 550.239 31.1699 551.301 30.1085C552.645 28.8348 554.874 27.6672 556.82 27.6672C558.306 27.6672 559.721 28.4102 559.721 30.6745C559.757 32.5851 559.686 35.5924 559.544 37.2552H563.79C563.755 35.0263 563.648 31.1699 563.648 29.2593C563.648 25.969 561.419 24.2354 558.483 24.2354C557.28 24.2354 555.405 24.483 554.45 24.9076C555.44 23.4924 556.466 21.4757 557.209 19.7421C558.2 17.1948 558.66 15.1073 558.943 13.7983ZM545.605 17.0886V21.1927C547.551 21.3696 550.133 21.4404 551.584 21.4404C555.9 21.4404 563.012 21.1219 568 20.4143L568.036 16.3103C562.905 17.2301 556.502 17.4778 551.832 17.4778C550.027 17.4778 547.409 17.3363 545.605 17.0886ZM573.626 27.1365L571.892 22.9971C570.548 23.6693 569.309 24.2354 567.929 24.8368C565.807 25.8275 563.578 26.6766 560.323 28.3748C556.077 30.4976 551.018 33.3988 551.018 38.3166C551.018 42.8806 555.157 44.2605 560.677 44.2605C564.038 44.2605 568.354 43.9421 570.724 43.6236L570.866 39.0596C567.753 39.6964 563.79 40.0856 560.783 40.0856C557.351 40.0856 555.653 39.5549 555.653 37.609C555.653 35.6631 557.386 34.1418 560.606 32.4789C563.931 30.7807 567.116 29.507 569.415 28.6225C570.618 28.1626 572.529 27.455 573.626 27.1365ZM595.986 16.1687V19.9898H614.489V16.1687H595.986ZM594.783 29.7547V33.6111H615.763V29.7547H594.783ZM594.464 23.1032V26.9596H616.046V23.1032H594.464ZM603.239 12.2769V25.0845H607.272V12.2769H603.239ZM607.838 26.2874V40.8286C607.838 41.2885 607.697 41.4301 607.13 41.4301C606.6 41.4654 604.76 41.4654 603.168 41.3593C603.663 42.4915 604.194 44.1897 604.335 45.3573C606.918 45.3573 608.793 45.3219 610.102 44.685C611.482 44.0836 611.871 43.0222 611.871 40.8994V26.2874H607.838ZM596.729 35.6277C598.215 37.5383 599.842 40.1918 600.444 41.89L604.052 39.7672C603.345 38.069 601.576 35.557 600.09 33.7526L596.729 35.6277ZM582.435 30.0731L583.39 34.1772C586.539 33.2573 590.537 32.1251 594.252 30.993L593.721 27.1719C589.617 28.3041 585.336 29.4362 582.435 30.0731ZM583.001 18.8576V22.7494H593.934V18.8576H583.001ZM586.999 12.1708V40.6163C586.999 41.1116 586.858 41.2532 586.433 41.2532C586.009 41.2532 584.77 41.2532 583.497 41.1824C583.992 42.3499 584.487 44.0836 584.593 45.145C586.858 45.1804 588.414 45.0035 589.476 44.3666C590.573 43.6944 590.926 42.5976 590.926 40.6517V12.1708H586.999ZM623.582 22.7848L625.599 27.7734C629.314 26.1459 637.663 22.6433 642.9 22.6433C647.145 22.6433 649.445 25.1553 649.445 28.481C649.445 34.6725 641.909 37.4321 632.321 37.6444L634.408 42.3499C646.862 41.7131 654.504 36.583 654.504 28.5871C654.504 22.0418 649.445 18.3623 643.077 18.3623C637.876 18.3623 630.658 20.8743 627.969 21.7234C626.66 22.1126 624.891 22.5725 623.582 22.7848ZM126.426 74.4295L122.223 70.9911C121.29 71.2882 119.889 71.458 118.233 71.458C113.691 71.458 97.3902 71.458 94.7158 71.458C93.2301 71.458 90.9378 71.2458 89.7916 71.0335V77.019C90.6831 76.8916 92.9754 76.6794 94.7158 76.6794C97.942 76.6794 113.394 76.6794 117.129 76.6794C114.922 80.5848 110.168 86.358 104.564 90.2634L108.809 94.1688C115.389 89.3295 121.672 81.6885 124.983 76.2124C125.322 75.703 125.832 75.1087 126.426 74.4295ZM104.055 94.8055C106.814 97.6072 110.38 101.598 112.12 103.975L117.129 99.9844C115.092 97.5223 111.738 93.999 108.937 91.2822C105.71 88.1833 101.465 84.7449 99.1731 83.0044L94.7158 86.6551C97.2203 88.438 101.55 92.301 104.055 94.8055ZM155.377 76.0002L150.368 77.6557C151.387 79.8631 153.254 84.9996 153.806 87.0372L158.858 85.2967C158.263 83.344 156.183 77.7831 155.377 76.0002ZM171.041 79.0566L165.098 77.1463C164.631 82.495 162.551 88.1409 159.664 91.7067C156.183 96.1215 150.24 99.3477 145.613 100.621L150.071 105.163C155.037 103.253 160.301 99.7297 164.249 94.5933C167.136 90.9001 168.961 86.4853 170.065 82.1979C170.319 81.3489 170.574 80.4574 171.041 79.0566ZM145.528 78.2076L140.434 80.0754C141.453 81.9007 143.618 87.589 144.297 89.8389L149.476 87.9286C148.67 85.5514 146.59 80.3725 145.528 78.2076ZM188.403 70.6939L189.761 75.6181C193.455 75.5332 199.695 75.3634 204.534 74.6842C207.803 74.2173 211.199 73.6654 213.831 72.9862C214.51 72.8164 215.656 72.5193 217.099 72.1372L213.576 67.4677C211.453 68.4865 207.166 69.4204 202.878 70.0572C198.209 70.7364 191.672 70.7788 188.403 70.6939ZM190.228 99.9844L195.662 103.635C203.855 98.7109 206.656 91.452 206.656 82.8771C206.656 82.8771 206.656 77.2312 206.656 73.5805L201.096 74.2173C201.096 80.2452 201.096 83.0044 201.096 83.0044C201.096 90.9426 197.742 96.546 190.228 99.9844ZM185.219 80.8819V86.358C186.323 86.2731 187.894 86.1882 189.21 86.1882C191.714 86.1882 214.807 86.1882 217.481 86.1882C218.67 86.1882 220.071 86.2731 221.217 86.358V80.8819C220.283 80.9668 218.288 81.0942 217.396 81.0942C214.552 81.0942 191.841 81.0942 189.167 81.0942C187.809 81.0942 186.408 80.9668 185.219 80.8819ZM240.15 68.911L236.117 73.1985C239.216 75.321 244.564 79.948 246.772 82.3252L251.102 77.9104C248.597 75.321 243.079 70.9062 240.15 68.911ZM234.801 97.1827L238.409 102.786C244.352 101.767 249.828 99.4326 254.158 96.8431C260.992 92.7255 266.638 86.8674 269.822 81.0942L266.553 75.1512C263.837 80.8819 258.318 87.3343 251.059 91.6642C246.942 94.0839 241.465 96.2488 234.801 97.1827ZM310.956 66.4065L307.56 67.8073C308.706 69.4204 310.022 71.9674 310.914 73.7079L314.31 72.2221C313.503 70.6515 312.017 67.9771 310.956 66.4065ZM315.965 64.4962L312.612 65.8971C313.758 67.4677 315.116 69.9723 316.008 71.7127L319.404 70.2694C318.64 68.7837 317.069 66.1093 315.965 64.4962ZM314.734 75.7455L310.404 73.0711C309.428 73.4107 308.027 73.5805 306.711 73.5805C305.353 73.5805 296.481 73.5805 294.57 73.5805L292.618 78.4198H306.923C306.244 81.5611 303.782 86.6551 300.895 89.9662C297.202 94.1688 292.49 97.8619 283.788 100.494L288.797 104.951C296.778 101.81 301.914 97.9044 305.947 92.9802C309.768 88.2682 312.187 82.5799 313.333 78.8019C313.673 77.7406 314.267 76.5945 314.734 75.7455ZM300.895 69.0384L294.698 67.0008C294.316 68.4441 293.424 70.4392 292.788 71.458C290.665 75.1087 286.972 80.5848 279.501 85.1269L284.298 88.6503C290.368 84.4902 295.462 78.5047 298.306 73.3683C298.815 72.4768 299.919 70.5241 300.895 69.0384ZM357.609 82.4526V71.3307C357.609 69.6327 357.778 68.2743 357.863 67.4253H351.793C351.963 68.2318 352.048 69.6327 352.048 71.3307V82.6224C352.048 93.0651 348.482 96.7582 340.247 99.6024L344.789 103.89C355.062 99.3477 357.609 92.9377 357.609 82.4526ZM342.242 67.7649H336.214C336.384 69.0808 336.469 70.3968 336.469 71.5854V86.7825C336.469 88.6927 336.341 90.4332 336.256 91.2397H342.199C342.114 90.4332 341.987 88.6927 341.987 86.7825V71.6278C341.987 69.9298 342.157 68.5714 342.242 67.7649ZM328.276 75.4059V81.1791C329.252 81.1366 330.738 81.0517 332.86 81.0517H360.75C362.957 81.0517 364.486 81.0517 365.419 81.1791V75.5332C364.231 75.703 362.957 75.8304 360.708 75.8304H332.86C330.78 75.8304 329.04 75.5332 328.276 75.4059ZM377.688 81.5187V88.2258C379.301 88.0984 382.145 87.9711 384.522 87.9711C389.531 87.9711 403.497 87.9711 407.36 87.9711C409.143 87.9711 411.308 88.1833 412.327 88.2258V81.5187C411.181 81.6036 409.313 81.8158 407.318 81.8158C403.54 81.8158 389.531 81.8158 384.522 81.8158C382.315 81.8158 379.258 81.646 377.688 81.5187ZM453.121 66.7885L449.768 68.1894C450.914 69.8449 452.187 72.3495 453.079 74.0899L456.475 72.6042C455.668 71.0335 454.182 68.3592 453.121 66.7885ZM458.13 64.8783L454.777 66.2791C455.923 67.8922 457.324 70.3543 458.173 72.1372L461.569 70.6515C460.805 69.1657 459.234 66.4914 458.13 64.8783ZM434.783 68.6563H428.543C428.712 69.9298 428.84 72.0948 428.84 73.0711C428.84 75.703 428.84 91.2822 428.84 96.1639C428.84 99.8571 431.005 101.852 434.655 102.531C436.481 102.829 439.07 102.998 441.829 102.998C446.499 102.998 452.909 102.744 456.942 102.149V95.9517C453.418 96.8856 446.584 97.395 442.127 97.395C440.259 97.395 438.518 97.3525 437.245 97.1403C435.335 96.8007 434.486 96.3337 434.486 94.4659C434.486 91.2822 434.486 75.6606 434.486 73.0711C434.486 71.8401 434.613 69.9298 434.783 68.6563ZM431.981 81.6885L432.024 87.2494C437.797 85.891 446.117 83.3865 451.126 81.4762C452.527 80.9244 454.437 80.1178 456.05 79.4386L453.8 74.0899C452.102 75.0663 450.659 75.7455 449.173 76.3822C444.716 78.2076 437.457 80.4999 431.981 81.6885ZM505.122 72.4344L501.684 69.8449C500.793 70.1421 499.137 70.3543 497.269 70.3543C495.401 70.3543 484.534 70.3543 482.284 70.3543C481.053 70.3543 478.421 70.227 477.275 70.0572V76.1275C478.209 76.0426 480.544 75.8304 482.284 75.8304C484.11 75.8304 494.934 75.8304 496.717 75.8304C495.741 78.8443 493.152 83.0469 490.35 86.2306C486.36 90.6454 479.822 95.8243 472.945 98.3713L477.36 102.956C483.94 99.8571 490.35 94.5933 495.104 89.1172C498.755 84.8722 501.896 79.099 503.637 75.0663C504.019 74.1748 504.783 72.9013 505.122 72.4344ZM495.656 85.5939L491.666 89.5417C496.208 93.6594 500.835 98.7109 503.976 103.083L508.816 98.8807C506.056 95.4847 500.028 89.1597 495.656 85.5939ZM534.925 72.7983L530.255 72.4091C530.148 74.2135 529.689 76.3717 528.981 78.2822C527.495 82.174 524.771 85.995 520.242 90.1699L524.028 93.0003C525.231 91.4435 526.221 90.1699 527.283 89.1085C528.627 87.8348 530.856 86.6672 532.802 86.6672C534.288 86.6672 535.703 87.4102 535.703 89.6745C535.738 91.5851 535.668 94.5924 535.526 96.2552H539.772C539.736 94.0263 539.63 90.1699 539.63 88.2593C539.63 84.969 537.401 83.2354 534.465 83.2354C533.262 83.2354 531.387 83.483 530.431 83.9076C531.422 82.4924 532.448 80.4757 533.191 78.7421C534.182 76.1948 534.642 74.1073 534.925 72.7983ZM521.586 76.0886V80.1927C523.532 80.3696 526.115 80.4404 527.566 80.4404C531.882 80.4404 538.993 80.1219 543.982 79.4143L544.017 75.3103C538.887 76.2301 532.484 76.4778 527.813 76.4778C526.009 76.4778 523.391 76.3363 521.586 76.0886ZM549.607 86.1365L547.874 81.9971C546.529 82.6693 545.291 83.2354 543.911 83.8368C541.788 84.8275 539.56 85.6766 536.305 87.3748C532.059 89.4976 527 92.3988 527 97.3166C527 101.881 531.139 103.26 536.658 103.26C540.019 103.26 544.336 102.942 546.706 102.624L546.848 98.0596C543.734 98.6964 539.772 99.0856 536.765 99.0856C533.333 99.0856 531.634 98.5549 531.634 96.609C531.634 94.6631 533.368 93.1418 536.588 91.4789C539.913 89.7807 543.098 88.507 545.397 87.6225C546.6 87.1626 548.511 86.455 549.607 86.1365ZM564.609 75.841V80.5111C567.51 80.7234 570.588 80.9003 574.303 80.9003C577.664 80.9003 582.051 80.688 584.528 80.4757V75.7702C581.803 76.0532 577.735 76.2655 574.267 76.2655C570.552 76.2655 567.227 76.124 564.609 75.841ZM567.616 90.8067L562.946 90.4175C562.663 91.7266 562.238 93.4602 562.238 95.5122C562.238 100.359 566.307 103.084 574.409 103.084C579.397 103.084 583.643 102.624 586.721 101.881L586.686 96.9274C583.537 97.7766 579.044 98.3073 574.267 98.3073C569.137 98.3073 567.014 96.6798 567.014 94.4155C567.014 93.2125 567.262 92.0804 567.616 90.8067ZM585.447 72.1614L582.617 73.329C583.572 74.6734 584.669 76.7962 585.412 78.2468L588.242 77.0439C587.57 75.7348 586.332 73.4705 585.447 72.1614ZM589.622 70.5693L586.827 71.7369C587.782 73.0813 588.95 75.1334 589.658 76.6193L592.488 75.381C591.851 74.1427 590.542 71.9138 589.622 70.5693ZM616.193 99.0502V102.801H628.399V99.0502H616.193ZM614.211 89.2854V104.322H618.103V93.0356H626.347V104.18H630.451V89.2854H614.211ZM612.973 72.7983V76.6901H629.177V72.7983H612.973ZM627.196 72.7983V73.3997C627.054 80.0866 626.842 82.6339 626.311 83.2354C626.028 83.5538 625.674 83.6246 625.179 83.6246C624.507 83.6246 623.056 83.6246 621.57 83.483C622.243 84.5444 622.703 86.1719 622.809 87.4102C624.542 87.4102 626.17 87.4102 627.125 87.2687C628.257 87.1272 629.036 86.8441 629.779 85.9243C630.663 84.7921 630.911 81.714 631.088 74.3196C631.123 73.8243 631.158 72.7983 631.158 72.7983H627.196ZM618.032 74.3904C617.643 78.9544 616.829 82.8462 611.522 85.1459C612.407 85.8535 613.539 87.3395 614.034 88.3301C620.297 85.3582 621.677 80.3696 622.207 74.3904H618.032ZM604.057 71.1708C603.244 73.6474 601.722 77.0439 600.449 79.1313L603.279 80.3696C604.659 78.3883 606.286 75.2395 607.737 72.5506L604.057 71.1708ZM608.126 75.3456C606.286 79.1667 603.031 84.3675 600.413 87.5871L602.854 88.9669C605.543 85.8889 609.01 80.9711 611.558 76.9024L608.126 75.3456ZM598.609 79.5559C600.413 81.2541 602.571 83.7307 603.42 85.4289L605.614 82.1386C604.694 80.5111 602.501 78.2822 600.625 76.6547L598.609 79.5559ZM607.065 83.8015C608.409 86.2427 609.612 89.4623 610.001 91.5143L613.008 90.1699C612.584 88.1178 611.239 85.0044 609.86 82.6339L607.065 83.8015ZM598.573 86.738L598.927 90.4529C602.359 90.2052 606.888 89.9222 611.239 89.6038L611.275 86.2427C606.605 86.455 601.828 86.6319 598.573 86.738ZM607.843 92.6111C608.621 94.6985 609.541 97.4228 609.895 99.1918L613.008 98.095C612.619 96.326 611.699 93.6725 610.815 91.6558L607.843 92.6111ZM600.095 91.9389C599.812 94.9462 599.246 98.095 598.22 100.182C599.104 100.536 600.696 101.279 601.439 101.739C602.465 99.4748 603.244 95.9368 603.597 92.5403L600.095 91.9389ZM604.057 88.6131V104.393H607.772V88.6131H604.057ZM655.217 75.381C658.083 79.9804 663.885 84.9336 669.546 87.7994C670.324 86.4903 671.279 85.0398 672.376 83.9076C666.574 81.6787 660.948 77.0085 657.304 71.0293H652.705C650.264 75.7348 644.744 81.3956 638.447 84.4029C639.367 85.2874 640.569 86.8795 641.1 87.9409C647.044 84.7921 652.457 79.9097 655.217 75.381ZM659.144 84.0845V104.357H663.566V84.0845H659.144ZM646.938 84.2614V88.5424C646.938 92.6465 646.301 97.635 640.074 101.35C641.206 102.022 642.869 103.437 643.612 104.357C650.582 100.006 651.29 93.6725 651.29 88.6485V84.2614H646.938ZM690.774 73.1167L685.077 73.0813C685.36 74.4611 685.502 76.1594 685.502 77.8576C685.502 80.9003 685.184 90.1699 685.184 94.9108C685.184 100.961 688.898 103.508 694.701 103.508C702.767 103.508 707.791 98.8026 710.091 95.4061L706.872 91.4789C704.289 95.3353 700.609 98.6964 694.772 98.6964C692.012 98.6964 689.889 97.5289 689.889 93.9555C689.889 89.5684 690.137 81.6787 690.314 77.8576C690.384 76.4424 690.561 74.6027 690.774 73.1167ZM738.749 72.586H733.937C734.079 73.2582 734.15 74.355 734.15 74.9918C734.15 77.0085 734.114 81.5018 734.114 84.8982C734.114 88.3301 734.503 94.6631 734.503 96.7859C734.503 98.838 733.23 99.3687 731.355 99.3687C728.913 99.3687 727.675 98.5549 727.675 97.2105C727.675 95.9722 729.055 95.0169 731.531 95.0169C737.581 95.0169 742.711 98.4488 746.073 101.633L748.62 97.6704C745.683 95.1938 739.881 91.3728 732.097 91.3728C726.684 91.3728 723.394 93.8848 723.394 97.4581C723.394 101.208 726.366 103.367 732.027 103.367C736.662 103.367 738.961 101.032 738.961 97.9888C738.961 95.1938 738.395 88.79 738.395 84.8982C738.395 81.9263 738.431 76.9024 738.501 75.098C738.537 74.1781 738.643 73.2936 738.749 72.586ZM724.066 75.8763L724.137 79.945C726.472 80.2281 730.576 80.5465 732.84 80.5465C738.147 80.5465 743.773 80.1219 747.382 79.6266L747.417 75.5933C742.252 76.407 737.617 76.6547 732.805 76.6547C730.647 76.6547 726.578 76.3009 724.066 75.8763ZM723.854 83.5184L723.925 87.6933C726.26 87.9763 730.258 88.1532 732.345 88.1532C739.067 88.1532 742.924 87.9409 747.806 87.3748L747.842 83.2C743.49 83.7661 738.926 84.1906 732.381 84.1906C730.505 84.1906 726.189 83.943 723.854 83.5184ZM780.71 72.6568H775.579C775.65 73.1167 775.792 74.3196 775.898 75.7348C776.039 77.61 776.039 84.4029 776.039 86.5965L780.462 88.0824C780.427 85.252 780.356 78.0345 780.462 75.6994C780.497 75.1334 780.603 73.2582 780.71 72.6568ZM760.685 77.0793L760.791 81.3249C766.133 81.0418 773.174 80.7588 779.613 80.7588C784.814 80.7588 788.422 80.8649 790.616 80.9711L790.687 76.7962C788.705 76.7608 783.328 76.7962 779.719 76.7962C775.296 76.7962 765.956 77.0793 760.685 77.0793ZM779.86 87.5517L776.535 86.6319C777.667 90.8421 776.216 92.2573 774.553 92.2573C773.103 92.2573 771.794 91.2313 771.794 89.6392C771.794 87.764 773.174 86.8088 774.553 86.8088C776.11 86.8088 777.348 87.9055 777.348 90.2052C777.348 96.3967 772.643 98.7672 766.628 100.076L770.379 103.827C779.011 101.385 781.736 95.5476 781.736 90.9128C781.736 86.5257 779.294 83.0939 774.624 83.0939C770.803 83.0939 767.548 85.712 767.548 89.7099C767.548 94.0263 770.945 96.1845 773.669 96.1845C777.738 96.1845 779.86 93.3187 779.86 87.5517Z" fill="#323C69"/>
</svg>
