<svg width="875" height="135" viewBox="0 0 875 135" fill="none" xmlns="http://www.w3.org/2000/svg">
<path d="M149.819 52.4609H442.517" stroke="#FFD600" stroke-width="11.7924"/>
<path d="M488.639 51.8711H731.075" stroke="#FFD600" stroke-width="11.7924"/>
<path d="M292.174 23.1228V27.2619H323.447V23.1228H292.174ZM303.494 33.0284V37.1321H317.645V33.0284H303.494ZM316.124 33.0284V33.7359C315.7 43.6769 315.134 48.1344 314.072 49.0896C313.612 49.5141 313.152 49.5849 312.374 49.5849C311.348 49.5849 308.907 49.5849 306.431 49.3372C307.28 50.5047 307.881 52.3089 307.952 53.5117C310.287 53.6178 312.728 53.6532 314.178 53.4763C315.77 53.3348 316.902 52.9457 317.928 51.7429C319.343 50.1509 319.945 45.8349 320.475 34.9033C320.546 34.3727 320.582 33.0284 320.582 33.0284H316.124ZM300.487 26.6251C300.204 35.3633 300.134 45.1981 290.794 50.3985C291.926 51.2476 293.2 52.698 293.872 53.8655C303.954 47.7806 304.627 36.6722 304.945 26.6251H300.487ZM350.864 21.1417V53.8655H355.145V21.1417H350.864ZM344.85 22.6275C344.037 26.9789 342.551 31.4718 340.64 34.2666C341.666 34.7265 343.506 35.6816 344.355 36.3184C346.23 33.2052 347.928 28.2525 348.919 23.4765L344.85 22.6275ZM346.195 27.5449L345.169 31.684H362.574V27.5449H346.195ZM341.277 37.8043V41.9788H364.272V37.8043H341.277ZM338.659 20.8233C336.89 25.8822 333.883 30.9057 330.735 34.1251C331.442 35.151 332.61 37.4859 332.999 38.5118C336.784 34.4434 340.393 28.0756 342.657 22.0615L338.659 20.8233ZM335.157 30.5873V53.8655H339.19V26.5897V26.5543L335.157 30.5873ZM382.456 26.7666C384.614 29.4553 386.878 33.1699 387.798 35.6463L391.937 33.4175C390.911 30.9411 388.647 27.4742 386.348 24.8916L382.456 26.7666ZM370.959 45.375L372.444 49.9032C376.442 48.2051 381.678 46.0118 386.383 43.8891L385.392 39.7146C380.227 41.8726 374.602 44.1368 370.959 45.375ZM391.69 42.191C394.944 45.7995 399.26 50.7169 401.135 53.8655L404.744 50.3631C402.727 47.2853 398.199 42.5802 394.98 39.2194L391.69 42.191ZM396.501 22.6982C395.192 37.309 391.548 45.941 380.263 50.1863C381.289 51.1061 383.058 53.0164 383.659 53.9716C395.263 48.7358 399.543 39.1486 401.206 23.1228L396.501 22.6982ZM374.992 22.8398L375.805 45.8349L380.227 45.658L379.449 22.6629L374.992 22.8398ZM426.713 31.2949V35.5755H441.43V31.2949H426.713ZM411.572 47.8867V52.1674H443.906V47.8867H411.572ZM424.307 21.1063V50.257H428.871V21.1063H424.307ZM470.934 26.4836L466.088 26.3421C465.734 30.0567 464.956 34.1251 463.93 37.4505C462.444 42.2264 461.1 44.4905 459.578 44.4905C458.234 44.4905 456.819 42.7571 456.819 39.184C456.819 34.7265 460.923 28.6062 468.423 28.6062C474.543 28.6062 478.01 32.5685 478.01 38.1227C478.01 43.3231 474.472 46.5424 469.979 47.6391C469.024 47.8514 468.033 48.0283 466.654 48.2051L469.342 52.3796C478.257 50.9999 482.821 45.7287 482.821 38.2996C482.821 30.552 477.267 24.4671 468.529 24.4671C459.366 24.4671 452.255 31.4718 452.255 39.6085C452.255 45.5872 455.51 49.9386 459.472 49.9386C463.328 49.9386 466.371 45.5519 468.493 38.4057C469.732 34.2312 470.439 30.0921 470.934 26.4836ZM500.375 19.8423V50.7169H491.993V19.8423H500.375ZM509.022 26.5962V19.8423H535.856V26.5962H526.569V50.7169H518.308V26.5962H509.022ZM562.789 15.7785V46.3019C562.789 52.3301 564.36 54.0282 569.709 54.0282C570.855 54.0282 575.78 54.0282 577.011 54.0282C582.02 54.0282 583.379 51.3113 584.015 43.967C582.572 43.6698 580.492 42.7358 579.261 41.8443C578.964 47.8301 578.624 49.316 576.544 49.316C575.525 49.316 571.28 49.316 570.346 49.316C568.266 49.316 567.968 48.8915 567.968 46.3443V15.7785H562.789ZM578.709 22.8681C574.931 26.0944 569.284 29.9152 564.02 32.4199C564.742 33.5236 565.718 35.3066 566.058 36.4953C571.577 33.9057 577.648 30.7218 582.445 27.3256L578.709 22.8681ZM554.596 15.2266C551.964 21.6369 547.506 27.9199 542.921 31.868C543.855 33.1416 545.341 35.9434 545.851 37.2595C551.2 32.335 556.421 24.4812 559.605 16.9247L554.596 15.2266ZM550.096 27.1982V54.4527H555.19V22.2737L555.105 22.1888L550.096 27.1982ZM611.143 16.67L605.539 16.203C605.411 18.3681 604.86 20.9577 604.011 23.2501C602.228 27.9199 598.959 32.5048 593.525 37.5142L598.067 40.9104C599.511 39.0425 600.699 37.5142 601.973 36.2406C603.586 34.7123 606.261 33.3114 608.595 33.3114C610.378 33.3114 612.077 34.2029 612.077 36.9198C612.119 39.2123 612.034 42.8207 611.864 44.816H616.959C616.916 42.1415 616.789 37.5142 616.789 35.2217C616.789 31.2737 614.114 29.1935 610.591 29.1935C609.147 29.1935 606.897 29.4907 605.751 30.0001C606.94 28.302 608.171 25.8822 609.062 23.802C610.251 20.7454 610.803 18.2407 611.143 16.67ZM595.138 20.6181V25.5426C597.473 25.7548 600.572 25.8397 602.312 25.8397C607.492 25.8397 616.025 25.4577 622.01 24.6086L622.053 19.6841C615.897 20.7879 608.213 21.085 602.61 21.085C600.445 21.085 597.303 20.9152 595.138 20.6181ZM628.76 32.6746L626.68 27.7076C625.067 28.5142 623.581 29.1935 621.926 29.9152C619.378 31.1038 616.704 32.1227 612.798 34.1604C607.704 36.7076 601.633 40.1887 601.633 46.0896C601.633 51.566 606.6 53.2216 613.223 53.2216C617.256 53.2216 622.435 52.8395 625.279 52.4575L625.449 46.9811C621.713 47.7452 616.959 48.2122 613.35 48.2122C609.232 48.2122 607.194 47.5754 607.194 45.2405C607.194 42.9057 609.275 41.0802 613.138 39.0849C617.128 37.0472 620.949 35.5189 623.709 34.4576C625.152 33.9057 627.444 33.0567 628.76 32.6746ZM652.449 34.8821L647.652 36.5378C653.171 46.8962 662.171 52.5848 676.477 54.6226C677.199 53.1792 678.6 50.8443 679.746 49.6556C666.076 48.1273 656.822 43.2453 652.449 34.8821ZM643.491 30.2548V35.2217H670.704V30.2548H643.491ZM641.411 20.2784V25.3303H677.793V20.2784H641.411ZM656.906 14.6747V32.5048H662.213V14.6747H656.906ZM669.048 30.2548V31.1888C665.185 42.7358 653.935 47.7452 639.671 49.6132C640.647 50.7594 641.963 53.1792 642.43 54.5376C657.161 52.0754 669.515 45.8773 674.609 32.1227L671.043 30.085L670.152 30.2548H669.048ZM702.331 26.3067V30.2972H725.764V26.3067H702.331ZM701.439 32.2501V36.368H727.08V32.2501H701.439ZM706.958 38.0661V41.7594H721.307V38.0661H706.958ZM703.35 21.7218C703.986 23.335 704.75 25.5426 705.048 26.8586L709.123 25.585C708.741 24.3114 707.892 22.1888 707.213 20.6605L703.35 21.7218ZM710.736 20.9577C711.161 22.6982 711.543 24.9907 711.67 26.3492L715.873 25.4577C715.661 24.1416 715.194 21.9341 714.727 20.2784L710.736 20.9577ZM723.005 14.887C717.698 15.9907 708.996 16.67 701.482 16.8822C701.949 17.9011 702.5 19.5568 702.585 20.6605C710.227 20.5756 719.397 19.9388 725.849 18.6228L723.005 14.887ZM711.161 40.9104L707.085 42.0991C710.651 48.6367 716.637 52.8395 725.085 54.6226C725.722 53.349 727.038 51.4386 728.057 50.4198C720.118 49.1886 714.048 45.8773 711.161 40.9104ZM720.543 19.4718C719.779 21.6794 718.25 24.736 716.977 26.7312L720.5 28.0048C721.901 26.1794 723.684 23.4199 725.255 20.8303L720.543 19.4718ZM720.288 38.0661V38.7453C718.335 45.8349 712.859 49.316 705.26 50.8443C706.151 51.6933 707.51 53.5612 708.019 54.6226C716.085 52.5848 722.283 48.1698 724.788 39.0425L722.029 37.9387L721.222 38.0661H720.288ZM707.425 28.8114C706.873 36.2406 706.151 45.6651 697.788 50.8018C698.977 51.6509 700.378 53.2641 701.057 54.4527C710.269 48.4245 711.628 37.8538 712.307 28.8114H707.425ZM687.472 37.3868L688.194 42.3538C692.057 41.25 696.854 39.8915 701.354 38.533L700.717 33.9482C695.878 35.2642 690.868 36.6227 687.472 37.3868ZM687.982 22.7407V27.4105H700.972V22.7407H687.982ZM692.482 14.7172V49.1462C692.482 49.7405 692.269 49.8679 691.76 49.8679C691.251 49.9103 689.765 49.9103 688.236 49.8254C688.831 51.2263 689.425 53.3065 689.552 54.5801C692.312 54.5801 694.137 54.4103 695.411 53.6037C696.727 52.8395 697.151 51.5235 697.151 49.1462V14.7172H692.482ZM747.55 22.6629L741.854 22.6275C742.137 24.0072 742.278 25.7053 742.278 27.4034C742.278 30.4458 741.96 39.7146 741.96 44.4552C741.96 50.5047 745.675 53.0518 751.477 53.0518C759.542 53.0518 764.566 48.3467 766.866 44.9504L763.646 41.0236C761.064 44.8797 757.384 48.2405 751.547 48.2405C748.788 48.2405 746.665 47.0731 746.665 43.5C746.665 39.1132 746.913 31.2241 747.09 27.4034C747.161 25.9883 747.337 24.1487 747.55 22.6629ZM791.134 22.486L785.722 22.0615C785.828 22.9105 785.792 24.361 785.615 25.6699C785.368 27.7572 784.554 31.6487 783.67 34.9741C782.325 39.9269 779.637 47.3207 777.549 50.8938L782.467 52.5565C784.413 48.3467 786.783 41.1297 788.056 36.1769C789.012 32.5685 789.896 28.2525 790.391 25.8468C790.568 25.0685 790.887 23.4765 791.134 22.486ZM782.113 27.7925C780.663 27.7925 779.495 27.7218 777.656 27.5095L777.797 31.9317C779.035 32.0024 780.344 32.0732 782.078 32.0732C786.075 32.0732 791.63 31.4718 796.016 30.4458V26.0237C791.417 27.1204 786.429 27.7925 782.113 27.7925ZM793.222 33.2052V37.3444C795.45 37.0614 797.644 36.9552 800.085 36.9552C802.207 36.9552 804.365 37.2029 806.17 37.4151L806.24 33.1699C804.188 32.9576 802.066 32.8515 800.049 32.8515C797.75 32.8515 795.203 32.993 793.222 33.2052ZM795.132 42.0849L790.922 41.6958C790.639 43.0755 790.321 44.7736 790.321 46.4363C790.321 50.0094 793.505 52.0259 799.483 52.0259C802.313 52.0259 804.684 51.8136 806.665 51.5306L806.842 47.0377C804.33 47.4976 801.889 47.7452 799.519 47.7452C795.698 47.7452 794.672 46.5778 794.672 45.0212C794.672 44.2429 794.884 43.1108 795.132 42.0849Z" fill="#323C69"/>
<path d="M176.984 6.11526V55H163.712V18.3364H163.426L152.732 24.7335V13.4671L164.762 6.11526H176.984ZM209.469 55.6683C206.621 55.6683 203.916 55.2228 201.354 54.3317C198.808 53.4246 196.548 52.0004 194.575 50.059C192.602 48.1176 191.05 45.5875 189.92 42.4685C188.806 39.3496 188.257 35.5702 188.273 31.1305C188.289 27.1682 188.798 23.6036 189.801 20.437C190.819 17.2703 192.26 14.573 194.121 12.3452C195.999 10.1174 198.243 8.41469 200.853 7.23713C203.462 6.04365 206.366 5.44691 209.565 5.44691C213.161 5.44691 216.328 6.13913 219.065 7.52356C221.802 8.90799 223.982 10.7619 225.605 13.0852C227.244 15.3925 228.199 17.9386 228.47 20.7234H215.389C215.087 19.339 214.387 18.3285 213.289 17.692C212.207 17.0395 210.965 16.7133 209.565 16.7133C206.78 16.7133 204.735 17.9227 203.431 20.3415C202.142 22.7603 201.481 25.9429 201.449 29.8893H201.736C202.356 28.3935 203.295 27.1125 204.552 26.0463C205.809 24.9801 207.273 24.1606 208.944 23.5877C210.615 23.0149 212.382 22.7284 214.243 22.7284C217.203 22.7284 219.789 23.3968 222.001 24.7335C224.229 26.0702 225.963 27.9002 227.205 30.2235C228.446 32.5468 229.058 35.2042 229.042 38.1959C229.058 41.6967 228.231 44.76 226.56 47.3856C224.905 50.0113 222.606 52.0481 219.662 53.4962C216.718 54.9443 213.32 55.6683 209.469 55.6683ZM209.374 45.6432C210.695 45.6432 211.864 45.3408 212.883 44.7361C213.917 44.1314 214.721 43.3039 215.294 42.2537C215.882 41.2034 216.169 40.01 216.153 38.6733C216.169 37.3207 215.882 36.1272 215.294 35.0928C214.721 34.0426 213.917 33.2151 212.883 32.6104C211.864 32.0057 210.695 31.7034 209.374 31.7034C208.403 31.7034 207.504 31.8784 206.677 32.2285C205.865 32.5627 205.157 33.048 204.552 33.6845C203.948 34.3051 203.47 35.0451 203.12 35.9044C202.786 36.7478 202.611 37.6707 202.595 38.6733C202.611 40.01 202.913 41.2034 203.502 42.2537C204.091 43.3039 204.894 44.1314 205.913 44.7361C206.931 45.3408 208.085 45.6432 209.374 45.6432ZM258.36 56.3367C253.92 56.3208 250.085 55.2944 246.855 53.2575C243.624 51.2207 241.134 48.2847 239.383 44.4497C237.633 40.6146 236.766 36.0158 236.782 30.6531C236.798 25.2745 237.673 20.7075 239.407 16.952C241.158 13.1965 243.64 10.3402 246.855 8.38286C250.085 6.42556 253.92 5.44691 258.36 5.44691C262.799 5.44691 266.634 6.43352 269.865 8.40673C273.095 10.364 275.586 13.2204 277.336 16.9759C279.086 20.7314 279.954 25.2904 279.938 30.6531C279.938 36.0476 279.063 40.6624 277.312 44.4974C275.562 48.3325 273.071 51.2684 269.841 53.3053C266.627 55.3262 262.799 56.3367 258.36 56.3367ZM258.36 45.5477C260.651 45.5477 262.529 44.3542 263.993 41.9673C265.473 39.5644 266.205 35.793 266.189 30.6531C266.189 27.2955 265.855 24.5505 265.186 22.4181C264.518 20.2858 263.595 18.7104 262.418 17.692C261.24 16.6576 259.887 16.1405 258.36 16.1405C256.068 16.1405 254.198 17.3021 252.75 19.6254C251.302 21.9487 250.562 25.6246 250.531 30.6531C250.515 34.0744 250.841 36.891 251.509 39.1029C252.178 41.2989 253.1 42.922 254.278 43.9723C255.472 45.0225 256.832 45.5477 258.36 45.5477Z" fill="#323C69"/>
<path d="M80.5797 21.4435V31.2783H84.7189V21.4435H80.5797ZM80.5797 42.6697V52.0801H84.7896V42.6697H80.5797ZM79.3769 31.4198C77.9265 32.941 75.4854 34.9929 73.5043 36.2665L76.3699 37.8938C78.351 36.7264 80.9689 34.9575 83.1976 33.1887L79.3769 31.4198ZM87.4783 33.2241C83.9759 36.0188 78.1741 39.5212 73.6104 41.6438L76.2284 43.5188C80.792 41.5377 86.6646 38.3184 91.1221 35.2759L87.4783 33.2241ZM69.719 36.4788C72.4076 37.9292 75.8392 40.158 77.4666 41.6792L80.6505 39.2382C78.8463 37.6462 75.3439 35.5589 72.6906 34.25L69.719 36.4788ZM87.549 39.4858C90.45 41.2193 93.9523 43.9079 95.615 45.7476L98.9051 43.5896C97.1009 41.7146 93.457 39.1674 90.6268 37.5401L87.549 39.4858ZM86.9476 46.8089C89.7424 48.224 93.3863 50.4173 95.1197 51.8678L98.4452 49.4622C96.4641 48.0117 92.7141 45.9244 90.0608 44.6509L86.9476 46.8089ZM67.3133 41.3962L67.4548 44.757C74.2826 44.6862 84.825 44.4386 94.6245 44.1556L94.8367 41.0778C84.8957 41.2547 74.1057 41.3962 67.3133 41.3962ZM74.5656 44.9339C72.726 46.5612 69.5421 48.1178 66.6058 49.1084C67.5256 49.7805 69.0114 51.1603 69.719 51.9386C72.6553 50.6296 76.1576 48.5423 78.3864 46.3843L74.5656 44.9339ZM73.5751 27.9882H91.9712V29.8279H73.5751V27.9882ZM73.5751 23.1416H91.9712V24.9458H73.5751V23.1416ZM69.6128 19.9223V33.0472H96.1457V19.9223H69.6128ZM120.521 30.7477V34.9575H139.695V30.7477H120.521ZM127.985 19.0025V52.0801H132.301V19.0025H127.985ZM107.855 29.7217V32.9057H119.282V29.7217H107.855ZM108.068 19.9576V23.177H119.353V19.9576H108.068ZM107.855 34.533V37.7523H119.282V34.533H107.855ZM106.122 24.7335V28.0944H120.697V24.7335H106.122ZM109.801 39.4504V42.8113H115.462V46.8442H109.801V50.2051H119.176V39.4504H109.801ZM107.749 39.4504V51.6202H111.429V39.4504H107.749Z" fill="#323C69"/>
<path d="M221.529 105.164V108.844H254.217V105.164H221.529ZM229.701 102.617V106.155C229.701 108.737 228.852 111.709 222.165 113.478C223.05 114.292 224.323 115.884 224.819 116.874C232.779 114.539 233.911 110.188 233.911 106.261V102.617H229.701ZM241.658 102.582V116.803H245.868V102.582H241.658ZM222.802 89.3508V102.016H225.88V92.2163H237.024V89.3508H222.802ZM235.679 89.3508V98.5134C235.679 98.8318 235.573 98.9026 235.255 98.938C234.972 98.9733 234.088 98.938 233.132 98.938C233.521 99.7516 233.911 100.99 233.981 101.839C235.609 101.839 236.812 101.839 237.731 101.344C238.651 100.848 238.828 99.9993 238.828 98.5842V89.3508H235.679ZM223.191 85.1055C224.005 86.4145 224.819 88.1479 225.031 89.28L228.038 88.1479C227.755 87.0159 226.871 85.3178 226.022 84.0796L223.191 85.1055ZM232.389 93.7729C232.779 95.0111 233.238 96.6384 233.415 97.6998L235.255 97.0983C235.113 96.1432 234.618 94.5512 234.194 93.313L232.389 93.7729ZM235.821 84.0442C235.326 85.3178 234.441 87.122 233.769 88.2894L236.529 89.1385C237.236 88.0418 238.05 86.5206 238.828 84.964L235.821 84.0442ZM227.224 93.313C226.906 95.0818 226.411 96.9568 225.703 98.4073C226.269 98.6196 227.224 99.0795 227.649 99.3625C228.286 97.9474 228.922 95.754 229.347 93.8083L227.224 93.313ZM242.861 83.6904C241.835 87.0159 240.172 90.4121 238.297 92.6762C238.934 93.4899 240.031 95.2587 240.42 96.0017C242.684 93.2069 244.878 88.7847 246.257 84.681L242.861 83.6904ZM242.967 86.9451L241.34 90.2352H254.111V86.9451H242.967ZM229.029 83.6904V90.9427H229.418V101.591H232.177V90.9427H232.531V83.6904H229.029ZM249.017 88.3956C247.955 94.0559 244.665 97.4167 239.076 99.1856C239.712 99.9285 240.668 101.556 240.951 102.37C247.46 99.9639 251.175 95.8248 252.731 88.7493L249.017 88.3956ZM243.781 89.8814L240.632 90.6243C242.755 96.3554 246.505 100.459 252.377 102.334C252.837 101.379 253.899 99.9993 254.642 99.2563C249.264 97.8766 245.55 94.4451 243.781 89.8814ZM274.63 111.744V115.919H294.795V111.744H274.63ZM276.08 94.6573V98.7257H293.946V94.6573H276.08ZM282.837 84.0442V113.761H287.189V84.0442H282.837ZM261.929 90.2352V94.0913H273.533V90.2352H261.929ZM266.988 102.334V116.945H271.198V97.3106L266.988 102.334ZM266.988 83.7258V92.0394H271.198V83.7258H266.988ZM270.774 98.5134L268.439 100.565C270.031 102.122 273.002 105.377 274.382 107.216L276.965 103.785C276.009 102.9 272.012 99.3625 270.774 98.5134ZM271.976 90.2352V91.0135C270.101 96.2139 265.432 101.414 260.62 104.032C261.257 104.846 262.248 106.933 262.637 108.065C267.908 104.74 273.25 98.5488 275.939 91.6503L273.568 90.0937L272.825 90.2352H271.976ZM315.95 88.997L315.986 93.5253C320.408 93.9498 326.846 93.9498 331.162 93.5253V88.9616C327.377 89.4215 320.302 89.5984 315.95 88.997ZM318.78 104.103L314.747 103.749C314.323 105.553 314.111 106.933 314.111 108.348C314.111 111.957 317.047 114.15 323.132 114.15C327.129 114.15 329.995 113.902 332.294 113.443L332.188 108.667C329.11 109.339 326.493 109.622 323.344 109.622C319.736 109.622 318.356 108.667 318.356 107.075C318.356 106.155 318.497 105.306 318.78 104.103ZM310.502 86.6267L305.549 86.2376C305.514 87.3696 305.337 88.714 305.196 89.6691C304.806 92.4286 303.745 98.3719 303.745 103.714C303.745 108.525 304.417 112.841 305.125 115.247L309.193 114.999C309.158 114.504 309.158 113.902 309.122 113.513C309.122 113.16 309.229 112.381 309.335 111.851C309.688 109.976 310.856 106.155 311.882 103.183L309.688 101.45C309.158 102.653 308.592 103.855 308.061 105.058C307.955 104.351 307.92 103.466 307.92 102.759C307.92 99.221 309.158 92.1455 309.653 89.8107C309.795 89.1739 310.254 87.3696 310.502 86.6267ZM355.537 84.9994H350.655C350.761 85.6362 350.867 87.405 350.867 88.1126C350.867 89.7399 350.832 94.1267 350.832 98.1597C350.832 102.44 351.009 107.358 351.009 109.197C351.009 110.436 350.549 110.719 349.912 110.719C348.992 110.719 347.33 109.763 347.33 108.631C347.33 107.11 349.594 105.2 352.778 103.997C355.537 102.9 358.65 102.263 361.657 102.263C364.735 102.263 366.858 103.643 366.858 106.084C366.858 108.631 364.558 110.082 361.693 110.577C360.49 110.825 358.933 110.825 357.377 110.825L358.969 115.424C360.419 115.282 362.011 115.176 363.639 114.822C369.263 113.443 371.457 110.294 371.457 106.084C371.457 101.202 367.141 98.3719 361.693 98.3719C359.004 98.3719 355.431 98.938 352.282 100.07C347.365 101.803 342.943 105.412 342.943 108.844C342.943 112.594 347.825 115.565 351.257 115.565C353.591 115.565 355.148 114.362 355.148 110.011C355.148 107.959 354.936 101.839 354.936 97.9828C354.936 94.6927 355.042 90.872 355.219 88.0772C355.254 87.1927 355.396 85.6715 355.537 84.9994ZM365.62 88.8555L363.674 92.2871C365.867 93.3484 370.466 96.0017 372.164 97.4167L374.322 93.8083C372.412 92.4639 368.308 90.1644 365.62 88.8555ZM343.898 90.8012L344.004 95.0818C345.207 95.2234 346.587 95.2587 348.922 95.2587C352.035 95.2587 357.731 94.6219 361.728 93.7021L361.622 89.3154C357.978 90.3767 352.459 91.0489 348.78 91.0489C347.507 91.0489 345.985 91.0489 343.898 90.8012ZM410.23 84.1857C405.773 85.7777 398.733 87.1574 392.365 87.9357C392.825 88.9262 393.426 90.5536 393.603 91.5795C400.183 90.872 407.754 89.6338 413.343 87.7588L410.23 84.1857ZM391.339 98.478V102.546H414.192V98.478H391.339ZM392.789 111.638V115.707H413.803V111.638H392.789ZM400.997 89.3861V112.912H405.313V89.3861H400.997ZM385.961 93.9852V116.874H390.171V89.9168L390.136 89.846L385.961 93.9852ZM389.499 83.7965C387.483 89.0324 384.122 94.2328 380.584 97.4875C381.362 98.5842 382.636 100.919 383.061 101.98C387.2 97.8766 391.233 91.3319 393.674 85.1409L389.499 83.7965ZM447.128 85.9899H442.353C442.459 86.6621 442.6 88.3248 442.6 89.2446C442.6 91.3319 442.6 93.3837 442.6 95.2234C442.529 97.6644 442.459 100.212 442.282 101.556C442.176 102.263 441.857 102.37 441.185 102.37C440.478 102.37 438.992 102.193 437.895 101.945L437.824 105.836C439.027 106.049 441.893 106.367 443.131 106.367C444.935 106.367 445.855 105.907 446.244 104.032C446.598 102.228 446.704 98.4073 446.775 95.2587C446.845 93.4545 446.845 91.438 446.916 89.0324C446.952 88.1126 447.022 86.556 447.128 85.9899ZM433.19 87.0512H428.202C428.379 88.2894 428.485 89.4923 428.485 90.9781C428.485 93.1007 428.449 103.855 428.52 106.898C428.662 113.018 429.794 114.964 438.921 114.964C442.317 114.964 446.633 114.645 449.003 114.398L449.18 109.551C446.562 110.046 442.07 110.471 438.603 110.471C433.296 110.471 433.013 109.693 432.907 106.19C432.836 103.289 432.978 93.9498 432.978 90.7305C432.978 89.2092 433.048 88.2187 433.19 87.0512ZM421.374 95.0465L421.834 99.5394C422.789 99.3979 424.982 99.0795 426.079 98.938C430.183 98.478 443.945 96.9922 449.463 96.8153C450.383 96.8153 452.258 96.7446 452.895 96.7799V92.4639C451.834 92.5347 450.454 92.6408 449.499 92.7116C442.671 93.1361 429.369 94.4451 425.796 94.7635C423.992 94.9757 422.365 95.0465 421.374 95.0465ZM486.008 88.2541L481.869 84.5748C481.303 85.4239 480.171 86.5913 479.145 87.5819C476.775 89.9168 471.892 93.8436 469.133 96.1078C465.595 99.0441 465.312 100.954 468.815 103.962C472.069 106.686 477.27 111.143 479.392 113.372C480.454 114.433 481.515 115.53 482.506 116.662L486.609 112.841C483.001 109.339 476.279 104.068 473.626 101.839C471.716 100.176 471.68 99.7516 473.555 98.1597C475.925 96.1078 480.595 92.4993 482.895 90.6597C483.708 89.9875 484.876 89.0677 486.008 88.2541ZM515.689 85.9192L510.277 85.4946C510.383 86.3083 510.347 87.7588 510.171 89.0677C509.923 91.1904 509.109 95.0465 508.189 98.3719C506.88 103.325 504.192 110.754 502.069 114.292L507.022 115.954C508.968 111.78 511.338 104.528 512.612 99.5747C513.567 96.0017 514.416 91.6503 514.911 89.2446C515.088 88.4663 515.442 86.8744 515.689 85.9192ZM506.668 91.1904C505.218 91.1904 504.05 91.155 502.211 90.9427L502.352 95.3295C503.59 95.4002 504.899 95.471 506.633 95.471C510.63 95.471 516.185 94.905 520.571 93.879V89.4569C515.972 90.5536 510.984 91.1904 506.668 91.1904ZM517.777 96.6384V100.778C520.005 100.495 522.163 100.388 524.64 100.388C526.762 100.388 528.92 100.601 530.725 100.813L530.795 96.5677C528.743 96.3554 526.621 96.2493 524.604 96.2493C522.269 96.2493 519.758 96.4262 517.777 96.6384ZM519.687 105.518L515.477 105.094C515.159 106.509 514.876 108.207 514.876 109.834C514.876 113.407 518.06 115.494 524.038 115.494C526.869 115.494 529.239 115.211 531.22 114.964L531.397 110.436C528.885 110.895 526.409 111.178 524.074 111.178C520.253 111.178 519.227 110.011 519.227 108.454C519.227 107.676 519.439 106.509 519.687 105.518ZM527.01 86.9451L524.215 88.0772C525.17 89.4569 526.267 91.5441 527.01 92.9946L529.84 91.7918C529.168 90.4828 527.93 88.2187 527.01 86.9451ZM531.22 85.3178L528.425 86.4852C529.38 87.8295 530.548 89.8814 531.255 91.3672L534.085 90.1644C533.449 88.8909 532.14 86.6621 531.22 85.3178ZM557.894 88.6432C558.319 89.8107 558.814 91.438 559.592 93.3837C560.689 96.32 562.246 99.2917 563.519 101.379C562.422 101.273 560.088 101.096 558.354 100.919L558 104.669C560.972 104.917 565.465 105.377 567.446 105.766L569.604 102.617C568.967 101.874 568.33 101.131 567.729 100.247C566.562 98.6196 564.899 95.5771 563.802 92.6054C562.953 90.3413 562.104 87.5465 561.573 84.8225L556.798 85.3885C557.222 86.556 557.647 87.8295 557.894 88.6432ZM545.017 90.3059L545.088 94.7988C552.34 95.4002 557.93 95.2587 562.635 94.6927C565.465 94.3743 568.507 93.8436 570.842 93.1715L570.312 88.7493C567.517 89.5984 564.404 90.1998 561.255 90.589C557.01 91.0489 551.632 91.0842 545.017 90.3059ZM552.128 102.334L547.706 101.308C546.503 103.714 545.831 105.73 545.831 107.888C545.831 113.018 550.359 115.813 557.611 115.813C561.892 115.813 565.076 115.353 567.092 114.999L567.34 110.506C564.864 111.002 561.75 111.391 557.894 111.391C553.048 111.355 550.394 110.117 550.394 107.11C550.394 105.589 550.96 104.032 552.128 102.334ZM589.132 88.4663L583.684 88.3956C583.932 89.4923 583.967 91.0135 583.967 91.9687C583.967 94.1267 584.003 98.3012 584.356 101.556C585.347 111.037 588.708 114.504 592.635 114.504C595.465 114.504 597.658 112.381 600.028 106.19L596.455 101.91C595.783 104.704 594.403 108.879 592.705 108.879C590.477 108.879 589.415 105.377 588.92 100.282C588.708 97.6998 588.708 95.0818 588.708 92.7823C588.708 91.7918 588.885 89.7045 589.132 88.4663ZM606.821 89.2446L602.328 90.7305C606.184 95.1172 608.094 103.678 608.625 109.41L613.295 107.57C612.906 102.157 610.182 93.313 606.821 89.2446ZM635.795 104.634H639.438L640.358 92.5347L640.535 87.2635H634.698L634.875 92.5347L635.795 104.634ZM637.634 114.079C639.403 114.079 640.747 112.77 640.747 110.931C640.747 109.091 639.403 107.818 637.634 107.818C635.83 107.818 634.486 109.091 634.486 110.931C634.486 112.77 635.795 114.079 637.634 114.079Z" fill="#323C69"/>
<path d="M3.51288 17.3496L63.141 132.833" stroke="#323C69" stroke-width="6"/>
<path d="M871.451 17.3496L811.822 132.833" stroke="#323C69" stroke-width="6"/>
</svg>
