<svg width="838" height="135" viewBox="0 0 838 135" fill="none" xmlns="http://www.w3.org/2000/svg">
<path d="M3 17.3496L60.7045 132.833" stroke="#323C69" stroke-width="6"/>
<path d="M834.938 17.3496L777.233 132.833" stroke="#323C69" stroke-width="6"/>
<path d="M142.825 52H358.825" stroke="#FFD600" stroke-width="11.7924"/>
<path d="M400.825 52H766.825" stroke="#FFD600" stroke-width="11.7924"/>
<path d="M301.202 22.2125V26.3516H305.448V22.2125H301.202ZM293.066 24.7596V27.8021H314.15V24.7596H293.066ZM291.686 30.42V33.71H315.176V30.42H291.686ZM296.002 28.0497C296.533 29.111 297.099 30.5968 297.311 31.4813L301.061 30.7384C300.813 29.7832 300.176 28.3681 299.54 27.3775L296.002 28.0497ZM307.146 26.7761C306.898 27.9436 306.261 29.6063 305.766 30.7737L309.021 31.6935C309.693 30.703 310.507 29.2525 311.391 27.7313L307.146 26.7761ZM298.337 41.3161H308.561V42.8019H298.337V41.3161ZM298.337 37.6369H308.561V39.052H298.337V37.6369ZM294.304 35.0544V45.3491H312.771V35.0544H294.304ZM293.596 46.6227C292.924 48.6392 291.686 50.8679 290.165 52.2123L293.278 54.4056C294.941 52.7075 296.073 50.1958 296.886 47.967L293.596 46.6227ZM297.346 46.8349V50.9033C297.346 54.0872 298.16 55.1132 301.875 55.1132C302.617 55.1132 305.235 55.1132 306.014 55.1132C308.632 55.1132 309.658 54.2288 310.082 50.7972C309.021 50.5849 307.464 50.0543 306.721 49.4882C306.615 51.5401 306.403 51.8231 305.554 51.8231C304.952 51.8231 302.901 51.8231 302.476 51.8231C301.379 51.8231 301.202 51.7524 301.202 50.8679V46.8349H297.346ZM300.283 45.8798C301.804 46.9764 303.608 48.5684 304.386 49.7005L307.11 47.5425C306.261 46.375 304.386 44.8892 302.83 43.934L300.283 45.8798ZM307.924 48.0024C309.658 49.9128 311.533 52.566 312.275 54.3349L315.672 52.3891C314.858 50.6203 312.877 48.0731 311.108 46.2689L307.924 48.0024ZM289.599 22.0356C287.688 26.953 284.504 31.8704 281.179 34.9482C281.887 35.9742 283.019 38.3091 283.408 39.2996C287.299 35.4081 291.155 29.2171 293.526 23.3092L289.599 22.0356ZM285.884 31.9058V55.1839H289.917V27.9082L289.882 27.8728L285.884 31.9058ZM323.596 24.1936V55.1839H327.877V28.4035H351.367V24.1936H323.596ZM349.315 24.1936V50.1604C349.315 50.7972 349.103 51.0094 348.431 51.0094C347.723 51.0094 345.424 51.0448 343.372 50.9387C343.973 52.0354 344.716 53.9811 344.893 55.1839C348.077 55.1839 350.2 55.0778 351.65 54.4056C353.136 53.6981 353.631 52.4953 353.631 50.1958V24.1936H349.315ZM325.931 37.3539V41.5638H351.403V37.3539H325.931ZM336.226 26.4931V39.4411H340.471V26.4931H336.226ZM381.685 27.7667L376.839 27.6252C376.485 31.3398 375.707 35.4081 374.681 38.7336C373.195 43.5095 371.851 45.7736 370.329 45.7736C368.985 45.7736 367.57 44.0401 367.57 40.4671C367.57 36.0095 371.674 29.8893 379.174 29.8893C385.294 29.8893 388.761 33.8515 388.761 39.4057C388.761 44.6062 385.223 47.8255 380.73 48.9222C379.775 49.1345 378.784 49.3113 377.405 49.4882L380.093 53.6627C389.008 52.283 393.572 47.0118 393.572 39.5826C393.572 31.835 388.018 25.7502 379.28 25.7502C370.117 25.7502 363.006 32.7548 363.006 40.8916C363.006 46.8703 366.261 51.2217 370.223 51.2217C374.079 51.2217 377.122 46.8349 379.244 39.6888C380.483 35.5143 381.19 31.3751 381.685 27.7667ZM436.03 29.1194V50.9812C436.03 51.4057 435.902 51.533 435.478 51.533C435.053 51.533 433.95 51.533 432.846 51.4906C433.483 52.6368 434.162 54.6319 434.416 55.9054C436.454 55.9054 438.025 55.7781 439.256 55.014C440.487 54.2499 440.826 53.0613 440.826 51.0236V29.1194H436.03ZM432.931 18.7616C434.841 19.9502 437.218 21.6907 438.407 22.9217L441.336 19.9927C440.147 18.7616 437.643 17.1485 435.732 16.1297L432.931 18.7616ZM418.625 29.1194V55.7781H423.337V33.3644H437.388V29.1194H418.625ZM421.257 36.3784V40.3262H437.643V36.3784H421.257ZM421.257 43.3826V47.4578H437.558V43.3826H421.257ZM417.352 21.8605V26.3177H441.803V21.8605H417.352ZM427.2 16.0448V55.6083H431.997V16.0448H427.2ZM407.461 38.3311V55.8205H412.13V32.7701L407.461 38.3311ZM402.621 23.7283V28.2704H413.998V23.7283H402.621ZM407.418 16.0873V26.063H412.088V16.0873H407.418ZM411.578 33.1097L408.989 35.2322C410.517 37.2698 413.701 41.8544 415.017 44.2741L417.988 40.9205C417.012 39.6895 412.809 34.3408 411.578 33.1097ZM412.385 23.7283V24.6622C410.517 30.8599 406.06 37.6094 401.518 41.1752C402.239 42.0667 403.47 44.5288 403.895 45.8023C408.989 41.4299 414.168 33.4069 416.8 25.214L414.168 23.516L413.319 23.7283H412.385ZM416.163 31.8362C415.399 33.4493 413.913 35.8265 412.894 37.2274L415.187 39.0527C416.333 37.7792 417.734 35.7841 419.092 34.0012L416.163 31.8362ZM468.674 25.1291V29.926H485.696V25.1291H468.674ZM483.616 25.1291V26.1479C483.319 42.6185 482.979 48.7738 481.918 50.0897C481.536 50.6416 481.069 50.8114 480.39 50.8114C479.456 50.8114 477.588 50.7689 475.466 50.6416C476.315 51.9575 476.909 54.0801 476.994 55.4809C479.201 55.5234 481.409 55.5658 482.767 55.3536C484.295 55.0989 485.314 54.6319 486.333 53.1462C487.734 51.1934 488.073 44.9108 488.455 27.379C488.455 26.7847 488.498 25.1291 488.498 25.1291H483.616ZM474.319 16.0024C474.277 32.5579 474.786 45.0382 464.259 52C465.49 52.849 467.061 54.5895 467.825 55.863C479.201 47.9672 479.244 33.704 479.286 16.0024H474.319ZM452.712 17.7428V48.0946H457.212V22.3274H462.816V45.4202H467.527V17.7428H452.712ZM449.741 46.439L450.59 51.6604C455.939 50.3869 463.155 48.6889 469.862 47.0333L469.395 42.4487C462.264 44.0194 454.623 45.59 449.741 46.439ZM455.09 26.5724V31.0297H465.193V26.5724H455.09ZM455.09 35.402V39.8593H465.193V35.402H455.09ZM517.746 20.7992C521.397 25.8083 528.486 31.5391 534.981 34.9775C535.914 33.4069 537.103 31.6664 538.334 30.3929C531.585 27.6337 524.75 22.285 520.165 15.8326H514.859C511.718 20.969 504.883 27.3365 497.582 30.9023C498.686 31.9636 500.129 33.8314 500.766 35.02C507.728 31.3268 514.222 25.7659 517.746 20.7992ZM507.091 28.6949V33.1522H528.486V28.6949H507.091ZM502.039 37.3547V41.7271H533.495V37.3547H502.039ZM499.874 50.2595V54.6319H535.957V50.2595H499.874ZM514.944 30.4778V52.4245H520.378V30.4778H514.944ZM504.671 43.3402C506.199 45.59 507.77 48.6889 508.322 50.6416L512.737 48.7313C512.1 46.7362 510.402 43.8071 508.789 41.6422L504.671 43.3402ZM526.278 41.6846C525.344 43.9769 523.561 47.0758 522.203 49.0709L526.024 50.6416C527.509 48.8587 529.377 46.0994 531.118 43.51L526.278 41.6846ZM546.442 43.7222V47.5852H585.326V43.7222H546.442ZM557.437 19.4408V22.8793H585.284V19.4408H557.437ZM571.19 41.4724V50.8538C571.19 51.3632 571.021 51.4906 570.341 51.4906C569.705 51.533 567.327 51.5755 565.247 51.4481C565.884 52.6792 566.606 54.5046 566.818 55.8205C570.002 55.8205 572.294 55.7781 573.95 55.1413C575.69 54.4621 576.115 53.2735 576.115 50.9812V41.4724H571.19ZM553.659 49.453C555.654 50.8963 558.201 53.0613 559.262 54.5046L562.998 51.3632C561.724 49.9199 559.135 47.9248 557.097 46.6088L553.659 49.453ZM547.631 19.1861C549.753 20.7992 552.3 23.134 553.404 24.7471L556.885 21.6482C555.696 20.0351 553.064 17.8702 550.942 16.4269L547.631 19.1861ZM562.318 16.6816C563.125 17.9975 563.974 19.8229 564.313 20.969L568.686 20.0776C568.304 18.889 567.37 17.1485 566.478 15.9175L562.318 16.6816ZM565.502 29.8835H576.879V31.1995H565.502V29.8835ZM565.502 33.3644H576.879V34.6804H565.502V33.3644ZM565.502 26.4451H576.879V27.7186H565.502V26.4451ZM560.79 24.1952V36.9302H581.803V24.1952H560.79ZM556.163 26.4875H546.612V30.3505H551.536V36.4633H556.163V26.4875ZM568.728 20.8417C568.643 21.9029 568.346 23.4736 568.049 24.7046L572.082 25.214C572.549 24.1528 573.143 22.7944 573.78 21.1813L568.728 20.8417ZM576.072 15.8326C575.605 17.0212 574.714 18.6767 573.992 19.9078L578.025 20.7143C578.831 19.6531 579.85 18.2947 580.869 16.6391L576.072 15.8326ZM556.163 34.7653H552.767C550.645 36.0388 548.225 37.3123 546.23 38.2462L548.013 42.2789C550.347 40.7932 552.47 39.4772 554.465 38.0764C556.588 40.7507 559.432 41.7271 563.762 41.8969C568.983 42.0667 579.256 42.0242 584.689 41.7695C584.902 40.6234 585.496 38.798 585.921 37.8641C580.02 38.2886 568.898 38.416 563.719 38.2037C560.111 38.0764 557.521 37.1 556.163 34.7653ZM602.349 18.3371V23.516H614.362V18.3371H602.349ZM611.857 18.3371C611.857 26.9969 613.725 45.9721 629.899 55.6932C630.79 54.4197 632.828 52.1698 634.016 51.2359C618.267 42.0242 617.121 26.4026 617.121 18.3371H611.857ZM610.032 27.6337C607.74 38.8829 602.646 47.1182 593.774 51.6179C595.09 52.5519 597.467 54.6744 598.401 55.7781C607.273 50.4293 612.919 41.3026 615.89 28.6949L610.032 27.6337ZM654.562 36.1661L649.765 37.8217C655.284 48.1795 664.283 53.8678 678.589 55.9054C679.311 54.4621 680.711 52.1274 681.858 50.9387C668.189 49.4105 658.935 44.5288 654.562 36.1661ZM645.605 31.5391V36.5057H672.816V31.5391H645.605ZM643.525 21.5633V26.6149H679.905V21.5633H643.525ZM659.019 15.9599V33.7889H664.326V15.9599H659.019ZM671.16 31.5391V32.473C667.297 44.0194 656.048 49.0285 641.785 50.8963C642.761 52.0425 644.077 54.4621 644.544 55.8205C659.274 53.3584 671.627 47.1607 676.721 33.4069L673.155 31.3693L672.264 31.5391H671.16ZM704.441 27.5912V31.5815H727.873V27.5912H704.441ZM703.549 33.5342V37.6519H729.189V33.5342H703.549ZM709.068 39.3499V43.043H723.416V39.3499H709.068ZM705.46 23.0066C706.096 24.6197 706.861 26.8271 707.158 28.1431L711.233 26.8696C710.851 25.5961 710.002 23.4736 709.323 21.9454L705.46 23.0066ZM712.846 22.2425C713.271 23.983 713.653 26.2753 713.78 27.6337L717.982 26.7422C717.77 25.4263 717.303 23.2189 716.836 21.5633L712.846 22.2425ZM725.114 16.1722C719.808 17.2759 711.106 17.9551 703.592 18.1673C704.059 19.1861 704.611 20.8417 704.696 21.9454C712.337 21.8605 721.506 21.2237 727.958 19.9078L725.114 16.1722ZM713.271 42.194L709.195 43.3826C712.761 49.9199 718.747 54.1225 727.194 55.9054C727.831 54.6319 729.147 52.7217 730.166 51.7028C722.227 50.4718 716.157 47.1607 713.271 42.194ZM722.652 20.7568C721.888 22.9642 720.36 26.0206 719.086 28.0157L722.61 29.2892C724.01 27.4639 725.793 24.7046 727.364 22.1152L722.652 20.7568ZM722.397 39.3499V40.0291C720.445 47.1182 714.969 50.5991 707.37 52.1274C708.261 52.9764 709.62 54.8442 710.129 55.9054C718.195 53.8678 724.392 49.453 726.897 40.3262L724.138 39.2225L723.331 39.3499H722.397ZM709.535 30.0958C708.983 37.5245 708.261 46.9484 699.899 52.0849C701.087 52.9339 702.488 54.547 703.167 55.7356C712.379 49.7077 713.737 39.1376 714.417 30.0958H709.535ZM689.583 38.6707L690.305 43.6373C694.168 42.5336 698.965 41.1752 703.465 39.8168L702.828 35.2322C697.989 36.5482 692.979 37.9066 689.583 38.6707ZM690.093 24.0254V28.6949H703.083V24.0254H690.093ZM694.593 16.0024V50.4293C694.593 51.0236 694.38 51.151 693.871 51.151C693.361 51.1934 691.876 51.1934 690.348 51.1085C690.942 52.5094 691.536 54.5895 691.663 55.863C694.423 55.863 696.248 55.6932 697.522 54.8866C698.838 54.1225 699.262 52.8066 699.262 50.4293V16.0024H694.593ZM755.551 41.0903H759.923L761.027 26.5724L761.239 20.2474H754.235L754.447 26.5724L755.551 41.0903ZM757.758 52.4245C759.881 52.4245 761.494 50.8538 761.494 48.6464C761.494 46.439 759.881 44.9108 757.758 44.9108C755.593 44.9108 753.98 46.439 753.98 48.6464C753.98 50.8538 755.551 52.4245 757.758 52.4245Z" fill="#323C69"/>
<path d="M170.624 6.11526V55H157.353V18.3364H157.066L146.373 24.7335V13.4671L158.403 6.11526H170.624ZM201.773 55.6683C197.922 55.6683 194.501 55.008 191.509 53.6872C188.534 52.3505 186.194 50.5125 184.492 48.1733C182.789 45.8341 181.93 43.1448 181.914 40.1054H195.281C195.297 41.0443 195.583 41.8877 196.14 42.6356C196.713 43.3676 197.493 43.9405 198.479 44.3542C199.466 44.7679 200.596 44.9748 201.869 44.9748C203.094 44.9748 204.176 44.76 205.115 44.3303C206.054 43.8848 206.786 43.2721 207.311 42.4924C207.836 41.7126 208.091 40.8215 208.075 39.819C208.091 38.8324 207.788 37.9572 207.168 37.1934C206.563 36.4295 205.712 35.8328 204.614 35.4031C203.516 34.9735 202.251 34.7587 200.819 34.7587H195.854V25.5928H200.819C202.139 25.5928 203.301 25.3779 204.303 24.9483C205.322 24.5186 206.11 23.9219 206.667 23.1581C207.239 22.3943 207.518 21.519 207.502 20.5324C207.518 19.5777 207.287 18.7343 206.81 18.0023C206.332 17.2703 205.664 16.6974 204.805 16.2837C203.961 15.8699 202.983 15.6631 201.869 15.6631C200.659 15.6631 199.577 15.8779 198.623 16.3075C197.684 16.7372 196.944 17.3339 196.403 18.0978C195.862 18.8616 195.583 19.7368 195.567 20.7234H182.869C182.885 17.7318 183.704 15.0902 185.327 12.7987C186.966 10.5072 189.21 8.70908 192.058 7.40421C194.907 6.09935 198.177 5.44691 201.869 5.44691C205.481 5.44691 208.672 6.05956 211.44 7.28487C214.225 8.51017 216.397 10.1969 217.957 12.3452C219.532 14.4775 220.312 16.9202 220.296 19.6731C220.328 22.4102 219.389 24.6539 217.479 26.4043C215.586 28.1548 213.183 29.1891 210.271 29.5074V29.8893C214.217 30.3189 217.185 31.5283 219.174 33.5174C221.163 35.4907 222.142 37.9731 222.11 40.9647C222.126 43.8291 221.267 46.3672 219.532 48.5791C217.814 50.791 215.419 52.5255 212.348 53.7827C209.292 55.0398 205.767 55.6683 201.773 55.6683ZM251.344 56.3367C246.904 56.3208 243.069 55.2944 239.839 53.2575C236.608 51.2207 234.118 48.2847 232.368 44.4497C230.617 40.6146 229.75 36.0158 229.766 30.6531C229.782 25.2745 230.657 20.7075 232.391 16.952C234.142 13.1965 236.624 10.3402 239.839 8.38286C243.069 6.42556 246.904 5.44691 251.344 5.44691C255.784 5.44691 259.619 6.43352 262.849 8.40673C266.079 10.364 268.57 13.2204 270.32 16.9759C272.071 20.7314 272.938 25.2904 272.922 30.6531C272.922 36.0476 272.047 40.6624 270.296 44.4974C268.546 48.3325 266.055 51.2684 262.825 53.3053C259.611 55.3262 255.784 56.3367 251.344 56.3367ZM251.344 45.5477C253.635 45.5477 255.513 44.3542 256.977 41.9673C258.457 39.5644 259.189 35.793 259.173 30.6531C259.173 27.2955 258.839 24.5505 258.171 22.4181C257.502 20.2858 256.579 18.7104 255.402 17.692C254.224 16.6576 252.871 16.1405 251.344 16.1405C249.052 16.1405 247.183 17.3021 245.734 19.6254C244.286 21.9487 243.546 25.6246 243.515 30.6531C243.499 34.0744 243.825 36.891 244.493 39.1029C245.162 41.2989 246.085 42.922 247.262 43.9723C248.456 45.0225 249.816 45.5477 251.344 45.5477Z" fill="#323C69"/>
<path d="M73.8921 21.5474V31.3822H78.0312V21.5474H73.8921ZM73.8921 42.7736V52.1839H78.1019V42.7736H73.8921ZM72.6892 31.5237C71.2388 33.0449 68.7978 35.0968 66.8166 36.3704L69.6822 37.9977C71.6633 36.8303 74.2812 35.0614 76.51 33.2926L72.6892 31.5237ZM80.7906 33.3279C77.2883 36.1227 71.4864 39.6251 66.9228 41.7477L69.5407 43.6227C74.1043 41.6416 79.9769 38.4222 84.4344 35.3798L80.7906 33.3279ZM63.0313 36.5826C65.7199 38.0331 69.1515 40.2619 70.7789 41.7831L73.9628 39.342C72.1586 37.7501 68.6562 35.6628 66.003 34.3539L63.0313 36.5826ZM80.8613 39.5897C83.7623 41.3232 87.2646 44.0118 88.9273 45.8514L92.2174 43.6934C90.4132 41.8184 86.7693 39.2713 83.9392 37.6439L80.8613 39.5897ZM80.2599 46.9128C83.0547 48.3278 86.6986 50.5212 88.4321 51.9717L91.7575 49.566C89.7764 48.1156 86.0264 46.0283 83.3731 44.7547L80.2599 46.9128ZM60.6256 41.5001L60.7671 44.8609C67.5949 44.7901 78.1373 44.5425 87.9368 44.2595L88.149 41.1817C78.2081 41.3585 67.418 41.5001 60.6256 41.5001ZM67.8779 45.0378C66.0383 46.6651 62.8544 48.2217 59.9181 49.2123C60.8379 49.8844 62.3237 51.2641 63.0313 52.0424C65.9676 50.7335 69.4699 48.6462 71.6987 46.4882L67.8779 45.0378ZM66.8874 28.0921H85.2835V29.9317H66.8874V28.0921ZM66.8874 23.2455H85.2835V25.0497H66.8874V23.2455ZM62.9252 20.0261V33.1511H89.458V20.0261H62.9252ZM113.833 30.8515V35.0614H133.007V30.8515H113.833ZM121.297 19.1063V52.1839H125.613V19.1063H121.297ZM101.168 29.8256V33.0095H112.595V29.8256H101.168ZM101.38 20.0615V23.2808H112.665V20.0615H101.38ZM101.168 34.6369V37.8562H112.595V34.6369H101.168ZM99.4343 24.8374V28.1983H114.01V24.8374H99.4343ZM103.114 39.5543V42.9151H108.774V46.9481H103.114V50.309H112.488V39.5543H103.114ZM101.062 39.5543V51.724H104.741V39.5543H101.062Z" fill="#323C69"/>
<path d="M214.225 105.439V109.118H246.913V105.439H214.225ZM222.397 102.892V106.429C222.397 109.012 221.548 111.984 214.862 113.752C215.746 114.566 217.02 116.158 217.515 117.149C225.475 114.814 226.607 110.462 226.607 106.535V102.892H222.397ZM234.355 102.856V117.078H238.564V102.856H234.355ZM215.499 89.6252V102.29H218.576V92.4907H229.72V89.6252H215.499ZM228.376 89.6252V98.7878C228.376 99.1062 228.27 99.177 227.951 99.2124C227.668 99.2477 226.784 99.2124 225.829 99.2124C226.218 100.026 226.607 101.264 226.678 102.113C228.305 102.113 229.508 102.113 230.428 101.618C231.347 101.123 231.524 100.274 231.524 98.8586V89.6252H228.376ZM215.888 85.3799C216.701 86.6889 217.515 88.4223 217.727 89.5544L220.734 88.4223C220.451 87.2903 219.567 85.5922 218.718 84.354L215.888 85.3799ZM225.086 94.0473C225.475 95.2855 225.935 96.9129 226.112 97.9742L227.951 97.3728C227.81 96.4176 227.314 94.8256 226.89 93.5874L225.086 94.0473ZM228.517 84.3186C228.022 85.5922 227.138 87.3964 226.465 88.5639L229.225 89.4129C229.932 88.3162 230.746 86.795 231.524 85.2384L228.517 84.3186ZM219.921 93.5874C219.602 95.3563 219.107 97.2312 218.399 98.6817C218.965 98.894 219.921 99.3539 220.345 99.6369C220.982 98.2218 221.619 96.0284 222.043 94.0827L219.921 93.5874ZM235.557 83.9648C234.531 87.2903 232.869 90.6865 230.994 92.9506C231.63 93.7643 232.727 95.5331 233.116 96.2761C235.38 93.4813 237.574 89.0591 238.954 84.9554L235.557 83.9648ZM235.663 87.2195L234.036 90.5096H246.807V87.2195H235.663ZM221.725 83.9648V91.2171H222.114V101.866H224.873V91.2171H225.227V83.9648H221.725ZM241.713 88.67C240.652 94.3303 237.362 97.6911 231.772 99.46C232.409 100.203 233.364 101.83 233.647 102.644C240.156 100.238 243.871 96.0992 245.428 89.0238L241.713 88.67ZM236.477 90.1558L233.329 90.8987C235.451 96.6298 239.201 100.734 245.074 102.609C245.534 101.653 246.595 100.274 247.338 99.5308C241.961 98.1511 238.246 94.7195 236.477 90.1558ZM267.326 112.019V116.193H287.491V112.019H267.326ZM268.776 94.9317V99.0001H286.642V94.9317H268.776ZM275.533 84.3186V114.035H279.885V84.3186H275.533ZM254.626 90.5096V94.3657H266.229V90.5096H254.626ZM259.685 102.609V117.219H263.894V97.585L259.685 102.609ZM259.685 84.0002V92.3138H263.894V84.0002H259.685ZM263.47 98.7878L261.135 100.84C262.727 102.396 265.699 105.651 267.078 107.491L269.661 104.059C268.706 103.175 264.708 99.6369 263.47 98.7878ZM264.673 90.5096V91.2879C262.798 96.4883 258.128 101.689 253.317 104.307C253.953 105.12 254.944 107.208 255.333 108.34C260.604 105.014 265.946 98.8232 268.635 91.9247L266.265 90.3681L265.522 90.5096H264.673ZM308.646 89.2714L308.682 93.7997C313.104 94.2242 319.543 94.2242 323.859 93.7997V89.236C320.073 89.6959 312.998 89.8728 308.646 89.2714ZM311.477 104.377L307.444 104.024C307.019 105.828 306.807 107.208 306.807 108.623C306.807 112.231 309.743 114.425 315.828 114.425C319.826 114.425 322.691 114.177 324.991 113.717L324.885 108.941C321.807 109.613 319.189 109.896 316.04 109.896C312.432 109.896 311.052 108.941 311.052 107.349C311.052 106.429 311.194 105.58 311.477 104.377ZM303.198 86.9011L298.246 86.512C298.21 87.644 298.033 88.9884 297.892 89.9436C297.503 92.703 296.441 98.6463 296.441 103.988C296.441 108.8 297.114 113.116 297.821 115.521L301.889 115.274C301.854 114.778 301.854 114.177 301.819 113.788C301.819 113.434 301.925 112.656 302.031 112.125C302.385 110.25 303.552 106.429 304.578 103.458L302.385 101.724C301.854 102.927 301.288 104.13 300.757 105.333C300.651 104.625 300.616 103.741 300.616 103.033C300.616 99.4954 301.854 92.42 302.349 90.0851C302.491 89.4483 302.951 87.644 303.198 86.9011ZM348.233 85.2738H343.351C343.458 85.9106 343.564 87.6794 343.564 88.387C343.564 90.0143 343.528 94.4011 343.528 98.4341C343.528 102.715 343.705 107.632 343.705 109.472C343.705 110.71 343.245 110.993 342.608 110.993C341.689 110.993 340.026 110.038 340.026 108.906C340.026 107.384 342.29 105.474 345.474 104.271C348.233 103.175 351.347 102.538 354.354 102.538C357.431 102.538 359.554 103.918 359.554 106.359C359.554 108.906 357.255 110.356 354.389 110.851C353.186 111.099 351.63 111.099 350.073 111.099L351.665 115.698C353.115 115.557 354.707 115.45 356.335 115.097C361.96 113.717 364.153 110.568 364.153 106.359C364.153 101.477 359.837 98.6463 354.389 98.6463C351.7 98.6463 348.127 99.2124 344.979 100.344C340.061 102.078 335.639 105.686 335.639 109.118C335.639 112.868 340.521 115.84 343.953 115.84C346.288 115.84 347.844 114.637 347.844 110.285C347.844 108.234 347.632 102.113 347.632 98.2572C347.632 94.9671 347.738 91.1464 347.915 88.3516C347.95 87.4672 348.092 85.9459 348.233 85.2738ZM358.316 89.1299L356.37 92.5615C358.564 93.6228 363.163 96.2761 364.861 97.6911L367.019 94.0827C365.108 92.7384 361.005 90.4388 358.316 89.1299ZM336.594 91.0756L336.7 95.3563C337.903 95.4978 339.283 95.5331 341.618 95.5331C344.731 95.5331 350.427 94.8964 354.424 93.9766L354.318 89.5898C350.674 90.6511 345.156 91.3233 341.476 91.3233C340.203 91.3233 338.682 91.3233 336.594 91.0756ZM402.926 84.4601C398.469 86.0521 391.429 87.4318 385.061 88.2101C385.521 89.2006 386.122 90.828 386.299 91.8539C392.879 91.1464 400.45 89.9082 406.04 88.0332L402.926 84.4601ZM384.035 98.7525V102.821H406.889V98.7525H384.035ZM385.486 111.913V115.981H406.5V111.913H385.486ZM393.693 89.6605V113.186H398.009V89.6605H393.693ZM378.658 94.2596V117.149H382.868V90.1912L382.832 90.1204L378.658 94.2596ZM382.195 84.071C380.179 89.3068 376.818 94.5072 373.28 97.7619C374.059 98.8586 375.332 101.193 375.757 102.255C379.896 98.1511 383.929 91.6063 386.37 85.4153L382.195 84.071ZM439.825 86.2643H435.049C435.155 86.9365 435.297 88.5992 435.297 89.519C435.297 91.6063 435.297 93.6582 435.297 95.4978C435.226 97.9388 435.155 100.486 434.978 101.83C434.872 102.538 434.554 102.644 433.881 102.644C433.174 102.644 431.688 102.467 430.591 102.219L430.521 106.111C431.723 106.323 434.589 106.642 435.827 106.642C437.631 106.642 438.551 106.182 438.94 104.307C439.294 102.502 439.4 98.6817 439.471 95.5331C439.542 93.7289 439.542 91.7124 439.613 89.3068C439.648 88.387 439.719 86.8304 439.825 86.2643ZM425.886 87.3257H420.898C421.075 88.5639 421.181 89.7667 421.181 91.2525C421.181 93.3751 421.146 104.13 421.216 107.172C421.358 113.292 422.49 115.238 431.617 115.238C435.013 115.238 439.33 114.92 441.7 114.672L441.877 109.826C439.259 110.321 434.766 110.745 431.299 110.745C425.992 110.745 425.709 109.967 425.603 106.465C425.532 103.564 425.674 94.2242 425.674 91.0049C425.674 89.4837 425.745 88.4931 425.886 87.3257ZM414.07 95.3209L414.53 99.8138C415.485 99.6723 417.679 99.3539 418.775 99.2124C422.879 98.7525 436.641 97.2666 442.16 97.0897C443.079 97.0897 444.954 97.019 445.591 97.0544V92.7384C444.53 92.8091 443.15 92.9152 442.195 92.986C435.367 93.4105 422.065 94.7195 418.492 95.0379C416.688 95.2501 415.061 95.3209 414.07 95.3209ZM478.704 88.5285L474.565 84.8493C473.999 85.6983 472.867 86.8658 471.841 87.8563C469.471 90.1912 464.589 94.1181 461.829 96.3822C458.292 99.3185 458.009 101.229 461.511 104.236C464.766 106.96 469.966 111.417 472.089 113.646C473.15 114.708 474.211 115.804 475.202 116.936L479.306 113.116C475.697 109.613 468.976 104.342 466.322 102.113C464.412 100.451 464.376 100.026 466.251 98.4341C468.622 96.3822 473.292 92.7737 475.591 90.9341C476.405 90.262 477.572 89.3422 478.704 88.5285ZM508.386 86.1936L502.973 85.7691C503.079 86.5827 503.044 88.0332 502.867 89.3422C502.619 91.4648 501.805 95.3209 500.886 98.6463C499.577 103.599 496.888 111.028 494.765 114.566L499.718 116.229C501.664 112.054 504.034 104.802 505.308 99.8492C506.263 96.2761 507.112 91.9247 507.607 89.519C507.784 88.7407 508.138 87.1488 508.386 86.1936ZM499.364 91.4648C497.914 91.4648 496.747 91.4294 494.907 91.2171L495.048 95.6039C496.287 95.6747 497.596 95.7454 499.329 95.7454C503.327 95.7454 508.881 95.1794 513.268 94.1534V89.7313C508.669 90.828 503.68 91.4648 499.364 91.4648ZM510.473 96.9129V101.052C512.702 100.769 514.86 100.663 517.336 100.663C519.459 100.663 521.617 100.875 523.421 101.087L523.492 96.8421C521.44 96.6298 519.317 96.5237 517.301 96.5237C514.966 96.5237 512.454 96.7006 510.473 96.9129ZM512.383 105.793L508.173 105.368C507.855 106.783 507.572 108.481 507.572 110.109C507.572 113.682 510.756 115.769 516.735 115.769C519.565 115.769 521.935 115.486 523.916 115.238L524.093 110.71C521.581 111.17 519.105 111.453 516.77 111.453C512.949 111.453 511.923 110.285 511.923 108.729C511.923 107.951 512.136 106.783 512.383 105.793ZM519.706 87.2195L516.912 88.3516C517.867 89.7313 518.963 91.8185 519.706 93.269L522.536 92.0662C521.864 90.7572 520.626 88.4931 519.706 87.2195ZM523.916 85.5922L521.121 86.7596C522.077 88.104 523.244 90.1558 523.952 91.6417L526.782 90.4388C526.145 89.1653 524.836 86.9365 523.916 85.5922ZM550.591 88.9176C551.015 90.0851 551.51 91.7124 552.289 93.6582C553.385 96.5945 554.942 99.5661 556.215 101.653C555.119 101.547 552.784 101.37 551.05 101.193L550.697 104.943C553.668 105.191 558.161 105.651 560.142 106.04L562.3 102.892C561.664 102.149 561.027 101.406 560.425 100.521C559.258 98.894 557.595 95.8515 556.498 92.8799C555.649 90.6157 554.8 87.8209 554.27 85.0969L549.494 85.6629C549.918 86.8304 550.343 88.104 550.591 88.9176ZM537.713 90.5803L537.784 95.0732C545.036 95.6747 550.626 95.5331 555.331 94.9671C558.161 94.6487 561.204 94.1181 563.539 93.4459L563.008 89.0238C560.213 89.8728 557.1 90.4742 553.951 90.8634C549.706 91.3233 544.329 91.3586 537.713 90.5803ZM544.824 102.609L540.402 101.583C539.199 103.988 538.527 106.005 538.527 108.163C538.527 113.292 543.055 116.087 550.308 116.087C554.588 116.087 557.772 115.627 559.789 115.274L560.036 110.781C557.56 111.276 554.447 111.665 550.591 111.665C545.744 111.63 543.091 110.392 543.091 107.384C543.091 105.863 543.657 104.307 544.824 102.609ZM581.829 88.7407L576.38 88.67C576.628 89.7667 576.663 91.2879 576.663 92.2431C576.663 94.4011 576.699 98.5756 577.053 101.83C578.043 111.311 581.404 114.778 585.331 114.778C588.161 114.778 590.354 112.656 592.725 106.465L589.152 102.184C588.479 104.979 587.1 109.153 585.402 109.153C583.173 109.153 582.112 105.651 581.616 100.557C581.404 97.9742 581.404 95.3563 581.404 93.0567C581.404 92.0662 581.581 89.9789 581.829 88.7407ZM599.517 89.519L595.024 91.0049C598.88 95.3916 600.791 103.953 601.321 109.684L605.991 107.844C605.602 102.432 602.878 93.5874 599.517 89.519ZM628.491 104.908H632.135L633.055 92.8091L633.231 87.5379H627.394L627.571 92.8091L628.491 104.908ZM630.331 114.354C632.099 114.354 633.444 113.045 633.444 111.205C633.444 109.366 632.099 108.092 630.331 108.092C628.526 108.092 627.182 109.366 627.182 111.205C627.182 113.045 628.491 114.354 630.331 114.354Z" fill="#323C69"/>
</svg>
