<svg width="819" height="129" viewBox="0 0 819 129" fill="none" xmlns="http://www.w3.org/2000/svg">
<path d="M3 11.3496L62.6281 126.833" stroke="#323C69" stroke-width="6"/>
<path d="M815.938 11.3496L756.31 126.833" stroke="#323C69" stroke-width="6"/>
<path d="M50 46H334" stroke="#FFD600" stroke-width="11.6239"/>
<path d="M414 46H651" stroke="#FFD600" stroke-width="11.6239"/>
<path d="M71.754 44.5803V48.8678H85.8474V44.5803H71.754ZM69.7588 22.5488V50.8205H74.3434V22.5488H69.7588ZM71.754 22.5488V26.5815H81.2628V30.02H71.754V34.0527H85.9323V22.5488H71.754ZM67.3392 15.4596V23.3978H71.8813V19.5348H83.9371V23.3978H88.6915V15.4596H67.3392ZM75.2773 10.9175V17.4972H80.244V10.9175H75.2773ZM71.754 36.7271V40.8872H83.0457V50.6083H87.7576V36.7271H71.754ZM57.4483 19.0254V24.3317H61.6509V19.0254H57.4483ZM51.8874 22.5488V46.151H56.3871V22.5488H51.8874ZM54.8164 28.2371V31.5057H64.0281V28.2371H54.8164ZM49.2979 44.8775L50.6988 49.547C54.5617 48.4858 59.5284 47.1274 64.1554 45.7689L63.6885 41.7786C58.4247 42.9672 52.9062 44.1983 49.2979 44.8775ZM59.2312 39.4439C61.1839 42.6276 63.1366 46.8726 63.8158 49.5895L68.1457 47.6368C67.3816 44.8775 65.3016 40.8023 63.2215 37.7459L59.2312 39.4439ZM54.3919 22.5488V26.1995H61.6084V33.6707H54.3919V37.3214H66.0657V22.5488H54.3919ZM56.2173 10.9599C54.8164 14.3135 52.2694 18.3038 48.4489 21.3177C49.4677 21.9969 50.911 23.61 51.5478 24.6713C56.005 20.9357 58.7218 16.5209 60.4198 13.2947V11.8938H58.9765V10.9599H56.2173ZM57.4483 10.9599V14.4408H58.2549C60.6321 16.2662 63.3913 19.7471 64.5799 21.8696L67.8061 18.0915C66.4053 15.9266 63.3913 12.9975 60.8443 10.9599H57.4483ZM114.501 29.8502C118.322 33.4584 123.288 38.5524 125.538 41.7362L129.783 38.4675C127.279 35.2838 122.142 30.4445 118.364 27.0485L114.501 29.8502ZM114.628 10.9599V21.1055C114.628 26.6664 113.907 34.0952 104.738 38.8071C105.926 39.6986 107.667 41.5664 108.388 42.6701C118.067 36.8969 119.85 28.1946 119.85 21.1479V10.9599H114.628ZM99.7285 18.0066V50.9054H104.823V23.0157H131.991V18.0066H99.7285ZM129.741 18.0066V44.9199C129.741 45.6416 129.486 45.8963 128.679 45.9387C127.873 45.9387 125.029 45.9387 122.524 45.8114C123.203 47.1274 124.01 49.4621 124.18 50.863C127.958 50.863 130.675 50.8205 132.457 50.014C134.198 49.165 134.792 47.7641 134.792 45.0048V18.0066H129.741ZM154.065 17.1576V21.9545H164.465V17.1576H154.065ZM171.851 11.0448V50.7356H177.157V11.0448H171.851ZM149.395 29.7228C152.579 31.6331 156.612 34.6046 158.437 36.7271L161.154 32.3972C159.243 30.402 155.126 27.6428 151.942 25.9023L149.395 29.7228ZM154.616 10.9175C152.749 18.6009 149.268 25.7325 144.598 29.9775C145.787 30.7416 147.952 32.3972 148.843 33.2886C153.598 28.3644 157.418 20.5112 159.668 11.9787L154.616 10.9175ZM169.219 21.2753L164.889 22.8459C168.837 30.4445 175.205 37.3638 182.336 41.1419C183.185 39.7835 184.798 37.7459 186.029 36.6846C179.11 33.6282 172.53 27.5154 169.219 21.2753ZM163.064 17.1576V18.3038C161.069 32.6519 154.871 41.906 145.829 46.6604C147.06 47.4245 149.013 49.3348 149.862 50.4809C159.031 45.2595 165.738 34.5197 168.243 18.0915L164.889 16.9878L163.998 17.1576H163.064ZM217.018 17.9217L211.202 17.7519C210.778 22.2092 209.844 27.0909 208.613 31.0812C206.83 36.812 205.217 39.5288 203.391 39.5288C201.778 39.5288 200.08 37.4487 200.08 33.1613C200.08 27.8126 205.005 20.4687 214.004 20.4687C221.348 20.4687 225.508 25.2231 225.508 31.8878C225.508 38.1279 221.263 41.9909 215.872 43.3068C214.726 43.5615 213.537 43.7738 211.881 43.986L215.108 48.9952C225.805 47.3396 231.281 41.0145 231.281 32.1C231.281 22.8035 224.616 15.5021 214.131 15.5021C203.137 15.5021 194.604 23.9072 194.604 33.6707C194.604 40.8447 198.51 46.0661 203.264 46.0661C207.891 46.0661 211.542 40.8023 214.089 32.2274C215.575 27.2183 216.424 22.2516 217.018 17.9217ZM245.205 25.3929V29.9775H255.096V25.3929H245.205ZM242.445 14.1861V18.8981H253.185V31.4208H258.11V14.1861H242.445ZM242.445 25.3929V38.4675C242.445 43.4766 243.761 44.8775 248.431 44.8775C249.407 44.8775 252.931 44.8775 253.949 44.8775C257.812 44.8775 259.171 43.3493 259.765 37.5761C258.364 37.2365 256.242 36.4299 255.223 35.6234C255.053 39.4863 254.798 40.0806 253.482 40.0806C252.633 40.0806 249.832 40.0806 249.153 40.0806C247.624 40.0806 247.37 39.9108 247.37 38.3826V25.3929H242.445ZM263.416 18.3887V23.228H281.075V18.3887H263.416ZM263.755 11.0024C262.439 17.9217 259.85 24.5439 256.072 28.4918C257.345 29.2559 259.595 30.869 260.572 31.7604C264.392 27.1758 267.364 19.7895 269.062 11.9363L263.755 11.0024ZM273.009 20.4687C271.354 34.3499 266.812 42.3729 255.35 46.4906C256.327 47.5943 257.897 49.8442 258.407 51.0328C270.717 45.8538 276.023 36.6846 278.188 21.0206L273.009 20.4687ZM265.708 22.2092L261.039 23.0157C263.586 36.1752 268.128 45.9387 278.188 50.7356C278.952 49.3348 280.566 47.2547 281.712 46.2359C272.373 42.3729 267.788 33.416 265.708 22.2092ZM317.2 30.5718C315.077 32.4821 310.96 34.2225 307.394 35.1564C308.328 35.9205 309.474 37.1091 310.068 38.043C314.059 36.7695 318.261 34.7744 320.935 32.1L317.2 30.5718ZM321.36 34.4348C318.558 37.2789 312.997 39.4014 307.691 40.4627C308.583 41.3117 309.559 42.7125 310.111 43.6464C315.969 42.1607 321.615 39.6137 325.011 35.9205L321.36 34.4348ZM324.459 39.2316C320.808 43.2644 313.379 45.5991 305.526 46.6604C306.502 47.7217 307.564 49.4197 308.073 50.6507C316.775 49.0376 324.374 46.2359 328.789 41.0145L324.459 39.2316ZM311.427 10.9175C309.898 15.2474 307.054 19.4075 303.743 21.9969C304.847 22.6337 306.715 24.1194 307.564 24.926C310.917 21.912 314.143 17.1152 316.054 12.0636L311.427 10.9175ZM311.384 15.2474L308.922 19.3226H328.492V15.2474H311.384ZM321.487 16.2662C318.983 23.1006 312.615 27.006 304.295 29.0012C305.187 29.8926 306.715 31.8453 307.267 32.8641C315.969 30.1898 322.888 25.5203 326.242 17.285L321.487 16.2662ZM311.342 17.5821L308.158 19.5773C311.13 24.926 317.539 30.402 327.091 32.5245C327.685 31.2935 328.959 29.4257 329.892 28.4493C320.384 26.9211 314.016 22.2941 311.342 17.5821ZM300.602 16.3935V43.7313H305.017V16.3935H300.602ZM296.697 11.0873C294.829 17.3274 291.687 23.5251 288.291 27.5154C289.056 28.8738 290.329 31.8029 290.711 33.0339C295.083 27.9399 298.989 19.9169 301.408 12.4881L296.697 11.0873ZM293.385 22.6761V50.7781H298.225V18.0915L298.097 18.0066L293.385 22.6761ZM352.146 19.0852L346.909 18.5191C346.945 21.1726 346.556 24.1799 345.883 27.3641C344.893 31.822 342.239 41.1623 338.029 46.8231L342.664 48.6629C346.343 42.6836 349.209 32.6003 350.377 27.6118C350.73 25.8074 351.19 23.6138 351.509 22.0217C351.721 21.1372 351.933 20.0051 352.146 19.0852ZM364.352 22.3755L360.106 24.1799C362.653 27.3287 365.165 33.6971 366.085 37.6597L370.579 35.5723C369.482 32.1758 366.51 25.4536 364.352 22.3755ZM337.817 26.3381L338.241 31.1144C339.303 30.9375 341.142 30.6898 342.168 30.5483C344.114 30.3006 350.2 29.5223 352.323 29.5223C354.516 29.5223 355.754 29.9468 355.754 32.7772C355.754 36.2445 355.294 40.5608 354.304 42.5421C353.738 43.7097 352.853 44.0635 351.65 44.0635C350.73 44.0635 348.714 43.7097 347.334 43.3205L348.077 47.9906C349.315 48.2737 350.978 48.486 352.358 48.486C355.011 48.486 356.957 47.7076 358.16 45.231C359.646 42.1883 360.142 36.4568 360.142 32.2819C360.142 27.1518 357.488 25.489 353.773 25.489C351.12 25.489 344.433 26.2673 341.602 26.3381C340.293 26.3735 339.09 26.4088 337.817 26.3381ZM387.596 18.5191L386.5 22.8001C389.259 23.5077 397.114 25.1352 400.722 25.6305L401.784 21.2787C398.67 20.9603 390.957 19.5805 387.596 18.5191ZM387.844 25.6305L383.068 24.9936C382.855 29.3808 382.006 36.3152 381.299 39.7825L385.403 40.7731C385.686 40.0655 386.075 39.4994 386.712 38.7565C388.941 36.0676 392.514 34.5816 396.512 34.5816C399.626 34.5816 401.784 36.2445 401.784 38.5442C401.784 43.0728 396.194 45.6556 385.544 44.1696L386.924 48.8044C401.607 50.0781 406.737 45.1249 406.737 38.6503C406.737 34.3693 403.128 30.5483 396.937 30.5483C393.222 30.5483 389.684 31.6097 386.5 33.9448C386.747 31.8927 387.349 27.6118 387.844 25.6305ZM418.171 22.379V27.6428H455.952V22.379H418.171ZM439.948 24.5015L434.812 25.6901C438.038 37.3638 443.344 46.151 453.065 50.6932C453.914 49.2074 455.612 47 456.886 45.8538C447.886 42.288 442.495 34.2225 439.948 24.5015ZM434.09 10.9599C433.963 22.4639 434.727 38.5949 417.322 46.3632C418.808 47.467 420.379 49.2923 421.185 50.6932C439.396 41.906 439.481 23.9072 439.694 10.9599H434.09ZM466.098 17.4972V21.9545H481.677V17.4972H466.098ZM465.376 27.3456V31.9302H482.356V27.3456H465.376ZM471.574 11.3844V26.7089C471.574 33.1613 471.149 41.9909 464.824 46.6179C465.97 47.5094 467.583 49.2499 468.262 50.3111C475.394 44.453 476.37 34.647 476.37 26.7089V11.3844H471.574ZM475.691 32.6519L472.55 35.0291C474.375 37.1516 477.941 41.8211 479.512 44.4105L482.95 40.7174C481.889 39.4439 477.135 33.9678 475.691 32.6519ZM488.384 23.4827H497.68V25.9448H488.384V23.4827ZM488.384 29.9775H497.68V32.4821H488.384V29.9775ZM488.384 16.9454H497.68V19.4075H488.384V16.9454ZM483.672 12.4457V36.9818H502.562V12.4457H483.672ZM493.308 35.4111V44.3681C493.308 48.5282 494.115 49.9715 497.893 49.9715C498.614 49.9715 500.015 49.9715 500.737 49.9715C503.751 49.9715 504.897 48.4433 505.321 42.3729C504.09 42.0333 502.053 41.2692 501.161 40.5051C501.034 45.0048 500.907 45.5991 500.227 45.5991C499.93 45.5991 498.996 45.5991 498.742 45.5991C498.105 45.5991 498.062 45.4718 498.062 44.2832V35.4111H493.308ZM486.431 36.2601C485.922 41.1419 484.818 44.8775 478.238 47.0425C479.215 47.9339 480.488 49.7168 480.997 50.863C488.808 47.9339 490.549 42.8823 491.228 36.2601H486.431ZM527.523 13.8465V18.0491H552.016V13.8465H527.523ZM526.759 37.7459V41.906H552.144V37.7459H526.759ZM532.532 10.9599V20.4687H537.329V10.9599H532.532ZM542.253 10.9599V20.4687H547.219V10.9599H542.253ZM533.423 29.8926H545.139V31.718H533.423V29.8926ZM533.423 24.7562H545.139V26.5391H533.423V24.7562ZM528.711 21.1904V35.2838H550.064V21.1904H528.711ZM536.947 34.7744C536.352 41.0145 535.036 44.7926 525.188 46.7453C526.122 47.7641 527.353 49.6319 527.777 50.8205C539.069 48.1462 541.149 42.9248 541.913 34.7744H536.947ZM543.059 39.1892L538.814 40.0806C540.81 45.4718 544.333 49.1225 550.191 50.7781C550.828 49.4621 552.229 47.5519 553.29 46.5755C548.153 45.5567 544.672 42.9248 543.059 39.1892ZM513.514 18.8981V23.5676H526.801V18.8981H513.514ZM518.099 10.9599V50.8205H522.938V10.9599H518.099ZM518.608 22.379C517.589 27.7277 515.212 34.4348 512.495 38.0006C513.302 39.359 514.448 41.6937 514.915 43.1795C517.802 38.7647 520.221 30.4445 521.367 23.4402L518.608 22.379ZM522.683 24.7137L520.349 26.5815C521.622 28.7889 524.084 33.798 525.061 36.3875L528.117 32.8641C527.31 31.5057 523.702 25.9872 522.683 24.7137ZM589.033 30.5718C586.91 32.4821 582.793 34.2225 579.227 35.1564C580.161 35.9205 581.307 37.1091 581.901 38.043C585.891 36.7695 590.094 34.7744 592.768 32.1L589.033 30.5718ZM593.193 34.4348C590.391 37.2789 584.83 39.4014 579.524 40.4627C580.415 41.3117 581.392 42.7125 581.944 43.6464C587.802 42.1607 593.448 39.6137 596.844 35.9205L593.193 34.4348ZM596.292 39.2316C592.641 43.2644 585.212 45.5991 577.359 46.6604C578.335 47.7217 579.397 49.4197 579.906 50.6507C588.608 49.0376 596.207 46.2359 600.622 41.0145L596.292 39.2316ZM583.26 10.9175C581.731 15.2474 578.887 19.4075 575.576 21.9969C576.68 22.6337 578.548 24.1194 579.397 24.926C582.75 21.912 585.976 17.1152 587.887 12.0636L583.26 10.9175ZM583.217 15.2474L580.755 19.3226H600.324V15.2474H583.217ZM593.32 16.2662C590.816 23.1006 584.448 27.006 576.128 29.0012C577.019 29.8926 578.548 31.8453 579.099 32.8641C587.802 30.1898 594.721 25.5203 598.075 17.285L593.32 16.2662ZM583.175 17.5821L579.991 19.5773C582.962 24.926 589.372 30.402 598.924 32.5245C599.518 31.2935 600.791 29.4257 601.725 28.4493C592.216 26.9211 585.849 22.2941 583.175 17.5821ZM572.435 16.3935V43.7313H576.85V16.3935H572.435ZM568.529 11.0873C566.662 17.3274 563.52 23.5251 560.124 27.5154C560.888 28.8738 562.162 31.8029 562.544 33.0339C566.916 27.9399 570.822 19.9169 573.241 12.4881L568.529 11.0873ZM565.218 22.6761V50.7781H570.058V18.0915L569.93 18.0066L565.218 22.6761ZM634.242 16.6482V35.8356H638.911V16.6482H634.242ZM640.525 10.875C640.142 12.191 639.336 14.1437 638.614 15.4596L642.223 16.6058C643.072 15.4596 644.218 13.8041 645.406 12.1061L640.525 10.875ZM642.18 28.8738C641.798 30.1049 640.907 31.9727 640.312 33.2462L643.581 34.3923C644.345 33.3311 645.321 31.8029 646.383 30.1473L642.18 28.8738ZM628.469 12.3183C629.318 13.6767 630.124 15.5445 630.379 16.818L634.412 15.2474C634.072 14.0588 633.181 12.2759 632.289 11.0024L628.469 12.3183ZM627.28 30.2747C628.002 31.5906 628.596 33.3311 628.808 34.4772L632.756 33.1613C632.501 32.1 631.78 30.402 631.058 29.171L627.28 30.2747ZM625.54 15.6294V19.3226H647.996V15.6294H625.54ZM624.903 25.9448V29.6379H648.25V25.9448H624.903ZM624.181 33.5433V37.2365H648.717V33.5433H624.181ZM629.403 45.7689V49.4197H643.963V45.7689H629.403ZM626.941 20.8508V24.4166H646.552V20.8508H626.941ZM627.025 38.8071V50.7781H631.568V42.4578H641.883V50.6932H646.595V38.8071H627.025ZM615.267 11.0024C614.333 13.9314 612.508 18.0491 611.022 20.5961L614.333 21.9545C615.904 19.5773 617.856 15.7992 619.554 12.4881L615.267 11.0024ZM619.809 16.0115C617.729 20.5536 614.078 26.7513 611.064 30.5718L613.908 32.1425C617.007 28.5342 620.87 22.6337 623.842 17.8368L619.809 16.0115ZM608.687 20.7659C610.81 22.8884 613.314 25.9023 614.248 27.9824L616.922 24.1619C615.904 22.2516 613.357 19.4499 611.192 17.4123L608.687 20.7659ZM618.535 25.9872C620.021 29.0012 621.38 32.9915 621.719 35.4536L625.285 33.9254C624.903 31.4208 623.417 27.5579 621.889 24.6288L618.535 25.9872ZM608.56 29.5955L609.112 33.9678C612.89 33.6707 617.814 33.3311 622.526 32.949L622.483 28.7465C617.389 29.0861 612.21 29.4257 608.56 29.5955ZM619.215 36.7695C620.191 39.2316 620.998 42.4578 621.167 44.5803L624.733 43.4342C624.478 41.3541 623.629 38.1704 622.611 35.7507L619.215 36.7695ZM610.385 35.9205C610.045 39.4863 609.409 43.3068 608.22 45.8114C609.196 46.1934 610.979 47 611.786 47.5519C612.974 44.835 613.908 40.6325 614.333 36.5997L610.385 35.9205ZM614.757 31.8453V50.8205H619.045V31.8453H614.757ZM676.759 18.413H671.947C672.088 19.0852 672.159 20.182 672.159 20.8188C672.159 22.8355 672.124 27.3287 672.124 30.7252C672.124 34.1571 672.513 40.4901 672.513 42.6129C672.513 44.6649 671.239 45.1956 669.364 45.1956C666.923 45.1956 665.685 44.3819 665.685 43.0374C665.685 41.7991 667.064 40.8439 669.541 40.8439C675.591 40.8439 680.721 44.2757 684.082 47.4599L686.63 43.4974C683.693 41.0208 677.891 37.1997 670.107 37.1997C664.694 37.1997 661.404 39.7117 661.404 43.2851C661.404 47.0354 664.376 49.1936 670.036 49.1936C674.671 49.1936 676.971 46.8585 676.971 43.8158C676.971 41.0208 676.405 34.617 676.405 30.7252C676.405 27.7533 676.44 22.7293 676.511 20.9249C676.546 20.0051 676.652 19.1206 676.759 18.413ZM662.076 21.7033L662.147 25.772C664.482 26.055 668.586 26.3735 670.85 26.3735C676.157 26.3735 681.783 25.9489 685.391 25.4536L685.427 21.4203C680.261 22.234 675.626 22.4817 670.815 22.4817C668.657 22.4817 664.588 22.1279 662.076 21.7033ZM661.864 29.3454L661.934 33.5202C664.269 33.8033 668.267 33.9802 670.355 33.9802C677.077 33.9802 680.933 33.7679 685.816 33.2018L685.851 29.027C681.499 29.593 676.935 30.0176 670.39 30.0176C668.515 30.0176 664.199 29.7699 661.864 29.3454ZM698.057 22.7647L698.517 27.6118C702.586 26.7273 709.839 25.9489 713.129 25.5951C710.759 27.3995 707.893 31.4328 707.893 36.4921C707.893 44.1696 714.898 48.1675 722.293 48.6275L723.956 43.7804C717.976 43.4974 712.528 41.3746 712.528 35.5723C712.528 31.362 715.747 26.7626 719.993 25.6305C721.904 25.2059 724.946 25.1705 726.857 25.1705L726.821 20.6065C724.309 20.7127 720.453 20.9603 716.773 21.2434C710.299 21.8094 704.461 22.3048 701.525 22.5878C700.852 22.6586 699.437 22.7293 698.057 22.7647ZM721.797 28.6378L719.179 29.7346C720.276 31.2913 721.019 32.7065 721.939 34.617L724.592 33.4495C723.92 32.0343 722.647 29.8761 721.797 28.6378ZM725.725 27.0103L723.177 28.1778C724.309 29.7346 725.123 31.079 726.078 32.9895L728.732 31.7158C727.989 30.336 726.644 28.2486 725.725 27.0103ZM751.446 37.9073H755.09L756.01 25.8074L756.187 20.5358H750.349L750.526 25.8074L751.446 37.9073ZM753.286 47.3538C755.055 47.3538 756.399 46.0447 756.399 44.205C756.399 42.3652 755.055 41.0915 753.286 41.0915C751.481 41.0915 750.137 42.3652 750.137 44.205C750.137 46.0447 751.446 47.3538 753.286 47.3538Z" fill="#323C69"/>
<path d="M193.4 99.4387V103.118H226.088V99.4387H193.4ZM201.572 96.8916V100.429C201.572 103.012 200.723 105.984 194.037 107.752C194.921 108.566 196.195 110.158 196.69 111.149C204.65 108.814 205.782 104.462 205.782 100.535V96.8916H201.572ZM213.529 96.8562V111.078H217.739V96.8562H213.529ZM194.673 83.6252V96.2902H197.751V86.4907H208.895V83.6252H194.673ZM207.551 83.6252V92.7878C207.551 93.1062 207.444 93.177 207.126 93.2124C206.843 93.2477 205.959 93.2124 205.003 93.2124C205.393 94.026 205.782 95.2642 205.852 96.1133C207.48 96.1133 208.683 96.1133 209.602 95.618C210.522 95.1227 210.699 94.2737 210.699 92.8586V83.6252H207.551ZM195.062 79.3799C195.876 80.6889 196.69 82.4223 196.902 83.5544L199.909 82.4223C199.626 81.2903 198.742 79.5922 197.893 78.354L195.062 79.3799ZM204.261 88.0473C204.65 89.2855 205.11 90.9129 205.286 91.9742L207.126 91.3728C206.985 90.4176 206.489 88.8256 206.065 87.5874L204.261 88.0473ZM207.692 78.3186C207.197 79.5922 206.312 81.3964 205.64 82.5639L208.4 83.4129C209.107 82.3162 209.921 80.795 210.699 79.2384L207.692 78.3186ZM199.095 87.5874C198.777 89.3563 198.282 91.2312 197.574 92.6817C198.14 92.894 199.095 93.3539 199.52 93.6369C200.157 92.2218 200.794 90.0284 201.218 88.0827L199.095 87.5874ZM214.732 77.9648C213.706 81.2903 212.043 84.6865 210.168 86.9506C210.805 87.7643 211.902 89.5331 212.291 90.2761C214.555 87.4813 216.749 83.0591 218.128 78.9554L214.732 77.9648ZM214.838 81.2195L213.211 84.5096H225.982V81.2195H214.838ZM200.9 77.9648V85.2171H201.289V95.8656H204.048V85.2171H204.402V77.9648H200.9ZM220.888 82.67C219.826 88.3303 216.536 91.6911 210.947 93.46C211.584 94.2029 212.539 95.8303 212.822 96.6439C219.331 94.2383 223.046 90.0992 224.602 83.0238L220.888 82.67ZM215.652 84.1558L212.503 84.8987C214.626 90.6298 218.376 94.7336 224.249 96.6086C224.708 95.6534 225.77 94.2737 226.513 93.5308C221.135 92.1511 217.421 88.7195 215.652 84.1558ZM246.501 106.019V110.193H266.666V106.019H246.501ZM247.951 88.9317V93.0001H265.817V88.9317H247.951ZM254.708 78.3186V108.035H259.06V78.3186H254.708ZM233.8 84.5096V88.3657H245.404V84.5096H233.8ZM238.859 96.6086V111.219H243.069V91.585L238.859 96.6086ZM238.859 78.0002V86.3138H243.069V78.0002H238.859ZM242.645 92.7878L240.31 94.8397C241.902 96.3963 244.873 99.651 246.253 101.491L248.836 98.059C247.88 97.1746 243.883 93.6369 242.645 92.7878ZM243.848 84.5096V85.2879C241.973 90.4883 237.303 95.6888 232.491 98.3067C233.128 99.1203 234.119 101.208 234.508 102.34C239.779 99.0142 245.121 92.8232 247.81 85.9247L245.439 84.3681L244.697 84.5096H243.848ZM287.821 83.2714L287.857 87.7997C292.279 88.2242 298.717 88.2242 303.033 87.7997V83.236C299.248 83.6959 292.173 83.8728 287.821 83.2714ZM290.651 98.3774L286.618 98.0237C286.194 99.8279 285.982 101.208 285.982 102.623C285.982 106.231 288.918 108.425 295.003 108.425C299 108.425 301.866 108.177 304.165 107.717L304.059 102.941C300.982 103.613 298.364 103.896 295.215 103.896C291.607 103.896 290.227 102.941 290.227 101.349C290.227 100.429 290.368 99.5802 290.651 98.3774ZM282.373 80.9011L277.42 80.512C277.385 81.644 277.208 82.9884 277.067 83.9436C276.677 86.703 275.616 92.6463 275.616 97.9883C275.616 102.8 276.288 107.116 276.996 109.521L281.064 109.274C281.029 108.778 281.029 108.177 280.993 107.788C280.993 107.434 281.1 106.656 281.206 106.125C281.56 104.25 282.727 100.429 283.753 97.4576L281.56 95.7241C281.029 96.927 280.463 98.1298 279.932 99.3326C279.826 98.6251 279.791 97.7406 279.791 97.0331C279.791 93.4954 281.029 86.42 281.524 84.0851C281.666 83.4483 282.126 81.644 282.373 80.9011ZM327.408 79.2738H322.526C322.632 79.9106 322.738 81.6794 322.738 82.387C322.738 84.0143 322.703 88.4011 322.703 92.4341C322.703 96.7147 322.88 101.632 322.88 103.472C322.88 104.71 322.42 104.993 321.783 104.993C320.863 104.993 319.201 104.038 319.201 102.906C319.201 101.384 321.465 99.4741 324.649 98.2713C327.408 97.1746 330.521 96.5378 333.528 96.5378C336.606 96.5378 338.729 97.9175 338.729 100.359C338.729 102.906 336.429 104.356 333.564 104.851C332.361 105.099 330.804 105.099 329.248 105.099L330.84 109.698C332.29 109.557 333.882 109.45 335.51 109.097C341.135 107.717 343.328 104.568 343.328 100.359C343.328 95.4765 339.012 92.6463 333.564 92.6463C330.875 92.6463 327.302 93.2124 324.154 94.3444C319.236 96.0779 314.814 99.6864 314.814 103.118C314.814 106.868 319.696 109.84 323.128 109.84C325.462 109.84 327.019 108.637 327.019 104.285C327.019 102.234 326.807 96.1133 326.807 92.2572C326.807 88.9671 326.913 85.1464 327.09 82.3516C327.125 81.4672 327.267 79.9459 327.408 79.2738ZM337.491 83.1299L335.545 86.5615C337.738 87.6228 342.337 90.2761 344.035 91.6911L346.193 88.0827C344.283 86.7384 340.179 84.4388 337.491 83.1299ZM315.769 85.0756L315.875 89.3563C317.078 89.4978 318.458 89.5331 320.793 89.5331C323.906 89.5331 329.602 88.8964 333.599 87.9766L333.493 83.5898C329.849 84.6511 324.33 85.3233 320.651 85.3233C319.378 85.3233 317.856 85.3233 315.769 85.0756ZM382.101 78.4601C377.644 80.0521 370.604 81.4318 364.236 82.2101C364.696 83.2006 365.297 84.828 365.474 85.8539C372.054 85.1464 379.625 83.9082 385.214 82.0332L382.101 78.4601ZM363.21 92.7525V96.8208H386.063V92.7525H363.21ZM364.66 105.913V109.981H385.674V105.913H364.66ZM372.868 83.6605V107.186H377.184V83.6605H372.868ZM357.833 88.2596V111.149H362.042V84.1912L362.007 84.1204L357.833 88.2596ZM361.37 78.071C359.354 83.3068 355.993 88.5072 352.455 91.7619C353.234 92.8586 354.507 95.1935 354.932 96.2548C359.071 92.1511 363.104 85.6063 365.545 79.4153L361.37 78.071ZM419 80.2643H414.224C414.33 80.9365 414.471 82.5992 414.471 83.519C414.471 85.6063 414.471 87.6582 414.471 89.4978C414.401 91.9388 414.33 94.4859 414.153 95.8303C414.047 96.5378 413.728 96.6439 413.056 96.6439C412.349 96.6439 410.863 96.4671 409.766 96.2194L409.695 100.111C410.898 100.323 413.764 100.642 415.002 100.642C416.806 100.642 417.726 100.182 418.115 98.3067C418.469 96.5024 418.575 92.6817 418.646 89.5331C418.717 87.7289 418.717 85.7124 418.787 83.3068C418.823 82.387 418.893 80.8304 419 80.2643ZM405.061 81.3257H400.073C400.25 82.5639 400.356 83.7667 400.356 85.2525C400.356 87.3751 400.32 98.1298 400.391 101.172C400.533 107.292 401.665 109.238 410.792 109.238C414.188 109.238 418.504 108.92 420.875 108.672L421.051 103.826C418.434 104.321 413.941 104.745 410.474 104.745C405.167 104.745 404.884 103.967 404.778 100.465C404.707 97.5638 404.849 88.2242 404.849 85.0049C404.849 83.4837 404.919 82.4931 405.061 81.3257ZM393.245 89.3209L393.705 93.8138C394.66 93.6723 396.854 93.3539 397.95 93.2124C402.054 92.7525 415.816 91.2666 421.334 91.0897C422.254 91.0897 424.129 91.019 424.766 91.0544V86.7384C423.705 86.8091 422.325 86.9152 421.37 86.986C414.542 87.4105 401.24 88.7195 397.667 89.0379C395.863 89.2501 394.236 89.3209 393.245 89.3209ZM457.879 82.5285L453.74 78.8493C453.174 79.6983 452.042 80.8658 451.016 81.8563C448.646 84.1912 443.764 88.1181 441.004 90.3822C437.466 93.3185 437.183 95.2289 440.686 98.2359C443.94 100.96 449.141 105.417 451.264 107.646C452.325 108.708 453.386 109.804 454.377 110.936L458.48 107.116C454.872 103.613 448.15 98.342 445.497 96.1133C443.587 94.4506 443.551 94.026 445.426 92.4341C447.797 90.3822 452.466 86.7737 454.766 84.9341C455.58 84.262 456.747 83.3422 457.879 82.5285ZM487.56 80.1936L482.148 79.7691C482.254 80.5827 482.218 82.0332 482.042 83.3422C481.794 85.4648 480.98 89.3209 480.06 92.6463C478.752 97.5991 476.063 105.028 473.94 108.566L478.893 110.229C480.839 106.054 483.209 98.8019 484.483 93.8492C485.438 90.2761 486.287 85.9247 486.782 83.519C486.959 82.7407 487.313 81.1488 487.56 80.1936ZM478.539 85.4648C477.089 85.4648 475.921 85.4294 474.082 85.2171L474.223 89.6039C475.461 89.6747 476.77 89.7454 478.504 89.7454C482.502 89.7454 488.056 89.1794 492.442 88.1534V83.7313C487.843 84.828 482.855 85.4648 478.539 85.4648ZM489.648 90.9129V95.052C491.876 94.769 494.034 94.6628 496.511 94.6628C498.633 94.6628 500.791 94.8751 502.596 95.0874L502.666 90.8421C500.615 90.6298 498.492 90.5237 496.475 90.5237C494.141 90.5237 491.629 90.7006 489.648 90.9129ZM491.558 99.7925L487.348 99.368C487.03 100.783 486.747 102.481 486.747 104.109C486.747 107.682 489.931 109.769 495.909 109.769C498.74 109.769 501.11 109.486 503.091 109.238L503.268 104.71C500.756 105.17 498.28 105.453 495.945 105.453C492.124 105.453 491.098 104.285 491.098 102.729C491.098 101.951 491.31 100.783 491.558 99.7925ZM498.881 81.2195L496.086 82.3516C497.041 83.7313 498.138 85.8185 498.881 87.269L501.711 86.0662C501.039 84.7572 499.801 82.4931 498.881 81.2195ZM503.091 79.5922L500.296 80.7596C501.251 82.104 502.419 84.1558 503.126 85.6417L505.957 84.4388C505.32 83.1653 504.011 80.9365 503.091 79.5922ZM529.765 82.9176C530.19 84.0851 530.685 85.7124 531.463 87.6582C532.56 90.5945 534.117 93.5661 535.39 95.6534C534.294 95.5473 531.959 95.3704 530.225 95.1935L529.871 98.9435C532.843 99.1911 537.336 99.651 539.317 100.04L541.475 96.8916C540.838 96.1487 540.202 95.4057 539.6 94.5213C538.433 92.894 536.77 89.8515 535.673 86.8799C534.824 84.6157 533.975 81.8209 533.445 79.0969L528.669 79.6629C529.093 80.8304 529.518 82.104 529.765 82.9176ZM516.888 84.5803L516.959 89.0732C524.211 89.6747 529.801 89.5331 534.506 88.9671C537.336 88.6487 540.378 88.1181 542.713 87.4459L542.183 83.0238C539.388 83.8728 536.275 84.4742 533.126 84.8634C528.881 85.3233 523.504 85.3586 516.888 84.5803ZM523.999 96.6086L519.577 95.5826C518.374 97.9883 517.702 100.005 517.702 102.163C517.702 107.292 522.23 110.087 529.482 110.087C533.763 110.087 536.947 109.627 538.963 109.274L539.211 104.781C536.735 105.276 533.621 105.665 529.765 105.665C524.919 105.63 522.265 104.392 522.265 101.384C522.265 99.8633 522.831 98.3067 523.999 96.6086ZM561.003 82.7407L555.555 82.67C555.803 83.7667 555.838 85.2879 555.838 86.2431C555.838 88.4011 555.874 92.5756 556.227 95.8303C557.218 105.311 560.579 108.778 564.506 108.778C567.336 108.778 569.529 106.656 571.899 100.465L568.326 96.184C567.654 98.9788 566.275 103.153 564.576 103.153C562.348 103.153 561.286 99.651 560.791 94.5567C560.579 91.9742 560.579 89.3563 560.579 87.0567C560.579 86.0662 560.756 83.9789 561.003 82.7407ZM578.692 83.519L574.199 85.0049C578.055 89.3916 579.965 97.9529 580.496 103.684L585.166 101.844C584.777 96.4317 582.053 87.5874 578.692 83.519ZM607.666 98.9081H611.31L612.229 86.8091L612.406 81.5379H606.569L606.746 86.8091L607.666 98.9081ZM609.505 108.354C611.274 108.354 612.619 107.045 612.619 105.205C612.619 103.366 611.274 102.092 609.505 102.092C607.701 102.092 606.357 103.366 606.357 105.205C606.357 107.045 607.666 108.354 609.505 108.354Z" fill="#323C69"/>
</svg>
