<svg width="742" height="128" viewBox="0 0 742 128" fill="none" xmlns="http://www.w3.org/2000/svg">
<path d="M3 10L62.6281 125.483" stroke="#323C69" stroke-width="6"/>
<path d="M739 10L679.372 125.483" stroke="#323C69" stroke-width="6"/>
<path d="M97 48L598 48" stroke="#FFD600" stroke-width="12.2857"/>
<path d="M123.496 10.9599V40.9296H128.293V10.9599H123.496ZM110.931 28.0248L112.842 32.5245L134.788 23.0157L132.92 18.6858L110.931 28.0248ZM115.134 15.0776V42.5427C115.134 48.4433 116.747 49.9715 122.563 49.9715C123.879 49.9715 130.246 49.9715 131.647 49.9715C136.614 49.9715 138.142 47.9764 138.778 41.9484C137.42 41.6937 135.425 40.8872 134.321 40.1231C133.982 44.4954 133.557 45.4293 131.222 45.4293C129.906 45.4293 124.261 45.4293 122.987 45.4293C120.355 45.4293 119.973 45.0897 119.973 42.5852V15.0776H115.134ZM131.944 19.2377C131.944 28.6191 131.944 33.2462 131.774 34.0952C131.647 34.8593 131.392 34.9866 130.883 34.9866C130.501 34.9866 129.524 34.9866 128.803 34.9442C129.355 36.0054 129.737 37.9157 129.906 39.1892C131.265 39.1892 133.09 39.1892 134.321 38.5949C135.637 38.043 136.359 37.0242 136.529 35.0715C136.698 33.3311 136.783 28.1946 136.783 20.0867L136.996 19.2377L133.43 17.9642L132.538 18.6009L131.647 19.2377H131.944ZM98.7481 20.8083V25.6052H112.757V20.8083H98.7481ZM103.672 11.5542V39.6986H108.427V11.5542H103.672ZM98.1538 39.741L100.191 44.835C104.139 43.0521 109.021 40.7598 113.521 38.4675L112.375 33.9678C107.196 36.1752 101.677 38.4675 98.1538 39.741ZM146.759 21.1055V25.9023H158.56V21.1055H146.759ZM150.58 11.5542V39.9957H155.292V11.5542H150.58ZM146.377 40.6325L148.287 45.7265C151.768 43.8587 155.928 41.4815 159.706 39.2316L158.221 34.7319C153.891 37.0242 149.349 39.3165 146.377 40.6325ZM159.197 16.818V21.4026H185.983V16.818H159.197ZM157.881 41.4815L159.07 46.2359C163.102 45.2171 168.239 43.8587 173.078 42.5427L172.611 38.2977C167.22 39.5288 161.617 40.8023 157.881 41.4815ZM172.738 11.0024C172.823 30.02 174.352 50.8205 181.738 50.8205C184.964 50.8205 186.195 49.165 186.874 43.4766C185.856 42.9248 184.412 41.8635 183.436 40.7174C183.351 44.4954 182.969 46.0236 182.417 46.0236C179.615 46.0236 177.281 28.0673 177.578 11.0024H172.738ZM178.384 13.422C180.04 14.738 181.993 16.6058 182.926 17.8793L185.94 15.12C184.964 13.889 182.884 12.1485 181.228 10.9599L178.384 13.422ZM180.846 24.2043C178.639 34.5621 174.097 42.6276 166.626 47.3396C167.644 48.0613 169.555 49.7168 170.276 50.5658C177.79 45.1746 182.714 36.3875 185.389 25.0533L180.846 24.2043ZM164.164 28.1522H167.432V33.3311H164.164V28.1522ZM160.428 24.2468V37.2789H171.38V24.2468H160.428ZM211.75 29.8502C215.571 33.4584 220.537 38.5524 222.787 41.7362L227.032 38.4675C224.527 35.2838 219.391 30.4445 215.613 27.0485L211.75 29.8502ZM211.877 10.9599V21.1055C211.877 26.6664 211.156 34.0952 201.987 38.8071C203.175 39.6986 204.916 41.5664 205.637 42.6701C215.316 36.8969 217.099 28.1946 217.099 21.1479V10.9599H211.877ZM196.977 18.0066V50.9054H202.071V23.0157H229.239V18.0066H196.977ZM226.99 18.0066V44.9199C226.99 45.6416 226.735 45.8963 225.928 45.9387C225.122 45.9387 222.278 45.9387 219.773 45.8114C220.452 47.1274 221.259 49.4621 221.429 50.863C225.207 50.863 227.923 50.8205 229.706 50.014C231.447 49.165 232.041 47.7641 232.041 45.0048V18.0066H226.99ZM251.313 17.1576V21.9545H261.714V17.1576H251.313ZM269.1 11.0448V50.7356H274.406V11.0448H269.1ZM246.644 29.7228C249.828 31.6331 253.86 34.6046 255.686 36.7271L258.403 32.3972C256.492 30.402 252.375 27.6428 249.191 25.9023L246.644 29.7228ZM251.865 10.9175C249.997 18.6009 246.517 25.7325 241.847 29.9775C243.036 30.7416 245.201 32.3972 246.092 33.2886C250.846 28.3644 254.667 20.5112 256.917 11.9787L251.865 10.9175ZM266.468 21.2753L262.138 22.8459C266.086 30.4445 272.454 37.3638 279.585 41.1419C280.434 39.7835 282.047 37.7459 283.278 36.6846C276.359 33.6282 269.779 27.5154 266.468 21.2753ZM260.313 17.1576V18.3038C258.318 32.6519 252.12 41.906 243.078 46.6604C244.309 47.4245 246.262 49.3348 247.111 50.4809C256.28 45.2595 262.987 34.5197 265.492 18.0915L262.138 16.9878L261.247 17.1576H260.313ZM300.004 49.9291L304.546 46.0236C302.381 43.3917 298.306 39.2316 295.292 36.7695L290.834 40.59C293.806 43.137 297.414 46.7877 300.004 49.9291ZM319.403 30.5294L322.035 35.8781C328.742 33.8829 335.619 30.6992 340.416 27.855C345.425 24.8411 350.604 20.8508 354.467 16.9454L349.882 12.6155C347.123 15.969 342.284 20.214 337.954 22.8884C333.199 25.8174 327.002 28.5767 319.403 30.5294ZM337.062 25.6476V43.3493C337.062 45.2171 336.893 47.8915 336.723 48.9103H343.472C343.175 47.849 343.09 45.2171 343.09 43.3493V24.2043L337.062 25.6476ZM374.97 14.738L370.938 19.0254C374.036 21.1479 379.385 25.775 381.592 28.1522L385.922 23.7374C383.418 21.1479 377.899 16.7331 374.97 14.738ZM369.622 43.0097L373.23 48.6131C379.173 47.5943 384.649 45.2595 388.979 42.6701C395.813 38.5524 401.459 32.6943 404.643 26.9211L401.374 20.9781C398.657 26.7089 393.139 33.1613 385.88 37.4912C381.762 39.9108 376.286 42.0758 369.622 43.0097ZM445.777 13.1673L442.423 14.5257C443.569 16.1813 444.885 18.6858 445.734 20.4263L449.173 18.983C448.366 17.4123 446.838 14.6955 445.777 13.1673ZM450.828 11.2571L447.432 12.6155C448.621 14.2286 449.979 16.6907 450.871 18.4736L454.224 17.0303C453.503 15.5445 451.932 12.8277 450.828 11.2571ZM420.859 33.798C419.373 37.5761 416.868 42.1182 414.237 45.5991L420.18 48.1037C422.387 44.9199 424.891 40.0806 426.42 35.963C427.905 32.0151 429.434 26.1995 430.028 23.228C430.198 22.2516 430.707 20.1716 431.047 18.983L424.891 17.667C424.34 23.1006 422.727 29.0861 420.859 33.798ZM441.787 32.949C443.485 37.5336 445.055 42.8823 446.201 47.8915L452.484 45.8538C451.338 41.6513 449.088 34.9017 447.56 31.0388C445.947 26.9636 443.06 20.4263 441.277 17.1576L435.631 18.983C437.457 22.2092 440.173 28.4918 441.787 32.949ZM484.958 12.3608H478.421C478.676 14.1861 478.718 15.0351 478.718 16.2662C478.718 17.3699 478.718 20.5112 478.718 22.379H484.661C484.661 20.7659 484.661 17.3699 484.661 16.2662C484.661 15.0351 484.704 14.1861 484.958 12.3608ZM499.221 21.3177L495.571 19.0679C494.807 19.3226 493.788 19.4924 492.047 19.4924H469.676C468.063 19.4924 466.79 19.4499 465.346 19.3226C465.516 20.2989 465.516 21.9969 465.516 22.9308C465.516 24.5439 465.516 28.9163 465.516 30.3171C465.516 31.4633 465.474 32.8217 465.346 33.8829H471.204C471.077 33.0339 471.035 31.6755 471.035 30.7416C471.035 29.4257 471.035 25.9872 471.035 24.5015H492.09C491.58 28.2795 490.477 32.3123 488.354 35.4536C485.935 38.8496 482.199 41.3541 478.718 42.6701C476.935 43.3917 474.643 44.0285 472.69 44.3681L477.105 49.4621C484.661 47.467 491.071 42.9672 494.425 36.7271C496.547 32.8641 497.651 28.7465 498.415 24.6713C498.585 23.8647 498.924 22.2516 499.221 21.3177ZM518.876 14.738L514.843 19.0254C517.942 21.1479 523.291 25.775 525.498 28.1522L529.828 23.7374C527.323 21.1479 521.805 16.7331 518.876 14.738ZM513.527 43.0097L517.135 48.6131C523.078 47.5943 528.554 45.2595 532.884 42.6701C539.719 38.5524 545.365 32.6943 548.548 26.9211L545.28 20.9781C542.563 26.7089 537.044 33.1613 529.785 37.4912C525.668 39.9108 520.192 42.0758 513.527 43.0097ZM585.522 15.4172L581.957 16.9454C583.527 19.1103 584.461 20.8083 585.735 23.4827L589.385 21.8696C588.451 19.9169 586.711 17.2001 585.522 15.4172ZM591.083 13.1249L587.56 14.7804C589.131 16.8605 590.149 18.4311 591.508 21.1479L595.074 19.365C594.14 17.4548 592.357 14.8229 591.083 13.1249ZM568.627 43.5615C568.627 45.2595 568.457 47.8066 568.203 49.4621H574.825C574.655 47.7641 574.443 44.7926 574.443 43.5615C574.443 40.4202 574.443 23.8647 574.443 19.1528C574.443 17.4123 574.655 15.5445 574.825 14.0588H568.16C568.457 15.5445 568.627 17.6246 568.627 19.1528C568.627 22.761 568.627 40.3353 568.627 43.5615ZM573.169 25.0109V31.1237C577.796 32.6519 584.97 35.3687 589.767 37.8732L592.187 32.0151C587.984 29.9351 578.858 26.5815 573.169 25.0109ZM607.024 22.7647L607.484 27.6118C611.552 26.7273 618.805 25.9489 622.095 25.5951C619.725 27.3995 616.859 31.4328 616.859 36.4921C616.859 44.1696 623.864 48.1675 631.259 48.6275L632.922 43.7804C626.943 43.4974 621.494 41.3746 621.494 35.5723C621.494 31.362 624.714 26.7626 628.959 25.6305C630.87 25.2059 633.912 25.1705 635.823 25.1705L635.788 20.6065C633.276 20.7127 629.419 20.9603 625.74 21.2434C619.265 21.8094 613.427 22.3048 610.491 22.5878C609.819 22.6586 608.403 22.7293 607.024 22.7647ZM630.764 28.6378L628.145 29.7346C629.242 31.2913 629.985 32.7065 630.905 34.617L633.559 33.4495C632.886 32.0343 631.613 29.8761 630.764 28.6378ZM634.691 27.0103L632.143 28.1778C633.276 29.7346 634.089 31.079 635.045 32.9895L637.698 31.7158C636.955 30.336 635.611 28.2486 634.691 27.0103ZM113.398 80.2714H108.516C108.622 80.9083 108.728 82.6773 108.728 83.3849C108.728 85.0124 108.693 89.3995 108.693 93.4328C108.693 97.7138 108.869 102.632 108.869 104.471C108.869 105.71 108.41 105.993 107.773 105.993C106.853 105.993 105.19 105.037 105.19 103.905C105.19 102.384 107.454 100.473 110.638 99.2705C113.398 98.1737 116.512 97.5369 119.519 97.5369C122.597 97.5369 124.72 98.9167 124.72 101.358C124.72 103.905 122.42 105.356 119.554 105.851C118.351 106.099 116.795 106.099 115.238 106.099L116.83 110.698C118.281 110.557 119.873 110.451 121.5 110.097C127.126 108.717 129.319 105.568 129.319 101.358C129.319 96.4755 125.003 93.6451 119.554 93.6451C116.865 93.6451 113.292 94.2112 110.143 95.3433C105.225 97.0769 100.803 100.686 100.803 104.118C100.803 107.868 105.685 110.84 109.117 110.84C111.452 110.84 113.009 109.637 113.009 105.285C113.009 103.233 112.797 97.1123 112.797 93.2559C112.797 89.9656 112.903 86.1445 113.08 83.3495C113.115 82.465 113.257 80.9437 113.398 80.2714ZM123.481 84.1279L121.536 87.5597C123.729 88.6211 128.328 91.2746 130.027 92.6898L132.185 89.0811C130.274 87.7366 126.17 85.4369 123.481 84.1279ZM101.758 86.0738L101.864 90.3547C103.067 90.4963 104.447 90.5316 106.782 90.5316C109.896 90.5316 115.592 89.8948 119.59 88.9749L119.483 84.5878C115.839 85.6492 110.32 86.3214 106.641 86.3214C105.367 86.3214 103.846 86.3214 101.758 86.0738ZM151.113 85.6138C149.344 88.2673 146.089 90.9562 141.101 92.8667C142.021 93.5389 143.33 95.0249 143.896 96.0155C149.344 93.5036 152.953 90.3194 155.642 86.4983L151.113 85.6138ZM152.104 87.9843L149.203 91.1685H162.682V87.9843H152.104ZM161.409 87.9843V88.5857C157.871 94.5296 148.389 98.3506 138.907 99.8012C139.65 100.721 140.535 102.455 140.924 103.551C151.113 101.57 161.126 97.3246 165.796 89.5056L162.93 87.8074L162.223 87.9843H161.409ZM150.406 90.3901L146.726 92.0176C151.785 98.0322 159.852 101.499 169.582 102.844C170.183 101.641 171.351 99.7304 172.306 98.7398C162.753 97.8199 154.51 94.9895 150.406 90.3901ZM145.629 101.11V112.184H149.769V104.577H161.621V112.113H165.973V101.11H145.629ZM147.717 107.62V111.087H163.744V107.62H147.717ZM153.342 78.9978V84.0217H157.729V78.9978H153.342ZM140.393 81.8635V89.6825H144.533V85.6846H166.539V89.6825H170.891V81.8635H140.393ZM195.834 83.9156C196.258 85.0831 196.753 86.7106 197.532 88.6565C198.629 91.593 200.185 94.565 201.459 96.6524C200.362 96.5462 198.027 96.3693 196.293 96.1924L195.94 99.9427C198.912 100.19 203.405 100.65 205.386 101.039L207.544 97.8907C206.907 97.1477 206.271 96.4047 205.669 95.5202C204.502 93.8927 202.839 90.8501 201.742 87.8781C200.893 85.6138 200.044 82.8188 199.513 80.0945L194.737 80.6606C195.161 81.8282 195.586 83.1018 195.834 83.9156ZM182.955 85.5784L183.026 90.0717C190.279 90.6732 195.869 90.5316 200.574 89.9656C203.405 89.6471 206.448 89.1164 208.783 88.4442L208.252 84.0217C205.457 84.8708 202.343 85.4723 199.195 85.8615C194.949 86.3214 189.571 86.3568 182.955 85.5784ZM190.067 97.6076L185.644 96.5816C184.441 98.9875 183.769 101.004 183.769 103.162C183.769 108.292 188.298 111.087 195.55 111.087C199.831 111.087 203.016 110.627 205.032 110.274L205.28 105.78C202.803 106.276 199.69 106.665 195.834 106.665C190.986 106.63 188.333 105.391 188.333 102.384C188.333 100.863 188.899 99.3059 190.067 97.6076ZM238.325 82.748L233.301 80.7314C232.664 82.2173 231.992 83.3849 231.567 84.3048C229.657 87.7012 222.404 102.136 219.821 109.212L224.81 110.911C225.34 109.035 226.543 105.073 227.499 103.021C228.737 100.155 230.754 97.6784 233.159 97.6784C234.433 97.6784 235.105 98.4214 235.211 99.6597C235.318 101.11 235.318 103.976 235.424 105.887C235.601 108.434 237.405 110.804 241.332 110.804C246.781 110.804 250.036 106.771 251.911 100.686L248.054 97.5723C247.064 101.959 245.153 105.957 242.075 105.957C240.908 105.957 239.952 105.391 239.811 104.011C239.634 102.525 239.705 99.6951 239.634 98.1383C239.492 95.1664 237.9 93.5036 235.247 93.5036C233.902 93.5036 232.523 93.822 231.214 94.6003C232.947 91.4515 235.424 86.9229 237.193 84.4109C237.582 83.8094 237.936 83.208 238.325 82.748ZM258.987 81.3328C264.294 86.2507 265.143 91.593 265.143 98.2091C265.143 102.596 264.895 106.594 264.152 107.549C263.905 107.903 263.586 108.08 263.091 108.151C262.454 108.222 261.393 108.222 259.907 108.115C260.614 109.283 260.933 110.804 260.933 112.149C262.383 112.22 263.799 112.184 265.072 111.866C265.921 111.689 266.7 111.194 267.23 110.486C268.822 108.292 269.141 103.268 269.141 98.2799C269.141 91.2746 268.327 84.9062 261.959 79.1393L258.987 81.3328ZM265.461 92.1591C264.011 95.1664 261.074 98.6337 258.492 100.367C259.411 101.146 260.579 102.525 261.216 103.516C263.869 101.252 266.912 97.2538 268.504 93.9635L265.461 92.1591ZM266.912 79.3162C265.072 82.9957 261.853 87.029 258.527 89.5056C259.447 90.1778 260.791 91.4161 261.393 92.2653C264.86 89.5056 268.292 85.3662 270.627 81.1206L266.912 79.3162ZM270.379 81.3328V84.4817H291.819V81.3328H270.379ZM272.29 97.6784V100.19H291.643V97.6784H272.29ZM271.122 101.323V104.33H287.963V101.323H271.122ZM273.705 91.2039V93.1851H289.697V91.2039H273.705ZM273.705 94.4234V96.4047H289.732V94.4234H273.705ZM274.872 78.8562V85.8969H278.693V78.8562H274.872ZM280.003 88.8688V99.0228H283.717V88.8688H280.003ZM283.187 78.8562V85.8969H287.043V78.8562H283.187ZM273.563 84.8708C272.502 87.5243 270.627 90.1071 268.504 91.7699C269.247 92.4068 270.45 93.7866 270.945 94.4588C273.28 92.3714 275.545 89.1164 276.889 85.7907L273.563 84.8708ZM272.29 89.8948V99.5182H275.934V88.1612L272.29 89.8948ZM273.988 87.5243L272.714 90.0717H290.652V87.5243H273.988ZM280.922 85.1893C280.71 86.1445 280.179 87.5243 279.755 88.5504L282.939 89.2226C283.505 88.3735 284.213 87.2059 284.956 85.8615L280.922 85.1893ZM286.972 101.323V101.853C284.284 106.417 277.208 108.363 269.035 109C269.636 109.778 270.485 111.37 270.804 112.255C279.401 111.229 287.185 108.682 290.687 102.596L288.423 101.252L287.751 101.323H286.972ZM277.243 103.905L273.846 105.108C277.314 109.177 283.187 111.406 290.369 112.22C290.864 111.229 291.855 109.672 292.669 108.894C285.911 108.399 280.003 106.842 277.243 103.905ZM316.267 87.5243H325.501V89.3287H316.267V87.5243ZM316.267 82.9603H325.501V84.7293H316.267V82.9603ZM312.163 79.9884V92.3006H329.782V79.9884H312.163ZM310.394 93.8574V97.3246H330.95V93.8574H310.394ZM309.474 99.3413V102.95H331.657V99.3413H309.474ZM322.529 96.9V107.868C322.529 108.292 322.388 108.399 321.857 108.434C321.397 108.469 319.734 108.469 318.248 108.399C318.779 109.46 319.38 111.017 319.557 112.184C321.999 112.184 323.768 112.149 325.077 111.547C326.456 110.946 326.81 109.92 326.81 107.974V96.9H322.529ZM311.845 104.684C313.295 106.205 315.135 108.292 315.913 109.637L319.097 107.373C318.178 106.063 316.302 104.082 314.781 102.702L311.845 104.684ZM306.997 86.7814C304.875 90.2132 301.407 93.7158 298.294 95.9094C298.931 96.9354 299.992 99.3413 300.275 100.261C303.99 97.36 308.13 92.6898 310.712 88.3381L306.997 86.7814ZM306.042 78.9978C304.556 81.3682 301.407 84.2694 298.648 85.9676C299.32 86.8521 300.311 88.5857 300.771 89.541C304.096 87.3828 307.705 83.9156 310.076 80.6252L306.042 78.9978ZM303.495 94.6711V112.184H307.599V90.8501L307.422 90.7439L303.495 94.6711ZM353.664 84.2694L353.699 88.798C358.122 89.2226 364.561 89.2226 368.877 88.798V84.234C365.091 84.6939 358.015 84.8708 353.664 84.2694ZM356.494 99.3766L352.461 99.0228C352.036 100.827 351.824 102.207 351.824 103.622C351.824 107.231 354.76 109.425 360.846 109.425C364.844 109.425 367.71 109.177 370.009 108.717L369.903 103.941C366.825 104.613 364.207 104.896 361.058 104.896C357.449 104.896 356.07 103.941 356.07 102.349C356.07 101.429 356.211 100.58 356.494 99.3766ZM348.215 81.8989L343.262 81.5097C343.227 82.6419 343.05 83.9863 342.908 84.9416C342.519 87.7012 341.458 93.6451 341.458 98.9875C341.458 103.799 342.13 108.115 342.837 110.521L346.906 110.274C346.871 109.778 346.871 109.177 346.835 108.788C346.835 108.434 346.942 107.656 347.048 107.125C347.401 105.25 348.569 101.429 349.595 98.4568L347.401 96.7231C346.871 97.9261 346.305 99.129 345.774 100.332C345.668 99.6243 345.632 98.7398 345.632 98.0322C345.632 94.4942 346.871 87.4182 347.366 85.0831C347.508 84.4463 347.968 82.6419 348.215 81.8989ZM383.1 80.4483V83.7387H408.184V80.4483H383.1ZM379.951 85.8261V89.1518H411.156V85.8261H379.951ZM393.254 81.2621V87.5243H397.641V81.2621H393.254ZM387.876 97.5723H403.019V99.2705H387.876V97.5723ZM387.876 101.818H403.019V103.551H387.876V101.818ZM387.876 93.3974H403.019V95.0603H387.876V93.3974ZM383.595 90.6378V106.276H407.512V90.6378H383.595ZM397.5 107.903C401.144 109.283 404.859 111.087 406.911 112.255L411.652 110.309C409.104 109.035 404.682 107.196 400.931 105.851L397.5 107.903ZM389.645 105.745C387.239 107.196 383.029 108.469 379.279 109.177C380.234 109.92 381.685 111.477 382.392 112.326C386.036 111.264 390.636 109.425 393.537 107.479L389.645 105.745ZM437.444 88.6919V92.5837H451.666V88.6919H437.444ZM424.141 96.8647V99.8366H432.667V96.8647H424.141ZM424.176 101.924V104.931H432.596V101.924H424.176ZM419.471 81.8989V85.4723H437.479V81.8989H419.471ZM441.795 78.9624V88.6919C441.795 94.565 441.512 103.445 435.144 109.283C436.17 109.955 437.656 111.335 438.328 112.184C444.944 105.427 445.899 95.6617 445.899 88.6919V78.9624H441.795ZM446.182 90.8147L442.751 91.31C443.741 100.12 445.439 107.797 449.614 112.22C450.286 111.087 451.666 109.495 452.586 108.717C448.801 105.179 447.032 98.2445 446.182 90.8147ZM446.147 81.2975C447.279 83.208 448.376 85.72 448.73 87.3474L452.268 85.9676C451.843 84.3048 450.64 81.8989 449.473 80.0592L446.147 81.2975ZM426.37 78.9978V90.0717H430.403V78.9978H426.37ZM426.794 98.1383V110.521H429.978V98.1383H426.794ZM424.247 92.8667C424.848 94.1758 425.379 95.9094 425.485 97.0062L427.785 96.2632C427.643 95.1664 427.042 93.4682 426.44 92.2299L424.247 92.8667ZM430.085 92.053C429.872 93.2559 429.306 95.0957 428.917 96.2986L431.075 96.9C431.57 95.8033 432.137 94.2112 432.773 92.6544L430.085 92.053ZM419.895 88.4088V112.078H423.398V91.7699H435.25V88.4088H419.895ZM433.41 88.4088V108.151C433.41 108.505 433.304 108.611 432.95 108.611C432.632 108.646 431.641 108.646 430.721 108.575C431.146 109.495 431.57 111.017 431.641 111.937C433.481 111.937 434.79 111.866 435.745 111.335C436.736 110.734 436.984 109.778 436.984 108.186V88.4088H433.41ZM460.228 84.7647L460.688 89.6118C464.757 88.7273 472.01 87.9489 475.3 87.5951C472.93 89.3995 470.064 93.4328 470.064 98.4921C470.064 106.17 477.069 110.168 484.464 110.627L486.126 105.78C480.147 105.497 474.699 103.375 474.699 97.5723C474.699 93.362 477.918 88.7626 482.164 87.6305C484.074 87.2059 487.117 87.1705 489.028 87.1705L488.992 82.6065C486.48 82.7127 482.624 82.9603 478.944 83.2434C472.47 83.8094 466.632 84.3048 463.696 84.5878C463.023 84.6586 461.608 84.7293 460.228 84.7647ZM483.968 90.6378L481.35 91.7346C482.447 93.2913 483.19 94.7065 484.11 96.617L486.763 95.4495C486.091 94.0343 484.817 91.8761 483.968 90.6378ZM487.895 89.0103L485.348 90.1778C486.48 91.7346 487.294 93.079 488.249 94.9895L490.903 93.7158C490.16 92.336 488.815 90.2486 487.895 89.0103ZM503.569 83.6325L503.816 87.6659C509.194 88.1966 514.077 88.1612 517.721 87.8781C520.799 87.6659 523.877 87.0644 526.424 86.3568L525.858 82.3235C522.922 83.2434 520.02 83.8094 516.801 84.0217C513.051 84.3048 508.734 84.234 503.569 83.6325ZM502.932 91.027L503.18 95.2018C509.548 95.6264 516.447 95.5202 520.905 95.0249C523.771 94.7065 526.389 94.2112 528.512 93.6805L527.804 89.5056C525.752 90.1071 523.099 90.8147 519.277 91.1331C515.032 91.5577 509.3 91.6638 502.932 91.027ZM514.749 84.6232C515.209 86.3214 515.563 87.5951 516.447 90.1071C517.332 92.6898 518.641 95.7679 520.516 98.9167C519.49 98.8106 517.544 98.6337 516.058 98.4921L515.704 101.889C518.287 102.172 522.143 102.596 524.125 103.021L526.247 99.7658C525.611 99.1644 525.151 98.6337 524.655 97.9261C523.028 95.4495 521.294 91.8053 520.445 89.3287C519.525 86.6045 518.641 83.491 518.216 80.0945L513.475 80.6252C513.97 82.0051 514.395 83.3141 514.749 84.6232ZM509.725 99.2705L505.338 98.4214C504.489 100.084 503.746 101.818 503.781 104.118C503.887 109.142 508.274 111.229 515.315 111.229C518.216 111.229 521.471 110.981 523.948 110.592L524.195 106.099C521.648 106.594 518.641 106.842 515.315 106.842C510.609 106.842 508.133 105.78 508.133 103.162C508.133 101.641 508.876 100.438 509.725 99.2705ZM558.868 80.413H554.056C554.198 81.0852 554.268 82.182 554.268 82.8188C554.268 84.8355 554.233 89.3287 554.233 92.7252C554.233 96.1571 554.622 102.49 554.622 104.613C554.622 106.665 553.348 107.196 551.473 107.196C549.032 107.196 547.794 106.382 547.794 105.037C547.794 103.799 549.174 102.844 551.65 102.844C557.7 102.844 562.83 106.276 566.191 109.46L568.739 105.497C565.802 103.021 560 99.1997 552.216 99.1997C546.803 99.1997 543.513 101.712 543.513 105.285C543.513 109.035 546.485 111.194 552.146 111.194C556.78 111.194 559.08 108.858 559.08 105.816C559.08 103.021 558.514 96.617 558.514 92.7252C558.514 89.7533 558.549 84.7293 558.62 82.9249C558.655 82.0051 558.762 81.1206 558.868 80.413ZM544.185 83.7033L544.256 87.772C546.591 88.055 550.695 88.3735 552.959 88.3735C558.266 88.3735 563.892 87.9489 567.5 87.4536L567.536 83.4203C562.37 84.234 557.736 84.4817 552.924 84.4817C550.766 84.4817 546.697 84.1279 544.185 83.7033ZM543.973 91.3454L544.043 95.5202C546.379 95.8033 550.377 95.9802 552.464 95.9802C559.186 95.9802 563.043 95.7679 567.925 95.2018L567.96 91.027C563.609 91.593 559.045 92.0176 552.499 92.0176C550.624 92.0176 546.308 91.7699 543.973 91.3454ZM600.828 80.4837H595.698C595.769 80.9437 595.911 82.1466 596.017 83.5618C596.158 85.4369 596.158 92.2299 596.158 94.4234L600.581 95.9094C600.545 93.079 600.475 85.8615 600.581 83.5264C600.616 82.9603 600.722 81.0852 600.828 80.4837ZM580.803 84.9062L580.909 89.1518C586.252 88.8688 593.292 88.5857 599.732 88.5857C604.932 88.5857 608.541 88.6919 610.735 88.798L610.806 84.6232C608.824 84.5878 603.447 84.6232 599.838 84.6232C595.415 84.6232 586.075 84.9062 580.803 84.9062ZM599.979 95.3787L596.654 94.4588C597.786 98.669 596.335 100.084 594.672 100.084C593.222 100.084 591.913 99.0582 591.913 97.4661C591.913 95.591 593.292 94.6357 594.672 94.6357C596.229 94.6357 597.467 95.7325 597.467 98.0322C597.467 104.224 592.762 106.594 586.747 107.903L590.497 111.654C599.13 109.212 601.854 103.375 601.854 98.7398C601.854 94.3527 599.413 90.9208 594.743 90.9208C590.922 90.9208 587.667 93.5389 587.667 97.5369C587.667 101.853 591.064 104.011 593.788 104.011C597.856 104.011 599.979 101.146 599.979 95.3787ZM633.555 99.9073H637.199L638.119 87.8074L638.296 82.5358H632.458L632.635 87.8074L633.555 99.9073ZM635.395 109.354C637.164 109.354 638.508 108.045 638.508 106.205C638.508 104.365 637.164 103.092 635.395 103.092C633.59 103.092 632.246 104.365 632.246 106.205C632.246 108.045 633.555 109.354 635.395 109.354Z" fill="#323C69"/>
</svg>
