<svg width="986" height="123" viewBox="0 0 986 123" fill="none" xmlns="http://www.w3.org/2000/svg">
<path d="M278 56L809 56" stroke="#FFD600" stroke-width="10.7547"/>
<path d="M199.485 18.752V32.096H205.101V18.752H199.485ZM199.485 47.552V60.32H205.197V47.552H199.485ZM197.853 32.288C195.885 34.352 192.573 37.136 189.885 38.864L193.773 41.072C196.461 39.488 200.013 37.088 203.037 34.688L197.853 32.288ZM208.845 34.736C204.093 38.528 196.221 43.28 190.029 46.16L193.581 48.704C199.773 46.016 207.741 41.648 213.789 37.52L208.845 34.736ZM184.749 39.152C188.397 41.12 193.053 44.144 195.261 46.208L199.581 42.896C197.133 40.736 192.381 37.904 188.781 36.128L184.749 39.152ZM208.941 43.232C212.877 45.584 217.629 49.232 219.885 51.728L224.349 48.8C221.901 46.256 216.957 42.8 213.117 40.592L208.941 43.232ZM208.125 53.168C211.917 55.088 216.861 58.064 219.213 60.032L223.725 56.768C221.037 54.8 215.949 51.968 212.349 50.24L208.125 53.168ZM181.485 45.824L181.677 50.384C190.941 50.288 205.245 49.952 218.541 49.568L218.829 45.392C205.341 45.632 190.701 45.824 181.485 45.824ZM191.325 50.624C188.829 52.832 184.509 54.944 180.525 56.288C181.773 57.2 183.789 59.072 184.749 60.128C188.733 58.352 193.485 55.52 196.509 52.592L191.325 50.624ZM189.981 27.632H214.941V30.128H189.981V27.632ZM189.981 21.056H214.941V23.504H189.981V21.056ZM184.605 16.688V34.496H220.605V16.688H184.605ZM249.837 31.376V37.088H275.853V31.376H249.837ZM259.965 15.44V60.32H265.821V15.44H259.965ZM232.653 29.984V34.304H248.157V29.984H232.653ZM232.941 16.736V21.104H248.253V16.736H232.941ZM232.653 36.512V40.88H248.157V36.512H232.653ZM230.301 23.216V27.776H250.077V23.216H230.301ZM235.293 43.184V47.744H242.973V53.216H235.293V57.776H248.013V43.184H235.293ZM232.509 43.184V59.696H237.501V43.184H232.509ZM283.053 56H305.613V49.088H299.181V20.24H292.893C290.397 21.824 287.901 22.784 284.061 23.504V28.784H290.637V49.088H283.053V56ZM326.511 56.672C332.895 56.672 338.271 52.112 338.271 44.528C338.271 36.8 333.759 33.344 327.807 33.344C325.647 33.344 322.335 34.784 320.607 37.328L320.991 42.848C322.431 40.256 324.399 39.344 326.175 39.344C328.527 39.344 330.495 40.64 330.495 44.528C330.495 48.608 328.575 50.288 326.319 50.288C323.631 50.288 320.943 47.744 320.943 38.432C320.943 29.456 324.015 26.432 327.951 26.432C329.919 26.432 332.127 27.68 333.279 28.928L337.791 23.888C335.535 21.584 332.079 19.616 327.375 19.616C319.983 19.616 313.167 25.52 313.167 38.432C313.167 51.44 319.791 56.672 326.511 56.672ZM357.249 56.672C364.785 56.672 369.873 50.24 369.873 37.952C369.873 25.712 364.785 19.616 357.249 19.616C349.713 19.616 344.577 25.664 344.577 37.952C344.577 50.24 349.713 56.672 357.249 56.672ZM357.249 50.048C354.705 50.048 352.641 47.744 352.641 37.952C352.641 28.208 354.705 26.144 357.249 26.144C359.793 26.144 361.809 28.208 361.809 37.952C361.809 47.744 359.793 50.048 357.249 50.048ZM376.995 18.08V24.896H419.571V18.08H376.995ZM392.547 31.616V38.336H411.171V31.616H392.547ZM408.627 31.616V32.768C408.147 45.44 407.427 51.536 406.035 52.784C405.363 53.36 404.739 53.456 403.731 53.456C402.243 53.456 399.075 53.456 395.859 53.168C397.203 55.088 398.211 58.064 398.355 60.032C401.475 60.128 404.739 60.176 406.755 59.888C409.107 59.6 410.835 59.024 412.419 57.152C414.339 54.896 415.155 49.04 415.827 34.592C415.923 33.728 415.971 31.616 415.971 31.616H408.627ZM387.267 23.936C386.883 35.456 386.979 47.648 374.787 54.656C376.659 56.048 378.771 58.496 379.827 60.416C393.219 51.968 394.179 37.568 394.659 23.936H387.267ZM452.835 15.872V60.272H458.643V15.872H452.835ZM444.675 17.888C443.571 23.792 441.555 29.888 438.963 33.68C440.355 34.304 442.851 35.6 444.003 36.464C446.547 32.24 448.851 25.52 450.195 19.04L444.675 17.888ZM446.499 24.56L445.107 30.176H468.723V24.56H446.499ZM439.827 38.48V44.144H471.027V38.48H439.827ZM436.275 15.44C433.875 22.304 429.795 29.12 425.523 33.488C426.483 34.88 428.067 38.048 428.595 39.44C433.731 33.92 438.627 25.28 441.699 17.12L436.275 15.44ZM431.523 28.688V60.272H436.995V23.264V23.216L431.523 28.688ZM491.859 23.504C494.787 27.152 497.859 32.192 499.107 35.552L504.723 32.528C503.331 29.168 500.259 24.464 497.139 20.96L491.859 23.504ZM476.259 48.752L478.275 54.896C483.699 52.592 490.803 49.616 497.187 46.736L495.843 41.072C488.835 44 481.203 47.072 476.259 48.752ZM504.387 44.432C508.803 49.328 514.659 56 517.203 60.272L522.099 55.52C519.363 51.344 513.219 44.96 508.851 40.4L504.387 44.432ZM510.915 17.984C509.139 37.808 504.195 49.52 488.883 55.28C490.275 56.528 492.675 59.12 493.491 60.416C509.235 53.312 515.043 40.304 517.299 18.56L510.915 17.984ZM481.731 18.176L482.835 49.376L488.835 49.136L487.779 17.936L481.731 18.176ZM548.067 29.648V35.456H568.035V29.648H548.067ZM527.523 52.16V57.968H571.395V52.16H527.523ZM544.803 15.824V55.376H550.995V15.824H544.803ZM594.771 34.08L590.387 33.952C590.067 37.312 589.363 40.992 588.435 44C587.091 48.32 585.875 50.368 584.499 50.368C583.283 50.368 582.003 48.8 582.003 45.568C582.003 41.536 585.715 36 592.499 36C598.035 36 601.171 39.584 601.171 44.608C601.171 49.312 597.971 52.224 593.907 53.216C593.043 53.408 592.147 53.568 590.899 53.728L593.331 57.504C601.395 56.256 605.523 51.488 605.523 44.768C605.523 37.76 600.499 32.256 592.595 32.256C584.307 32.256 577.875 38.592 577.875 45.952C577.875 51.36 580.819 55.296 584.403 55.296C587.891 55.296 590.643 51.328 592.563 44.864C593.683 41.088 594.323 37.344 594.771 34.08ZM633.395 41.888V33.504C633.395 32.224 633.523 31.2 633.587 30.56H629.011C629.139 31.168 629.203 32.224 629.203 33.504V42.016C629.203 49.888 626.515 52.672 620.307 54.816L623.731 58.048C631.475 54.624 633.395 49.792 633.395 41.888ZM621.811 30.816H617.267C617.395 31.808 617.459 32.8 617.459 33.696V45.152C617.459 46.592 617.363 47.904 617.299 48.512H621.779C621.715 47.904 621.619 46.592 621.619 45.152V33.728C621.619 32.448 621.747 31.424 621.811 30.816ZM611.283 36.576V40.928C612.019 40.896 613.139 40.832 614.739 40.832H635.763C637.427 40.832 638.579 40.832 639.283 40.928V36.672C638.387 36.8 637.427 36.896 635.731 36.896H614.739C613.171 36.896 611.859 36.672 611.283 36.576ZM667.859 32.032C667.859 31.072 668.627 30.272 669.587 30.272C670.547 30.272 671.347 31.072 671.347 32.032C671.347 32.992 670.547 33.76 669.587 33.76C668.627 33.76 667.859 32.992 667.859 32.032ZM665.907 32.032C665.907 34.08 667.539 35.712 669.587 35.712C671.635 35.712 673.299 34.08 673.299 32.032C673.299 29.984 671.635 28.32 669.587 28.32C667.539 28.32 665.907 29.984 665.907 32.032ZM661.491 30.752H656.755C656.851 31.328 657.011 32.704 657.011 33.536C657.011 35.488 657.011 38.912 657.011 40.032C657.011 41.536 657.011 51.648 656.979 52.864C656.947 53.696 656.659 53.984 655.827 53.984C655.027 53.984 653.619 53.888 652.275 53.632L652.659 57.6C654.259 57.792 656.147 57.856 657.843 57.856C660.115 57.856 661.203 56.704 661.203 54.848C661.203 52.16 661.203 42.624 661.203 40.032C661.203 38.176 661.203 35.456 661.203 33.568C661.203 32.768 661.395 31.2 661.491 30.752ZM645.811 35.872V40.096C646.707 40 647.923 39.968 648.883 39.968C650.995 39.968 666.387 39.968 668.691 39.968C669.555 39.968 670.803 40 671.795 40.096V35.904C670.931 36 669.555 36.096 668.659 36.096C666.355 36.096 650.835 36.096 648.883 36.096C647.891 36.096 646.771 36 645.811 35.872ZM653.971 44.544L650.323 42.816C649.011 45.536 646.451 49.056 644.307 51.104L647.795 53.44C649.523 51.552 652.499 47.36 653.971 44.544ZM667.699 42.72L664.211 44.608C665.779 46.592 668.051 50.464 669.427 53.216L673.171 51.136C671.891 48.8 669.331 44.768 667.699 42.72ZM679.571 41.184V46.24C680.787 46.144 682.931 46.048 684.723 46.048C688.499 46.048 699.027 46.048 701.939 46.048C703.283 46.048 704.915 46.208 705.683 46.24V41.184C704.819 41.248 703.411 41.408 701.907 41.408C699.059 41.408 688.499 41.408 684.723 41.408C683.059 41.408 680.755 41.28 679.571 41.184ZM720.275 52.96C720.275 54.208 720.179 56.16 719.955 57.408H724.979C724.819 56.096 724.691 53.856 724.691 52.96C724.691 50.592 724.659 38.08 724.659 34.56C724.659 33.216 724.819 31.84 724.947 30.688H719.955C720.179 31.84 720.275 33.408 720.275 34.56C720.275 37.248 720.275 50.496 720.275 52.96ZM723.731 38.976V43.584C727.219 44.736 732.595 46.784 736.243 48.672L738.035 44.224C734.899 42.688 727.987 40.16 723.731 38.976ZM757.843 28.864V33.984H761.779V28.864H757.843ZM746.131 31.648V38.528H749.939V35.008H769.587V38.528H773.555V31.648H746.131ZM748.979 37.536V40.64H770.963V37.536H748.979ZM745.875 47.68V51.008H774.003V47.68H745.875ZM749.491 42.56V45.664H770.323V42.56H749.491ZM761.747 48.352L758.291 49.056C760.755 54.752 764.851 57.792 772.179 58.976C772.659 57.952 773.651 56.416 774.451 55.616C767.795 54.912 763.635 52.576 761.747 48.352ZM757.747 35.712V44.576C757.747 48.864 756.339 53.248 745.267 55.776C746.099 56.576 747.219 58.048 747.635 58.88C759.283 55.744 761.619 50.24 761.619 44.608V35.712H757.747ZM797.139 28.832V39.072H800.947V28.832H797.139ZM790.675 30.304V32.64H807.635V30.304H790.675ZM791.443 33.728V35.936H806.899V33.728H791.443ZM789.875 37.024V39.424H808.275V37.024H789.875ZM795.315 46.4H803.091V47.776H795.315V46.4ZM795.315 49.952H803.091V51.328H795.315V49.952ZM795.315 42.88H803.091V44.192H795.315V42.88ZM791.859 40.512V53.696H806.707V40.512H791.859ZM800.115 55.168C802.003 56.352 804.211 57.952 805.427 58.912L808.755 57.12C807.315 56.096 804.755 54.56 802.675 53.312L800.115 55.168ZM795.443 53.152C793.907 54.4 790.867 55.904 788.307 56.64C789.043 57.28 790.099 58.336 790.675 59.04C793.267 58.208 796.467 56.64 798.419 55.136L795.443 53.152ZM783.187 28.864C782.451 31.072 781.075 34.176 779.955 36.096L782.515 37.152C783.731 35.36 785.203 32.512 786.515 30.016L783.187 28.864ZM786.803 32.64C785.107 36.064 782.195 40.736 779.795 43.616L782.003 44.864C784.467 42.112 787.571 37.664 789.907 34.08L786.803 32.64ZM778.227 36.32C779.827 37.952 781.715 40.224 782.419 41.792L784.499 38.848C783.731 37.344 781.779 35.264 780.115 33.76L778.227 36.32ZM785.907 40.224C787.059 42.432 788.147 45.344 788.499 47.168L791.379 45.888C791.027 44.064 789.811 41.28 788.595 39.136L785.907 40.224ZM778.131 42.88L778.387 46.176C781.427 45.952 785.363 45.696 789.171 45.344L789.139 42.24C785.139 42.496 781.011 42.72 778.131 42.88ZM786.675 48.224C787.379 50.048 787.987 52.448 788.115 53.984L790.963 53.056C790.771 51.52 790.099 49.184 789.331 47.392L786.675 48.224ZM779.507 47.648C779.251 50.336 778.771 53.216 777.875 55.104C778.611 55.424 780.019 56.032 780.659 56.448C781.587 54.4 782.259 51.232 782.579 48.16L779.507 47.648ZM783.027 44.576V58.88H786.323V44.576H783.027Z" fill="#323C69"/>
<path d="M79.292 91.28V95.76C80.188 95.696 81.916 95.632 83.26 95.632H97.66V111.44C97.66 112.624 97.628 113.776 97.596 114.736H102.236C102.172 113.744 102.076 112.08 102.076 110.96V94.384C102.076 93.424 102.14 92.176 102.172 91.408C101.628 91.44 100.316 91.504 99.388 91.504H83.26C82.14 91.504 80.508 91.408 79.292 91.28ZM78.908 108.656V113.264C79.964 113.136 81.756 113.072 83.004 113.072H100.188V108.848H82.876C81.436 108.848 79.996 108.752 78.908 108.656ZM134.556 92.336L131.964 90.384C131.292 90.608 130.044 90.768 128.636 90.768C127.228 90.768 119.036 90.768 117.34 90.768C116.412 90.768 114.428 90.672 113.564 90.544V95.12C114.268 95.056 116.028 94.896 117.34 94.896C118.716 94.896 126.876 94.896 128.22 94.896C127.484 97.168 125.532 100.336 123.42 102.736C120.412 106.064 115.484 109.968 110.3 111.888L113.628 115.344C118.588 113.008 123.42 109.04 127.004 104.912C129.756 101.712 132.124 97.36 133.436 94.32C133.724 93.648 134.3 92.688 134.556 92.336ZM127.42 102.256L124.412 105.232C127.836 108.336 131.324 112.144 133.692 115.44L137.34 112.272C135.26 109.712 130.716 104.944 127.42 102.256ZM151.516 110.96C151.516 112.208 151.42 114.16 151.196 115.408H156.22C156.06 114.096 155.932 111.856 155.932 110.96C155.932 108.592 155.9 96.08 155.9 92.56C155.9 91.216 156.06 89.84 156.188 88.688H151.196C151.42 89.84 151.516 91.408 151.516 92.56C151.516 95.248 151.516 108.496 151.516 110.96ZM154.972 96.976V101.584C158.46 102.736 163.836 104.784 167.484 106.672L169.276 102.224C166.14 100.688 159.228 98.16 154.972 96.976ZM193.916 90.704V108.688H197.628V90.704H193.916ZM200.988 87.44V112.176C200.988 112.784 200.732 112.976 200.124 112.976C199.452 112.976 197.404 112.976 195.26 112.912C195.836 114 196.444 115.76 196.636 116.88C199.58 116.88 201.692 116.752 203.036 116.144C204.316 115.504 204.796 114.448 204.796 112.176V87.44H200.988ZM178.812 106.448V109.68H190.876V106.448H178.812ZM178.812 101.168V104.4H190.876V101.168H178.812ZM182.46 86.8V98.096H186.268V86.8H182.46ZM187.708 95.6V112.368C187.708 112.784 187.58 112.88 187.164 112.912C186.716 112.912 185.308 112.944 184.06 112.88C184.508 113.84 184.956 115.408 185.084 116.432C187.356 116.432 188.86 116.4 189.98 115.792C191.132 115.216 191.42 114.192 191.42 112.432V95.6H187.708ZM176.252 89.136C177.084 91.056 177.948 93.68 178.236 95.344L181.564 94.096C181.212 92.432 180.316 89.936 179.42 88.048L176.252 89.136ZM189.18 87.792C188.764 89.808 187.9 92.56 187.164 94.32L190.364 95.152C191.164 93.488 192.124 90.992 192.988 88.624L189.18 87.792ZM177.5 95.6V116.528H181.148V99.184H189.66V95.6H177.5ZM233.372 88.816C234.844 89.712 236.604 91.088 237.404 92.048L239.548 89.968C238.652 88.976 236.86 87.696 235.388 86.928L233.372 88.816ZM223.868 101.296V104.08H227.132V107.536H223.868V110.352H229.692V101.296H223.868ZM235.9 97.008C234.268 104.784 230.876 110.768 225.244 114.192C225.948 114.8 227.26 116.048 227.772 116.688C233.5 112.656 237.212 106.192 239.196 97.616L235.9 97.008ZM218.14 91.536V100.528C218.14 104.848 217.948 110.768 215.484 114.896C216.252 115.248 217.756 116.24 218.364 116.848C221.052 112.336 221.5 105.328 221.5 100.528V91.536H218.14ZM220.188 91.536V94.928H239.292V91.536H220.188ZM222.556 96.72V99.504H229.404V96.72H222.556ZM222.396 101.296V112.048H224.924V101.296H222.396ZM211.068 89.808C212.924 90.704 215.196 92.112 216.284 93.168L218.588 90.096C217.404 89.04 215.036 87.792 213.244 87.024L211.068 89.808ZM209.564 98.48C211.388 99.28 213.692 100.656 214.748 101.68L217.02 98.576C215.836 97.552 213.5 96.336 211.676 95.664L209.564 98.48ZM209.756 114.32L213.212 116.24C214.556 113.008 215.932 109.168 217.052 105.616L213.948 103.632C212.7 107.504 210.972 111.728 209.756 114.32ZM229.692 87.184C230.076 104.496 231.58 116.72 236.572 116.816C237.852 116.816 239.484 115.536 240.252 109.68C239.676 109.392 238.14 108.432 237.564 107.696C237.372 110.672 237.084 112.272 236.604 112.24C234.876 112.176 233.308 100.272 233.18 87.184H229.692ZM257.052 88.752L252.316 88.24C252.348 90.64 251.996 93.36 251.388 96.24C250.492 100.272 248.092 108.72 244.284 113.84L248.476 115.504C251.804 110.096 254.396 100.976 255.452 96.464C255.772 94.832 256.188 92.848 256.476 91.408C256.668 90.608 256.86 89.584 257.052 88.752ZM268.092 91.728L264.252 93.36C266.556 96.208 268.828 101.968 269.66 105.552L273.724 103.664C272.732 100.592 270.044 94.512 268.092 91.728ZM244.092 95.312L244.476 99.632C245.436 99.472 247.1 99.248 248.028 99.12C249.788 98.896 255.292 98.192 257.212 98.192C259.196 98.192 260.316 98.576 260.316 101.136C260.316 104.272 259.9 108.176 259.004 109.968C258.492 111.024 257.692 111.344 256.604 111.344C255.772 111.344 253.948 111.024 252.7 110.672L253.372 114.896C254.492 115.152 255.996 115.344 257.244 115.344C259.644 115.344 261.404 114.64 262.492 112.4C263.836 109.648 264.284 104.464 264.284 100.688C264.284 96.048 261.884 94.544 258.524 94.544C256.124 94.544 250.076 95.248 247.516 95.312C246.332 95.344 245.244 95.376 244.092 95.312ZM286.556 88.24L285.564 92.112C288.06 92.752 295.164 94.224 298.428 94.672L299.388 90.736C296.572 90.448 289.596 89.2 286.556 88.24ZM286.78 94.672L282.46 94.096C282.268 98.064 281.5 104.336 280.86 107.472L284.572 108.368C284.828 107.728 285.18 107.216 285.756 106.544C287.772 104.112 291.004 102.768 294.62 102.768C297.436 102.768 299.388 104.272 299.388 106.352C299.388 110.448 294.332 112.784 284.7 111.44L285.948 115.632C299.228 116.784 303.868 112.304 303.868 106.448C303.868 102.576 300.604 99.12 295.004 99.12C291.644 99.12 288.444 100.08 285.564 102.192C285.788 100.336 286.332 96.464 286.78 94.672ZM311.036 106.512V109.584H339.964V106.512H311.036ZM317.18 94.608V97.104H336.572V94.608H317.18ZM317.18 98.448V100.944H336.604V98.448H317.18ZM316.412 90.288V93.296H338.172V90.288H316.412ZM324.38 92.176V103.408H328.06V92.176H324.38ZM323.484 104.464V116.848H327.324V104.464H323.484ZM323.196 107.792C320.348 110.256 314.812 112.496 309.948 113.52C310.78 114.32 311.868 115.728 312.412 116.688C317.276 115.28 322.78 112.464 326.076 109.2L323.196 107.792ZM327.74 107.696L324.828 109.136C328.092 112.336 333.468 115.152 338.3 116.528C338.844 115.6 339.9 114.192 340.7 113.424C335.9 112.368 330.492 110.128 327.74 107.696ZM325.98 86.832C325.532 88.272 324.636 90.256 323.836 91.632L327.228 92.304C328.124 91.056 329.276 89.264 330.3 87.344L325.98 86.832ZM317.788 86.768C316.316 89.584 313.692 92.944 310.108 95.536C310.972 96.08 312.22 97.264 312.828 98.128C316.764 94.96 319.58 91.28 321.724 87.536L317.788 86.768ZM314.684 92.24V105.232H339.1V102.32H318.332V92.24H314.684ZM355.004 92.848C353.404 95.248 350.46 97.68 345.948 99.408C346.78 100.016 347.964 101.36 348.476 102.256C353.404 99.984 356.668 97.104 359.1 93.648L355.004 92.848ZM355.9 94.992L353.276 97.872H365.468V94.992H355.9ZM364.316 94.992V95.536C361.116 100.912 352.54 104.368 343.964 105.68C344.636 106.512 345.436 108.08 345.788 109.072C355.004 107.28 364.06 103.44 368.284 96.368L365.692 94.832L365.052 94.992H364.316ZM354.364 97.168L351.036 98.64C355.612 104.08 362.908 107.216 371.708 108.432C372.252 107.344 373.308 105.616 374.172 104.72C365.532 103.888 358.076 101.328 354.364 97.168ZM350.044 106.864V116.88H353.788V110H364.508V116.816H368.444V106.864H350.044ZM351.932 112.752V115.888H366.428V112.752H351.932ZM357.02 86.864V91.408H360.988V86.864H357.02ZM345.308 89.456V96.528H349.052V92.912H368.956V96.528H372.892V89.456H345.308ZM395.804 88.144H391.452C391.58 88.752 391.644 89.744 391.644 90.32C391.644 92.144 391.612 96.208 391.612 99.28C391.612 102.384 391.964 108.112 391.964 110.032C391.964 111.888 390.812 112.368 389.116 112.368C386.908 112.368 385.788 111.632 385.788 110.416C385.788 109.296 387.036 108.432 389.276 108.432C394.748 108.432 399.388 111.536 402.428 114.416L404.732 110.832C402.076 108.592 396.828 105.136 389.788 105.136C384.892 105.136 381.916 107.408 381.916 110.64C381.916 114.032 384.604 115.984 389.724 115.984C393.916 115.984 395.996 113.872 395.996 111.12C395.996 108.592 395.484 102.8 395.484 99.28C395.484 96.592 395.516 92.048 395.58 90.416C395.612 89.584 395.708 88.784 395.804 88.144ZM382.524 91.12L382.588 94.8C384.7 95.056 388.412 95.344 390.46 95.344C395.26 95.344 400.348 94.96 403.612 94.512L403.644 90.864C398.972 91.6 394.78 91.824 390.428 91.824C388.476 91.824 384.796 91.504 382.524 91.12ZM382.332 98.032L382.396 101.808C384.508 102.064 388.124 102.224 390.012 102.224C396.092 102.224 399.58 102.032 403.996 101.52L404.028 97.744C400.092 98.256 395.964 98.64 390.044 98.64C388.348 98.64 384.444 98.416 382.332 98.032ZM412.508 92.08L412.924 96.464C416.604 95.664 423.164 94.96 426.14 94.64C423.996 96.272 421.404 99.92 421.404 104.496C421.404 111.44 427.74 115.056 434.428 115.472L435.932 111.088C430.524 110.832 425.596 108.912 425.596 103.664C425.596 99.856 428.508 95.696 432.348 94.672C434.076 94.288 436.828 94.256 438.556 94.256L438.524 90.128C436.252 90.224 432.764 90.448 429.436 90.704C423.58 91.216 418.3 91.664 415.644 91.92C415.036 91.984 413.756 92.048 412.508 92.08ZM433.98 97.392L431.612 98.384C432.604 99.792 433.276 101.072 434.108 102.8L436.508 101.744C435.9 100.464 434.748 98.512 433.98 97.392ZM437.532 95.92L435.228 96.976C436.252 98.384 436.988 99.6 437.852 101.328L440.252 100.176C439.58 98.928 438.364 97.04 437.532 95.92ZM453.916 110.96C453.916 112.208 453.82 114.16 453.596 115.408H458.62C458.46 114.096 458.332 111.856 458.332 110.96C458.332 108.592 458.3 96.08 458.3 92.56C458.3 91.216 458.46 89.84 458.588 88.688H453.596C453.82 89.84 453.916 91.408 453.916 92.56C453.916 95.248 453.916 108.496 453.916 110.96ZM457.372 96.976V101.584C460.86 102.736 466.236 104.784 469.884 106.672L471.676 102.224C468.54 100.688 461.628 98.16 457.372 96.976ZM480.412 99.184V104.24C481.628 104.144 483.772 104.048 485.564 104.048C489.34 104.048 499.868 104.048 502.78 104.048C504.124 104.048 505.756 104.208 506.524 104.24V99.184C505.66 99.248 504.252 99.408 502.748 99.408C499.9 99.408 489.34 99.408 485.564 99.408C483.9 99.408 481.596 99.28 480.412 99.184ZM524.796 99.024L521.948 101.936C525.692 104.304 531.772 108.784 534.556 111.408L537.628 107.76C534.652 105.392 528.732 101.296 524.796 99.024ZM539.868 93.584L536.604 91.568C535.868 91.792 534.812 91.952 533.82 91.952H524.7L523.228 95.568H534.044C533.436 98.064 531.452 101.744 529.308 104.272C526.556 107.472 522.748 110.832 516.06 112.912L519.772 116.112C525.884 113.808 529.98 110.224 532.988 106.48C535.868 102.928 537.82 98.832 538.78 95.888C539.068 95.088 539.484 94.192 539.868 93.584ZM529.276 88.656L524.636 87.216C524.348 88.336 523.676 89.808 523.196 90.576C521.564 93.36 518.62 97.744 513.02 101.2L516.444 103.856C521.052 100.688 525.148 95.792 527.292 91.92C527.676 91.248 528.508 89.776 529.276 88.656ZM560.764 113.296L563.452 115.504C563.772 115.28 564.156 114.928 564.828 114.576C568.444 112.752 573.02 109.296 575.676 105.84L573.244 102.288C571.068 105.392 567.932 107.92 565.308 109.04C565.308 107.088 565.308 94.896 565.308 92.336C565.308 90.896 565.532 89.616 565.532 89.552H560.796C560.796 89.616 561.02 90.864 561.02 92.304C561.02 94.896 561.02 109.264 561.02 110.96C561.02 111.824 560.924 112.688 560.764 113.296ZM545.948 112.848L549.852 115.44C552.604 113.008 554.588 109.84 555.58 106.256C556.412 103.024 556.508 96.272 556.508 92.464C556.508 91.152 556.732 89.712 556.732 89.584H552.028C552.22 90.384 552.348 91.216 552.348 92.528C552.348 96.368 552.316 102.448 551.388 105.168C550.524 107.92 548.796 110.864 545.948 112.848ZM602.236 99.888V91.504C602.236 90.224 602.364 89.2 602.428 88.56H597.852C597.98 89.168 598.044 90.224 598.044 91.504V100.016C598.044 107.888 595.356 110.672 589.148 112.816L592.572 116.048C600.316 112.624 602.236 107.792 602.236 99.888ZM590.652 88.816H586.108C586.236 89.808 586.3 90.8 586.3 91.696V103.152C586.3 104.592 586.204 105.904 586.14 106.512H590.62C590.556 105.904 590.46 104.592 590.46 103.152V91.728C590.46 90.448 590.588 89.424 590.652 88.816ZM580.124 94.576V98.928C580.86 98.896 581.98 98.832 583.58 98.832H604.604C606.268 98.832 607.42 98.832 608.124 98.928V94.672C607.228 94.8 606.268 94.896 604.572 94.896H583.58C582.012 94.896 580.7 94.672 580.124 94.576ZM636.7 90.032C636.7 89.072 637.468 88.272 638.428 88.272C639.388 88.272 640.188 89.072 640.188 90.032C640.188 90.992 639.388 91.76 638.428 91.76C637.468 91.76 636.7 90.992 636.7 90.032ZM634.748 90.032C634.748 92.08 636.38 93.712 638.428 93.712C640.476 93.712 642.14 92.08 642.14 90.032C642.14 87.984 640.476 86.32 638.428 86.32C636.38 86.32 634.748 87.984 634.748 90.032ZM630.332 88.752H625.596C625.692 89.328 625.852 90.704 625.852 91.536C625.852 93.488 625.852 96.912 625.852 98.032C625.852 99.536 625.852 109.648 625.82 110.864C625.788 111.696 625.5 111.984 624.668 111.984C623.868 111.984 622.46 111.888 621.116 111.632L621.5 115.6C623.1 115.792 624.988 115.856 626.684 115.856C628.956 115.856 630.044 114.704 630.044 112.848C630.044 110.16 630.044 100.624 630.044 98.032C630.044 96.176 630.044 93.456 630.044 91.568C630.044 90.768 630.236 89.2 630.332 88.752ZM614.652 93.872V98.096C615.548 98 616.764 97.968 617.724 97.968C619.836 97.968 635.228 97.968 637.532 97.968C638.396 97.968 639.644 98 640.636 98.096V93.904C639.772 94 638.396 94.096 637.5 94.096C635.196 94.096 619.676 94.096 617.724 94.096C616.732 94.096 615.612 94 614.652 93.872ZM622.812 102.544L619.164 100.816C617.852 103.536 615.292 107.056 613.148 109.104L616.636 111.44C618.364 109.552 621.34 105.36 622.812 102.544ZM636.54 100.72L633.052 102.608C634.62 104.592 636.892 108.464 638.268 111.216L642.012 109.136C640.732 106.8 638.172 102.768 636.54 100.72ZM648.412 99.184V104.24C649.628 104.144 651.772 104.048 653.564 104.048C657.34 104.048 667.868 104.048 670.78 104.048C672.124 104.048 673.756 104.208 674.524 104.24V99.184C673.66 99.248 672.252 99.408 670.748 99.408C667.9 99.408 657.34 99.408 653.564 99.408C651.9 99.408 649.596 99.28 648.412 99.184ZM689.116 110.96C689.116 112.208 689.02 114.16 688.796 115.408H693.82C693.66 114.096 693.532 111.856 693.532 110.96C693.532 108.592 693.5 96.08 693.5 92.56C693.5 91.216 693.66 89.84 693.788 88.688H688.796C689.02 89.84 689.116 91.408 689.116 92.56C689.116 95.248 689.116 108.496 689.116 110.96ZM692.572 96.976V101.584C696.06 102.736 701.436 104.784 705.084 106.672L706.876 102.224C703.74 100.688 696.828 98.16 692.572 96.976ZM727.228 88.976L722.492 88.464C722.524 90.864 722.172 93.584 721.564 96.464C720.668 100.496 718.268 108.944 714.46 114.064L718.652 115.728C722.012 110.32 724.572 101.2 725.628 96.688C725.98 95.056 726.364 93.072 726.684 91.632C726.844 90.832 727.036 89.808 727.228 88.976ZM738.268 92.176L734.428 93.808C736.732 96.656 739.004 102.288 739.836 105.84L743.9 103.952C742.908 100.912 740.22 94.96 738.268 92.176ZM714.268 95.536L714.652 99.856C715.612 99.696 717.276 99.472 718.204 99.344C719.964 99.12 725.5 98.416 727.388 98.416C729.404 98.416 730.492 98.8 730.492 101.36C730.492 104.496 730.076 108.4 729.18 110.192C728.7 111.248 727.868 111.568 726.78 111.568C725.948 111.568 724.124 111.248 722.876 110.896L723.58 115.12C724.668 115.376 726.172 115.568 727.42 115.568C729.82 115.568 731.612 114.864 732.668 112.624C734.012 109.872 734.492 104.688 734.492 100.912C734.492 96.272 732.092 94.768 728.7 94.768C726.332 94.768 720.252 95.472 717.692 95.536C716.508 95.568 715.42 95.6 714.268 95.536ZM737.692 87.76L735.132 88.784C735.996 90.032 736.988 91.92 737.66 93.232L740.22 92.144C739.612 90.96 738.492 88.912 737.692 87.76ZM741.468 86.288L738.94 87.344C739.804 88.56 740.86 90.416 741.5 91.76L744.06 90.672C743.484 89.552 742.3 87.504 741.468 86.288ZM769.084 90.032V111.952C769.084 112.624 768.828 112.848 768.06 112.88C767.292 112.88 764.508 112.912 762.204 112.752C762.812 113.808 763.58 115.696 763.804 116.848C767.1 116.848 769.436 116.784 771.036 116.112C772.572 115.504 773.116 114.352 773.116 112.048V90.032H769.084ZM750.78 96.432V111.344H754.524V96.432H750.78ZM752.38 96.432V100.08H760.636V105.232H752.38V108.88H764.444V96.432H752.38ZM747.836 88.976V92.848H776.828V88.976H747.836ZM785.692 86.672C785.02 89.232 783.708 92.624 782.556 94.8L785.884 95.664C787.1 93.616 788.54 90.48 789.692 87.536L785.692 86.672ZM780.86 93.232L781.148 96.88C784.796 96.656 789.724 96.368 794.428 96.016L794.46 92.688C789.5 92.912 784.316 93.136 780.86 93.232ZM782.748 98.384V116.848H786.3V101.552H792.924V98.384H782.748ZM791.1 98.384V112.912C791.1 113.328 790.972 113.424 790.588 113.424C790.172 113.456 788.892 113.456 787.772 113.392C788.252 114.32 788.796 115.792 788.988 116.816C790.94 116.816 792.38 116.752 793.5 116.176C794.588 115.6 794.908 114.64 794.908 113.008V98.384H791.1ZM784.38 103.216V106.064H793.244V103.216H784.38ZM784.38 107.92V110.768H793.244V107.92H784.38ZM797.404 86.96V96.624C797.404 100.176 798.332 101.264 802.108 101.264C802.844 101.264 805.724 101.264 806.524 101.264C809.5 101.264 810.524 100.112 810.94 95.952C809.884 95.728 808.316 95.152 807.516 94.544C807.388 97.36 807.196 97.84 806.14 97.84C805.468 97.84 803.164 97.84 802.652 97.84C801.436 97.84 801.244 97.68 801.244 96.56V86.96H797.404ZM807.004 88.848C804.892 90.064 801.596 91.504 798.62 92.432C799.036 93.168 799.548 94.32 799.708 95.088C802.876 94.224 806.588 93.008 809.436 91.632L807.004 88.848ZM797.404 101.904V112.016C797.404 115.568 798.364 116.656 802.14 116.656C802.908 116.656 805.884 116.656 806.684 116.656C809.756 116.656 810.78 115.376 811.196 110.864C810.14 110.64 808.604 110.032 807.804 109.456C807.644 112.72 807.452 113.296 806.332 113.296C805.628 113.296 803.228 113.296 802.684 113.296C801.436 113.296 801.212 113.168 801.212 111.984V101.904H797.404ZM807.26 103.248C805.084 104.656 801.66 106.224 798.556 107.216C798.94 107.952 799.484 109.168 799.676 109.904C802.972 108.976 806.844 107.632 809.756 106.064L807.26 103.248ZM790.044 90.192C791.58 92.592 793.116 95.792 793.66 97.84L797.148 96.432C796.54 94.32 794.876 91.28 793.308 88.976L790.044 90.192ZM815.708 92.08L816.124 96.464C819.804 95.664 826.364 94.96 829.34 94.64C827.196 96.272 824.604 99.92 824.604 104.496C824.604 111.44 830.94 115.056 837.628 115.472L839.132 111.088C833.724 110.832 828.796 108.912 828.796 103.664C828.796 99.856 831.708 95.696 835.548 94.672C837.276 94.288 840.028 94.256 841.756 94.256L841.724 90.128C839.452 90.224 835.964 90.448 832.636 90.704C826.78 91.216 821.5 91.664 818.844 91.92C818.236 91.984 816.956 92.048 815.708 92.08ZM837.18 97.392L834.812 98.384C835.804 99.792 836.476 101.072 837.308 102.8L839.708 101.744C839.1 100.464 837.948 98.512 837.18 97.392ZM840.732 95.92L838.428 96.976C839.452 98.384 840.188 99.6 841.052 101.328L843.452 100.176C842.78 98.928 841.564 97.04 840.732 95.92ZM867.996 88.208H863.356C863.42 88.624 863.548 89.712 863.644 90.992C863.772 92.688 863.772 98.832 863.772 100.816L867.772 102.16C867.74 99.6 867.676 93.072 867.772 90.96C867.804 90.448 867.9 88.752 867.996 88.208ZM849.884 92.208L849.98 96.048C854.812 95.792 861.18 95.536 867.004 95.536C871.708 95.536 874.972 95.632 876.956 95.728L877.02 91.952C875.228 91.92 870.364 91.952 867.1 91.952C863.1 91.952 854.652 92.208 849.884 92.208ZM867.228 101.68L864.22 100.848C865.244 104.656 863.932 105.936 862.428 105.936C861.116 105.936 859.932 105.008 859.932 103.568C859.932 101.872 861.18 101.008 862.428 101.008C863.836 101.008 864.956 102 864.956 104.08C864.956 109.68 860.7 111.824 855.26 113.008L858.652 116.4C866.46 114.192 868.924 108.912 868.924 104.72C868.924 100.752 866.716 97.648 862.492 97.648C859.036 97.648 856.092 100.016 856.092 103.632C856.092 107.536 859.164 109.488 861.628 109.488C865.308 109.488 867.228 106.896 867.228 101.68ZM895.036 105.776H898.332L899.164 94.832L899.324 90.064H894.044L894.204 94.832L895.036 105.776ZM896.7 114.32C898.3 114.32 899.516 113.136 899.516 111.472C899.516 109.808 898.3 108.656 896.7 108.656C895.068 108.656 893.852 109.808 893.852 111.472C893.852 113.136 895.036 114.32 896.7 114.32Z" fill="#323C69"/>
<path d="M983.731 14L929 120" stroke="#323C69" stroke-width="5"/>
<path d="M3 14L57.7316 120" stroke="#323C69" stroke-width="5"/>
</svg>
